<?xml version="1.0" encoding="utf-8"?>
<!-- Generator: Adobe Illustrator 16.0.0, SVG Export Plug-In . SVG Version: 6.00 Build 0)  -->
<!DOCTYPE svg PUBLIC "-//W3C//DTD SVG 1.1//EN" "http://www.w3.org/Graphics/SVG/1.1/DTD/svg11.dtd">
<svg version="1.1" id="elephant" xmlns="http://www.w3.org/2000/svg" xmlns:xlink="http://www.w3.org/1999/xlink" x="0px" y="0px"
	 width="608.333px" height="589.583px" viewBox="0 0 608.333 589.583" enable-background="new 0 0 608.333 589.583"
	 xml:space="preserve">
<g id="parts">
	<path d="M428.251,23.785c-0.81-0.45-1.64-0.9-2.479-1.33C429.942,22.105,429.801,22.825,428.251,23.785z"/>
	<path d="M421.492,26.895c0.18-0.15,4.7-1.83,6.76-3.11c0.36,0.19,0.71,0.39,1.05,0.59
		C423.631,26.225,421.622,26.895,421.492,26.895z"/>
	<path d="M605.362,540.275c-27.83-0.65-65.98,5.96-73.23-10.46c-7.859,14.529-17.31,25.869-40.109,27.899
		c19.029-13.37,55.149-59.37,15.689-106.359c16.561,38.199,5.22,75.979-36.61,97.64c-22.399-23.54-35.619-48.11-24.399-74.97
		c-13.12,19.31-20.67,40.1-19.18,55.79c-7.15-23.25-3.381-89.381,45.329-115.07c-31.71,10.57-73.27,52.14-81.949,68
		c1.12-25.311-10.221-34.76-12.21-41.851c1.04,14.65-30.23,64.801-38.351,73.23l-3.49,1.74c-6.17-21.11-12.77-28.061-13.949-94.15
		c-2.681-61.58-8.341-24.74-10.45-129.02c2.31,13.621,27.72,189.26,29.64,193.53c25.37-47.68,32.931-47.68,33.11-106.35
		c-0.18-18.79-0.18-30.12,8.729-40.1c34.53,32.64,114.761,55.27,125.53-12.21c7.25-49.621-24.86-43.95-26.15-36.61
		c-2.5,7.78-6.789,13.34,5.23,26.15c7.4,9.029-9.62,47.75-38.36,31.38c-27.93-17.63-48.71-42.19-33.12-97.63
		c4.24,21.43,7.08,41.26,10.461,64.51c7.96-15.69,15.52-52.53,13.939-88.92c11.97-4.23,5.35-8.96,3.5-41.85
		c-4.05-67.23-29.02-66.08-8.729-81.94c10.579-9.86,18.13,3.36,6.979,17.43c-4.61,4.33,6.24,20.26,8.71,48.82
		c1.51,24.97,19.45-11.88,31.39-20.92c10.721-9.85,73.08-47.63,90.66-48.82c-13.8-19.6-36.479-110.28-111.59-85.43
		c-16.7,5.33-27,8.66-33.08,10.64c17.21,9.85,28.45,23.91,22.62,36.44c-22.12-34.15-33.46-28.48-59.28-27.9
		c-27.069-0.58-74.31-19.47-81.939,20.92c-9.37-13.94-9.37-29.06,8.71-33.13c-103.1-37.5-108.78-11.04-191.78,47.08
		c30.11,28.79,71.67,28.79,109.84,81.94c29,40.89,36.99,17.8,36.62,17.44c4.57-10.14,2.67,6.87,13.94,13.95
		c8.08,5.82,28.13,38.28,24.42-10.47c-1.68-26.84,11.55-36.29,13.939-41.84c1.391-5.78-28.84-24.68-10.449-26.15
		c19.39-2.3,32.619,20.37,19.17,33.13c-13,13.69-12.99,71.35-8.721,81.94c7.061,20.54,31.62-25.27,31.391,34.87
		c0.229,17.79,0.229,53.7,10.46,64.51c-14.01-8.931-29.13-16.48-41.851-83.69c-9.939-4.59-17.51-15.93-17.43-22.66
		c-7.63,1.06-26.53-4.6-34.87-20.93c-35.11,8.77-38.89-49.8-95.9-74.97c-20.45,15.72-21.76,148.06-6.97,170.87
		c16.75,26.23,2.38,101.36,20.92,111.59c-2.28,28-5.08,72.579-5.23,88.909c-30.08-6.869-25.39-121.369-73.23-158.659
		c44.06,82.64,55.4,173.319,10.46,167.38c-45.76-5.391-21.19-101.75-3.48-97.63c-15.83-4.12-47.78,42.3-22.67,108.09
		c4.96,14.38-42.19,39.55-38.36,10.46c4.31-34.83-26.44-65.471-34.87-62.76c23.03,12.25,44.18,86.039-19.17,87.17
		c0.06,28.64,0,45.34,0,45.34h599.771C605.872,555.685,605.362,540.275,605.362,540.275z M249.671,510.635
		c-1.21-16.359-11.63-70.2-13.94-88.92c1.36-30.41-9.98-75.75-8.72-106.35c11.97,40.05,21.42,79.72,33.13,95.89
		C257.872,455.545,248.432,491.445,249.671,510.635z M321.162,559.455l-5.22,1.74c-9.86,5.22-10.63,6.31-22.68-1.74l-3.48,1.74
		c-11.87,2.21-12.82,3.16-24.41-6.971c12.34-39.159,24.63-14.6,24.41,6.971l1.74-1.74c6.27-40.7,22.5-18.55,24.42,1.74l3.47-1.74
		c-1.4-41.47,18.63-22.68,24.42-3.49C334.881,563.355,334.311,564.565,321.162,559.455z"/>
</g>
</svg>
