<?xml version="1.0" encoding="utf-8"?>

<!DOCTYPE svg PUBLIC "-//W3C//DTD SVG 1.1//EN" "http://www.w3.org/Graphics/SVG/1.1/DTD/svg11.dtd">
<svg version="1.1" id="Layer_1" xmlns="http://www.w3.org/2000/svg" xmlns:xlink="http://www.w3.org/1999/xlink" x="0px" y="0px"
	 viewBox="0 0 2113.3279 1695.7059" enable-background="new 0 0 2113.3279 1695.7059" xml:space="preserve">
<g>
	<path d="M39.3279,1668.3405c2.4118-15.0455-2.928-29.2207-4.9821-43.7573c-1.4805-10.4774,3.9263-15.9164,14.6682-14.1411
		c15.1001,2.4954,30.2465,4.4775,45.5949,3.8295c9.5012-0.4014,18.9329,0.6489,28.3919,1.0609
		c4.0804,0.1779,5.8047-1.1786,5.8452-5.2689c0.1319-13.3213,0.3847-26.6415,0.6531-39.9608
		c0.0468-2.3206-0.0994-4.8213,0.6919-6.9189c2.9742-7.8838,1.0685-15.7573,0.2563-23.5897
		c-0.8858-8.5416,0.6295-13.2689,6.4754-15.6222c4.1042-1.6522,8.5603-0.6838,12.8612-0.4269
		c16.7499,1.0011,33.4647,2.6578,50.2667,2.6775c6.1764,0.0072,8.9445-4.6676,11.5554-9.0239
		c1.4005-2.3368,2.7777-3.4388,5.4023-3.4171c18.3047,0.1516,36.61,0.3542,54.9149,0.3428
		c25.3213-0.0161,50.6341,0.8363,75.9352,1.424c23.658,0.5496,47.3064,0.3273,70.9547,0.744
		c2.4903,0.0438,4.974,0.396,7.4639,0.5566c0.9695,0.0625,2.1255,0.3302,2.752-0.6489c0.8576-1.3405-0.3217-2.1735-1.1102-2.9399
		c-2.3879-2.322-4.8771-4.5394-7.2797-6.8467c-3.3656-3.2322-6.368-6.9457-10.0942-9.6785
		c-9.0309-6.6238-8.3014-15.417-6.2323-24.6512c0.2411-1.0759,0.8547-2.2405,1.6471-2.9945
		c10.0926-9.6044,18.1528-21.0133,27.7051-31.0958c5.3028-5.597,5.2246-5.6499,10.9839-0.3516
		c4.0704,3.7444,8.5409,6.741,13.7579,8.8555c4.5248,1.8341,7.3616,6.1359,10.9225,9.3605
		c4.5674,4.1356,8.896,8.5345,13.3472,12.7994c2.6977,2.5847,4.3197,1.9845,4.8896-1.6958
		c3.3499-21.6326,3.2825-43.1807-2.4396-64.4197c-3.0513-11.3254-5.8228-22.5846-4.6213-34.4393
		c0.0992-0.9789,0.1396-2.0645-0.1724-2.9695c-4.2834-12.4213-8.0181-24.9825-13.5299-37.0313
		c-6.2884-13.7462-16.5963-25.4541-20.2-40.4984c-1.0467-4.3699-2.2284-8.7075-3.3682-13.0548
		c-0.9687-3.6946-3.0984-5.9957-7.0522-6.8458c-4.0568-0.8723-7.9773-2.3662-11.981-3.5056c-1.1843-0.337-2.644-1.5933-3.6163-0.127
		c-0.7745,1.168,0.0862,2.5668,0.8092,3.7139c3.5529,5.6355,7.0217,11.3168,11.015,16.6744
		c2.0943,2.8099,5.6505,5.7205,3.7216,9.6127c-1.9887,4.0131-6.4965,3.3082-10.2967,3.453
		c-3.7063,0.1411-7.2706-0.3612-10.7484-1.7902c-3.8809-1.5945-7.8292-2.4175-12.1566-1.4301
		c-6.3681,1.4534-11.8893-0.4258-16.1282-5.485c-2.4007-2.8652-4.4048-2.8865-8.083-1.3256
		c-6.4821,2.7509-10.7798,6.3514-11.5862,13.6283c-0.1896,1.7109-1.4001,3.3713-2.353,4.925
		c-6.2397,10.1743-6.6712,21.2026-5.793,32.7554c0.925,12.1674,2.4861,24.1466,5.5425,35.9568
		c1.2367,4.7788,0.1448,9.6511-0.3808,14.4199c-0.3504,3.1788,0.2025,5.0262,2.9933,7.0371
		c13.5159,9.7383,20.2008,33.2661,14.2224,48.8141c-5.5255,14.3705-21.1205,19.6816-32.822,11.1548
		c-5.1425-3.7474-7.471-9.2933-9.1515-15.1028c-1.2491-4.3182-2.2477-8.6915-4.0446-12.8477
		c-1.648-3.8118-1.5331-7.8768-0.6339-11.8066c2.3576-10.3037,2.232-20.4418-1.1853-30.5126
		c-0.8619-2.5402-0.7596-5.2256-0.5599-7.9198c1.6446-22.1814-0.0598-44.2322-2.7605-66.235
		c-0.2836-2.3102-0.4679-4.7484-1.3564-6.8489c-4.4833-10.597-2.5325-21.677-2.6383-32.5826
		c-0.0541-5.5709,2.7986-9.5725,7.5063-12.7164c4.981-3.3262,11.0624-4.5433,15.5841-8.7202
		c1.831-1.6912,2.479-3.4711,3.1742-5.8119c2.9044-9.7805-1.8204-18.6859-2.6787-28.0023
		c-1.0677-11.5878-2.833-23.0334-7.7411-33.8712c-3.1068-6.8604-2.2337-14.7321-3.8853-22.0399
		c-0.9451-4.1821-0.3549-8.6531-2.3075-12.7025c-0.5827-1.2085-0.3892-2.621,0.1548-3.9011
		c1.8004-4.2367,1.593-8.8018,2.1605-13.2383c0.9607-7.5095,5.6397-13.8994,6.1205-21.7089
		c0.1881-3.0555,3.5947-5.8196,6.6719-7.7504c1.3938-0.8745,3.0441-1.8523,3.7608-3.2135
		c6.0958-11.5795,15.1273-21.9933,14.372-36.3481c-0.1535-2.9178-0.8842-4.6423-3.7709-5.5503
		c-8.7343-2.7473-16.1187-7.8739-23.1581-13.5502c-1.705-1.375-3.4078-2.4811-5.7542-2.655
		c-8.2361-0.6108-12.0678-4.7433-14.6908-12.3486c-2.4437-7.0853-6.1563-13.794-9.844-20.3692
		c-2.7623-4.9248-4.4333-8.8801,0.8864-13.4438c3.332-2.8585,3.6945-7.726,4.1859-12.0302
		c0.8178-7.1633,0.5201-14.2473-1.4106-21.2997c-1.7553-6.4117-3.4177-12.8874-3.4702-19.635
		c-0.0517-6.6428-3.9459-11.7563-6.808-17.3547c-4.652-9.0995-8.3321-19.9366,0.6957-27.1409
		c8.8625-7.0724,6.2175-17.1379,6.3171-26.4305c0.0157-1.4609-0.7899-2.5549-2.0833-3.1718
		c-6.3922-3.0488-10.0589-9.1339-15.1769-13.6005c-1.144-0.9983-2.0283-2.4366-1.5823-3.9981
		c0.5416-1.8964,2.3291-1.3911,3.7896-1.5322c1.8087-0.1747,3.7066-0.2756,5.3727-0.9133c4.3739-1.674,8.5033-1.548,12.3851,1.1218
		c1.9537,1.3437,3.6307,1.4578,5.2652-0.3803c0.1097-0.1234,0.234-0.2761,0.3799-0.319
		c8.2791-2.4338,11.7062-10.6457,18.2137-15.3043c9.1143-6.5247,18.9196-7.4457,29.4763-6.0948
		c16.1242,2.0632,27.691,11.6229,37.5064,23.4406c5.6211,6.7676,11.3373,13.5776,17.5374,19.6242
		c11.5926,11.3054,15.8999,25.9717,21.2764,40.2034c5.4703,14.48,12.0613,28.5375,16.5842,43.3694
		c6.1185,20.0645,11.9931,40.2039,18.1977,60.2412c2.3691,7.6506,3.7993,15.7419,10.2393,21.6861
		c1.6671,1.5388,2.1506,4.9563,2.1937,7.5275c0.077,4.6,2.7013,6.0204,6.5117,6.6667c19.2336,3.2621,38.5103,6.3213,58.0886,5.9825
		c47.8713-0.8279,95.4519-4.8087,142.53-13.8593c16.1843-3.1115,31.9759-7.8057,47.905-11.9467
		c3.325-0.8643,4.3149-3.1691,4.6051-6.2737c1.7678-18.9083,4.1315-37.7416,7.6079-56.418c1.0959-5.8878,2.3314-11.7611,3.8-17.5659
		c4.2228-16.6902,6.8604-33.5849,7.4136-50.8152c0.0997-3.1021-1.1379-5.8226-1.3903-8.7992
		c-0.9668-11.4026,3.6543-20.9033,9.8716-29.8864c2.2011-3.1802,2.3208-9.5068-0.4456-11.9846
		c-3.8633-3.4603-4.6634-7.3442-3.3418-12.1606c0.7426-2.7061,0.932-5.5712,1.2859-8.3752c0.5433-4.3057,3.301-5.7728,6.9286-3.2264
		c2.7008,1.8956,5.262,4.1851,7.3238,6.7504c3.0385,3.7806,4.4453,2.4931,6.2881-1.0218
		c4.2914-8.1855,12.9117-12.3232,20.3963-9.4463c4.5609,1.7532,9.0602,4.1353,12.9183,7.1042
		c3.2711,2.5171,5.2908,2.6683,7.8661-0.488c1.0085-1.2361,2.5327-2.241,4.0259-2.8555c4.0686-1.6742,7.4923,0.1877,7.1949,4.4854
		c-0.6832,9.8728,1.7012,18.7947,5.3603,27.9258c2.7497,6.8616,5.5773,14.4506,2.5247,22.3217
		c-0.6093,1.571-1.0255,3.3638-2.7173,4.0056c-5.6618,2.1477-3.9226,6.5957-3.1024,10.4471
		c0.579,2.7186,1.9395,5.3257,3.2641,7.8162c1.4977,2.8157,2.5548,5.455,0.2017,8.3052c-0.2963,0.359-0.5897,0.9864-0.4802,1.3755
		c2.7126,9.639-3.3257,17.308-5.8513,25.7367c-1.405,4.6891-2.1707,9.3528-2.1143,14.2392
		c0.1189,10.3316,0.1921,20.6675,0.0144,30.9969c-0.0726,4.22,1.9199,4.6375,4.8871,3.137
		c5.3456-2.7031,10.5448-5.6979,15.7784-8.6189c1.4094-0.7865,1.9006-1.9512,1.8354-3.72
		c-1.0299-27.9611-2.4138-55.9087-4.6404-83.7947c-1.3359-16.7301-3.1806-33.4243-5.3107-50.0982
		c-1.5306-11.9812-1.1407-24.2921-3.2614-36.2319c-2.8821-16.2261-4.9082-32.4655-5.6281-48.9464
		c-1.458-33.3763,1.5865-66.1569,11.3082-98.2128c1.4959-4.9326,5.2197-8.204,8.9238-11.1584
		c9.1998-7.3375,18.2938-15.0599,31.2626-14.7113c7.3597,0.1978,13.8069,2.4877,19.0767,7.4553
		c2.9292,2.7612,5.2018,2.7068,7.4296-0.2739c10.1907-13.6357,24.773-23.2438,34.1925-37.6273
		c4.6562-7.1099,12.2375-11.1956,18.891-16.1536c2.2429-1.6714,3.3507-3.3163,3.2593-6.1596
		c-0.7333-22.816-1.366-45.6353-1.9907-68.4546c-0.048-1.7484-0.717-3.2172-1.4655-4.712
		c-1.9869-3.9683-5.4555-7.935,0.4581-11.7226c1.0221-0.6547,0.8098-2.4486,0.6718-3.8032
		c-1.0475-10.2679-2.0457-20.5347-5.7153-30.3229c-0.5965-1.5912-1.5561-2.3975-2.941-3.1063
		c-3.4199-1.7504-4.6118-4.7202-3.9949-8.357c0.6081-3.5853,2.7357-6.0305,6.3005-7.0084c2.1945-0.602,4.7634-0.4549,4.6773-3.9331
		c-0.0771-3.1166-1.8121-4.4402-4.2855-6.0195c-4.7388-3.0258-9.9971-1.3241-14.9109-2.1372
		c-7.9596-1.3172-13.7776-6.0439-20.4304-9.4748c-6.3544-3.277-11.0994-8.6671-16.555-13.098
		c-2.4486-1.9887-4.8972-4.347-6.8739-6.8737c-2.8308-3.6185-4.8705-7.7441-10.4947-7.7523
		c-1.8885-0.0027-3.6408-1.7357-4.0324-3.9495c-0.4487-2.537,2.705-2.0338,3.5706-3.9543c-3.5696-1.818-2.9324-5.5098-3.8207-8.556
		c-1.6741-5.7408-5.6935-10.3523-7.2921-16.2818c-0.8441-3.1312-1.6669-6.0455-0.9929-9.0351
		c1.485-6.5882,0.2325-12.954-0.3404-19.4935c-0.6794-7.756,1.0786-15.3941,3.3933-23.0104
		c1.5856-5.2173,6.9077-8.575,6.3839-14.6223c-0.1186-1.3684,1.8253-1.7363,3.0069-2.3032c4.1251-1.9792,5.89-5.8667,8.3997-9.3832
		c3.637-5.0961,6.2709-11.1185,11.6641-14.8687c1.438-0.9999,2.982-1.0369,4.7271-0.995c5.21,0.1252,7.7641-2.9362,7.6449-8.044
		c-0.2486-10.6463,2.158-15.6852,13.0381-18.5616c4.6279-1.2235,5.5607-4.3412,2.0412-7.435
		c-1.5671-1.3775-2.0814-2.7247-2.2928-4.6432c-0.5016-4.5507-1.9913-5.4411-6.2065-3.8033
		c-1.2861,0.4997-2.9412,1.3326-3.7877,0.5815c-3.7134-3.2945-9.0397-1.2767-12.7775-4.1776
		c-0.131-0.1017-0.3161-0.291-0.4128-0.2574c-5.9831,2.0753-10.387-1.6536-15.4818-3.6178
		c-3.4154-1.3167-5.6141-2.4234-6.023-6.0465c-0.3294-2.9179-0.9832-5.3016-4.1821-6.7172
		c-2.5118-1.1114-3.0143-3.8512-2.1568-6.5149c0.714-2.2178,1.4846-4.43,2.4243-6.559c0.9601-2.1751,0.818-3.7261-1.51-4.9312
		c-1.1237-0.5816-2.5828-1.6007-2.8018-2.649c-0.7851-3.7574-3.3845-3.4989-6.0873-3.2483
		c-4.3278,0.4012-8.0106-0.3266-9.6503-5.0687c-0.3408-0.9855-1.1809-1.663-2.2184-1.8366
		c-4.1395-0.6927-6.7568-4.5195-9.9254-5.7752c-6.8708-2.7227-8.1531-10.6508-14.6842-13.2074
		c-2.3677-0.9268-3.7147-3.5911-3.1991-6.2824c0.6554-3.421-1.1204-4.7937-3.7928-6.0081
		c-1.8013-0.8185-3.5422-1.9111-5.0585-3.1814c-2.1472-1.799-3.7425-4.2019-2.1747-6.9924
		c1.8724-3.3329,0.3507-4.8488-2.4092-6.2002c-2.5823-1.2644-4.6114-3.2779-6.5399-5.3499c-1.736-1.8651-3.8732-4.5467-2.8981-6.593
		c3.0283-6.3548-1.9937-8.837-4.9748-12.4492c-3.4102-4.132-7.2935-8.1518-3.2201-14.1239
		c1.2293-1.8023-0.5454-3.0856-1.7521-4.1618c-2.91-2.595-5.1896-5.6568-6.7961-9.1726c-1.5438-3.3785-2.2468-6.7452,1.5907-9.2717
		c2.3896-1.5733,0.978-3.1334-0.1074-4.5956c-2.2822-3.0741-4.855-5.9633-6.4032-9.5096c-0.7972-1.8261-1.5408-3.8404-0.0043-5.6618
		c1.6212-1.9217,3.665-1.0549,5.5694-0.5342c5.5815,1.5263,9.1922,5.8175,13.2489,9.4943c2.5856,2.3435,4.452,5.9633,9.1556,4.3911
		c1.5636-0.5226,2.7249,1.6012,4.0062,2.6266C854.382,67.988,869.396,77.438,885.471,83.8969
		c17.5961,7.0701,32.4604,17.3087,46.3823,29.5628c2.3892,2.103,4.2878,4.6479,5.824,7.4469
		c2.5432,4.6338,2.2372,9.1079-1.4566,12.8704c-3.2792,3.3403-2.5529,5.9257,0.3784,8.9427
		c6.4883,6.6781,15.2303,8.6523,23.5369,11.4454c3.3344,1.1212,5.2027-1.5135,6.4285-4.2411
		c2.9614-6.5891,2.1441-13.5959,2.0892-20.5073c-0.0078-0.9897-0.2924-1.974-0.3591-2.9669
		c-0.3828-5.7031-1.4544-6.8642-6.9125-6.0496c-2.9432,0.4392-3.9108-0.7043-4.4867-3.1776
		c-1.2154-5.2194,0.4293-9.1152,5.5306-12.7578c5.1816-3.6998,5.2381-4.5287,0.7108-8.9814
		c-2.0802-2.0459-3.9639-4.3525-2.8625-7.4561c1.1566-3.2587,3.8536-4.3305,7.1972-3.9389c3.7318,0.4371,5.678,0.1951,5.3447-4.9857
		c-0.209-3.2485,3.7446-6.5637,2.7131-10.8775c-0.2015-0.8427,1.3094-2.0206,2.6578-1.4596
		c1.3235,0.5506,2.491,1.9759,1.5691,3.1436c-2.3485,2.9745-1.0953,5.2092,0.8167,7.5567c0.3018,0.3704,0.6897,1.0132,0.5602,1.3416
		c-2.4994,6.3337,1.9183,6.2003,6.0094,6.6829c2.5935,0.306,4.0416,2.1724,4.5364,4.7023c0.6036,3.087-1.2096,5.0638-3.353,6.7544
		c-5.3057,4.185-5.4989,4.2978-0.9015,9.6075c2.6578,3.0696,2.4153,6.6864,2.1592,9.9326c-0.6719,8.52,2.3451,16.38,3.4775,24.5589
		c0.1597,1.153,0.5718,2.2785,0.6599,3.4325c0.4397,5.7579,1.4167,6.4863,5.8063,3.0492c3.7675-2.9499,8.3115-3.2356,12.4423-4.8272
		c5.1099-1.9688,7.8223-6.1564,10.5701-10.2194c1.8539-2.7415,1.0842-5.7335-1.8992-7.822
		c-8.4708-5.9298-8.8354-13.0305-1.4246-20.5627c7.496-7.6186,17.0536-12.1204,25.85-17.7965
		c10.6261-6.8568,22.6575-11.3195,32.5192-19.512c3.7412-3.108,7.1439-6.4635,10.4598-9.977
		c2.0304-2.1513,4.089-4.0151,6.9302-0.518c1.9261,2.3707,3.5845-0.0293,4.9175-1.3085
		c6.7516-6.479,12.4092-13.9203,18.3613-21.1023c1.8025-2.1749,3.5015-4.5099,6.1621-5.739
		c1.3354-0.6169,2.8142-1.3447,4.1927-0.0889c1.2095,1.1017,1.3799,2.4801,1.1217,4.103
		c-0.7379,4.6382-3.7294,8.1539-5.9531,12.0126c-1.5206,2.6389-2.1531,4.676,0.3013,7.0612
		c2.0099,1.9533,1.4272,4.2957,0.1198,6.4288c-1.4794,2.4135-2.8628,4.9338-4.6694,7.0877
		c-2.8911,3.4469-5.3024,6.4645-2.4948,11.4584c1.3815,2.4571-0.9186,5.4384-2.6368,7.6867
		c-1.692,2.2141-2.0431,4.1238-0.8346,6.8393c2.1564,4.8458-1.588,7.897-4.5284,10.634c-2.2634,2.107-3.5378,3.6465-1.5891,6.5882
		c1.2823,1.9355,0.5658,4.1357-0.9788,5.4644c-2.736,2.3535-4.4033,4.8288-3.1088,8.5326c0.0518,0.1481,0.0757,0.3999-0.0083,0.4877
		c-3.9757,4.1555-2.8862,10.7063-6.9836,14.7779c-0.8951,0.8895-1.431,1.8078-1.2906,3.0737
		c0.0551,0.4965,0.3457,1.2273,0.1232,1.4555c-3.7939,3.8907-5.7898,9.0157-9.8954,12.8865
		c-5.4174,5.1075-14.4993,7.0727-15.6526,15.9853c-0.6436,4.9736-0.5167,10.027-2.4619,14.7817
		c-0.1708,0.4174,0.001,0.9908,0.0641,1.4854c0.6158,4.8266-6.1915,3.5834-6.1676,6.881c0.0402,5.5529-3.1283,5.378-6.8524,5.1436
		c-0.166-0.0105-0.4237-0.1115-0.4839-0.04c-3.3081,3.9275-8.3418,4.487-12.5662,6.6273c-1.2012,0.6086-2.2626,2.5454-3.6658,2.0323
		c-6.6285-2.4239-13.3512,0.9232-19.9294-0.578c-2.463-0.5621-3.0192,0.4725-2.6671,2.6137
		c0.1892,1.1507,0.1735,2.3769,0.5801,3.4432c2.1531,5.6473,1.3344,11.0612-1.1621,16.3375
		c-1.8068,3.8185-0.2795,6.0042,3.3239,7.3028c3.1342,1.1296,6.1885,2.652,9.4188,3.3075
		c6.1116,1.2402,8.0809,6.3511,10.7726,10.7748c0.8436,1.3864,1.0848,3.5686-0.772,4.4092c-1.9835,0.898-2.1082-1.4915-3.0272-2.491
		c-4.3569-4.7384-10.5873-6.4324-15.8875-9.6397c-1.7667-1.0692-2.2203,0.7328-2.5295,1.997
		c-1.132,4.6254,0.8134,8.3947,5.6095,8.5477c7.2191,0.2302,11.3881,6.5142,17.8794,7.8241
		c6.516,1.3148,8.4968,7.1686,11.9067,11.6752c1.8876,2.4948,4.3766,4.5414,6.6429,6.74c1.0758,1.0436,2.7269,1.9934,2.4291,3.5725
		c-1.2859,6.8188,3.9813,10.0997,7.4064,14.4225c3.8289,4.8325,8.3062,9.2808,9.073,15.9342
		c0.1798,1.5598,1.3218,3.0137,2.0453,4.5045c0.6677,1.3759,1.5837,3.1311,0.4581,4.2238
		c-4.1295,4.0085-1.8422,8.3963-1.0027,12.6206c0.9908,4.9863-1.2723,22.8283-3.8193,27.2065
		c-0.8909,1.5315-1.1519,3.239-0.9354,4.8247c0.8091,5.9268-1.4633,11.412-4.9039,15.2913
		c-3.572,4.0272-5.7263,8.3771-7.728,13.0671c-0.5924,1.3882-1.5034,1.2856-2.835,0.9677
		c-3.9349-0.9396-6.7744,0.2148-8.0028,4.4778c-0.3374,1.1708-1.3564,2.4408-2.4163,3.0599
		c-7.1116,4.1545-12.641,10.0857-18.2876,15.899c-1.3052,1.3438-2.8097,2.7278-4.7008,2.5604
		c-10.182-0.9019-17.6327,5.9575-26.3875,9.0804c-1.2676,0.4521-1.7354,1.4586-1.7,2.7503c0.036,1.3142,0.7258,2.2508,1.8798,2.7016
		c1.2312,0.481,2.6057,0.607,3.8179,1.1227c5.7986,2.4667,7.5562,9.678,2.5815,13.3405c-4.1309,3.0412-4.5303,7.1268-5.1991,11.0665
		c-1.0825,6.3769-1.3188,12.9067-1.7412,19.3832c-0.2728,4.1816-0.3137,8.296,3.558,11.3676
		c1.8193,1.4435,1.3695,3.4759-0.0031,5.3618c-2.0994,2.8843-3.2579,6.1371-3.1647,9.7737
		c0.5161,20.1573,0.9546,40.317,1.568,60.4713c0.2107,6.9255,3.7961,9.0753,10.2345,6.3484
		c5.9333-2.513,11.8601-5.0632,17.6531-7.8785c4.3143-2.0967,9.1805-1.5137,13.5295-3.2552
		c0.401-0.1606,1.2856-0.1017,1.3828,0.1116c2.2657,4.9753,6.1716,2.066,9.5061,2.0891c8.0564,0.0557,15.3915,1.8157,21.009,8.3483
		c1.4114,1.6414,2.5386,5.6931,6.507,2.2979c1.8317-1.5671,1.7068,1.0228,1.8156,2.1301c0.3818,3.8843-0.3971,8.3824,5.3397,9.1609
		c0.7676,0.1041,1.1439,0.9435,0.8229,1.5261c-2.5295,4.589,1.6077,10.23-0.7296,13.6505
		c-2.7057,3.9595-0.0645,9.9673-5.4874,12.3402c-0.3439,0.1504-0.759,1.0087-0.6243,1.2536
		c2.7708,5.0358-2.038,5.2696-4.1854,7.7209c-3.0919,3.5295-5.8865,7.419-7.3838,12.5407
		c-2.9135,9.9651-3.4236,20.7618-9.214,29.8107c-1.5846,2.4765-1.1442,4.4841,0.1899,6.8961
		c2.8004,5.0634,4.2864,10.8457,8.7136,15.0101c2.4423,2.2972,4.8307,4.4691,8.0726,5.7037
		c3.326,1.2667,5.8931,3.4915,7.5319,6.9003c2.5402,5.2844,11.4758,6.8542,16.2164,3.2924
		c13.9478-10.4797,16.9766-24.8647,14.4071-40.9839c-2.3811-14.9375,4.6946-26.6451,18.8115-31.9207
		c12.691-4.7428,22.6572,0.6081,31.2129,8.2982c13.8771,12.4731,19.3115,29.5381,22.2036,47.4438
		c2.9177,18.064,5.9613,36.1179,8.3367,54.2564c2.6163,19.9786,4.7697,40.0466,3.7562,60.2594
		c-1.2112,24.1565,1.4404,48.1346,2.7966,72.1826c0.4178,7.4114-0.6533,14.9388-1.2504,22.3633
		c-1.4453,17.9733-2.2108,36.0007-1.0786,53.9142c0.9459,14.9666-0.3601,29.9744,1.5729,44.8893
		c0.3431,2.647,0.8949,4.3291,3.5901,5.1146c6.075,1.7706,12.129,3.6216,18.1448,5.5834c3.4703,1.1317,4.8035,0.4155,5.4243-3.5604
		c5.0308-32.22,9.8733-64.4814,15.7223-96.5572c4.4598-24.4583,13.1924-47.7589,22.0621-70.9365
		c1.249-3.264,2.994-6.4528,3.566-9.8359c0.9999-5.9125,3.155-11.1233,6.923-15.7384c1.0779-1.3204,1.7532-2.7758,1.1127-4.6133
		c-2.0441-5.8633-0.0463-11.1743,2.5073-16.3206c1.9773-3.9849,4.3115-4.6879,7.3392-1.4142
		c3.3707,3.6447,6.3485,3.8975,10.7944,2.11c4.8839-1.9635,10.4181-1.6165,15.6385-2.6716
		c4.9973-1.0102,8.4135,3.4051,11.6473,6.6948c2.9163,2.9666,4.7512,5.055,8.3323,0.1647c3.5247-4.8132,10.1211-4.447,15.475-5.8917
		c2.0138-0.5433,3.4923,1.8351,3.7518,3.9489c0.7926,6.4552,0.5505,13.0901-4.1274,17.9048
		c-3.4672,3.5685-2.4745,5.6835,0.0649,8.6962c6.4187,7.6146,10.9673,16.3882,15.1006,25.3716
		c1.677,3.6446,1.6084,7.4907-0.0013,11.1774c-6.5541,15.0097-7.3185,31.033-7.8844,46.9993
		c-0.2683,7.5731,4.9269,12.9917,10.3502,17.3657c3.5518,2.8647,5.0776,5.3482,3.3193,9.6566
		c-1.3984,3.4263-1.3066,7.1544-1.8392,10.7631c-1.1824,8.0128-2.5464,16.1448-9.5321,21.6884
		c-1.2245,0.9717-2.048,2.2012-2.3088,3.7419c-2.5004,14.7733-5.8676,29.4065-7.1449,44.3782
		c-0.2029,2.3771,0.2095,4.418,1.363,6.6438c1.599,3.0852,2.1913,6.364-0.1091,9.8699c-3.5392,5.3933,0.0562,14.0952,6.0781,16.2109
		c37.7596,13.2667,76.995,18.3596,116.6392,21.3292c28.0823,2.1038,56.1548,4.1202,84.3501,3.9277
		c25.6854-0.1754,51.223-1.8997,76.5836-6.0403c5.4283-0.8864,7.6466-3.7366,6.335-8.9116
		c-0.939-3.7048,0.7692-6.6238,2.3567-9.4071c2.9529-5.1776,4.8553-10.3979,4.1992-16.4965
		c-0.3584-3.3331,0.701-6.5809,2.0018-9.6996c1.2893-3.0911,2.5272-6.4568,1.8575-9.6799
		c-2.252-10.8374,0.2102-21.1035,2.6274-31.5348c1.8987-8.1925,1.7214-16.7105,4.1567-24.9473
		c3.97-13.4274,11.8676-24.8872,17.4664-37.4737c0.7365-1.6555,2.3927-3.1814,1.8488-5.0347
		c-2.296-7.822,2.3582-13.5837,5.9595-19.3786c5.4529-8.7743,12.2953-16.5439,19.6361-23.8349
		c0.5903-0.5862,1.1969-1.5444,1.8625-1.6061c6.37-0.5891,6.6237-5.457,7.6453-10.1588c2.0565-9.4653,7.9138-15.5624,17.3934-17.88
		c1.7809-0.4354,2.9659-1.2834,3.9977-2.6725c0.5817-0.7832,1.3916-2.0139,2.0824-2.0031
		c6.3794,0.0992,9.4735-5.1102,14.0431-8.0305c5.4348-3.4733,12.3771-2.8693,18.6625-4.0363
		c1.0837-0.2012,2.39,0.4887,3.3579-0.3765c6.9624-6.2237,17.0181-5.6068,24.3809-11.0834
		c1.9412-1.4439,4.9298-3.1612,7.2478-0.5089c2.0956,2.3978,0.5638,5.0361-0.6379,7.4423
		c-0.2974,0.5952-0.6339,1.1758-1.0032,1.7293c-2.0164,3.024-3.4899,5.162,2.3508,5.488
		c6.0355,0.3369,10.0178,4.9429,13.3997,9.5574c1.6609,2.2665,2.8325,2.46,5.2275,1.0217
		c5.5267-3.3192,11.8206-5.3516,16.4266-10.2116c1.2384-1.3068,2.9012-2.5082,4.9001-1.3986
		c1.7874,0.9921,2.2432,2.7599,2.2715,4.7003c0.1481,10.138-3.9799,18.4777-11.1309,25.3149
		c-2.7251,2.6055-4.9645,5.1042-5.7123,8.9773c-0.6874,3.5601-4.0007,6.6286-4.488,9.6467
		c-0.953,5.9019-0.5269,12.3602,3.5509,17.626c6.2039,8.0114,6.3455,9.5618,1.0642,18.6509
		c-0.7172,1.2344-1.0222,2.3611-0.8923,3.7451c0.3041,3.2435-0.9821,5.855-3.4575,7.8873c-2.733,2.2435-3.6732,4.9941-4.0388,8.6138
		c-1.3922,13.7819-0.0367,27.6662-1.9039,41.4238c-0.5905,4.3511,0.6646,8.6019,2.899,12.4485
		c0.8575,1.4763,1.9386,3.1469,1.0258,4.6664c-3.2024,5.3304-4.5994,11.8022-9.8346,15.8549
		c-1.2184,0.9431-2.3721,1.9449-2.558,3.5428c-1.0997,9.4569-8.077,13.5836-15.6505,16.9446
		c-2.2833,1.0133-3.2916,2.4336-4.0724,4.5739c-3.8956,10.6796-8.205,21.1494-16.2831,29.5308
		c-1.7091,1.7733-1.6119,3.9579-1.2324,6.1196c1.6393,9.3373,2.8231,18.7552,4.348,28.0878
		c1.4714,9.0062,6.6798,16.9688,11.7153,24.5389c4.9607,7.4578,8.9375,15.1792,10.9186,23.9022
		c0.7366,3.2428,1.1793,6.571,3.3796,9.2843c1.0403,1.2827,0.9243,2.7799,0.6372,4.292
		c-1.2509,6.5883-0.4503,13.3285-3.6589,19.8763c-2.1074,4.3009-0.0797,10.1312-1.0283,15.2817
		c-1.7777,9.6525-6.4294,18.5547-7.0309,28.5327c-0.3289,5.458-1.491,10.8665-2.2908,16.2952
		c-0.3073,2.085-0.0809,4.0367,1.5851,5.5074c2.8616,2.5261,4.5361,5.9479,5.517,9.3541
		c1.7109,5.9427,5.5294,10.0742,9.7552,14.1523c3.2245,3.1117,6.3428,6.3357,9.3688,9.6687
		c4.6431,5.1143,5.4658,10.9849,4.4944,17.2151c-0.6744,4.3267-0.882,8.5669-0.6515,12.9055
		c0.188,3.5365-0.5039,7.0776-1.9734,10.2323c-9.0687,19.4681-11.8777,40.2924-11.7538,61.322
		c0.0706,11.955-3.0487,22.1747-9.0956,31.9478c-2.4663,3.9861-2.5979,8.0148-2.5439,12.7251
		c0.178,15.5189-3.6431,30.1838-15.5603,41.0574c-11.9551,10.9082-31.1512,4.4021-35.3539-11.2471
		c-3.5254-13.1273-0.7223-25.5723,6.1821-36.8865c3.3479-5.4862,9.4415-8.413,15.3928-10.5997
		c3.3754-1.2401,4.4128-3.1616,4.1991-6.3047c-0.2482-3.6466-0.6532-7.2834-0.8635-10.9318
		c-0.3259-5.6545,1.6329-10.7338,4.3124-15.5497c4.4733-8.0404,6.5697-16.7786,8.9303-25.6194
		c3.5811-13.4117,0.1-26.3093-0.4412-39.425c-0.1108-2.6853-1.0535-4.3-4.2006-4.2729c-5.1986,0.0448-10.2502-0.9858-15.1646-2.7715
		c-1.3531-0.4917-2.9904-0.6924-4.4006-0.4546c-8.0229,1.3519-15.4486-0.4805-22.5896-3.954
		c-1.7571-0.8546-3.3014-1.0176-4.1436,1.0103c-2.2517,5.4215-7.5253,7.9498-11.5532,11.467
		c-3.3402,2.9167-6.2526,5.8004-8.3333,9.6481c-1.9546,3.6145-5.7375,4.9039-9.2247,2.9425
		c-3.6178-2.035-3.3953-4.7595-1.9325-8.4761c2.2222-5.6458,3.2064-11.7301,5.9714-17.2683
		c1.6101-3.2249-1.1155-2.8792-2.7728-2.1259c-4.391,1.9956-8.4316,5.1636-12.9998,6.2854
		c-9.8331,2.4146-12.3513,8.1129-12.6404,17.896c-0.3875,13.1034-4.9368,25.3414-14.5055,35.2705
		c-7.0126,7.2766-12.0365,15.613-9.3064,26.5038c1.6877,6.7325-1.8038,12.4996-4.1528,18.1954
		c-6.7743,16.4259-7.4197,33.6802-8.0529,50.9929c-0.0913,2.4934,0.0177,5.001,0.1592,7.4949
		c0.2987,5.2618,1.149,5.7347,5.5082,3.1232c6.5634-3.9321,13.4623-7.3433,19.3662-12.3064
		c3.5018-2.9438,6.0632-2.598,8.2224,1.7029c1.8632,3.7108,4.1302,7.236,6.4172,10.7126
		c3.1058,4.7209,5.8778,9.2872,10.6239,13.2045c12.7305,10.507,12.4512,33.2985-3.8182,41.1044
		c-6.1443,2.9478-11.9254,6.6576-17.8402,10.0752c-1.5261,0.8817-3.3646,1.5046-3.9509,3.5223
		c1.0616,1.4318,2.4913,0.7437,3.6975,0.7242c49.9851-0.8063,99.9678-1.7708,149.9547-2.416
		c15.988-0.2063,31.9865,0.4578,47.9808,0.6445c4.5021,0.0525,8.053,1.4009,10.2754,5.6448
		c2.3657,4.5177,6.6307,4.7981,11.1704,4.9213c26.0018,0.7056,51.9698-1.3168,77.9675-0.8275
		c9.7117,0.1829,12.858,5.0968,8.4463,13.9401c-3.7806,7.5782-5.8279,15.3032-5.3247,23.9609
		c0.8118,13.9633,0.7311,27.9763,1.1925,41.963c0.2272,6.8915,2.0137,8.4861,8.7751,8.6326
		c30.0026,0.6499,59.9633,0.4794,89.7223-4.1949c5.3953-0.8474,9.707,4.1718,8.321,9.4337c-0.252,0.9569-0.6572,1.9008-1.145,2.7638
		c-5.3574,9.4755-6.6936,19.608-5.6792,30.349c0.4097,4.337,1.3862,8.9393-0.8088,13.2157
		C1393.9945,1668.3405,716.6612,1668.3405,39.3279,1668.3405z M632.2249,1213.5374c-0.3381,5.2585-1.0226,10.8035,4.6242,15.9009
		c9.1857,8.2919,19.0125,15.652,28.8669,23.0321c12.0034,8.9899,24.5173,17.2203,37.4036,24.8876
		c2.3274,1.3848,5.1069,2.0592,4.8923-1.6648c-0.662-11.4919,3.5025-23.2203-1.7028-34.499
		c-1.9513-4.2279-3.3397-8.7261-5.4299-12.877c-3.3718-6.6963-4.9689-13.7374-5.1995-21.1635
		c-0.0826-2.663,0.1113-5.3921-0.4041-7.9747c-2.9031-14.5438-0.7369-28.4666,4.7408-42.0406
		c1.9662-4.8727,4.5768-9.5405,2.258-15.1998c-0.8484-2.0708,0.0739-4.5869,0.7097-6.8608c0.4879-1.7446,1.2968-3.647,0.4493-5.3744
		c-4.9792-10.1486,0.0087-17.1354,5.9885-25.1716c4.7701-6.4108,9.26-12.7955,15.1967-18.2161
		c7.1226-6.5032,10.2136-16.3938,18.2989-22.2068c1.6169-1.1626,2.0807-3.3627,2.6343-5.2938
		c1.374-4.7922,0.6236-5.7772-4.2651-5.2751c-8.943,0.9186-17.8622,2.0944-26.8167,2.8711
		c-39.0516,3.3871-78.1859,3.623-117.3344,2.655c-26.6277-0.6583-53.2488-1.5975-79.8696-2.5094
		c-4.6525-0.1594-9.2876-0.8146-13.9326-1.2194c-0.8151-0.071-1.7271-0.1913-2.2679,0.6173
		c-0.7053,1.0547-0.0562,1.9336,0.6249,2.6541c5.9835,6.329,10.5377,13.7515,18.1897,18.8402
		c8.0219,5.3346,16.5596,7.8901,25.6277,8.3374c16.0729,0.7928,31.3527,4.0237,45.1522,12.3992
		c17.6636,10.7208,25.7474,28.7114,33.4644,46.5852c4.7101,10.9094,6.0374,22.7523,5.4811,34.6842
		c-0.2343,5.025,0.1368,9.9723,1.1232,14.9009C631.9418,1200.4172,632.3908,1206.5519,632.2249,1213.5374z M1377.3142,1272.537
		c-0.1915,2.6147,0.9387,2.8226,3.0483,2.0627c4.2571-1.5336,8.3472-3.4445,12.0386-6.0046
		c29.9509-20.7715,59.0714-42.7363,89.738-62.4783c4.3087-2.7738,6.238-6.973,6.9357-11.6223
		c1.1377-7.582,2.444-15.1179,5.1641-22.2778c3.7797-9.949,5.9875-20.3383,9.0145-30.4951
		c1.3173-4.4196,5.4684-7.2473,6.3846-11.7695c1.047-5.1677,4.3601-8.8054,7.6326-12.6105
		c3.267-3.7987,6.9106-7.1365,10.7657-10.2899c1.036-0.8474,2.2062-1.9058,1.5929-3.3412
		c-0.6152-1.4397-2.0553-0.4873-3.1243-0.4642c-3.9908,0.0857-7.9873,0.4574-11.9691,0.3295
		c-24.3947-0.7838-46.895-9.3423-69.4088-17.4962c-24.7192-8.9529-49.1929-18.5829-73.7916-27.87
		c-1.4323-0.5408-3.2225-2.0867-4.4978-0.4772c-1.2198,1.5394-0.282,3.5101,0.6614,5.1383
		c0.4163,0.7186,0.9335,1.3783,1.3911,2.0735c6.7169,10.2051,10.808,21.384,11.4854,33.5771
		c0.2417,4.351,1.4567,6.9546,5.5646,8.8892c9.2391,4.3513,16.3464,19.9229,7.9476,28.6335
		c-3.7991,3.9402-3.4467,7.2952-1.1829,11.4581c1.5232,2.8011,3.2766,6.2535,0.8698,8.8942
		c-3.6219,3.9734-2.8796,8.0724-2.15,12.5511c0.5598,3.4364,1.0944,6.9781,0.8726,10.4236
		c-1.1417,17.7319-0.9825,35.5662-3.9093,53.1615c-0.6504,3.91-0.4988,8.1489-2.9471,11.502
		C1379.1919,1252.5924,1380.3282,1263.1414,1377.3142,1272.537z M628.5778,1414.4285c-0.1323-0.0001-0.2646-0.0004-0.397-0.0005
		c0,8.6613,0.0139,17.3224-0.0026,25.9836c-0.0473,24.8104-0.0607,49.6211-0.2135,74.4309
		c-0.022,3.5624,1.0831,5.1763,4.8265,5.1588c8.8291-0.0409,17.6614,0.0952,26.4881,0.3254
		c2.598,0.0677,3.6734-1.0065,3.7529-3.4163c0.1208-3.6627,0.4655-7.3405,0.2587-10.9858
		c-0.2203-3.8809,1.5138-4.9469,5.0469-4.8237c3.8243,0.1334,4.2654,2.2766,3.8961,5.3578
		c-0.3367,2.8085-0.3172,5.6608-0.6807,8.4645c-0.4728,3.6459,0.4655,5.6526,4.6481,5.6213
		c8.8251-0.0658,17.6527,0.1404,26.4786,0.2794c2.4257,0.0382,3.5782-0.8055,3.628-3.4677
		c0.2459-13.1511,0.6878-26.2866-0.0775-39.4501c-0.5109-8.7876-1.9312-17.6832-0.629-26.3937
		c1.2621-8.4429,2.1848-16.8019,1.644-25.3082c-0.1472-2.316,1.7645-4.9242,0.2355-6.7991
		c-2.9105-3.5687-2.1739-7.5397-2.1472-11.4441c0.0251-3.6605,0.2396-7.1531-4.7001-7.7817
		c-1.0123-0.1288-1.5579-1.0785-1.8063-2.1589c-0.7442-3.2355-2.0272-6.4203-2.256-9.6841c-0.3398-4.849-2.804-6.9065-7.2667-8.014
		c-8.7012-2.1594-9.8645-4.0342-9.6476-13.4476c0.1428-6.1925,2.2681-8.4861,9.9175-10.1724
		c4.6582-1.0269,6.8245-3.3997,7.4748-8.4418c0.6062-4.7009,1.0848-10.3928,7.5149-11.8997
		c1.4477-0.3391,1.9396-1.7664,1.9841-3.1747c0.2051-6.4883,0.4402-12.9771,0.5173-19.4674
		c0.0326-2.7402-1.3636-4.2472-4.3339-4.2719c-22.4907-0.1871-44.9807-0.5435-67.4714-0.5936
		c-6.2513-0.014-6.6746,0.7959-6.6769,7.1289C628.5714,1348.7977,628.5778,1381.613,628.5778,1414.4285z M1132.3148,1524.175
		c-0.0004-0.2524-0.0006-0.5049-0.0009-0.7573c14.4856,0,28.9723-0.0914,43.4562,0.0637c3.6669,0.0392,5.0016-1.2318,5.8202-4.8756
		c5.1184-22.7819,4.9781-45.9504,5.3063-69.063c0.1393-9.8051-0.9244-19.6111-3.3586-29.1919
		c-1.6473-6.4838-1.9719-6.6956-8.53-5.7405c-13.3307,1.9414-26.6659,3.8506-39.9977,5.7842
		c-23.3711,3.3898-46.7389,6.8016-70.1135,10.167c-3.1797,0.458-5.1022,1.546-4.9865,5.3524
		c0.7434,24.4657,0.0819,48.9594,1.4125,73.4154c0.0632,1.1622,0.021,2.3705,0.3367,3.4685
		c0.3904,1.3583,1.3971,2.3325,2.9366,2.2159c1.6067-0.1216,1.5762-1.5055,1.6282-2.6326c0.0996-2.161,0.0983-4.3278,0.1045-6.4921
		c0.0109-3.7721,2.7543-3.5345,5.2734-3.6091c2.5637-0.0758,4.0388,0.743,3.8691,3.759c-0.2432,4.3169-0.131,8.6548-0.1401,12.9836
		c-0.0037,1.6898-0.0602,3.6327,2.3273,3.627c6.9387-0.0167,13.6377,2.0261,20.6924,1.6754
		C1109.6469,1523.764,1120.991,1524.175,1132.3148,1524.175z M1441.381,1414.8812c-0.73-33.9761-1.4801-67.9519-2.1727-101.9287
		c-0.1346-6.6029-0.8732-7.6144-7.4418-7.4796c-21.4871,0.4409-42.9702,1.0863-64.4583,1.4626
		c-3.9911,0.0698-5.2166,1.5428-5.0004,5.3995c0.6849,12.225-0.2406,24.4598,2.7574,36.6609
		c1.2646,5.147,1.9056,7.9994,7.7119,8.4392c8.2184,0.6226,10.601,3.8845,10.5695,12.634
		c-0.0322,8.9524-1.9891,11.2572-10.6638,12.3917c-2.7874,0.3646-5.9084,1.1189-6.2034,4.0555
		c-0.4011,3.9933-2.0902,7.7329-2.0997,11.6895c-0.0356,14.8287,0.1003,29.6581,0.2671,44.4862
		c0.0166,1.4806-0.776,3.8091,1.3956,4.1942c1.7268,0.3064,2.1073-1.9165,2.6414-3.1825c1.8679-4.4281,4.3823-4.8652,8.0447-1.9189
		c2.0186,1.6239,4.1445,4.1517,6.9746,3.2148c6.5077-2.1544,13.8677-2.9657,17.6956-10.0258
		c1.5746-2.9044,3.7439-3.2938,6.5731-1.2191c9.6708,7.092,19.4038,14.1012,29.2042,21.0128
		c3.0188,2.129,3.111,4.1577,1.0338,7.0245c-4.494,6.2023-8.78,12.5552-13.1566,18.8425c-0.8456,1.215-2.2445,2.4784-1.1611,3.9961
		c2.1307,2.9852,0.2086,5.4236-0.8718,7.8676c-2.9692,6.7166-3.0515,6.6802,2.8275,11.2012
		c4.8378,3.7205,5.1388,6.7163,0.8701,10.8539c-1.9332,1.8738-2.0974,4.3254-1.694,6.4156
		c0.4677,2.4231,3.1002,2.0396,5.0626,2.0236c2.4973-0.0204,5.0131-0.4397,7.4862-0.2454c4.8695,0.3822,6.1846-1.6832,6.0598-6.4259
		C1442.7427,1482.5116,1442.106,1448.6952,1441.381,1414.8812z M1449.5422,1427.3744c0.397,19.022,1.0868,52.0043,1.7729,84.9867
		c0.233,11.2012-1.7416,9.8806,10.7085,10.1117c4.6763,0.0869,6.8741-1.2122,6.0879-6.1975
		c-0.4132-2.6201-0.1306-5.3519-0.563-7.9669c-0.6559-3.9673,1.7216-4.5591,4.6682-4.6033
		c2.8011-0.0421,5.4585,0.0962,5.2833,4.1277c-0.1444,3.3237,0.0658,6.6624,0.1029,9.9945
		c0.0339,3.0509,1.3706,4.5771,4.6102,4.4384c4.3264-0.1851,8.6923-0.4727,12.9869-0.0964
		c4.5483,0.3988,5.3833-1.9305,5.4774-5.6221c0.0615-2.4161-1.074-4.2148-2.5212-5.7916
		c-3.7323-4.0663-5.3271-9.8458-10.6259-12.722c-1.7-0.9229-2.0101-3.3186-2.3021-5.3531
		c-1.0638-7.4146-2.3909-14.7391-4.4673-21.9935c-1.589-5.5521-2.382-12.231,1.0941-16.9866
		c5.0288-6.8798,5.0428-13.1848,3.6624-21.3136c-2.9596-17.4291-2.4235-35.1602,0.0928-52.7412
		c1.4736-10.297,4.9291-20.2976,3.382-31.0431c-0.6711-4.6624,1.4346-9.4244,2.3654-14.1257
		c1.7693-8.9363,4.5852-18.323-2.2281-26.8048c-1.7061-2.1237-3.2357-3.462-6.1241-3.3655
		c-9.8235,0.3284-19.6533,0.5447-29.4821,0.5991c-4.5977,0.0255-6.2419,1.678-6.127,6.5513
		C1448.1987,1345.4381,1448.6993,1379.4266,1449.5422,1427.3744z M1558.3599,1480.7445c0.1724,6.0543-1.2487,13.4626,4.4214,19.3422
		c1.0168,1.0543,1.6265,3.1256,3.1439,2.8964c1.9189-0.2897,1.8727-2.5479,2.2076-4.1061
		c2.9412-13.6761,5.5392-27.4348,6.0371-41.437c0.4019-11.303-0.1288-22.5563-3.6024-33.5454
		c-1.5389-4.869-2.7629-10.2643-0.2687-15.1489c2.2943-4.4928,3.9291-9.1759,5.4664-13.9083
		c1.5248-4.6938,3.9054-8.6757,7.3462-12.2726c7.4902-7.8303,12.6986-16.8724,14.1003-27.9137
		c0.9836-7.7485,2.6765-15.4054,3.7406-23.1461c0.5184-3.7719,1.6333-7.4762,1.3544-11.3726
		c-0.4065-5.6804-6.6213-10.8658-12.1658-11.3499c-7.8021-0.6808-15.5255-2.0933-23.3512-0.4323
		c-0.1547,0.0328-0.3442,0.005-0.4932-0.0549c-3.9073-1.5728-4.1194,0.8282-3.9325,3.6533
		c0.4647,7.0321-0.8046,13.8916-1.6365,20.8385c-1.0189,8.5066-4.3854,16.431-5.3557,24.8485
		c-1.3025,11.2991-3.7952,22.3517-6.8158,33.2418c-4.2382,15.2798-3.8142,30.2185,1.4817,45.0559
		C1555.0989,1450.1124,1558.7922,1464.525,1558.3599,1480.7445z M1015.0105,1488.3376c-0.1185,0-0.2372,0-0.3557,0
		c0-7.6602,0.0054-15.3202-0.0038-22.9803c-0.0022-1.8348,0.0377-3.6196-1.8265-4.8533
		c-8.2117-5.4354-13.0095-12.5963-11.5358-22.9561c0.5902-4.149-1.3918-5.7885-5.5813-6.3508
		c-11.6927-1.5701-23.3156-3.6545-34.9747-5.481c-11.4889-1.7996-22.978-3.6053-34.4921-5.2306
		c-2.2523-0.318-5.159-1.3237-6.14,2.3442c-2.482,9.2799-7.0789,17.9816-7.1307,27.9358c-0.0268,5.144-0.746,10.2874-1.2132,15.4255
		c-1.0709,11.7761-2.0598,23.5521-1.6331,35.3993c0.2175,6.0411,3.6332,11.4785,3.3032,17.589
		c-0.1769,3.2758,1.2892,4.4275,4.4219,4.4471c8.9908,0.0564,17.9803,0.2952,26.9712,0.3896
		c1.0709,0.0114,2.6163,0.6309,3.153-0.6882c0.6934-1.7042-1.0754-2.1868-2.0974-2.8844
		c-8.3875-5.7256-16.8204-11.3848-25.1998-17.1221c-7.102-4.8627-9.7452-15.6024-6.1229-23.5159
		c3.241-7.0804,7.9692-13.3517,11.9243-19.9307c4.8892-8.1328,10.6712-16.0132,16.3668-23.7897
		c1.9116-2.6101,3.766-3.3876,6.6664-1.4286c12.0036,8.1077,24.0297,16.1847,36.1594,24.1017
		c3.8582,2.5181,4.0396,4.9512,1.4572,8.5765c-3.9567,5.5543-7.4656,11.4254-11.2587,17.099
		c-2.0051,2.9993-1.9016,6.8735-5.0172,9.5549c-5.3918,4.6403-5.0285,6.651,0.7445,10.6335
		c8.8147,6.0809,8.87,6.1055,4.5477,15.8616c-1.348,3.0426-0.1848,3.894,2.6665,3.871c6.324-0.0511,12.6664,0.2144,18.965-0.2012
		c3.3583-0.2217,7.599,0.0721,8.1838-5.2452c0.1858-1.6896,2.1757-1.787,3.708-1.8513c4.0116-0.1688,5.4332-2.4213,5.3766-6.2379
		C1014.932,1503.327,1015.0105,1495.8318,1015.0105,1488.3376z M622.1813,1413.2606c0-30.2125,0.0243-61.5364-0.0126-92.8601
		c-0.0139-11.7714-1.8079-13.2382-13.6639-11.9972c-1.9363,0.2028-3.074,0.9897-3.7676,2.6816
		c-2.4086,5.8759-4.7607,11.7839-4.0488,18.3257c0.6505,5.978,0.5181,11.9779,0.7675,17.9663
		c0.7127,17.1144,0.4066,34.2655,2.6356,51.3325c0.8719,6.6769,2.3198,14.1294-0.7658,20.2267
		c-3.4999,6.9159-1.9532,12.7745,0.5466,18.9323c2.6324,6.4843,2.0447,12.6587-0.7579,18.8715
		c-3.1677,7.0223-6.9667,13.6765-11.956,19.5371c-2.5261,2.9673-2.5022,5.2479-0.1431,8.3151
		c3.734,4.8546,2.3373,11.259-2.9416,14.2345c-6.2632,3.5304-11.087,7.7681-10.6981,15.8445
		c0.1626,3.3745,1.303,4.6512,4.7689,4.6329c10.6611-0.0563,21.3366-0.0946,31.9803,0.4119
		c5.0944,0.2423,6.6226-1.428,6.7592-6.3925C621.7919,1480.344,620.433,1447.3392,622.1813,1413.2606z M1235.8053,1523.3032
		c0-0.0061,0-0.0123,0-0.0184c5.3269,0,10.6663,0.2286,15.9773-0.0618c5.7776-0.316,10.9478-2.9775,15.4609-6.2233
		c3.4806-2.5032,1.4039-7.1682,2.0037-10.8363c0.9048-5.5327-0.5879-9.9696-5.2494-13.5269
		c-3.0605-2.3358-4.6847-5.9402-6.0824-9.5756c-2.3424-6.092-3.2728-12.5562-5.1848-18.7494
		c-1.7563-5.6886-1.4199-11.1687,0.9496-16.5553c0.7515-1.7081,1.2914-3.316,0.8057-5.2618
		c-1.3708-5.4911-2.1093-11.058-2.4695-16.7384c-0.5948-9.3812-3.952-12.1827-13.2604-12.0762
		c-2.9951,0.0343-5.9956,0.1747-8.9841,0.0459c-3.0549-0.1316-4.5012,1.2673-5.1748,4.1575
		c-4.2932,18.4215-10.7163,36.3511-11.8625,55.4899c-0.9147,15.2739-2.7642,30.4948,0.5938,45.7166
		c0.6599,2.9911,1.9515,4.2983,5.0007,4.2439C1224.1527,1523.2294,1229.9797,1523.3032,1235.8053,1523.3032z M1402.3589,1059.4829
		c0.7324,2.8673,2.8385,2.9381,4.4163,3.5338c28.4969,10.7587,57.0479,21.3751,85.5168,32.2073
		c19.0968,7.266,37.838,8.2533,56.403-1.7281c3.4772-1.8695,7.3455-3.2317,11.1949-4.1517
		c20.2395-4.8376,40.1477-10.7629,59.7537-17.7128c2.0208-0.7163,5.6738-0.537,5.1647-3.3698
		c-0.3433-1.9102-3.7601-0.811-5.7561-0.6099c-28.7916,2.9016-57.4934,6.1301-86.5962,3.8954
		c-30.6982-2.3573-61.4966-3.4568-92.1047-6.9991C1427.8174,1063.0977,1415.3324,1061.2257,1402.3589,1059.4829z
		 M1426.5436,1292.2045c17.0648-1.6036,33.4049-0.6173,49.7115-1.17c4.2279-0.1433,5.6833-1.6643,4.6233-5.8911
		c-1.5376-6.1301-2.7443-12.3392-2.8645-18.7041c-0.2329-12.3158,0.1062-24.594,2.043-36.7932
		c0.2518-1.5867,0.974-3.8663-0.2792-4.7363c-1.6835-1.1688-3.3901,0.6959-4.8322,1.6913
		c-12.7424,8.7964-25.3079,17.8552-38.1802,26.4557c-19.4209,12.9758-36.5551,29.726-59.7534,36.5389
		c-1.1411,0.3351-2.4812,1.0864-2.0979,2.3785c0.4744,1.5995,2.1953,1.1688,3.4758,1.1223
		C1394.6965,1292.5031,1411.0052,1292.0322,1426.5436,1292.2045z M707.4014,1295.5417c-0.7114-2.45-2.8727-2.8955-4.5245-3.8431
		c-24.8658-14.2627-48.6581-30.0669-70.2585-48.9983c-3.0334-2.6584-3.8607-1.0204-4.5663,1.7522
		c-2.2973,9.0267-4.5073,18.0884-8.0988,26.7141c-2.4908,5.9823-5.1938,11.8763-7.8051,17.8083
		c-1.4921,3.3894-0.4509,4.9445,3.3114,5.0421c17.618,0.4568,35.2311,1.1494,52.8511,1.4775
		C681.2377,1295.7354,694.1727,1295.5417,707.4014,1295.5417z M880.8118,1422.1732c0.1846,1.3057,0.4108,2.6071,0.5473,3.9177
		c1.3123,12.5978-0.2969,23.8115-13.9366,29.3065c-0.9627,0.3879-1.8292,1.0546-1.9893,2.0897
		c-1.215,7.8522-4.0812,15.9308-3.1291,23.5245c1.4676,11.7064-5.0805,18.6023-12.0253,25.2284
		c-3.4506,3.2922-5.9465,6.0562-6.6953,10.8398c-0.6121,3.9098-0.0014,5.5865,4.221,5.4705
		c2.5333-0.0698,4.2349-0.656,5.8453-2.8552c3.2861-4.4879,13.8513-5.2551,15.8618-0.9064
		c2.5433,5.5013,6.8146,3.8818,10.6276,3.7852c4.3502-0.1101,3.3266-4.2529,4.1116-6.8877c0.9008-3.0232,1.7971-6.084,2.268-9.1932
		c3.2101-21.1917,2.0444-42.5057,1.1927-63.7638C887.4249,1435.5743,885.8144,1428.3195,880.8118,1422.1732z M987.1183,656.8215
		c-0.4598,0.0004-0.9196,0.0009-1.3794,0.0013c0-7.6429,0.0471-15.2862-0.0359-22.9282c-0.0188-1.7287-0.0458-4.7939-2.1927-4.1973
		c-4.3676,1.2134-9.5583,0.6225-12.9802,4.277c-10.0065,10.687-17.4995,22.9392-22.219,36.8425
		c-0.4481,1.3202-0.8961,2.7823,0.5358,3.5703c3.5868,1.9736,6.6807,5.3277,11.1135,5.1626
		c7.8982-0.2944,15.5611,1.1221,23.2001,2.7242c3.2583,0.6832,4.0776-0.439,4.0095-3.5282
		C987.0089,671.4409,987.1183,664.13,987.1183,656.8215z M1617.9403,1422.4945c-4.1598,4.1088-4.1732,8.6552-6.2858,12.1201
		c-7.2216,11.844-10.8527,24.9998-14.2406,38.2346c-3.5599,13.9065-5.2695,28.1171-6.4901,42.3962
		c-0.381,4.4575,1.095,6.4521,5.9387,5.9141c4.2798-0.4755,8.6461-0.1536,12.9738-0.2211c2.7964-0.0437,9.8087-11.608,8.447-14.0256
		c-0.4661-0.8276-1.453-1.3445-2.1077-2.0865c-1.995-2.2611-3.7639-4.6532-4.4403-7.6952
		c-3.0919-13.9039-3.2306-27.4451,2.1868-41.103C1617.9711,1445.8202,1618.0166,1434.7147,1617.9403,1422.4945z M746.252,1050.2958
		c-3.8522-5.48,1.0946-9.2834,1.7329-13.8069c0.1988-1.4087,1.9943-2.8414,0.7746-4.0886c-1.1276-1.153-2.8279,0.0391-4.2039,0.428
		c-19.8704,5.6151-39.9728,10.1516-60.3614,13.4681c-24.1593,3.9301-48.4727,6.4198-72.8603,8.3206
		c-1.6807,0.1309-4.1204-0.5552-4.6249,2.6882C653.3781,1058.1174,699.7044,1057.0751,746.252,1050.2958z M927.1971,320.2842
		c1.3547-7.2756,4.9969-3.8658,8.3335-2.0344c0.4373,0.2401,0.8531,0.5205,1.2966,0.7478
		c9.7207,4.9836,20.051,7.9344,30.8495,9.4356c4.4573,0.6197,5.6486-1.1062,4.6817-5.2776
		c-1.4655-6.3231-2.9989-12.6099-5.2557-18.7137c-2.4351-6.5856-5.3505-12.9252-9.5114-18.5954
		c-3.1282-4.2628-6.8235-4.0377-9.984,0.2381c-0.9692,1.3111-2.437,2.2493-3.4335,3.5451
		c-4.0011,5.2031-10.684,8.0838-12.8518,14.8651c-1.0203,3.1915-2.5114,6.1349-4.466,8.8739
		C925.345,315.4863,924.3098,317.7432,927.1971,320.2842z M1000.9685,327.5553c11.7279-2.865,24.3047-5.4789,34.7393-13.6488
		c4.3256-3.3868,3.8774-12.6533-1.0833-14.9866c-6.5676-3.0892-11.0034-8.2857-15.2529-13.7589
		c-3.9647-5.1063-6.7178-5.0916-10.2075,0.3918c-7.3845,11.6034-11.0668,24.4243-12.4905,37.9983
		C996.3837,326.316,997.396,327.6664,1000.9685,327.5553z M973.3386,356.0051c-0.1594-2.5388,0.9257-6.1404-3.5633-5.4093
		c-12.4037,2.02-24.4308,5.2878-34.8505,12.722c-4.9738,3.5486-4.8114,5.7391-1.6168,10.8113
		c5.8527,9.2925,15.4769,13.6581,24.0499,19.4343c2.635,1.7754,3.9938,0.0612,5.074-2.0144
		C968.2541,380.3621,972.2263,368.6032,973.3386,356.0051z M1031.166,380.0482c-0.7229-4.8002,0.8308-7.7742,4.8837-8.5672
		c3.7062-0.7251,5.0222-4.0025,6.3037-6.3189c1.1412-2.063-3.2834-1.6524-4.4519-3.4255c-0.2568-0.3897-0.7694-0.6276-1.1934-0.8882
		c-10.5286-6.4708-22.0801-9.8629-34.2496-11.4453c-3.9569-0.5145-5.6563,0.8929-4.8883,4.9883
		c2.0048,10.6906,5.1514,20.9734,10.4882,30.5209c2.2537,4.0316,4.4673,7.6063,9.864,3.8336
		c1.0459-0.7312,2.9059-0.264,4.3832-0.4182C1027.0371,387.8336,1031.3613,383.4018,1031.166,380.0482z M803.5662,1412.3405
		c-3.0852,0.3743-5.9105-0.5719-8.6674,3.9084c-3.655,5.9396-4.5288,10.7429-1.5146,16.6592
		c0.2755,0.5408,0.0467,1.3193,0.139,1.9753c0.8094,5.7512-0.1658,11.2256-2.3215,16.5791
		c-0.4344,1.0786-1.3456,2.6281,0.2261,3.5797c1.1661,0.7059,2.2255-0.1938,3.166-0.8739
		c4.8522-3.5092,9.6942-7.0323,14.5315-10.562c1.2461-0.9092,2.2742-2.0317,2.3884-3.641
		c0.4465-6.2885,2.3168-12.4203,1.7704-18.8302C812.5574,1412.6123,812.3834,1412.3406,803.5662,1412.3405z M846.9472,997.2532
		c0.3029,4.651,0.5507,9.3063,0.9252,13.9515c0.3213,3.9846,2.0638,3.9978,4.725,1.6301c3.4822-3.0983,6.6699-6.8199,10.6834-8.9652
		c7.1608-3.8274,8.4683-9.2727,7.0167-16.5405c-0.5843-2.9252-1.466-3.2329-3.8846-2.0687
		c-5.4017,2.6003-10.8572,5.0896-16.3101,7.5823C848.1653,993.7283,846.5792,994.7961,846.9472,997.2532z M484.9357,1501.7301
		c-1.1397-4.5344-1.3568-9.3372-1.6044-14.1399c-0.0574-1.1149,0.0139-2.5096-1.835-2.134
		c-1.5147,0.3079-12.2805,12.6016-11.9578,14.1681c0.8503,4.1282-1.7562,6.6298-4.0555,9.1163
		c-2.7477,2.9714-1.4828,5.1476,0.9499,7.0508c2.4711,1.9332,5.1955,2.3975,7.3294-0.6001c2.3391-3.286,5.1236-6.0497,8.4906-8.2754
		C483.9961,1505.7634,485.0449,1504.1085,484.9357,1501.7301z M1376.8774,1523.2838c0-0.0129,0-0.0258,0-0.0387
		c2.9996,0,6.0031,0.0884,8.9968-0.0443c1.1748-0.052,3.0629,0.7676,3.3793-0.9369c0.2845-1.5316-1.3616-2.119-2.7358-2.2966
		c-2.7775-0.359-4.9026-1.9474-7.0734-3.5103c-3.7854-2.725-7.5868-5.4288-11.4218-8.0831
		c-2.2565-1.5616-3.4387-1.3185-3.7194,1.8459c-1.156,13.042-1.2308,13.0354,11.5743,13.064
		C1376.2108,1523.2845,1376.5442,1523.2838,1376.8774,1523.2838z M364.5754,1009.1502c0.5129,1.5446,0.9799,3.1062,1.5462,4.631
		c2.9702,7.9972,1.3708,14.9687-4.4267,21.1839c-5.3767,5.7639-5.2997,5.8373,1.997,9.6184
		c0.5912,0.3065,1.2063,0.5676,1.7924,0.8832c3.222,1.735,4.7288,0.5151,4.7166-2.8787c-0.031-8.6528,0.0411-17.3137-0.3389-25.9532
		C369.7236,1013.4849,367.6265,1010.877,364.5754,1009.1502z M749.0855,1475.9003c-2.9156,11.3104-2.1012,22.7207-2.3433,34.4818
		c2.4109-0.9003,2.7121-2.5697,3.7383-3.5967c4.9841-4.9883,6.2496-10.6205,3.2399-17.1963
		C751.7351,1485.2513,750.5729,1480.6151,749.0855,1475.9003z M928.2601,320.9075c-2.6838,2.6709-3.4743,5.0793-4.4604,7.5428
		c-1.41,3.5219-0.3502,7.0766,0.1255,10.2109c0.8512,5.6075-1.5583,11.7287,2.3663,16.9053
		c0.5667,0.7473,0.5974,2.0804,1.8151,2.0084c1.3796-0.0816,1.2088-1.3436,1.2005-2.3017
		C929.2113,344.1559,929.5957,333.0211,928.2601,320.9075z M131.4257,1604.6019c0,1.8281-0.1812,3.6804,0.0587,5.4766
		c0.1842,1.3796-1.2941,3.7954,1.392,3.9301c2.468,0.1235,4.1894-1.7321,4.0606-4.1323
		c-0.5249-9.7813-1.2863-19.5503-2.0433-29.3175c-0.098-1.264-0.4568-2.9672-2.2482-2.6039
		c-1.4844,0.3013-1.0847,1.9591-0.9744,2.9875C132.5189,1588.8453,131.3763,1596.7161,131.4257,1604.6019z M947.5685,946.8106
		c-0.4252-0.1466-0.8505-0.2933-1.2756-0.4399c-3.1526,4.8825-7.4638,8.2299-12.5858,10.65
		c-1.6136,0.7625-2.6847,2.4875-3.1324,4.306c-0.4211,1.7104-0.0713,3.1966,2.1919,2.4686
		c4.3982-1.4149,8.7584-2.9534,13.0993-4.5368c1.1853-0.4323,1.6729-1.5901,1.6887-2.8139
		C947.5959,953.2338,947.5685,950.022,947.5685,946.8106z M1121.9907,942.3604c-0.7762,4.1543,0.2343,6.8421,0.8009,9.5209
		c1.2578,5.9456,4.7875,8.7767,10.7573,9.1326c1.2692,0.0757,1.9867-0.1436,1.826-1.4708c-0.446-3.6857-0.9998-7.9119-4.354-9.6286
		C1127.7026,948.2162,1124.9232,946.2321,1121.9907,942.3604z M1041.2919,328.6896c0.0743,0.001,0.1487,0.002,0.223,0.0031
		c0.2654,4.8044,0.4799,9.6125,0.8334,14.4103c0.084,1.1406-0.6753,3.1514,1.3298,3.1069c1.6406-0.0365,1.3102-1.9087,1.6293-3.1675
		c1.989-7.8459-2.2224-15.5497-0.4556-23.4003c0.3529-1.5685,0.1493-3.3113-0.0573-4.9409
		c-0.1616-1.2755-0.5105-2.8782-2.2672-2.721c-1.681,0.1504-1.219,1.6843-1.2249,2.7707
		C1041.2775,319.3969,1041.2919,324.0433,1041.2919,328.6896z M1771.7346,1039.8163c4.514-4.3984,6.395-9.1272,8.3602-13.7544
		c0.5548-1.3066,0.2548-2.3253-1.9323-2.1638c-8.3948,0.6199-8.427,0.5042-7.5449,9.0756
		C1770.8179,1034.9186,1771.241,1036.8403,1771.7346,1039.8163z M1514.7129,1521.8801c4.3711-0.0112,5.9495-2.7648,6.1633-9.7944
		c0.0535-1.7556-0.6891-1.9225-1.9679-1.9379c-4.8461-0.0581-8.2813,2.8516-8.45,6.9712
		C1510.3285,1520.2931,1511.1587,1522.3634,1514.7129,1521.8801z M1612.5485,1081.3381c5.8694,0.1753,10.1772-3.6669,15.1449-5.7349
		c0.9049-0.3767,1.7815-1.3812,1.3375-2.387c-0.6689-1.5154-1.9907-0.5803-2.98-0.2678c-4.7288,1.4941-9.4521,3.0103-14.1349,4.641
		c-1.4297,0.4978-4.0089,0.3822-3.6299,2.5055C1608.6591,1082.1843,1611.1177,1080.8639,1612.5485,1081.3381z M955.7798,242.4989
		c-1.4316-0.2722-2.8201,0.1046-3.9284,1.2792c-1.0276,1.0889-2.4244,2.414-1.9561,3.7942c0.6876,2.026,2.5036,0.5782,3.7695,0.3639
		c1.5463-0.2617,2.9081-0.3143,4.1902,0.7516c0.8665,0.7202,1.8583,1.7054,2.9887,0.5277c0.9059-0.9438,0.5038-2.1811,0.2466-3.3004
		C960.4561,243.1569,958.579,242.2132,955.7798,242.4989z M965.4512,396.6039c-0.0578,0.5899-0.1157,1.1797-0.1735,1.7696
		c3.6063,2.0125,8.1738,0.4393,11.7913,2.6463c0.6718,0.4098,1.8315-0.7896,1.975-1.8439c0.2337-1.7167-1.0266-2.4784-2.4128-2.5273
		C972.9087,396.5172,969.1785,396.6039,965.4512,396.6039z M821.493,1522.2778c2.77,0,5.1064,0.0319,7.4413-0.0127
		c1.2867-0.0245,2.2593-0.5955,2.3199-2.0206c0.0645-1.5173-0.2632-2.9578-1.3736-4.089c-1.1862-1.2084-2.1089-0.1554-3.0046,0.4611
		C824.9925,1517.9133,822.9665,1519.0842,821.493,1522.2778z M971.3564,231.4534c-0.7416-0.7253,0.2872-2.8369-1.7017-2.2133
		c-2.0384,0.6391-3.8152,2.3083-3.9573,4.5509c-0.1048,1.6548,1.3972,3.5527,2.9904,3.3206
		C971.8997,236.6438,970.1074,233.3663,971.3564,231.4534z M366.7256,992.8697c-1.3016,0.7709-1.7203,2.0403-2.2519,3.2345
		c-0.9364,2.1035-0.0732,3.8579,1.2015,5.4291c0.2912,0.3589,1.3226,0.5558,1.7113,0.323c1.9619-1.1748,1.467-3.1127,1.1549-4.8602
		C368.2762,995.5107,368.5484,993.6927,366.7256,992.8697z M567.0995,1516.2499c-0.1652-1.335-0.2668-2.8545-2.2251-2.4213
		c-2.0434,0.4519-4.7772,0.4926-5.1182,3.0815c-0.2165,1.6444,1.8099,2.0504,3.3741,2.1343
		C565.1779,1519.1542,566.7234,1518.562,567.0995,1516.2499z M534.205,1313.2722c2.2628-1.6292,4.1384-3.5221,3.7609-6.7062
		c-0.0607-0.512-0.8743-1.2524-1.5292-0.7286c-2.1997,1.7592-3.0729,4.1356-2.7912,6.9307
		C533.6564,1312.8766,533.8563,1312.9659,534.205,1313.2722z M980.312,94.7423c2.5859-1.6065,3.2087-4.0454,2.5519-7.4597
		C979.9084,89.2632,980.5671,92.1117,980.312,94.7423z M1001.131,395.5172c-2.15,0.3601-4.3646-0.7783-5.5062,1.643
		c-0.5138,1.0894,0.2988,2.006,1.2809,2.2613C999.4698,400.088,1000.3817,398.412,1001.131,395.5172z M970.9637,93.6158
		c0.0627-2.7989,1.3806-4.9606-0.3322-7.0066c-0.4285-0.5118-1.4101-0.4387-1.6276,0.268
		C968.3238,89.0869,968.1352,91.2895,970.9637,93.6158z M1346.2094,978.3539c-0.2625-0.9558,0.8-2.5519-0.9072-2.7842
		c-1.5192-0.2068-2.3275,1.0192-2.3929,2.4819c-0.0526,1.1765,0.2135,2.4374,1.6122,2.6493
		C1346.3596,980.9794,1345.9047,979.3563,1346.2094,978.3539z M965.655,283.3989c0.9034-0.3862,2.623,0.2598,2.4041-1.5876
		c-0.1504-1.2686-1.3005-1.9381-2.4976-1.8799c-1.1637,0.0567-2.3266,0.6397-2.3871,2.0245
		C963.094,283.7997,964.5775,283.3044,965.655,283.3989z M747.9489,1517.5508c-0.8118-0.0697-1.2845,0.224-1.3623,1.0253
		c-0.0669,0.6899,0.0101,1.3282,0.7847,1.5663c0.6736,0.207,1.403,0.0946,1.5765-0.6343
		C749.1484,1518.6646,748.7641,1517.9214,747.9489,1517.5508z M134.1451,1575.0918c-0.136-0.5778,0.0279-1.377-0.8942-1.4238
		c-0.749-0.038-1.1659,0.4471-1.257,1.1415c-0.0913,0.6956,0.1389,1.2714,0.9516,1.3406
		C133.6788,1576.2124,134.1672,1575.9329,134.1451,1575.0918z M1307.5977,1445.4194c-0.9979-1.1033-1.2482-1.6387-1.593-1.7084
		c-0.7617-0.1544-1.0864,0.4894-1.2089,1.1201c-0.1394,0.7186,0.1989,1.3181,0.9525,1.2694
		C1306.349,1446.0615,1306.9275,1445.6805,1307.5977,1445.4194z M749.562,1453.1384c0.0095-0.6675-0.038-1.3751-0.8329-1.5162
		c-0.8777-0.1556-1.1434,0.5496-1.1124,1.2136c0.0197,0.4209,0.307,1.0664,0.6311,1.1859
		C748.8958,1454.2607,749.5286,1454.0319,749.562,1453.1384z M948.2381,252.0202c-0.6558-0.3712-1.1544-0.8191-1.3234-0.7177
		c-0.4901,0.294-0.8479,0.8086-1.2576,1.2366c0.3204,0.2271,0.7339,0.7077,0.9429,0.6311
		C947.1182,252.9801,947.5429,252.5353,948.2381,252.0202z M1043.4158,357.5623c0.1071,0.0439,0.5438,0.2162,0.9752,0.4012
		c0.6581,0.2822,0.9041-0.2225,0.847-0.6343c-0.0504-0.3643-0.4141-0.7974-0.757-0.9828
		C1043.9725,356.0715,1043.6708,356.4484,1043.4158,357.5623z"/>
</g>
</svg>
