<?xml version="1.0" encoding="UTF-8" standalone="no"?>
<svg xmlns:rdf="http://www.w3.org/1999/02/22-rdf-syntax-ns#" xmlns="http://www.w3.org/2000/svg" height="1541.4" viewBox="0 0 375.89999 1541.4" width="375.9" version="1.1" xmlns:cc="http://creativecommons.org/ns#" xmlns:dc="http://purl.org/dc/elements/1.1/">
<path d="m0 1516.6v-24.75h14.4c9.4 0 14.4-0.1042 14.4-0.3 0-0.1929 3-0.3 8.4-0.3h8.4v-7.9462-7.9461l10.575-0.079 10.575-0.079 0.08006-7.725 0.08006-7.725h11.095 11.095v-96.909c0-92.022 0.02649-96.919 0.525-97.099 0.28875-0.1042 0.87191-0.4293 1.2959-0.7225 0.93397-0.6459 6.422-2.0526 12.129-3.1089 2.31-0.4276 4.841-0.922 5.6246-1.0987l1.4246-0.3213 0.0754-99.762 0.0755-99.762 3.75-1.7271c2.0625-0.9499 6.0788-2.5133 8.925-3.4742l5.175-1.7471v-115.46-115.46l0.675-0.57048c3.7826-3.1968 18.413-11.376 20.349-11.376 0.16701 0 0.27556-54.838 0.27556-139.22v-139.22l1.0375-2.2455c3.1668-6.854 7.7704-12.417 14.276-17.252 4.0261-2.992 3.5769 1.5138 3.5853-35.963 0.007-30.721 0.0357-32.434 0.60653-36.133 1.05-6.8027 1.9646-10.02 3.4671-12.196l0.74497-1.0789 0.0661-33.721 0.0661-33.721 0.95868-1.9587c1.3677-2.7944 3.6859-5.7251 6.1124-7.7275l2.0959-1.7296-0.0127-51.237-0.0127-51.237 0.76479-3.7123c1.2731-6.1795 2.5641-10.014 4.4609-13.251l1.0827-1.8474v-41.017c0-40.18 0.0123-41.058 0.6015-43.037 1.0457-3.5113 2.3063-6.2084 4.1807-8.9452l1.8178-2.6541v-24.798-24.798h1.65 1.65v-41.25-41.25h1.8 1.8v48.9 48.9h1.5 1.5v29.4c0 25.933 0.0531 29.4 0.45 29.4 0.39603 0 0.45 2.7167 0.45 22.65v22.65h2.4 2.4v47.85 47.85h2.1 2.1v42.124 42.124l1.8826 1.3434c1.0354 0.73884 2.7904 2.3057 3.9 3.482l2.0174 2.1386v53.844c0 36.137 0.0999 53.844 0.30373 53.844 1.1961 0 3.7563 5.9158 4.6741 10.8l0.7046 3.75 0.009 56.775c0.005 31.226 0.12275 56.775 0.26201 56.775 0.32742 0 7.5531 5.6992 10.766 8.4916l2.4834 2.1584 0.00021 54.6 0.00021 54.6 0.81329 4.5 0.8133 4.5 0.16026 69.427 0.16026 69.427 3.15 1.1261c1.7325 0.61935 5.3438 2.2375 8.025 3.5959l4.875 2.4698 0.001 112.38 0.001 112.38 6.3739 1.6257c3.5056 0.8942 6.8126 1.7443 7.3489 1.8891l0.975 0.2634v93.436 93.436l0.975-0.01c0.53625 0 4.1138 0.4208 7.95 0.9441l6.975 0.9515v71.656 71.656h10.35 10.35v7.8 7.8h10.2 10.2v8.1 8.1h22.05 22.05v24.75 24.75h-187.95-187.95v-24.75z"/>
</svg>
