<?xml version="1.0" encoding="utf-8"?>
<!DOCTYPE svg PUBLIC "-//W3C//DTD SVG 1.1//EN" "http://www.w3.org/Graphics/SVG/1.1/DTD/svg11.dtd">
<svg version="1.1" id="Layer_1" xmlns="http://www.w3.org/2000/svg" xmlns:xlink="http://www.w3.org/1999/xlink" x="0px" y="0px"
	 viewBox="0 0 1920 1440" enable-background="new 0 0 1920 1440" xml:space="preserve">
<g>
	<path stroke="#000000" stroke-width="0.0938" d="M262.07,141.5c0.27,0.24,0.83,0.72,1.11,0.96c2.47,30.48,4.4,61.02,6.96,91.49
		c2.01,2.03,4.28,3.96,5.15,6.8c2.1,5.22,0.28,11.23-3.64,15.07c0.05,0.71,0.14,2.13,0.19,2.84c-1.44-0.02-2.89-0.03-4.32-0.04
		c15.63,52.69,31.24,105.4,47.03,158.04c3.4,0.08,6.82,0.05,10.23,0.07c8.4-35.6,16.55-71.26,24.85-106.88
		c0.7-2.64,0.9-5.47,2.39-7.83c3.64,12.51,6.01,25.38,9.13,38.04c6.03,25.55,11.72,51.19,17.93,76.7c3.5-0.1,7,0.05,10.5-0.18
		c0.1,4.03,0.03,8.07,0.09,12.11c-2.94,0.03-5.87-0.03-8.8-0.01c-1.42,1-3.26,0.42-4.85,0.54c-14-0.15-28-0.01-41.99-0.04
		c-6.09-0.93-12.26-0.18-18.37-0.64c-1.67,1.35-0.97,3.64-1.09,5.49c-0.03,26.49,0.13,52.99-0.08,79.49
		c3.05,2.05,7.28,0.34,10.78,0.91c0.04,3.69,0.06,7.38,0.04,11.08c-3.6,0.1-7.2,0.13-10.8,0.08
		c-0.18,38.33,0.01,76.67-0.09,115.0099c3.6,0.13,7.2,0.16,10.8,0.1c0.31,15.04-0.12,30.1,0.21,45.15
		c-3.61,0.03-7.22,0.03-10.83,0.03c-0.04,29.51,0,59.02-0.02,88.54l0.03,1.02c3.55,0.23,7.11,0.11,10.67,0.17
		c0.04,3.69,0.05,7.38,0.04,11.08c-3.58,0.14-7.16,0.17-10.74,0.01c-0.28,8.86-0.17,17.74-0.06,26.6c3.59-0.04,7.18-0.02,10.78,0.04
		c0.03,3.7,0.03,7.41-0.01,11.12c-3.6,0.04-7.21,0.07-10.81,0.08c-0.01,33.69-0.19,67.4,0.09,101.09c3.58-0.12,7.17-0.13,10.76,0.06
		c-0.02,3.68-0.01,7.36-0.02,11.05c-3.58,0.07-7.16,0.11-10.74-0.03c-0.31,9.22-0.11,18.45-0.08,27.67
		c3.61-0.03,7.21,0.01,10.82,0.06c0.01,3.71,0.02,7.42,0,11.13c-3.59,0.03-7.18,0.08-10.77,0.04c-0.19,37.61-0.11,75.23-0.07,112.84
		c3.6,0.05,7.2,0.0901,10.81,0.0701c0.04,3.7,0.06,7.4,0.05,11.12c-3.52,0.67-7.73-1.05-10.84,0.9
		c0.19,23.8099,0.08,47.63,0.06,71.4399c-24.83-0.61-49.7-0.09-74.55-0.26c-9.51-0.1599-19.03,0.3201-28.52-0.25
		c0.09-23.9099,0.25-47.84-0.08-71.74c-2.64,0.05-5.28,0.05-7.92,0c0.02-3.77,0.03-7.53,0.04-11.29
		c2.67-0.0199,5.34-0.0199,8.01-0.0099c0.05-37.5901,0.07-75.1801,0-112.7701c-2.72,0-5.43,0-8.13,0.01
		c-0.09-4.02-0.12-8.04,0.03-12.04c2.66,0.09,5.32,0.12,7.99,0.17c0.15-8.81-0.05-17.62,0.11-26.42c-2.71-0.13-5.43-0.14-8.13,0.02
		c-0.1-4.05-0.07-8.09-0.04-12.13c2.67,0.04,5.34,0.05,8.01,0.05c0.2-33.16,0.09-66.34,0.06-99.5c-1.64-2.33-5.6-0.54-8.17-1.15
		c0.15-4.03,0.02-8.05,0.14-12.06c2.7,0.13,5.41,0.14,8.12,0.04c-0.09-8.4301-0.06-16.87-0.02-25.3c-2.68-0.09-5.37-0.09-8.05,0.04
		c-0.2-4.03-0.08-8.06-0.14-12.09c2.61-0.24,5.43,0.57,7.93-0.31c0.53-29.69,0.09-59.42,0.22-89.12c-2.71,0-5.42,0-8.13-0.02
		c-1.02-11.5699-0.23-23.21-0.53-34.81c-0.25-3.57,0.75-7.06,0.52-10.62h0.38c2.56-0.02,5.12-0.02,7.69-0.01
		c0.24-37.97-0.09-75.94,0.17-113.9c-2.7-0.42-5.43-0.28-8.14-0.1c-0.11-4.17-0.14-8.34,0.01-12.5c2.72,0.48,5.59,0.77,8.2-0.37
		c-0.38-25.51-0.04-51.04-0.17-76.56c-0.1-2.69,0.35-5.43-0.29-8.07c-5.37-0.52-10.82-0.24-16.19,0.26
		c-12.68-0.03-25.36,0.02-38.03-0.02c-6.15-0.81-12.36-0.32-18.54-0.46c0.08-4.03,0.04-8.06,0.04-12.09
		c3.46,0.19,6.92,0.1,10.38,0.12c8.3-34.89,16.23-69.88,24.4-104.8c0.87-3.33,1.22-6.83,2.77-9.94c1.32,2.84,1.74,5.98,2.49,8.99
		c8.21,35.25,16.29,70.52,24.59,105.75c2.78,0.01,5.56,0.03,8.34-0.1c15.62-52.67,31.34-105.31,46.94-157.98
		c-1.68-0.01-3.37-0.01-5.05-0.01c0.05-0.7,0.14-2.09,0.19-2.79c-6.45-5.79-5.74-17.06,1.6-21.77
		C257.47,203.22,259.59,172.35,262.07,141.5 M243.62,412.59c-5.9,8.87-8.98,19.71-8.3,30.38c0.04,15.65-0.65,31.3-0.71,46.96
		c19.02,0.11,38.05-0.13,57.07,0.1c0.03-16.68-0.64-33.35-0.74-50.03c-0.67-10.08-3.53-20.29-9.54-28.53
		c-4.29-5.87-10.83-10.83-18.39-10.8C254.89,400.59,247.96,406.13,243.62,412.59 M214.42,588.24c0.13,6.81,0.05,13.62,0.06,20.43
		c7.17,0.08,14.35-0.03,21.52,0.08c0.25-6.87,0.17-13.75,0.05-20.62C228.84,588.22,221.63,588.02,214.42,588.24 M252.26,588.17
		c0.04,6.84-0.02,13.68,0.02,20.52c7.2,0.05,14.39-0.05,21.59,0.04c0.11-6.86,0.05-13.72,0.03-20.57
		C266.68,588.15,259.47,588.12,252.26,588.17 M289.05,588.13c-0.12,6.87-0.15,13.75,0,20.62c7.19-0.12,14.38-0.01,21.57-0.06
		c0.02-6.83-0.02-13.66,0.02-20.48C303.44,588.07,296.25,588.21,289.05,588.13 M214.38,613.14c0.24,6.79,0.03,13.58,0.13,20.38
		c7.12,0.05,14.24-0.13,21.36,0.12c0.61-6.84,0.09-13.73,0.29-20.59C228.9,612.94,221.63,612.78,214.38,613.14 M252.23,613.04
		c0.1,6.83-0.02,13.67,0.06,20.51c7.18-0.02,14.36-0.1,21.55,0.03c0.19-6.87,0.06-13.74,0.07-20.6
		C266.68,612.97,259.45,612.86,252.23,613.04 M289.03,612.92c-0.05,6.89-0.22,13.79,0.09,20.68c7.16-0.18,14.32-0.05,21.48-0.0699
		c0.09-6.79-0.09-13.58,0.11-20.36C303.49,612.67,296.25,613.12,289.03,612.92 M214.38,720.11c0.31,6.76-0.1,13.54,0.23,20.31
		c7.18-0.16,14.36-0.03,21.54-0.07c-0.03-6.84,0-13.68-0.02-20.5099C228.88,719.91,221.6,719.42,214.38,720.11 M252.23,719.92
		c0.26,6.85-0.35,13.74,0.31,20.57c7.13-0.34,14.26,0.03,21.39-0.21c0-6.8-0.02-13.6,0.01-20.4
		C266.71,719.76,259.46,719.67,252.23,719.92 M288.99,719.84c-0.07,6.83-0.01,13.66-0.03,20.5c7.17,0.0699,14.34-0.07,21.51,0.09
		c0.21-6.9,0.35-13.84-0.06-20.72C303.27,719.92,296.13,719.68,288.99,719.84 M214.41,764.92c7.22,0.6,14.48,0.09,21.71,0.24
		c0.02-6.85,0.01-13.7,0.03-20.55c-7.19-0.01-14.39,0.03-21.58-0.03C214.36,751.36,214.61,758.14,214.41,764.92 M252.23,765.05
		c7.21,0.28,14.44,0.06,21.66,0.12c0.06-6.85,0.05-13.7,0-20.55c-7.15-0.08-14.3,0.1-21.45-0.1
		C252.03,751.36,252.41,758.21,252.23,765.05 M288.94,744.63c0.09,6.86-0.07,13.72,0.11,20.58c7.21-0.22,14.44,0.2599,21.64-0.2401
		c-0.25-6.81,0.16-13.6299-0.21-20.43C303.3,744.7,296.12,744.56,288.94,744.63 M214.41,886.81c7.2,0.73,14.48,0.13,21.71,0.33
		c0.07-6.86-0.03-13.71,0.04-20.56c-7.19-0.06-14.37,0.03-21.55-0.07C214.27,873.27,214.67,880.04,214.41,886.81 M252.24,887.01
		c7.22,0.29,14.44,0.08,21.66,0.11c0.04-6.85,0.04-13.69,0-20.53c-7.13-0.16-14.26,0.15-21.37-0.16
		C251.92,873.26,252.45,880.15,252.24,887.01 M288.96,866.6c0.07,6.83-0.09,13.67,0.1,20.51c7.21-0.05,14.43,0.27,21.63-0.18
		c-0.21-6.83,0.13-13.66-0.21-20.48C303.31,866.7,296.13,866.43,288.96,866.6 M214.49,891.41c-0.04,6.8,0.08,13.6-0.09,20.4
		c7.24,0.29,14.48,0.06,21.72,0.13c-0.1-6.87,0.3-13.77-0.21-20.62C228.77,891.46,221.63,891.3,214.49,891.41 M252.3,891.37
		c-0.1,6.84,0.03,13.68-0.08,20.52c7.24,0.1,14.48,0.05,21.72,0.04c-0.1-6.87,0.12-13.73-0.12-20.59
		C266.65,891.42,259.48,891.35,252.3,891.37 M289.17,891.28c-0.44,6.8799-0.11,13.78-0.19,20.67c7.24-0.06,14.48,0.08,21.71-0.09
		c-0.16-6.83,0-13.66-0.09-20.48C303.46,891.36,296.31,891.45,289.17,891.28 M214.48,987.44c-0.02,6.79,0.08,13.59-0.06,20.39
		c7.23,0.33,14.47-0.03,21.7,0.12c-0.09-6.87,0.28-13.76-0.2-20.62C228.78,987.51,221.63,987.34,214.48,987.44 M252.31,987.41
		c-0.12,6.82,0.03,13.65-0.09,20.48c7.23,0.11,14.46-0.01,21.7,0.07c-0.03-6.86,0.08-13.72-0.06-20.57
		C266.68,987.44,259.5,987.41,252.31,987.41 M289.17,987.32c-0.42,6.87-0.14,13.76-0.16,20.65c7.22-0.1,14.44,0.05,21.65-0.08
		c-0.1-6.83,0.03-13.66-0.07-20.49C303.45,987.38,296.31,987.51,289.17,987.32 M214.39,1022.18c0.21,6.77,0.05,13.55,0.09,20.33
		c7.12,0.0599,14.25-0.1,21.37,0.09c0.63-6.83,0.16-13.71,0.26-20.55C228.87,1021.88,221.6,1021.66,214.39,1022.18 M252.25,1022.04
		c0.07,6.83-0.05,13.66,0.07,20.4901c7.15,0,14.31-0.0701,21.47,0.0499c0.27-6.88,0.12-13.7699,0.09-20.65
		C266.67,1021.96,259.45,1021.75,252.25,1022.04 M289.09,1021.9c-0.26,6.86-0.07,13.73-0.11,20.6c7.16,0.05,14.33-0.0601,21.49,0.08
		c0.37-6.7999,0.01-13.61,0.21-20.41C303.49,1021.62,296.28,1022.03,289.09,1021.9 M214.47,1054.35
		c0.02,6.8101,0.05,13.63-0.01,20.4401c7.19,0.14,14.38,0.02,21.58,0.09c0.08-6.88,0.36-13.78-0.16-20.64
		C228.75,1054.42,221.61,1054.25,214.47,1054.35 M252.3,1054.33c-0.09,6.8201,0.02,13.65-0.07,20.4801
		c7.23,0.11,14.45,0.0299,21.68,0.0299c0.01-6.85,0.06-13.6899-0.04-20.5299C266.68,1054.34,259.49,1054.3,252.3,1054.33
		 M289.1,1054.28c-0.26,6.85-0.16,13.72-0.05,20.58c7.19-0.02,14.38,0.0601,21.58-0.0699c-0.02-6.8101,0.01-13.62-0.01-20.4301
		C303.44,1054.25,296.27,1054.38,289.1,1054.28z"/>
	<path stroke="#000000" stroke-width="0.0938" d="M1642.67,142.45c0.2799-0.24,0.83-0.71,1.11-0.94c2.49,30.85,4.5,61.73,7.01,92.58
		c3.4099,2.57,5.98,6.5,6.02,10.89c0.2999,4.12-1.7401,7.97-4.51,10.87c0.0699,0.7,0.21,2.08,0.2799,2.77c-1.71,0-3.4299,0-5.1,0.01
		c15.61,52.7,31.28,105.39,47,158.07c2.75,0.01,5.51,0.02,8.29,0.03c8.6-36.72,17.09-73.47,25.59-110.21
		c0.47-1.47,0.35-3.43,1.88-4.31c9.11,37.97,17.61,76.1,26.65,114.09c0.12,0.23,0.37,0.7,0.49,0.93c3.24,0.03,6.49-0.03,9.75,0.08
		c0.0599,3.71,0.0599,7.43-0.02,11.14c-24.23,0.07-48.47,0.03-72.7,0.03l-0.02,0.94c-0.0701,28.05-0.03,56.1-0.01,84.15l-0.04,0.79
		c2.63-0.02,5.27-0.01,7.9301,0.04c-0.02,3.73-0.02,7.47,0,11.21c-2.6801,0.04-5.35,0.04-8,0.03c-0.1,38.32-0.14,76.65,0.02,114.98
		c2.63,0.02,5.26,0.02,7.9199,0.03c0.2001,15.0699-0.1,30.14,0.14,45.22c-2.6899-0.02-5.37,0-8.0399,0.12
		c0.1499,29.61-0.0701,59.23,0.11,88.85c2.45,1.12,5.24,0.6299,7.87,0.7c-0.05,3.84-0.0701,7.69,0.08,11.55
		c-2.6801,0.25-5.35,0.25-8.01,0.19c-0.02,8.48-0.01,16.96-0.01,25.45c2.66-0.04,5.38-0.32,7.99,0.46
		c-0.09,3.78-0.12,7.55-0.02,11.34c-2.6399,0-5.37-0.3101-7.87,0.62c-0.1899,33.14-0.09,66.29-0.0599,99.43l0.02,0.95
		c2.6-0.02,5.21-0.01,7.84,0.05c0.01,3.73,0.02,7.45,0.03,11.18c-2.66,0.06-5.3101,0.06-7.9501-0.02
		c-0.1699,9.21-0.22,18.43-0.0199,27.64c2.6299-0.02,5.2799-0.03,7.9399,0c0.02,3.75,0.02,7.5-0.01,11.26c-2.66,0-5.3,0-7.9299-0.02
		c-0.1801,37.62-0.2001,75.24,0,112.86c2.6299-0.02,5.2599-0.02,7.9199,0c0.04,3.74,0.04,7.48,0.03,11.24
		c-2.65,0.02-5.29,0.01-7.91-0.0399c-0.48,24.0199,0.26,48.0699-0.39,72.09c-34.24-0.17-68.49-0.01-102.74-0.09
		c0.03-23.65,0.04-47.3101,0-70.9601c-0.14-0.24-0.4299-0.74-0.5699-0.99c-3.4301-0.03-6.84,0.0701-10.24,0
		c0-3.76,0.02-7.51,0.02-11.26c3.3899-0.0499,6.7899,0.05,10.1899,0.02c0.15-0.28,0.46-0.84,0.61-1.12
		c0.02-36.91,0.02-73.81,0-110.71c-0.1699-0.2599-0.49-0.77-0.65-1.02c-3.39-0.07-6.7799,0.03-10.1499,0.01
		c-0.01-3.76-0.01-7.52-0.01-11.28c3.5499-0.04,7.12,0.09,10.6899-0.1l0.09-0.95c0.15-8.58-0.09-17.17,0.13-25.74
		c-3.21-1.87-7.36-0.25-10.8999-0.76c-0.04-3.77-0.02-7.53,0.0399-11.29c3.4601-0.05,6.9301,0.03,10.41,0.03
		c0.08-0.31,0.26-0.92,0.34-1.23c0.05-30.12,0.01-60.24,0.02-90.36c-0.0599-3.15,0.38-6.39-0.6899-9.42
		c-2.2201,0.08-4.4401,0.15-6.6001,0.61c-0.87-0.1299-2.61-0.4-3.48-0.53c-0.01-3.78-0.1-7.56-0.0699-11.33
		c3.52-0.66,7.85,1.19,10.9299-0.86c-0.14-8.29-0.1499-16.57,0-24.85c-3.12-1.97-7.3999-0.1801-10.9199-0.82
		c-0.01-3.75,0.01-7.5,0.0399-11.24c3.42-0.05,6.8601,0.04,10.3,0.02c0.12-0.29,0.35-0.88,0.47-1.17c0.05-29.5,0.01-59,0.02-88.5
		c-3.62,0-7.23-0.01-10.83,0.01c0.1699-15.12-0.26-30.25,0.22-45.36c3.52,0.1299,7.09,0.34,10.62-0.1l0.02-0.99
		c-0.0801-37.6,0.01-75.2-0.05-112.79c-0.1599-0.26-0.49-0.77-0.65-1.03c-3.3899-0.03-6.7799,0.06-10.1499-0.02
		c-0.01-3.73-0.01-7.47,0.01-11.2c3.38-0.09,6.7799,0,10.1799-0.02c0.15-0.26,0.46-0.79,0.61-1.06c0.03-27.89,0.04-55.79,0-83.68
		c-0.12-0.29-0.36-0.87-0.48-1.16c-24.75,0.05-49.49,0.02-74.24,0.03c-0.0601-3.96-0.05-7.92,0.03-11.87
		c3.4199,0.13,6.85,0.05,10.2899,0.08c8.41-35.6,16.5601-71.27,24.8601-106.9c0.7699-2.57,0.75-5.53,2.46-7.73
		c9.49,38.08,17.73,76.49,26.9299,114.65c3.4301-0.09,6.89,0.13,10.3401-0.21c15.63-52.63,31.26-105.28,46.96-157.89
		c-1.42,0.01-2.8199,0.03-4.2,0.05c0.83-3.6-2.9501-5.49-3.74-8.66c-2.16-5.84,0.3899-12.53,5.38-16.04
		C1638.1,203.48,1640.25,172.94,1642.67,142.45 M1622.13,414.98c-5.28,9.01-7.5,19.62-7.28,30c-0.16,15.01-0.7,30.02-0.74,45.03
		c19.05-0.22,38.11,0.09,57.16-0.11c-0.28-17.99-0.8201-35.97-0.8-53.96c-1.2-10.71-5.33-21.58-13.21-29.17
		c-4.79-4.61-11.79-7.24-18.39-5.63C1631.46,402.79,1625.83,408.64,1622.13,414.98 M1595.23,588.16
		c-0.02,6.85-0.0699,13.71,0.01,20.56c7.1901-0.02,14.39-0.06,21.6,0.01c0.02-6.87,0-13.74,0.01-20.6
		C1609.64,588.18,1602.4301,588.13,1595.23,588.16 M1631.99,588.14c-0.1899,6.84-0.05,13.68-0.1,20.52
		c7.23,0.04,14.46,0.11,21.7-0.03c-0.0499-6.79-0.0699-13.59,0.01-20.38C1646.39,588.02,1639.1801,588.22,1631.99,588.14
		 M1669.61,588.24c0.15,6.81,0.0601,13.62,0.05,20.43c7.23,0.04,14.48,0.07,21.72-0.03c-0.09-6.79-0.1-13.59,0.02-20.38
		C1684.13,588.07,1676.86,588.09,1669.61,588.24 M1595.16,613.08c0.14,6.82-0.0901,13.64,0.14,20.47
		c7.1399-0.03,14.2899-0.07,21.4399,0.02c0.24-6.86,0.05-13.73,0.11-20.59C1609.61,612.98,1602.38,612.83,1595.16,613.08
		 M1631.9399,612.96c0.04,6.88-0.2899,13.77,0.1901,20.65c7.14-0.18,14.28-0.06,21.4301-0.08c0.0199-6.79-0.1001-13.59,0.08-20.3701
		C1646.41,612.69,1639.16,613.07,1631.9399,612.96 M1669.6899,612.97c-0.0199,6.83,0.02,13.67-0.0299,20.51
		c7.22,0.07,14.45,0.06,21.6799-0.02c-0.0399-6.84,0-13.67-0.02-20.51C1684.1,612.96,1676.89,612.93,1669.6899,612.97
		 M1595.15,719.96c0.08,6.7599,0.0699,13.53,0.02,20.3c7.23,0.17,14.48,0.13,21.72,0.02c-0.08-6.8-0.05-13.6-0.02-20.39
		C1609.63,719.77,1602.38,719.63,1595.15,719.96 M1631.91,719.81c-0.03,6.83-0.02,13.67,0,20.51
		c7.1599,0.12,14.3199-0.09,21.48,0.09c0.4399-6.75-0.0701-13.52,0.27-20.27C1646.45,719.36,1639.15,719.98,1631.91,719.81
		 M1669.71,719.82c-0.0399,6.84-0.0399,13.68-0.01,20.52c7.2101,0,14.41,0.04,21.63-0.01c-0.01-6.84-0.01-13.67-0.01-20.5
		C1684.11,719.75,1676.91,719.77,1669.71,719.82 M1595.17,744.71c0.0399,6.8,0.0499,13.6,0.0299,20.4
		c7.2201,0.13,14.4401,0.04,21.67,0.06c-0.02-6.83-0.0599-13.65,0.03-20.47C1609.66,744.55,1602.41,744.53,1595.17,744.71
		 M1631.92,744.63c-0.04,6.84-0.04,13.69,0.01,20.54c7.23-0.17,14.5,0.37,21.72-0.3c-0.3101-6.78,0.1699-13.57-0.26-20.33
		C1646.23,744.71,1639.0699,744.55,1631.92,744.63 M1669.71,744.61c-0.0699,6.85-0.02,13.71-0.01,20.57
		c7.1901-0.03,14.39,0.01,21.6001-0.01c0.0199-6.86,0.0699-13.71,0-20.56C1684.1,744.6,1676.9,744.62,1669.71,744.61
		 M1595.15,866.71c0.12,6.7599,0.03,13.52,0.0399,20.28c7.2201,0.28,14.4601,0.18,21.6901,0.06c-0.03-6.8-0.09-13.6,0.03-20.39
		C1609.65,866.51,1602.39,866.43,1595.15,866.71 M1631.9301,866.57c-0.05,6.85-0.0601,13.7,0,20.56
		c7.22-0.13,14.48,0.33,21.6899-0.25c-0.1899-6.79,0.0699-13.59-0.16-20.37C1646.28,866.6,1639.1,866.53,1631.9301,866.57
		 M1669.7,866.56c-0.0399,6.85,0,13.7-0.0299,20.56c7.1899,0.04,14.39,0.01,21.59,0.03c0.17-6.85,0.03-13.71,0.05-20.55
		C1684.1,866.51,1676.9,866.57,1669.7,866.56 M1595.24,891.35c-0.08,6.85,0.01,13.69-0.0699,20.54
		c7.22,0.11,14.45,0.01,21.6799,0.06c-0.0599-6.88,0.09-13.75-0.0699-20.62C1609.59,891.4,1602.41,891.36,1595.24,891.35
		 M1632.11,891.28c-0.46,6.87-0.11,13.77-0.2,20.65c7.23-0.03,14.48,0.12,21.72-0.09c-0.16-6.82-0.04-13.64-0.0699-20.45
		C1646.4,891.33,1639.25,891.47,1632.11,891.28 M1669.66,891.46c0.0699,6.83-0.03,13.66,0.0499,20.5
		c7.1801-0.02,14.36-0.05,21.55,0.0099c0.15-6.85,0.01-13.6899,0.08-20.53C1684.11,891.32,1676.88,891.32,1669.66,891.46
		 M1595.26,987.38c-0.13,6.84,0,13.69-0.08,20.54c7.22,0.05,14.4399-0.01,21.6699,0.03c-0.0599-6.86,0.1-13.73-0.0699-20.58
		C1609.6,987.45,1602.42,987.43,1595.26,987.38 M1632.16,987.3c-0.5801,6.85-0.12,13.75-0.26,20.63c7.24-0.1,14.49,0.21,21.74-0.1
		c-0.17-6.81-0.0601-13.62-0.0701-20.42C1646.4301,987.36,1639.29,987.55,1632.16,987.3 M1669.64,987.47
		c0.12,6.82-0.02,13.65,0.0699,20.4901c7.1801-0.04,14.37-0.06,21.5701,0.0099c0.11-6.83,0-13.66,0.0699-20.49
		C1684.11,987.36,1676.87,987.38,1669.64,987.47 M1595.21,1022.02c0.03,6.85-0.1,13.7,0.0701,20.5499
		c7.1599-0.1,14.33-0.0699,21.5-0.0099c0.14-6.8601,0.0599-13.7201,0.0499-20.5801C1609.62,1021.89,1602.41,1021.8,1595.21,1022.02
		 M1631.9301,1021.91c0.08,6.9001-0.3501,13.83,0.25,20.72c7.11-0.23,14.24-0.0699,21.36-0.11c0.0599-6.78-0.0901-13.5601,0.1-20.34
		C1646.42,1021.58,1639.16,1022.05,1631.9301,1021.91 M1669.7,1021.98c-0.0699,6.79,0.0601,13.59-0.0699,20.38
		c7.23,0.29,14.49,0.21,21.73,0.04c-0.08-6.8301,0-13.66-0.0599-20.4901C1684.09,1021.94,1676.89,1021.83,1669.7,1021.98
		 M1595.22,1054.36c-0.0499,6.8101-0.01,13.64-0.01,20.46c7.2101,0.0701,14.4301,0.03,21.66,0.04c-0.04-6.85,0-13.7-0.04-20.54
		C1609.62,1054.35,1602.42,1054.27,1595.22,1054.36 M1632.08,1054.25c-0.37,6.86-0.1499,13.74-0.12,20.62
		c7.2101-0.08,14.42,0.12,21.64-0.1c-0.08-6.8101-0.0499-13.61-0.03-20.41C1646.41,1054.23,1639.24,1054.4301,1632.08,1054.25
		 M1669.66,1054.35c0.0599,6.84-0.01,13.6801,0.0499,20.52c7.23-0.09,14.4701,0.15,21.7101-0.15
		c-0.14-6.77-0.2201-13.5499,0.0599-20.3099C1684.2,1054.23,1676.9301,1054.33,1669.66,1054.35z"/>
	<path fill="#A9A09B" stroke="#A9A09B" stroke-width="0.0938" d="M243.62,412.59c4.34-6.46,11.27-12,19.39-11.92
		c7.56-0.03,14.1,4.93,18.39,10.8c6.01,8.24,8.87,18.45,9.54,28.53c0.1,16.68,0.77,33.35,0.74,50.03
		c-19.02-0.23-38.05,0.01-57.07-0.1c0.06-15.66,0.75-31.31,0.71-46.96C234.64,432.3,237.72,421.46,243.62,412.59z"/>
	<path fill="#A9A09B" stroke="#A9A09B" stroke-width="0.0938" d="M1622.13,414.98c3.7-6.34,9.33-12.19,16.74-13.84
		c6.6-1.61,13.6,1.02,18.39,5.63c7.88,7.59,12.01,18.46,13.21,29.17c-0.02,17.99,0.52,35.97,0.8,53.96
		c-19.05,0.2-38.11-0.11-57.16,0.11c0.04-15.01,0.58-30.02,0.74-45.03C1614.63,434.6,1616.85,423.99,1622.13,414.98z"/>
	<path fill="#989898" stroke="#989898" stroke-width="0.0938" d="M1756.89,416.3c3.67,0.01,7.35-0.02,11.04-0.04
		c-0.4,4.49,0.2,9.01-0.3601,13.48c-3.4099-0.17-6.8099-0.18-10.2-0.26c-0.0699,27.94-0.13,55.88,0.04,83.81
		c3.47,0.07,6.96,0.09,10.45-0.02c0.02,4.48-0.1899,8.96,0.01,13.44c-3.5-0.09-7-0.08-10.48,0c-0.15,37.6-0.09,75.2-0.04,112.8
		c3.4501,0.09,6.92-0.18,10.39,0.06c1.0701,0.68,0.3101,2.36,0.61,3.44c-0.03,14.2-0.1,28.4,0.03,42.6
		c-3.63,0.04-7.25,0.09-10.86-0.06c-0.75,2.75-0.46,5.63-0.48,8.45c0.02,19.33,0,38.67,0,58c0.1899,7.77-0.4501,15.58,0.45,23.31
		c0.0701,3.8-0.13,7.59-0.08,11.4c3.22,0.14,6.46,0.14,9.7-0.02c0.0601-3.74-0.12-7.49,0.1801-11.21l0.49-0.6
		c0.0699,4.28-0.03,8.58,0.1799,12.87c-3.49-0.01-6.98,0-10.4399-0.14c-1.01,8.28-0.3,16.72-0.41,25.07
		c3.55-0.59,7.16-0.34,10.75-0.44c-0.1,4.48-0.08,8.96-0.01,13.44c-3.5-0.1-6.99-0.1-10.46-0.05c-0.15,32.94-0.09,65.88-0.03,98.82
		c3.48-0.01,6.97-0.01,10.47-0.1c-0.0399,4.45-0.0699,8.9,0.1001,13.35c-3.7201,0.03-7.4301-0.14-11.1101,0.28
		c0.5701,8.26-0.09,16.57,0.39,24.85c3.29,1.19,7.14,0.18,10.66,0.49c-0.1,4.46-0.15,8.92,0.02,13.38
		c-3.62-0.12-7.26,0.27-10.8201-0.44c-0.0699,28.58,0.01,57.16-0.0299,85.74c0.2899,8.46-0.5901,17,0.51,25.41
		c3.4099-0.02,6.84,0,10.2799-0.0701c-0.0599,4.4701-0.0299,8.9501,0.1001,13.4401c-3.62-0.0901-7.26,0.2-10.8201-0.4501
		c-0.1899,23.63,0.08,47.27-0.15,70.9c-0.24,0.09-0.72,0.28-0.96,0.37c0.05-247.2,0-494.4,0.04-741.61
		c-17.4401-0.31-34.9,0.28-52.3201-0.29c-2.89-0.74-5.87-0.73-8.7899-0.3l-0.54,0.02l0.02-0.94c24.23,0,48.47,0.04,72.7-0.03
		c0.08-3.71,0.08-7.43,0.02-11.14c-3.26-0.11-6.51-0.05-9.75-0.08C1757.26,417,1757.01,416.53,1756.89,416.3 M1757.48,514.41
		c-0.04,3.72-0.03,7.44-0.01,11.16c3.2101,0.09,6.4501,0.15,9.6901-0.02c0.0399-3.72,0.01-7.43-0.0801-11.13
		C1763.87,514.31,1760.67,514.33,1757.48,514.41 M1757.54,640.7c-0.2001,14.62-0.03,29.24-0.0901,43.86
		c3.1801,0.09,6.38,0.13,9.5801-0.01c-0.1801-14.66,0.3099-29.34-0.25-43.99C1763.6899,640.68,1760.61,640.71,1757.54,640.7
		 M1757.46,813.32c-0.02,3.73-0.0299,7.46,0.01,11.2c3.2001,0.03,6.42,0.05,9.64-0.05c0.0601-3.6899,0.0601-7.3799,0.02-11.0699
		C1763.9,813.21,1760.67,813.24,1757.46,813.32 M1757.53,925.54c-0.14,3.73-0.0901,7.47-0.0801,11.22
		c3.2001,0.05,6.42,0.09,9.65-0.01c0.05-3.74,0.0701-7.46,0.01-11.18C1763.91,925.54,1760.71,925.53,1757.53,925.54 M1757.45,964.41
		c-0.01,3.72-0.01,7.45,0.01,11.1801c3.2201,0.05,6.4501,0.09,9.6901-0.04c0.03-3.73,0.03-7.45-0.0601-11.17
		C1763.87,964.35,1760.65,964.35,1757.45,964.41 M1757.49,1088.5c-0.0699,3.74-0.0599,7.48-0.03,11.23
		c3.2001,0.04,6.41,0.0601,9.62-0.08c0.0701-3.72,0.1001-7.4301,0.0601-11.14C1763.91,1088.47,1760.6899,1088.46,1757.49,1088.5z"/>
	<path fill="#9F9F9F" stroke="#9F9F9F" stroke-width="0.0938" d="M1515.33,416.56l1.2001,0.08c-0.0801,3.95-0.0901,7.91-0.03,11.87
		c24.75-0.01,49.49,0.02,74.24-0.03c0.12,0.29,0.36,0.87,0.48,1.16c-3.71-0.07-7.4099-0.09-11.09,0.23
		c-0.6801,10.35-0.17,20.75-0.3,31.12c-0.0499,15.67,0.0901,31.35-0.0499,47.02c-0.01,1.58,0.03,3.17,0.37,4.74
		c3.53,1.1,7.39,0.34,11.0699,0.57c-0.15,0.27-0.46,0.8-0.61,1.06c-3.4,0.02-6.7999-0.07-10.1799,0.02
		c-0.02,3.73-0.02,7.47-0.01,11.2c3.37,0.08,6.76-0.0099,10.1499,0.02c0.16,0.26,0.4901,0.77,0.65,1.03
		c-3.61,0.03-7.22,0.08-10.8199,0.1c-0.12,37.56-0.09,75.13-0.02,112.7c3.62,0.02,7.25,0.03,10.89-0.01l-0.02,0.99
		c-3.53,0.44-7.1,0.23-10.62,0.1c-0.48,15.11-0.05,30.24-0.22,45.36c-0.16,29.49-0.0701,58.98-0.04,88.47
		c3.61,0.02,7.22,0.05,10.85,0.02c-0.12,0.29-0.35,0.88-0.47,1.17c-3.4399,0.02-6.88-0.07-10.3-0.02
		c-0.0299,3.74-0.0499,7.49-0.0399,11.24c3.52,0.64,7.7999-1.15,10.9199,0.82c-3.62,0.23-7.24,0.22-10.85,0.22
		c-0.23,8.14-0.25,16.31-0.01,24.46c3.61-0.05,7.24-0.08,10.86,0.17c-3.08,2.05-7.4099,0.2-10.9299,0.86
		c-0.03,3.77,0.0599,7.55,0.0699,11.33c-0.26,33.25-0.1699,66.51-0.0399,99.76c3.58,0.01,7.1799,0.01,10.7899-0.06
		c-0.08,0.31-0.26,0.92-0.34,1.23c-3.48,0-6.95-0.08-10.41-0.03c-0.0599,3.7599-0.08,7.52-0.0399,11.29
		c3.5399,0.51,7.6899-1.11,10.8999,0.76c-3.62,0.25-7.24,0.21-10.84,0.18c-0.3099,8.5-0.15,17.01-0.09,25.52
		c3.59,0,7.1899,0.03,10.7999,0.04l-0.09,0.95c-3.5699,0.19-7.14,0.06-10.6899,0.1c0,3.76,0,7.52,0.01,11.28
		c3.37,0.02,6.7599-0.08,10.1499-0.01c0.16,0.25,0.4801,0.76,0.65,1.02c-3.62,0.03-7.22,0.07-10.8199,0.06
		c-0.14,36.88-0.11,73.76-0.01,110.63c3.6-0.01,7.21,0.01,10.83,0.02c-0.15,0.28-0.46,0.84-0.61,1.12
		c-3.4,0.03-6.8-0.0699-10.1899-0.02c0,3.75-0.02,7.5-0.02,11.26c3.4,0.0701,6.8099-0.03,10.24,0c0.14,0.25,0.4299,0.75,0.5699,0.99
		c-3.61,0.0601-7.21,0.0801-10.7899,0.04c-0.2101,23.64-0.0601,47.28-0.0801,70.9299c3.62,0.1201,7.24,0.0901,10.87-0.0099
		c34.25,0.08,68.5-0.0801,102.74,0.09c0.65-24.02-0.09-48.0701,0.39-72.09c2.62,0.0499,5.26,0.0599,7.91,0.0399
		c0.01-3.76,0.01-7.5-0.03-11.24c-2.66-0.02-5.29-0.02-7.9199,0c-0.2001-37.62-0.1801-75.24,0-112.86
		c2.6299,0.02,5.2699,0.02,7.9299,0.02c0.03-3.76,0.03-7.51,0.01-11.26c-2.66-0.03-5.3101-0.02-7.9399,0
		c-0.2001-9.21-0.15-18.43,0.0199-27.64c2.64,0.08,5.29,0.08,7.9501,0.02c-0.01-3.73-0.02-7.45-0.03-11.18
		c-2.63-0.06-5.24-0.07-7.84-0.05l-0.02-0.95c2.6799-0.16,5.36-0.25,8.0699-0.28c-0.01-32.86,0.02-65.72-0.02-98.58
		c-2.6899,0.05-5.3799,0.02-7.99-0.5699c2.5-0.9301,5.2301-0.62,7.87-0.62c-0.1-3.79-0.0699-7.5601,0.02-11.34
		c0.2001-8.7,0.17-17.41,0.03-26.1c-0.15-3.86-0.13-7.71-0.08-11.55c-2.63-0.07-5.42,0.42-7.87-0.7
		c2.63-0.4901,5.3199-0.56,8.0199-0.53c-0.0199-29.48,0.14-58.97-0.09-88.44c-0.24-15.08,0.0601-30.15-0.14-45.22
		c-2.6599-0.01-5.2899-0.01-7.9199-0.03c-0.16-38.33-0.12-76.66-0.02-114.98c2.65,0.01,5.3199,0.01,8-0.03
		c-0.02-3.74-0.02-7.48,0-11.21c-2.66-0.05-5.3-0.06-7.9301-0.04l0.04-0.79c2.66-0.33,5.34-0.33,8.04-0.33
		c0.0499-27.85,0.0699-55.69,0-83.54c-2.52-0.04-5-0.17-7.49-0.3c2.9199-0.43,5.8999-0.44,8.7899,0.3
		c-0.2,246.79-0.03,493.6-0.08,740.39c-0.53,2.16,2.11,1.4701,3.3199,1.65c16.3401-0.16,32.6901,0.11,49.04-0.14
		c0.24-0.09,0.72-0.28,0.96-0.37c2.76,1.55,6.01,1.04,9.0601,1.15c19.1699-0.05,38.35,0.03,57.53-0.1
		c-0.0801,64.8099-0.1801,129.63,0.0499,194.4399c-97.51-0.1899-195.02,0-292.53-0.09c-21.2799,0.09-42.5499-0.13-63.8099,0.14
		c0.22-64.87,0.11-129.74,0.05-194.61c13.8999,0.48,27.8099,0,41.72,0.25c5.4399-0.1801,10.9299,0.2899,16.35-0.42
		c0.3199-0.04,0.9399-0.12,1.26-0.16c17.4299-0.2999,34.88-0.0599,52.3199-0.12c0.28-219.59-0.01-439.1899,0.15-658.79
		c0.0601-27.67,0.1901-55.36-0.0499-83.03c-17.4701-0.11-34.9501,0.17-52.42-0.15l-0.8-0.03c-3.46-0.24-6.9099,0.02-10.35-0.24
		C1515.21,425.17,1515.4399,420.86,1515.33,416.56 M1694.73,526.78c-0.21,37.5099-0.21,75.05-0.02,112.5699
		c2.55,0.15,5.11,0.16,7.6901,0.08c0.11-37.55,0.08-75.1,0.02-112.66C1699.84,526.67,1697.28,526.66,1694.73,526.78 M1694.7,937.85
		c-0.21,8.46-0.13,16.94,0.02,25.41c2.55,0.04,5.11,0.04,7.6801,0.02c0.09-8.5,0.12-17-0.02-25.5
		C1699.8101,937.73,1697.25,937.76,1694.7,937.85 M1694.73,976.78c-0.1799,36.84-0.23,73.7,0.03,110.5399
		c2.53,0.02,5.0699,0.02,7.62,0.03c0.12-36.86,0.14-73.74,0-110.6C1699.8101,976.68,1697.27,976.69,1694.73,976.78 M1694.65,1100.86
		c0.02,23.58-0.28,47.17,0.1699,70.75c2.52,0.22,5.0601,0.2001,7.6101,0.02c0.0299-23.61,0.08-47.23-0.03-70.84
		C1699.8,1100.79,1697.22,1100.8101,1694.65,1100.86 M1468.37,1173.13c0.2,64.23,0.1,128.46,0.05,192.7
		c5.1599,0.5801,10.37,0.16,15.5599,0.3c112.76-0.03,225.51,0.02,338.26-0.02c0.1-64.41,0-128.8199,0.05-193.23
		c-36.11-0.1901-72.2201,0.2-108.3201,0.12c-57.35,0-114.7,0.01-172.0399,0C1517.41,1173.05,1492.87,1172.4301,1468.37,1173.13z"/>
	<path fill="#8C8C8C" stroke="#8C8C8C" stroke-width="0.0938" d="M148.72,430.88c0.21-0.38,0.64-1.15,0.85-1.54
		c0.61,15.21,0.09,30.46,0.27,45.68c0.03,232.27-0.06,464.54,0.04,696.8099c-0.34,0.03-1.03,0.0901-1.37,0.12
		c0.21-23.7799,0.12-47.5699,0.05-71.35c-3.69,0.0601-7.38,0.0801-11.07,0.04c0.16-4.41,0.16-8.8101,0.05-13.21
		c3.67,0.0199,7.35,0.0099,11.02,0.0699c0.1-36.98,0.09-73.97,0-110.95c-3.7,0.07-7.4,0.06-11.1,0.03
		c-0.22-4.44-0.14-8.87-0.18-13.3l0.47,0.04c-0.07,4.12-0.12,8.25,0.02,12.37l0.77-0.02c3.17-0.1,6.34-0.1,9.52,0.01
		c0.37-3.7,0.21-7.42,0.22-11.12c0.64-9.09,0.43-18.26,0.14-27.37c-0.2-3.94-0.24-7.89-0.03-11.83c0.56-18.13,0.08-36.29,0.24-54.44
		c-0.16-15.41,0.32-30.83-0.25-46.23c-0.18-3.95-0.19-7.92,0.04-11.86c0.35-8.54,0.36-17.12-0.02-25.66
		c-0.31-3.9,0.23-7.84-0.51-11.71c-3.13,0.12-6.28,0.29-9.41,0.0099c-0.35-0.22-1.06-0.66-1.41-0.8799
		c3.84-0.1801,7.68-0.07,11.52-0.09c0.04-29.65,0.05-59.29,0-88.94c-3.51,0.01-7.02-0.03-10.52,0.15c-0.76-2.51-0.43-5.14-0.44-7.71
		c0.02-12.39-0.02-24.79,0.01-37.18c0.26-0.31,0.8-0.93,1.07-1.24c3.31-0.14,6.63,0.06,9.94,0.02c-0.04-30.86-0.01-61.73-0.01-92.59
		c-0.2-7.23,0.43-14.5-0.4-21.7c0.07-3.54,0.08-7.09,0.02-10.62c0.63-4.87,0.3-9.77,0.37-14.65
		C148.7,476.99,148.52,453.92,148.72,430.88 M138.87,640.75c-0.13,14.57-0.02,29.15-0.05,43.73c3.15,0.18,6.31,0.18,9.47,0.01
		c-0.07-14.59,0.13-29.18-0.1-43.76C145.08,640.73,141.97,640.73,138.87,640.75 M138.88,1088.53c-0.08,3.74-0.17,7.49,0.15,11.24
		c2.98-0.0601,5.96-0.0701,8.94,0.04c0.62-3.7301,0.27-7.51,0.25-11.26C145.1,1088.51,141.99,1088.5,138.88,1088.53z"/>
	<path stroke="#000000" stroke-width="0.0938" d="M149.57,429.34c6.79,0.6,13.61,0.26,20.42,0.38c10.83-0.12,21.67,0.23,32.5-0.27
		c-0.18,76.53,0.24,153.06-0.17,229.58c0.35,102.99,0.08,205.99,0.16,308.98c-0.02,67.92,0.05,135.84-0.09,203.75
		c-17.5-0.02-35.01-0.17-52.51,0.0699c-0.1-232.27-0.01-464.54-0.04-696.8099C149.66,459.8,150.18,444.55,149.57,429.34z"/>
	<path fill="#919191" stroke="#919191" stroke-width="0.0938" d="M325.56,432.94c0.1-1.24-0.34-2.88,1.01-3.62
		c0.57,14.88,0.1,29.78,0.25,44.67c0.01,232.61-0.01,465.23,0.01,697.84c-0.34,0.04-1.01,0.12-1.35,0.16
		c0.24-23.76,0.09-47.53,0.08-71.29c-3.69-0.0199-7.38,0.03-11.07-0.1599c3.11-1.9501,7.32-0.23,10.84-0.9
		c0.01-3.72-0.01-7.42-0.05-11.12c-3.61,0.02-7.21-0.02-10.81-0.0701c-0.04-37.61-0.12-75.23,0.07-112.84
		c3.59,0.04,7.18-0.01,10.77-0.04c0.02-3.71,0.01-7.42,0-11.13c-3.61-0.05-7.21-0.09-10.82-0.06c-0.03-9.22-0.23-18.45,0.08-27.67
		c3.58,0.14,7.16,0.1,10.74,0.03c0.01-3.69,0-7.37,0.02-11.05c-3.59-0.19-7.18-0.18-10.76-0.06c-0.28-33.69-0.1-67.4-0.09-101.09
		c3.6-0.0099,7.21-0.04,10.81-0.08c0.04-3.71,0.04-7.42,0.01-11.12c-3.6-0.06-7.19-0.08-10.78-0.04c-0.11-8.86-0.22-17.74,0.06-26.6
		c3.58,0.16,7.16,0.13,10.74-0.01c0.01-3.7,0-7.39-0.04-11.08c-3.56-0.06-7.12,0.06-10.67-0.17l-0.03-1.02
		c3.66,0.07,7.32,0.07,10.98,0.03c-0.02-29.53,0.23-59.07-0.13-88.6c-0.33-15.05,0.1-30.11-0.21-45.15c-3.6,0.06-7.2,0.03-10.8-0.1
		c0.1-38.34-0.09-76.68,0.09-115.0099c3.6,0.05,7.2,0.02,10.8-0.08c0.02-3.7,0-7.39-0.04-11.08c-3.5-0.57-7.73,1.14-10.78-0.91
		c3.68-0.27,7.38-0.13,11.07-0.16C325.62,486.55,325.62,459.74,325.56,432.94 M314.87,526.7c-0.14,37.6-0.23,75.21,0.05,112.81
		c3.55,0.04,7.11,0.04,10.67,0.02c0-37.63,0.02-75.26-0.02-112.9C322.01,526.62,318.44,526.6,314.87,526.7 M314.94,787.79
		c-0.34,8.15-0.15,16.32-0.07,24.48c3.56,0.12,7.12,0.1,10.68,0.04c0.08-8.2,0.08-16.39-0.01-24.59
		C322,787.63,318.47,787.56,314.94,787.79 M314.84,825.68c-0.04,32.91-0.22,65.83,0.08,98.74c3.55,0.1,7.11,0.07,10.67,0.05
		c0-32.97,0.03-65.93-0.02-98.89C321.99,825.58,318.41,825.51,314.84,825.68 M314.91,937.75c-0.18,8.52-0.23,17.05,0,25.57
		c3.54,0.12,7.08,0.06,10.63,0.09c0.07-8.5699,0.14-17.14-0.04-25.7C321.97,937.63,318.44,937.61,314.91,937.75 M314.87,976.65
		c-0.15,36.92-0.2,73.84,0.07,110.76c3.53,0.0299,7.07,0.0299,10.61,0.0399c0.06-36.96,0.11-73.91-0.02-110.8699
		C321.97,976.62,318.42,976.6,314.87,976.65z"/>
	<path stroke="#000000" stroke-width="0.0938" d="M326.57,429.32c17.61,0.96,35.27,0.03,52.9,0.48
		c0.03,56.72,0.01,113.45,0.01,170.17c-0.67,16,0.44,32.01-0.2,48.01c0.42,97.02,0.1,194.05,0.22,291.08
		c-0.05,77.56,0.03,155.1201-0.07,232.68c-17.53,0.03-35.07-0.16-52.6,0.09c-0.02-232.61,0-465.23-0.01-697.84
		C326.67,459.1,327.14,444.2,326.57,429.32z"/>
	<path fill="#A9A09B" stroke="#A9A09B" stroke-width="0.0938" d="M1525.46,431.07c0.1001-0.34,0.28-1.02,0.38-1.36l0.8,0.03
		c-0.04,247.36-0.03,494.73,0,742.09c-0.3201,0.04-0.9401,0.12-1.26,0.16c0.1-23.72,0.12-47.4399,0-71.17
		c-3.38-0.0299-6.76-0.0299-10.12-0.0299c0.08-4.49,0.04-8.99,0.11-13.4701c3.3199,0.02,6.65,0.02,9.99,0.04
		c0.2001-34.76,0.03-69.53,0.08-104.29c-0.3899-6.37,1.1001-12.72,0.0801-19.07c-0.3-9.12,0.1899-18.27-0.25-27.39
		c-0.04-3.76-0.03-7.51,0.0699-11.26c0.17-33.55,0.1901-67.11-0.01-100.66c-0.08-3.76-0.11-7.51-0.0699-11.25
		c0.3199-8.54,0.23-17.1,0.08-25.65c-3.36-0.02-6.71-0.03-10.0499,0.02c0.0699-4.49,0.0599-8.97,0.02-13.45
		c3.36,0.02,6.72,0.02,10.1,0.01c0.0299-29.55,0.13-59.1-0.05-88.64c-3.36-0.03-6.71-0.03-10.0499-0.01
		c0.11-15.43-0.03-30.87,0.0599-46.31c3.3101,0.07,6.63,0.04,9.97,0.05c0.35-2.66,0.03-5.33-0.0499-7.98
		c-0.0601-10.8,0.01-21.6-0.03-32.4c-81.39-0.18-162.79,0.14-244.17-0.16c1.12-1.14,2.63-1.39,4.17-1.34
		c6.37,1.41,13.04,0.79,19.51,0.39c2.5699-0.17,5.15-0.21,7.74-0.36c2.17,1.09,4.79,1.13,6.96-0.05c2.55,0.2,5.12,0.27,7.7001,0.42
		c6.45,0.24,13.13,1.18,19.46-0.44c2.62,0.42,5.3,0.36,7.95,0.02c1.53,0.81,3.3301,1.11,4.8501,0.03
		c2.61,0.2599,5.2699,0.42,7.8999-0.05c6.28,1.71,13.01,0.65,19.4501,0.45c2.5699-0.18,5.1599-0.25,7.75-0.39
		c2.9,1.22,6.15,0.98,9.13,0.13c2.5499-0.11,5.11,0.04,7.6699,0.25c6.42,0.34,13.15,1.17,19.42-0.51c2.72,0.48,5.49,0.32,8.25,0.61
		c1.88,0.22,3.83,0.24,5.67-0.43c2.5399,0.0699,5.1,0.13,7.6599,0.34c5.17,0.57,10.39,0.38,15.5901,0.4c1.38,0,2.7-0.33,3.95-1
		c0.12,0.09,0.35,0.27,0.47,0.37c2.55,0.05,5.11,0.01,7.66,0.29c2.55,0.3,5.14,0.3,7.72,0c2.5701-0.29,5.1901-0.37,7.79-0.11
		c5.79,0.59,11.65,0.62,17.46,0.27c0.49-0.19,1.49-0.57,1.99-0.76c2.67,0.59,5.4401,0.33,8.17,0.48c0.5599,0.11,1.67,0.33,2.23,0.44
		c0.1901-12.71,0.08-25.42,0.05-38.13c-1.61-0.02-3.0701,0.35-4.2101,1.47l0.41-0.91c-2.75,0.15-5.8199-0.63-8.22,1.01l0.27-1.43
		c-5.4501,0-10.88-0.04-16.3101,0.04l0.4601,1.36c-2.4601-1.58-5.51-0.92-8.2401-0.94l-0.0299,0.84
		c-1.4401-1.57-3.63-1.32-5.53-1.38c-2.01,0.02-4.2-0.19-5.77,1.26l-0.1899-0.71c-2.64-0.03-5.53-0.58-7.8501,0.94l0.4601-1.37
		c-5.4701-0.08-10.9401-0.05-16.4-0.01l0.4299,1.47c-2.6-1.87-6.0099-0.75-8.95-1.21c-2.35-0.19-4.6899-0.33-7.02-0.42
		c-0.4099,0.41-1.24,1.24-1.65,1.65l0.3401-1.06c-2.75,0.06-5.77-0.6201-8.2101,0.93l0.4701-1.36
		c-5.4701-0.04-10.9301-0.06-16.38,0.02l0.38,1.44c-2.5601-1.93-5.9-0.91-8.8-0.73c-3.6-1.42-7.55-0.74-11.28-0.42
		c-2.5599,0.19-5.11,0.16-7.65-0.03c-5.6299-0.57-11.2799-0.23-16.9199-0.3c0.23,0.63,0.6899,1.91,0.9299,2.54
		c-0.63-0.74-1.25-1.47-1.86-2.19c-2.5299-0.02-5.0599-0.01-7.51,0.59c-0.2999-0.29-0.9199-0.86-1.22-1.14
		c-1.9299,0.16-3.8199,0.33-5.71,0.53c-2.8201,0.25-5.86-0.4399-8.4601,0.92l0.0601-1.15c-5.4-0.22-10.8101-0.08-16.2-0.12
		c0.24,0.61,0.71,1.83,0.95,2.44c-1.98-3.25-6.1801-1.87-9.26-1.64c-2.97-1.24-6.49-1.28-9.42,0.02
		c-2.7699-0.44-5.72-0.9-8.2999,0.45l0.35-1.19c-5.47-0.13-10.9301-0.07-16.38-0.06c0.23,0.64,0.7,1.91,0.9401,2.54
		c-0.6101-0.72-1.2301-1.42-1.8301-2.1c-1.76-0.17-3.95,0.46-5.1699-1.2c11.33-0.8,22.73-0.12,34.09-0.35
		c70.08-0.02,140.15,0.04,210.23-0.02c0-3.32-0.01-6.63,0.1-9.94c0.1901-7.98,0.26-15.96-0.08-23.94
		c-0.02-3.66-0.0601-7.32,0.08-10.97C1525.59,486.63,1525.36,458.84,1525.46,431.07 M1516.5,640.65
		c-0.1,14.65-0.03,29.29-0.02,43.94c2.91,0.0699,5.85,0.08,8.79-0.01c0-14.62,0-29.24,0-43.86
		C1522.34,640.59,1519.41,640.62,1516.5,640.65 M1516.47,775.54c-0.0399,3.72-0.02,7.45-0.03,11.18c2.8701,0.09,5.75,0.11,8.65,0.13
		c0.35-3.72,0.0701-7.45,0.23-11.17C1522.37,775.39,1519.41,775.5,1516.47,775.54 M1516.45,1088.46c0.02,3.74,0.01,7.48-0.01,11.24
		c2.9501,0.12,5.91,0.13,8.88-0.0599c-0.08-3.74-0.0599-7.46-0.0399-11.1801C1522.3199,1088.4399,1519.38,1088.4399,1516.45,1088.46
		z"/>
	<path stroke="#000000" stroke-width="0.0938" d="M1526.64,429.74c17.47,0.32,34.95,0.04,52.42,0.15
		c0.24,27.67,0.11,55.36,0.0499,83.03c-0.16,219.6,0.13,439.2-0.15,658.79c-17.4399,0.0601-34.89-0.1799-52.3199,0.12
		C1526.61,924.47,1526.6,677.1,1526.64,429.74z"/>
	<path stroke="#000000" stroke-width="0.0938" d="M1703.72,429.7c17.42,0.57,34.88-0.02,52.3201,0.29
		c-0.04,247.21,0.01,494.41-0.04,741.61c-16.35,0.25-32.7-0.02-49.04,0.14c-1.21-0.1799-3.85,0.51-3.3199-1.65
		C1703.6899,923.3,1703.52,676.49,1703.72,429.7z"/>
	<path stroke="#000000" stroke-width="0.0938" d="M943.16,513.22c0.8701-0.65,1.48-2,2.66-2.08c13.15,12.6,25.96,25.55,39.17,38.09
		c58.35,0.11,116.7,0.02,175.05,0.05c18.84,0.11,37.6799-0.23,56.51,0.17c1.2799-2.75,0.5-5.88,0.62-8.8
		c21.46-0.23,42.9199,0.04,64.39-0.13c0.08,2.91,0.0699,5.83,0.1399,8.76c81.2101,0.03,162.4301-0.0601,243.65,0.04
		c-0.11,3.31-0.1,6.62-0.1,9.94c-70.08,0.06-140.15,0-210.23,0.02c-11.36,0.23-22.76-0.45-34.09,0.35
		c1.22,1.66,3.4099,1.03,5.1699,1.2c0.6,0.68,1.22,1.38,1.8301,2.1c2.3099,3.46,4.48,7.02,6.95,10.38
		c2.62-3.96,5.63-7.64,8.14-11.67c2.58-1.35,5.53-0.89,8.2999-0.45c-4.2699,5.61-8.3999,11.32-12.6699,16.93
		c4.58,6.52,9.25,12.98,13.86,19.49c-2.59,0.15-5.17,0.19-7.74,0.36c-3.25-4.84-6.39-9.75-9.72-14.52
		c-3.6001,4.46-6.42,9.5-9.79,14.13c-1.54-0.05-3.05,0.2-4.17,1.34c81.38,0.3,162.78-0.02,244.17,0.16
		c0.04,10.8-0.03,21.6,0.03,32.4c-2.39,1.56-5.5601-0.57-8.26,0.65c-7.65-0.78-15.39-0.14-23.0801-0.35
		c-4.6499,0.73-9.2999-0.51-13.9399,0.3199c-4.64-0.49-9.33-0.47-13.97-0.0099c-5.36-0.76-10.75,0.1299-16.12-0.31
		c-5.64,0.09-11.3-0.23-16.92,0.24c-2.6801-0.15-5.38-0.61-8,0.11c-7.9399-0.81-16-0.12-23.99-0.35
		c-4.34,0.22-8.75-0.46-13.02,0.3799c-1.65-0.58-3.37-0.61-4.98,0.02c-7.6-0.91-15.37-0.14-23.03-0.4c-17.99,0-35.98,0-53.97,0
		c-6,0.18-12.04-0.38-18,0.33c-3.97-0.52-8.05-0.56-11.99-0.01c-6.97-0.5099-14.0801-0.56-21.03,0.02
		c-3.62-0.57-7.38-0.56-10.99,0.01c-7.27-1.01-14.66,0.23-21.95-0.37c-23.7201,0.09-47.3401,0.09-71.05,0
		c-1.6899-0.06-3.36,0.11-5,0.36c-4.96-0.56-10.0601-0.56-15.01,0c-3.28-0.55-6.71-0.58-9.98,0.01c-8.62-0.82-17.37-0.1-26.04-0.36
		c-10.95,0.58-22-0.63-32.97,0.35c-8.3101-0.77-16.72-0.12-25.0699-0.34c-3.9801,0.2-8.02-0.45-11.9301,0.37
		c-1.98-0.62-4.03-0.42-6.03-0.1801c-6.3-0.1-12.67-0.5699-18.95,0.15c-6.96-0.55-14.08-0.57-21.02,0c-5.95-0.59-12.04-0.52-18-0.01
		c-4.31-0.72-8.7-0.15-13.04-0.33c-4.32,0.18-8.69-0.39-12.97,0.34c-3.66-0.63-7.37-0.25-11.04-0.33
		c-23.06,0.03-46.05,0.09-68.99,0.19c-6.66-0.67-13.33,0.33-19.97-0.22c-7.66,0.22-15.36-0.38-23,0.36
		c-4.32-0.32-8.68-0.68-12.98-0.01c-13.28-0.62-26.7-0.44-39.99,0.01c-1.99-0.46-4.05-0.59-6.01,0c-10.3-0.78-20.7-0.12-31.04-0.34
		c-4.3199,0.16-8.68-0.36-12.96,0.3199c-7.63-0.72-15.36-0.13-23.03-0.31c-3.99,0.48-8.02-0.5099-11.98,0.31
		c-11.95-0.74-24-0.11-35.98-0.3199c-14.01,0.21-28.07-0.42-42.04,0.3199c-6.61-0.5-13.39-0.59-19.98,0.05
		c-4.61-0.65-9.39-0.53-14.01-0.04c-4.32-0.66-8.69-0.2-13.02-0.33c-6,0.14-12.03-0.34-18,0.4c-6.62-1.18-13.29,0.48-19.9-0.4
		c-24.72,0.06-49.37,0.11-74.1-0.03c-1.34-0.06-2.67,0.07-3.97,0.39c-5.27-0.83-10.68-0.19-15.98-0.14
		c-12.23-0.64-24.52,0.16-36.73-0.31c-0.63-10.83-0.84-21.77,0.06-32.6c77.64-0.1801,155.28,0.06,232.92-0.1
		c-0.16-0.39-0.49-1.15-0.65-1.54c-3.12-4.76-6.35-9.45-9.51-14.17c-3.27,4.9-6.62,9.75-9.87,14.67c-2.56-0.14-5.12-0.17-7.67-0.34
		c4.6-6.28,8.97-12.73,13.63-18.97c-4.05-6.1-8.58-11.87-12.59-18c3.11,0.59,7.37-1.12,9.4,2.09c2.25,3.58,4.61,7.1,6.96,10.62
		c2.69-3.78,5.3701-7.58,8.2-11.27c0.68-0.9,1.36-1.8,2.04-2.7c-77.63-0.13-155.26-0.11-232.89-0.01c0.04-3.37,0.02-6.74,0-10.1
		c77.43,0.06,154.87-0.09,232.29,0.08c0.23-2.93,0.24-5.86,0.21-8.79c21.47,0.02,42.94,0,64.42,0.01c-0.04,2.93-0.12,5.87,0.25,8.79
		c76.19-0.18,152.39-0.05,228.59-0.06C918.65,537.51,930.79,525.24,943.16,513.22 M676.95,560.71c2.01-0.01,4.03,0.19,5.95,0.87
		c2.14,4.11,4.9,7.93,7.62,11.69c2.53-3.98,5.64-7.58,8.1-11.61l-0.03,0.4301c1.96-2,5.83-1.58,8.15-0.5
		c-4.38,5.35-8.28,11.06-12.5,16.54c4.63,6.68,9.54,13.17,14.06,19.93c-2.69-0.24-5.39-0.45-8.07-0.15c-3.03-5-6.5-9.72-9.64-14.66
		c-3.29,4.87-6.6801,9.69-9.83,14.65c-0.86-0.03-2.57-0.11-3.42-0.15l-0.14,1.36c7.59-0.19,15.19-0.43,22.79-0.07
		c47.7-0.09,95.39-0.1,143.09,0.01c9.98-0.53,19.96,0.17,29.95,0.01c8.6299,0.15,17.2599-0.46,25.9-0.1
		c2.1,0.09,4.24,0.23,6.32-0.26c-1.21-0.56-2.48-1-3.58-1.7l0.15,0.69c-2.86-5-6.34-9.62-9.44-14.46
		c-3.15,4.94-6.73,9.61-9.71,14.66c-2.67-0.22-5.35,0-8.01,0.02c4.45-6.44,9.15-12.7,13.58-19.15c-3.4-5.96-7.88-11.53-11.99-17.1
		c2.27-1.48,5.88-1.05,8.41-0.02l-0.03-0.12c2.41,3.97,4.72,8.18,7.86,11.61c2.52-3.99,5.56-7.62,8.11-11.58l0.04,0.25
		c1.12-1.19,2.87-0.9,4.34-1.15c-0.11-1.17-0.75-1.64-1.92-1.4c-74.73-0.04-149.47-0.02-224.2-0.02
		C677.66,559,677.02,559.5,676.95,560.71 M986.61,559.3c-0.05,12.71-0.17,25.42,0.06,38.13c2.89-2.42,4.53-5.92,6.84-8.84
		c2.25-3.45,5.14-6.6,7.03-10.21c-3.92-5.69-7.9-11.37-12.12-16.85c2.65-1.23,5.84-0.84,8.56,0.06c2,4.11,5.06,7.59,7.24,11.61
		c2.91-3.2,5.3-6.88,7.7401-10.43c1.96-2.76,6.14-2.32,8.9-1.21c-4.41,5.33-8.28,11.09-12.54,16.54
		c4.61,6.4901,9.14,13.07,13.93,19.4301c-2.65,0.59-5.38,0.11-8.05,0.36c-2.9-5.06-6.38-9.76-9.6-14.62
		c-3.21,4.93-6.71,9.66-9.78,14.68c-2.96-0.18-5.94,0.01-8.85-0.59l0.85,1.55c6.07,0.51,12.16-0.21,18.25-0.04
		c14.63,0.24,29.2599,0.18,43.91-0.01c14.3301,0.35,28.66,0.14,43,0c12.36,0.41,24.73,0.16,37.1,0c18.63,0.53,37.27-0.28,55.91,0.23
		c10.78-0.27,21.66,0.35,32.39-0.61c-0.1901-2.21-0.1-4.43-0.1901-6.63c-1.2-3.15-3.61-5.65-5.2699-8.54
		c-3.29,4.66-6.5601,9.35-9.54,14.2c-2.78,0.47-5.6,0.23-8.38,0.52c4.64-6.5601,9.48-13.01,13.9301-19.71
		c-4.29-5.49-7.9701-11.44-12.3601-16.84c2.5701-1.19,5.38-0.29,8.0701-0.47c2.42,4.17,5.42,7.98,7.7999,12.18
		c2.25-2.1,3.66-4.89,5.65-7.22c0.41-2.1899,0.3401-4.43,0.3201-6.64c-17.79-0.26-35.6-0.04-53.39-0.11
		C1104.88,559.27,1045.74,559.12,986.61,559.3 M677.24,565.73c-0.02,8.49-0.01,16.98,0,25.46c3.35-4.04,6.82-8.43,9.13-13.03
		C683.34,574.01,680.59,569.64,677.24,565.73 M1281.61,565.91c0,8.3701,0.08,16.7401-0.03,25.11c2.4301-1.82,3.67-4.75,5.5701-7.06
		c1.1699-1.9,3.02-3.54,3.66-5.67C1287.78,574.15,1285.2,569.57,1281.61,565.91 M896.32,578.47c2.7,3.9301,5.5,7.8,8.36,11.6201
		c-0.01-7.75-0.02-15.5,0-23.25C901.83,570.62,898.33,574.27,896.32,578.47 M606.82,578.12c1.95,2.72,3.71,5.6,5.99,8.08
		c0-5.36,0.04-10.73-0.06-16.08C610.82,572.82,608.83,575.48,606.82,578.12 M1217.28,579.86c-0.03-1.25-0.0601-2.5-0.0901-3.73
		C1215.6801,577.13,1215.0601,579.22,1217.28,579.86z"/>
	<path stroke="#000000" stroke-width="0.0938" d="M138.39,514.38c0.63-0.15,1.89-0.46,2.52-0.61c2.16-0.04,4.33-0.04,6.49-0.18
		l0.86,1.1c0.06,3.53,0.05,7.08-0.02,10.62l-0.86,1.11c-2.94-0.25-5.9-0.18-8.85-0.05C138.38,522.38,138.5,518.38,138.39,514.38z"/>
	<path stroke="#000000" stroke-width="0.0938" d="M380.43,513.6c3.02,0.1801,6.06,0.19,9.1,0c-0.17,4.15,0.79,8.62-0.37,12.58
		c-2.91,0.22-5.82-0.01-8.72,0.21C380.29,522.13,380.31,517.86,380.43,513.6z"/>
	<path fill="#010101" stroke="#010101" stroke-width="0.0938" d="M1516.4399,526.4c-0.23-4.27-0.24-8.54,0-12.8
		c2.9601,0.28,6.05-0.3,8.91,0.81c-0.14,3.65-0.1,7.31-0.08,10.97c-0.21,0.27-0.64,0.79-0.85,1.06
		C1521.75,526.18,1519.08,526.21,1516.4399,526.4z"/>
	<path stroke="#000000" stroke-width="0.0938" d="M1757.48,514.41c3.1901-0.08,6.39-0.1,9.6,0.01c0.0901,3.7,0.12,7.41,0.0801,11.13
		c-3.24,0.17-6.48,0.11-9.6901,0.02C1757.45,521.85,1757.4399,518.13,1757.48,514.41z"/>
	<path fill="#A7A7A7" stroke="#A7A7A7" stroke-width="0.0938" d="M380.32,559.37c77.63-0.1,155.26-0.12,232.89,0.01
		c-0.68,0.9-1.36,1.8-2.04,2.7l0.26-1.59c-5.42-0.14-10.83-0.06-16.24-0.07c0.2,0.58,0.62,1.74,0.82,2.31
		c-2.03-3.21-6.29-1.5-9.4-2.09c-2.98-0.27-5.99-0.33-8.96,0.07c-2.57,0.16-5.14,0.16-7.7,0.0099c-5.58-0.55-11.18-0.23-16.76-0.31
		c0.2,0.61,0.62,1.83,0.82,2.44c-1.96-3.3-6.22-2-9.33-1.67c-2.53-1.3-5.39-0.7-8.09-0.51c-2.54,0.18-5.09,0.19-7.63,0.03
		c-5.61-0.53-11.2401-0.21-16.85-0.27c0.2,0.61,0.61,1.85,0.81,2.47c-0.6-0.75-1.21-1.48-1.82-2.19c-2.49,0.02-4.98,0.12-7.45,0.37
		c-3.01-0.94-6.44-1.25-9.35,0.16c-2.69-0.67-5.61-0.9-8.19,0.3l-0.12-1c-5.53-0.2-11.07-0.3-16.58,0.16
		c-2.65,0.12-5.34-0.12-7.92,0.61c-0.31-0.24-0.93-0.71-1.23-0.94c-1.52-0.01-3.02-0.04-4.52-0.07c-0.32,0.25-0.96,0.76-1.28,1.01
		c-2.46-0.66-5.03-0.54-7.55-0.61c-5.56-0.49-11.14-0.24-16.71-0.29l0.26,1.54c-2.48-2.01-5.96-1.22-8.84-0.74
		c-1.55-1.06-3.63-1.2401-5.07,0.12c-2.69-0.71-5.85-1.24-8.28,0.47l0.08-1.27c-5.27-0.19-10.55-0.19-15.82,0.02l0.09,1.39
		c-2.45-2.1-5.97-0.81-8.9-1.25c-0.74-0.04-2.22-0.13-2.96-0.17c0,12.51-0.11,25.02,0.02,37.53c0.47-0.11,1.4-0.33,1.87-0.44
		c2.56,0.17,5.12,0.17,7.68,0.31c6.42,0.32,13.09,1.24,19.39-0.41c2.73,0.35,5.49,0.36,8.24,0.52l1.09,0.0099
		c0.36-0.12,1.07-0.37,1.43-0.49c2.62,0.28,5.31,0.53,7.92-0.06c6.24,1.83,12.95,0.69,19.37,0.44c2.59-0.13,5.19-0.15,7.79-0.34
		c1.54,0.77,3.25,0.8199,4.81,0.02c2.62,0.27,5.27,0.3,7.9,0.01c6.38,1.3,12.99,0.78,19.44,0.31c2.6-0.14,5.21-0.15,7.81-0.32
		c2.22,0.93,4.73,1.04,6.94,0.01c2.63,0.25,5.28,0.26,7.92,0c6.28,1.16,12.97,1.22,19.23-0.06c2.64,0.44,5.32,0.29,7.98,0.04
		c1.86,0.88,3.95,0.88,5.84,0.04c2.63,0.2,5.3,0.4,7.92-0.11c6.31,1.59,12.98,0.7,19.4301,0.4c2.6-0.13,5.21-0.17,7.83-0.34
		c2.21,1.08,4.71,0.92,6.96,0.02c2.55,0.17,5.11,0.2,7.67,0.34c6.41,0.27,13.13,1.26,19.38-0.5c0.16,0.39,0.49,1.15,0.65,1.54
		c-77.64,0.16-155.28-0.08-232.92,0.1C380.2,585.85,380.35,572.61,380.32,559.37z"/>
	<path fill="#969696" stroke="#969696" stroke-width="0.0938" d="M676.95,560.71c0.07-1.21,0.71-1.71,1.91-1.48
		c74.73,0,149.47-0.02,224.2,0.02c1.17-0.24,1.81,0.23,1.92,1.4c-1.47,0.25-3.22-0.04-4.34,1.15l-0.04-0.25l-0.16-1.2
		c-5.39-0.09-10.77,0.02-16.15-0.04l0.34,1.21l0.03,0.12c-2.53-1.03-6.14-1.46-8.41,0.02c-0.3-0.35-0.89-1.05-1.19-1.4
		c-1.43,0.01-2.86,0.02-4.27,0.03c-0.39,0.43-1.16,1.28-1.55,1.71l0.5-1.09c-2.95,0.2-6.81-1.12-8.79,1.81
		c0.26-0.6,0.78-1.8,1.05-2.4c-5.54,0.04-11.07,0-16.6,0.04l0.44,1.28c-2.55-1.14-5.4-0.81-8.1-0.73l-0.11,0.6801
		c-1.77-1.91-4.53-1.15-6.81-1.34c-0.3,0.38-0.9,1.12-1.19,1.49l-0.33-0.84c-2.59,0.03-5.52-0.63-7.77,0.99l0.34-1.56
		c-5.49,0.03-10.98-0.04-16.47,0.05l0.5099,1.27c-2.74-1.16-5.83-1.09-8.64-0.25c-0.27-0.29-0.82-0.89-1.09-1.1801
		c-2.49,0.1-4.98,0.11-7.45,0.07c-0.31,0.38-0.94,1.13-1.25,1.51l-0.15-0.91c-2.62,0.03-5.5-0.55-7.85,0.9l0.34-1.46
		c-5.5,0.03-11.01-0.06-16.5,0.06l0.54,1.36c-2.48-1.39-5.43-0.86-8.13-0.84l-0.13,0.71c-2.02-2.14-5.21-1.09-7.8-1.36
		c-0.24,0.29-0.73,0.86-0.98,1.15c-2.73-0.67-5.92-1.21-8.4,0.44l0.45-1.5099c-5.51-0.02-11.01-0.02-16.52,0.0099l0.52,1.41
		c-2.6-1.44-5.68-0.79-8.49-0.86l0.38,1c-0.39-0.41-1.17-1.2401-1.56-1.65c-1.79,0.02-3.58,0.03-5.35,0.03
		c-0.28,0.33-0.83,0.99-1.11,1.31c-2.32-1.08-6.19-1.5-8.15,0.5l0.03-0.4301l0.12-1.41c-5.44,0.14-10.88,0.04-16.31,0.12l0.47,1.21
		C680.98,560.9,678.96,560.7,676.95,560.71z"/>
	<path fill="#959595" stroke="#959595" stroke-width="0.0938" d="M986.61,559.3c59.13-0.18,118.27-0.03,177.41-0.08
		c17.79,0.07,35.6-0.15,53.39,0.11c0.02,2.21,0.09,4.45-0.3201,6.64c-0.0599-1.85-0.11-3.71-0.11-5.55
		c-4.4399,0.19-9.0499-0.86-13.34,0.59c-2.6901,0.18-5.5-0.72-8.0701,0.47c-0.33-0.33-0.99-0.98-1.3199-1.3
		c-2.37,0.15-4.9-0.18-7.0601,0.98c-2.71-0.34-5.45-0.44-8.11,0.22l-0.1599-0.95c-5.3101-0.18-10.62-0.2-15.92,0.04l-0.02,0.89
		c-2.59-0.48-5.22-0.66-7.84-0.45l-0.27,0.88c-0.4-0.39-1.1899-1.19-1.59-1.58c-3.03,0.04-6.0601,0.16-9.0601,0.46
		c-3.09,0.62-7.12-0.93-9.1699,2.13c0.25-0.63,0.75-1.87,1-2.49c-5.4301,0.12-10.87-0.18-16.28,0.19l0.16,1.2
		c-2.54-1.23-5.4301-0.85-8.14-0.77l0.0399,0.81c-1.35-1.91-3.7899-1.83-5.5599-0.58c-2.71-0.37-5.4501-0.45-8.1,0.2l-0.0801-0.93
		c-5.58-0.12-11.1899-0.38-16.74,0.28c-2.65,0.2599-5.3099,0.3-7.9399,0.05c-3.02-0.71-6.1-0.48-9.12-0.07
		c-2.75,0.15-5.49,0.23-8.2001,0.62l-0.1-0.86c-5.3-0.21-10.62-0.19-15.91-0.03l-0.2,0.9c-2.5699-0.39-5.16-0.59-7.74-0.4
		l-0.24,0.98c-0.38-0.41-1.12-1.2401-1.5-1.65c-2.84,0.07-5.6801,0.09-8.51,0.09c-0.26,0.3-0.77,0.91-1.03,1.22
		c-2.76-1.11-6.94-1.55-8.9,1.21c0.25-0.61,0.75-1.85,1-2.46c-5.51,0.05-11.01-0.04-16.51,0.07l0.53,1.21
		c-2.72-0.9-5.91-1.29-8.56-0.06C987.8,560.77,987.2,560.03,986.61,559.3z"/>
	<path stroke="#000000" stroke-width="0.0938" d="M383.72,560.69c2.93,0.44,6.45-0.85,8.9,1.25c2.35,3.87,4.97,7.55,7.37,11.39
		c2.81-3.81,5.62-7.62,8.28-11.53c2.43-1.71,5.59-1.18,8.28-0.47c-4.37,5.45-8.33,11.23-12.62,16.74
		c4.54,6.75,9.51,13.19,14.03,19.96c-2.75-0.16-5.51-0.17-8.24-0.52c-3.16-4.77-6.3-9.55-9.56-14.24
		c-3.22,4.92-6.58,9.75-9.83,14.65c-2.56-0.14-5.12-0.14-7.68-0.31c4.55-6.43,9.3-12.72,13.63-19.3
		C391.97,572.52,387.75,566.67,383.72,560.69z"/>
	<path stroke="#000000" stroke-width="0.0938" d="M421.62,561.21c2.88-0.48,6.36-1.27,8.84,0.74c2.2,3.87,4.94,7.42,7.16,11.29
		c3.42-3.93,6.19-8.37,9.29-12.54c2.52,0.07,5.09-0.05,7.55,0.61c-4.54,5.38-8.45,11.26-12.77,16.82c4.61,6.49,9.2,13,13.87,19.46
		c-2.6,0.19-5.2,0.21-7.79,0.34c-3.17-4.95-6.54-9.77-9.77-14.67c-3.21,4.73-6.4,9.49-9.6,14.23c-2.61,0.59-5.3,0.34-7.92,0.06
		c4.54-6.41,9.26-12.69,13.57-19.25C429.76,572.71,425.93,566.78,421.62,561.21z"/>
	<path stroke="#000000" stroke-width="0.0938" d="M461.49,561.31c2.58-0.73,5.27-0.49,7.92-0.61c2.85,4.17,5.46,8.51,8.45,12.59
		c2.67-3.98,5.65-7.73,8.25-11.75c2.58-1.2,5.5-0.97,8.19-0.3c-4.32,5.55-8.43,11.27-12.67,16.9c4.6,6.51,9.21,13.02,13.89,19.47
		c-2.6,0.17-5.21,0.18-7.81,0.32c-3.2-4.93-6.53-9.77-9.77-14.67c-3.23,4.78-6.49,9.54-9.67,14.36c-2.63,0.29-5.28,0.26-7.9-0.01
		c4.6-6.26,8.91-12.73,13.64-18.9C470,572.8,465.94,566.89,461.49,561.31z"/>
	<path stroke="#000000" stroke-width="0.0938" d="M503.65,561.08c2.47-0.25,4.96-0.35,7.45-0.37c0.61,0.71,1.22,1.44,1.82,2.19
		c2.37,3.44,4.54,7.02,7.02,10.39c2.92-4.2599,6.03-8.38,9.02-12.59c2.54,0.16,5.09,0.15,7.63-0.03
		c-4.1201,5.95-8.61,11.62-12.8701,17.47c4.6,6.5,9.21,12.99,13.8701,19.46c-2.66,0.25-5.34,0.4-7.98-0.04
		c-3.34-4.6-6.07-9.65-9.66-14.06c-3.36,4.59-6.39,9.41-9.57,14.12c-2.64,0.26-5.29,0.25-7.92,0c4.6-6.29,8.96-12.74,13.63-18.97
		C512.1,572.68,507.79,566.94,503.65,561.08z"/>
	<path stroke="#000000" stroke-width="0.0938" d="M544.68,561.18c3.11-0.33,7.37-1.63,9.33,1.67c2.24,3.51,4.49,7.03,6.9,10.4301
		c2.98-4.21,6.05-8.36,9.04-12.5601c2.56,0.15,5.13,0.15,7.7-0.0099c-4.25,5.84-8.59,11.62-12.91,17.41
		c4.6,6.5,9.2,13.01,13.87,19.47c-2.62,0.17-5.23,0.21-7.83,0.34c-3.13-4.97-6.53-9.76-9.73-14.68c-3.25,4.76-6.42,9.56-9.7,14.28
		c-2.62,0.5099-5.29,0.31-7.92,0.11c4.64-6.27,8.99-12.75,13.67-18.98C553.1,572.74,548.91,566.94,544.68,561.18z"/>
	<path stroke="#000000" stroke-width="0.0938" d="M714.38,560.9c2.81,0.0699,5.89-0.58,8.49,0.86c2.18,4.01,5.03,7.62,7.32,11.58
		c2.87-3.7401,5.66-7.54,8.23-11.4901c2.48-1.65,5.67-1.11,8.4-0.44c-4.42,5.4-8.36,11.1801-12.63,16.7
		c4.59,6.68,9.48,13.17,14.04,19.89c-2.67-0.22-5.34-0.31-8-0.1c-3.18-4.94-6.48-9.79-9.78-14.65c-3.21,4.92-6.6,9.71-9.78,14.65
		c-2.65-0.2-5.31-0.14-7.95,0.06c4.63-6.39,9.02-12.95,13.83-19.21c-3.69-5.78-7.94-11.18-11.79-16.85L714.38,560.9z"/>
	<path stroke="#000000" stroke-width="0.0938" d="M755.73,560.91c2.7-0.02,5.65-0.55,8.13,0.84c2.26,3.99,5.03,7.66,7.35,11.62
		c2.8-3.83,5.73-7.58,8.27-11.58c2.35-1.45,5.23-0.87,7.85-0.9l0.15,0.91c-4.21,5.35-8.18,10.9-12.28,16.33
		c4.62,6.66,9.48,13.15,14.02,19.86c-2.66-0.24-5.3199-0.25-7.96-0.06c-3.19-4.94-6.51-9.8-9.78-14.69
		c-3.2,4.91-6.64,9.67-9.76,14.63c-2.65-0.17-5.31-0.1-7.9399,0.1c4.54-6.45,8.99-12.97,13.81-19.22
		c-3.75-5.89-8.15-11.32-11.9901-17.13L755.73,560.91z"/>
	<path stroke="#000000" stroke-width="0.0938" d="M797.27,561.4c2.81-0.84,5.9-0.91,8.64,0.25c2.34,4.0099,4.86,7.94,7.67,11.64
		c2.48-3.92,5.47-7.48,7.95-11.4c2.25-1.62,5.18-0.96,7.77-0.99l0.33,0.84c-4.24,5.38-8.25,10.93-12.34,16.41
		c4.64,6.62,9.46,13.13,14.02,19.81c-2.67-0.13-5.35-0.28-8.01-0.08c-3.1-4.93-6.5-9.66-9.59-14.6
		c-3.47,4.7599-6.71,9.6899-9.94,14.61c-2.64-0.19-5.29-0.13-7.92,0.14c3.94-5.76,8.03-11.41,12.12-17.0601
		c0.6-1.09,2.28-2.4,0.88-3.61C805,572.03,801.35,566.56,797.27,561.4z"/>
	<path stroke="#000000" stroke-width="0.0938" d="M837.74,560.91c2.7-0.08,5.55-0.41,8.1,0.73c2.24,4.02,5.03,7.69,7.36,11.67
		c2.73-3.42,5.25-7,7.75-10.59c1.98-2.93,5.84-1.61,8.79-1.81l-0.5,1.09c-4.01,5.37-8.01,10.75-12.01,16.13
		c4.61,6.63,9.4,13.14,14.02,19.77c-2.66-0.07-5.32-0.19-7.97-0.01c-3.19-4.92-6.53-9.73-9.72-14.64
		c-3.34,4.84-6.64,9.72-9.84,14.65c-2.65-0.22-5.29-0.1-7.92,0.02c4.55-6.47,9.13-12.92,13.8-19.31
		c-3.86-5.77-8.12-11.25-11.97-17.02L837.74,560.91z"/>
	<path stroke="#000000" stroke-width="0.0938" d="M1032.14,560.92c2.58-0.19,5.17,0.01,7.74,0.4c2.39,4.14,5.11,8.09,7.86,12
		c2.62-4.12,5.8201-7.83,8.35-12.01c2.7101-0.39,5.4501-0.47,8.2001-0.62c-4.01,5.99-8.55,11.6-12.78,17.43
		c4.5599,6.56,9.27,13.02,13.88,19.55c-2.65,0.17-5.3,0.11-7.9401,0.15c-3.1599-4.91-6.35-9.81-9.7699-14.53
		c-3.01,4.84-6.39,9.44-9.4401,14.26c-2.73,0.27-5.47,0.29-8.1899,0.48c4.47-6.65,9.38-12.9901,13.83-19.66
		c-4.13-5.39-7.8-11.12-11.98-16.47L1032.14,560.92z"/>
	<path stroke="#000000" stroke-width="0.0938" d="M1073.41,560.76c2.63,0.25,5.2899,0.21,7.9399-0.05
		c2.87,4.16,5.48,8.5,8.4601,12.59c2.6599-4.07,5.83-7.79,8.36-11.94c2.6499-0.65,5.39-0.57,8.1-0.2
		c-4.29,5.61-8.42,11.35-12.6901,16.98c4.65,6.48,9.1901,13.05,13.9501,19.45c-2.64,0.29-5.29,0.19-7.9301,0.2599
		c-3.16-4.91-6.5-9.69-9.6799-14.58c-3.24,4.69-6.4301,9.44-9.5701,14.21c-2.71,0.5-5.49,0.33-8.21,0.54
		c4.54-6.48,9.0499-13,13.83-19.32C1081.98,572.58,1077.46,566.83,1073.41,560.76z"/>
	<path stroke="#000000" stroke-width="0.0938" d="M1111.79,560.93c2.71-0.08,5.6-0.46,8.14,0.77c2.45,3.94,4.9299,7.88,7.72,11.61
		c2.3099-3.61,4.96-6.99,7.4-10.51c2.0499-3.06,6.08-1.51,9.1699-2.13c-4.08,5.98-8.61,11.63-12.87,17.47
		c4.64,6.56,9.34,13.07,13.97,19.64c-2.6499-0.04-5.3099,0.0099-7.9399,0.09c-3.1801-4.92-6.39-9.82-9.8-14.58
		c-3.12,4.69-6.1799,9.44-9.48,14c-0.1,0.11-0.3099,0.34-0.4199,0.45c-2.5701,0.13-5.14,0.18-7.7001,0.19
		c4.49-6.58,9.27-12.94,13.77-19.51c-4.03-5.53-8.01-11.08-11.92-16.68L1111.79,560.93z"/>
	<path stroke="#000000" stroke-width="0.0938" d="M1155.14,560.91c2.62-0.21,5.25-0.03,7.84,0.45c2.35,4.13,5.01,8.09,7.8101,11.92
		c2.62-4.0601,5.7999-7.75,8.2899-11.9c2.66-0.66,5.4-0.56,8.11-0.22c-4.24,5.65-8.4299,11.33-12.6499,16.98
		c4.6,6.56,9.35,13.02,13.9099,19.62c-2.6399-0.05-5.2699,0.02-7.88,0.13c-3.1399-4.93-6.5099-9.71-9.7-14.61
		c-3.24,4.67-6.41,9.3799-9.53,14.1299c-2.7,0.72-5.5299,0.33-8.26,0.67c4.4301-6.71,9.4301-13.03,13.8401-19.76
		c-4.1801-5.39-7.87-11.14-12.05-16.53L1155.14,560.91z"/>
	<path stroke="#000000" stroke-width="0.0938" d="M1320.74,561.17c3.08-0.23,7.28-1.61,9.26,1.64c2.26,3.52,4.47,7.08,6.9399,10.47
		c2.6901-3.92,5.65-7.65,8.25-11.64c2.6001-1.36,5.64-0.67,8.4601-0.92c-4.22,5.85-8.5701,11.6-12.89,17.38
		c4.54,6.54,9.21,12.98,13.8199,19.46c-2.6499,0.34-5.33,0.4-7.95-0.02c-3.24-4.73-6.36-9.54-9.58-14.29
		c-3.27,4.93-6.6801,9.76-9.88,14.73c-2.5801-0.15-5.15-0.22-7.7001-0.42c4.39-6.01,8.73-12.07,12.99-18.17
		c1.01-1-0.2999-2.09-0.74-2.94C1327.98,571.4,1324.45,566.22,1320.74,561.17z"/>
	<path stroke="#000000" stroke-width="0.0938" d="M1360.58,561.33c2.4501-0.6,4.9801-0.61,7.51-0.59c0.61,0.72,1.23,1.45,1.86,2.19
		c2.3301,3.44,4.4701,7.02,6.9601,10.36c2.9-4.27,6.02-8.4,9.0299-12.6c2.54,0.19,5.0901,0.22,7.65,0.03
		c-4.26,5.84-8.58,11.63-12.9099,17.4301c4.61,6.49,9.23,12.97,13.85,19.45c-2.5901,0.14-5.1801,0.21-7.75,0.39
		c-3.1901-4.97-6.55-9.82-9.78-14.76c-3.25,4.76-6.42,9.56-9.67,14.31c-2.63,0.47-5.2899,0.31-7.8999,0.05
		c4.62-6.26,8.98-12.72,13.63-18.97C1368.98,572.8,1365.01,566.89,1360.58,561.33z"/>
	<path stroke="#000000" stroke-width="0.0938" d="M1404.87,561.14c2.9-0.18,6.24-1.2,8.8,0.73c2.13,3.69,4.5599,7.22,6.9099,10.78
		c0.2201,0.02,0.67,0.0699,0.89,0.09c2.66-3.59,5.3201-7.2,7.73-10.97c2.4401-1.55,5.4601-0.87,8.2101-0.93l-0.3401,1.06
		c-4.09,5.36-8.0199,10.83-12.13,16.17c4.54,6.76,9.5601,13.21,14.0601,20.01c-2.76-0.29-5.53-0.13-8.25-0.61
		c-3.2-4.72-6.3-9.5099-9.54-14.1899c-3.27,4.92-6.64,9.7599-9.88,14.7c-2.5599-0.21-5.12-0.36-7.6699-0.25
		c4.52-6.34,8.9099-12.79,13.63-18.99C1413.39,572.71,1409.05,566.97,1404.87,561.14z"/>
	<path stroke="#000000" stroke-width="0.0938" d="M1445.74,560.67c2.9401,0.46,6.35-0.66,8.95,1.21c2.2101,3.94,4.92,7.57,7.3,11.41
		c2.84-3.75,5.6901-7.52,8.21-11.5c2.3201-1.52,5.2101-0.97,7.8501-0.94l0.1899,0.71c-4.04,5.55-8.15,11.06-12.29,16.54
		c4.5801,6.72,9.53,13.1801,14.05,19.95c-2.55-0.28-5.11-0.24-7.66-0.29c-0.12-0.1-0.35-0.28-0.47-0.37
		c-3.45-4.56-6.36-9.49-9.66-14.14c-3.22,4.96-6.64,9.79-9.88,14.74c-2.5599-0.21-5.12-0.27-7.6599-0.34
		c4.5299-6.46,9.35-12.73,13.64-19.35C1454,572.5,1449.75,566.67,1445.74,560.67z"/>
	<path stroke="#000000" stroke-width="0.0938" d="M1489.5699,560.84c2.7301,0.02,5.78-0.64,8.2401,0.94
		c2.1899,3.98,4.99,7.58,7.2999,11.5099c2.92-3.71,5.73-7.5099,8.28-11.48c2.4-1.64,5.47-0.86,8.22-1.01l-0.41,0.91
		c-3.85,5.6-8.0499,10.94-12.09,16.4c4.63,6.63,9.41,13.17,14.02,19.82c-2.73-0.15-5.5,0.11-8.17-0.48
		c-3.23-4.7-6.34-9.47-9.5399-14.19c-3.28,4.91-6.61,9.79-9.91,14.68c-2.6-0.26-5.22-0.18-7.79,0.11
		c4.42-6.58,9.0801-13.01,13.8-19.38c-3.86-5.77-8.0801-11.27-11.98-16.99L1489.5699,560.84z"/>
	<path fill="#A9A09B" stroke="#A9A09B" stroke-width="0.0938" d="M214.42,588.24c7.21-0.22,14.42-0.02,21.63-0.11
		c0.12,6.87,0.2,13.75-0.05,20.62c-7.17-0.11-14.35,0-21.52-0.08C214.47,601.86,214.55,595.05,214.42,588.24z"/>
	<path fill="#A9A09B" stroke="#A9A09B" stroke-width="0.0938" d="M252.26,588.17c7.21-0.05,14.42-0.02,21.64-0.01
		c0.02,6.85,0.08,13.71-0.03,20.57c-7.2-0.09-14.39,0.01-21.59-0.04C252.24,601.85,252.3,595.01,252.26,588.17z"/>
	<path fill="#A9A09B" stroke="#A9A09B" stroke-width="0.0938" d="M289.05,588.13c7.2,0.08,14.39-0.06,21.59,0.08
		c-0.04,6.82,0,13.65-0.02,20.48c-7.19,0.05-14.38-0.06-21.57,0.06C288.9,601.88,288.93,595,289.05,588.13z"/>
	<path fill="#A9A09B" stroke="#A9A09B" stroke-width="0.0938" d="M1595.23,588.16c7.2001-0.03,14.41,0.02,21.62-0.03
		c-0.01,6.86,0.01,13.73-0.01,20.6c-7.21-0.07-14.4099-0.03-21.6-0.01C1595.16,601.87,1595.21,595.01,1595.23,588.16z"/>
	<path fill="#A9A09B" stroke="#A9A09B" stroke-width="0.0938" d="M1631.99,588.14c7.1901,0.08,14.4-0.12,21.61,0.11
		c-0.08,6.79-0.0599,13.59-0.01,20.38c-7.24,0.14-14.47,0.07-21.7,0.03C1631.9399,601.82,1631.8,594.98,1631.99,588.14z"/>
	<path fill="#A9A09B" stroke="#A9A09B" stroke-width="0.0938" d="M1669.61,588.24c7.25-0.15,14.52-0.17,21.79,0.02
		c-0.12,6.79-0.11,13.59-0.02,20.38c-7.24,0.1-14.49,0.07-21.72,0.03C1669.67,601.86,1669.76,595.05,1669.61,588.24z"/>
	<path fill="#A9A09B" stroke="#A9A09B" stroke-width="0.0938" d="M214.38,613.14c7.25-0.36,14.52-0.2,21.78-0.09
		c-0.2,6.86,0.32,13.75-0.29,20.59c-7.12-0.25-14.24-0.07-21.36-0.12C214.41,626.72,214.62,619.93,214.38,613.14z"/>
	<path fill="#A9A09B" stroke="#A9A09B" stroke-width="0.0938" d="M252.23,613.04c7.22-0.18,14.45-0.07,21.68-0.06
		c-0.01,6.86,0.12,13.73-0.07,20.6c-7.19-0.13-14.37-0.05-21.55-0.03C252.21,626.71,252.33,619.87,252.23,613.04z"/>
	<path fill="#A9A09B" stroke="#A9A09B" stroke-width="0.0938" d="M289.03,612.92c7.22,0.2,14.46-0.25,21.68,0.25
		c-0.2,6.78-0.02,13.57-0.11,20.36c-7.16,0.02-14.32-0.11-21.48,0.0699C288.81,626.71,288.98,619.81,289.03,612.92z"/>
	<path fill="#A9A09B" stroke="#A9A09B" stroke-width="0.0938" d="M1595.16,613.08c7.22-0.25,14.45-0.1,21.6899-0.1
		c-0.0599,6.86,0.13,13.73-0.11,20.59c-7.15-0.09-14.3-0.05-21.4399-0.02C1595.0699,626.72,1595.3,619.9,1595.16,613.08z"/>
	<path fill="#A9A09B" stroke="#A9A09B" stroke-width="0.0938" d="M1631.9399,612.96c7.2201,0.11,14.4701-0.27,21.7001,0.2
		c-0.1801,6.78-0.0601,13.58-0.08,20.3701c-7.15,0.02-14.29-0.1-21.4301,0.08C1631.65,626.73,1631.98,619.84,1631.9399,612.96z"/>
	<path fill="#A9A09B" stroke="#A9A09B" stroke-width="0.0938" d="M1669.6899,612.97c7.2001-0.04,14.41-0.0099,21.63-0.02
		c0.02,6.84-0.0199,13.67,0.02,20.51c-7.23,0.08-14.46,0.09-21.6799,0.02C1669.71,626.64,1669.67,619.8,1669.6899,612.97z"/>
	<path stroke="#000000" stroke-width="0.0938" d="M380.37,640.35c3.09,0.08,6.18,0.08,9.28,0c-0.11,15.01,0.15,30.02-0.14,45.02
		c-2.88-0.61-6.66,0.81-9.03-0.75c-1.3-11.82-0.37-23.73-0.7-35.59C379.61,646.1,380.44,643.26,380.37,640.35z"/>
	<path stroke="#000000" stroke-width="0.0938" d="M1757.54,640.7c3.0699,0.01,6.1499-0.02,9.24-0.14
		c0.5599,14.65,0.0699,29.33,0.25,43.99c-3.2001,0.14-6.4,0.1-9.5801,0.01C1757.51,669.94,1757.34,655.32,1757.54,640.7z"/>
	<path stroke="#000000" stroke-width="0.0938" d="M138.87,640.75c3.1-0.02,6.21-0.02,9.32-0.02c0.23,14.58,0.03,29.17,0.1,43.76
		c-3.16,0.17-6.32,0.17-9.47-0.01C138.85,669.9,138.74,655.32,138.87,640.75z"/>
	<path stroke="#000000" stroke-width="0.0938" d="M1516.5,640.65c2.91-0.03,5.84-0.06,8.77,0.0699c0,14.6201,0,29.2401,0,43.86
		c-2.9401,0.09-5.88,0.08-8.79,0.01C1516.47,669.94,1516.4,655.3,1516.5,640.65z"/>
	<path fill="#A9A09B" stroke="#A9A09B" stroke-width="0.0938" d="M214.38,720.11c7.22-0.69,14.5-0.2,21.75-0.27
		c0.02,6.83-0.01,13.67,0.02,20.5099c-7.18,0.04-14.36-0.09-21.54,0.07C214.28,733.65,214.69,726.87,214.38,720.11z"/>
	<path fill="#A9A09B" stroke="#A9A09B" stroke-width="0.0938" d="M252.23,719.92c7.23-0.25,14.48-0.16,21.71-0.04
		c-0.03,6.8-0.01,13.6-0.01,20.4c-7.13,0.24-14.26-0.13-21.39,0.21C251.88,733.66,252.49,726.77,252.23,719.92z"/>
	<path fill="#A9A09B" stroke="#A9A09B" stroke-width="0.0938" d="M288.99,719.84c7.14-0.16,14.28,0.08,21.42-0.13
		c0.41,6.88,0.27,13.82,0.06,20.72c-7.17-0.16-14.34-0.02-21.51-0.09C288.98,733.5,288.92,726.67,288.99,719.84z"/>
	<path fill="#A9A09B" stroke="#A9A09B" stroke-width="0.0938" d="M1595.15,719.96c7.23-0.33,14.48-0.19,21.72-0.07
		c-0.03,6.79-0.0599,13.59,0.02,20.39c-7.24,0.11-14.49,0.15-21.72-0.02C1595.22,733.49,1595.23,726.72,1595.15,719.96z"/>
	<path fill="#A9A09B" stroke="#A9A09B" stroke-width="0.0938" d="M1631.91,719.81c7.24,0.17,14.5399-0.45,21.75,0.33
		c-0.3401,6.75,0.1699,13.52-0.27,20.27c-7.16-0.18-14.3201,0.03-21.48-0.09C1631.89,733.48,1631.88,726.64,1631.91,719.81z"/>
	<path fill="#A99F9B" stroke="#A99F9B" stroke-width="0.0938" d="M1669.71,719.82c7.2001-0.05,14.4-0.07,21.61,0.01
		c0,6.83,0,13.66,0.01,20.5c-7.22,0.05-14.4199,0.01-21.63,0.01C1669.67,733.5,1669.67,726.66,1669.71,719.82z"/>
	<path fill="#A9A09B" stroke="#A9A09B" stroke-width="0.0938" d="M214.41,764.92c0.2-6.78-0.05-13.56,0.16-20.34
		c7.19,0.06,14.39,0.02,21.58,0.03c-0.02,6.85-0.01,13.7-0.03,20.55C228.89,765.01,221.63,765.52,214.41,764.92z"/>
	<path fill="#A9A09B" stroke="#A9A09B" stroke-width="0.0938" d="M252.23,765.05c0.18-6.84-0.2-13.69,0.21-20.53
		c7.15,0.2,14.3,0.02,21.45,0.1c0.05,6.85,0.06,13.7,0,20.55C266.67,765.11,259.44,765.33,252.23,765.05z"/>
	<path fill="#A9A09B" stroke="#A9A09B" stroke-width="0.0938" d="M288.94,744.63c7.18-0.07,14.36,0.07,21.54-0.09
		c0.37,6.8-0.04,13.62,0.21,20.43c-7.2,0.5-14.43,0.02-21.64,0.2401C288.87,758.35,289.03,751.49,288.94,744.63z"/>
	<path fill="#A9A09B" stroke="#A9A09B" stroke-width="0.0938" d="M1595.17,744.71c7.24-0.18,14.49-0.16,21.73-0.01
		c-0.09,6.82-0.05,13.64-0.03,20.47c-7.23-0.02-14.45,0.07-21.67-0.06C1595.22,758.31,1595.21,751.51,1595.17,744.71z"/>
	<path fill="#A9A09B" stroke="#A9A09B" stroke-width="0.0938" d="M1631.92,744.63c7.1499-0.08,14.3099,0.08,21.47-0.09
		c0.4299,6.76-0.05,13.55,0.26,20.33c-7.22,0.67-14.49,0.13-21.72,0.3C1631.88,758.32,1631.88,751.47,1631.92,744.63z"/>
	<path fill="#A9A09B" stroke="#A9A09B" stroke-width="0.0938" d="M1669.71,744.61c7.1901,0.01,14.39-0.01,21.5901,0
		c0.0699,6.85,0.0199,13.7,0,20.56c-7.2101,0.02-14.41-0.02-21.6001,0.01C1669.6899,758.32,1669.64,751.46,1669.71,744.61z"/>
	<path stroke="#000000" stroke-width="0.0938" d="M138.48,775.47c3.13,0.28,6.28,0.11,9.41-0.0099c0.74,3.87,0.2,7.81,0.51,11.71
		c-3.31,0.22-6.63,0.01-9.93,0.25C138.46,783.43,138.4,779.45,138.48,775.47z"/>
	<path stroke="#000000" stroke-width="0.0938" d="M1516.47,775.54c2.9401-0.04,5.9-0.15,8.85,0.14
		c-0.1599,3.72,0.12,7.45-0.23,11.17c-2.9-0.02-5.7799-0.04-8.65-0.13C1516.45,782.99,1516.4301,779.26,1516.47,775.54z"/>
	<path stroke="#000000" stroke-width="0.0938" d="M1757.49,775.31c3.25,0.04,6.53-0.11,9.8,0.17c-0.3,3.72-0.12,7.47-0.1801,11.21
		c-3.24,0.16-6.48,0.16-9.7,0.02C1757.36,782.9,1757.5601,779.11,1757.49,775.31z"/>
	<path stroke="#000000" stroke-width="0.0938" d="M380.33,775.3c3.11,0.03,6.22,0.03,9.34,0.01c-0.06,4.03-0.02,8.06-0.07,12.1
		c-3.07-0.19-6.15-0.18-9.21-0.0099C380.32,783.37,380.35,779.33,380.33,775.3z"/>
	<path stroke="#000000" stroke-width="0.0938" d="M138.39,824.72c0.09-4.05,0.04-8.09,0.09-12.1299c3.31,0.22,6.63,0.03,9.94,0.24
		c-0.23,3.94-0.22,7.91-0.04,11.86C145.05,824.74,141.72,824.72,138.39,824.72z"/>
	<path stroke="#000000" stroke-width="0.0938" d="M380.4,812.6c3.04,0.1801,6.11,0.21,9.16-0.03c0.12,4.04,0.04,8.09,0.12,12.15
		c-3.14,0-6.28,0.03-9.41-0.06C380.41,820.64,380.3,816.62,380.4,812.6z"/>
	<path stroke="#000000" stroke-width="0.0938" d="M1516.27,824.73c0.02-4.06-0.05-8.11,0.13-12.16c2.9399,0.21,5.9,0.18,8.86,0.12
		v0.75c-0.04,3.74-0.01,7.49,0.0699,11.25C1522.3,824.73,1519.28,824.73,1516.27,824.73z"/>
	<path stroke="#000000" stroke-width="0.0938" d="M1757.46,813.32c3.2101-0.08,6.4401-0.11,9.67,0.08
		c0.04,3.69,0.04,7.38-0.02,11.0699c-3.22,0.1-6.4399,0.08-9.64,0.05C1757.4301,820.78,1757.4399,817.05,1757.46,813.32z"/>
	<path stroke="#000000" stroke-width="0.0938" d="M788.32,870.3c11.61-7.68,22.99-15.75,34.71-23.25
		c4.52,6.39,9.1299,12.82,13.0699,19.59c-24.84,16.61-49.67,33.28-74.33,50.15c-101.3,94.4901-202.44,189.17-303.74,283.68
		c-1.3-1.39-2.61-2.75-3.98-4.0399c4.18-4.9,9.36-8.88,13.92-13.4301c59.14-55.24,118.26-110.49,177.4-165.72
		c27.83-26.16,55.96-52.02,83.62-78.35c-33.47,22.19-66.62,44.89-99.98,67.26c-74.27,50.07-148.5,100.21-222.81,150.23
		c-4.34-6.55-8.8-13.01-13.14-19.5601C524.82,1048.03,656.56,959.15,788.32,870.3z"/>
	<path stroke="#000000" stroke-width="0.0938" d="M1081.98,847.95c0.6-0.95,1.3301-0.99,2.22-0.12
		c142.8601,96.34,285.7101,192.71,428.5901,289.04c-4.3401,6.52-8.8301,12.9401-13.0701,19.53
		c-108.01-72.5-215.6599-145.53-323.65-218.06c91.8501,86.03,183.9401,171.8,275.8101,257.81c-1.38,1.4199-2.73,2.86-4.05,4.33
		c-100.0599-93.36-200.01-186.83-300.01-280.25c-4.87-5.04-11.1399-8.31-16.7799-12.36c-20.49-13.88-41.11-27.55-61.4701-41.6
		C1073.84,860.26,1077.87,854.08,1081.98,847.95z"/>
	<path fill="#A9A09B" stroke="#A9A09B" stroke-width="0.0938" d="M214.41,886.81c0.26-6.77-0.14-13.54,0.2-20.3
		c7.18,0.1,14.36,0.01,21.55,0.07c-0.07,6.85,0.03,13.7-0.04,20.56C228.89,886.94,221.61,887.54,214.41,886.81z"/>
	<path fill="#A9A09B" stroke="#A9A09B" stroke-width="0.0938" d="M252.24,887.01c0.21-6.86-0.32-13.75,0.29-20.58
		c7.11,0.31,14.24,0,21.37,0.16c0.04,6.84,0.04,13.68,0,20.53C266.68,887.09,259.46,887.3,252.24,887.01z"/>
	<path fill="#A9A09B" stroke="#A9A09B" stroke-width="0.0938" d="M288.96,866.6c7.17-0.17,14.35,0.1,21.52-0.15
		c0.34,6.82,0,13.65,0.21,20.48c-7.2,0.45-14.42,0.13-21.63,0.18C288.87,880.27,289.03,873.43,288.96,866.6z"/>
	<path fill="#A9A09B" stroke="#A9A09B" stroke-width="0.0938" d="M1595.15,866.71c7.24-0.28,14.5-0.2,21.76-0.05
		c-0.12,6.79-0.0601,13.59-0.03,20.39c-7.23,0.12-14.47,0.22-21.6901-0.06C1595.1801,880.23,1595.27,873.47,1595.15,866.71z"/>
	<path fill="#A9A09B" stroke="#A9A09B" stroke-width="0.0938" d="M1631.9301,866.57c7.1699-0.04,14.35,0.03,21.5299-0.06
		c0.23,6.78-0.0299,13.58,0.16,20.37c-7.21,0.58-14.47,0.12-21.6899,0.25C1631.87,880.27,1631.88,873.42,1631.9301,866.57z"/>
	<path fill="#A9A09B" stroke="#A9A09B" stroke-width="0.0938" d="M1669.7,866.56c7.2001,0.01,14.4-0.05,21.6101,0.04
		c-0.02,6.84,0.12,13.7-0.05,20.55c-7.2-0.02-14.4,0.0099-21.59-0.03C1669.7,880.26,1669.66,873.41,1669.7,866.56z"/>
	<path fill="#A9A09B" stroke="#A9A09B" stroke-width="0.0938" d="M214.49,891.41c7.14-0.11,14.28,0.05,21.42-0.09
		c0.51,6.85,0.11,13.75,0.21,20.62c-7.24-0.07-14.48,0.16-21.72-0.13C214.57,905.01,214.45,898.21,214.49,891.41z"/>
	<path fill="#A9A09B" stroke="#A9A09B" stroke-width="0.0938" d="M252.3,891.37c7.18-0.02,14.35,0.05,21.52-0.03
		c0.24,6.86,0.02,13.72,0.12,20.59c-7.24,0.01-14.48,0.06-21.72-0.04C252.33,905.05,252.2,898.21,252.3,891.37z"/>
	<path fill="#A9A09B" stroke="#A9A09B" stroke-width="0.0938" d="M289.17,891.28c7.14,0.17,14.29,0.08,21.43,0.1
		c0.09,6.82-0.07,13.65,0.09,20.48c-7.23,0.17-14.47,0.03-21.71,0.09C289.06,905.06,288.73,898.16,289.17,891.28z"/>
	<path fill="#A9A09B" stroke="#A9A09B" stroke-width="0.0938" d="M1595.24,891.35c7.17,0.01,14.35,0.05,21.54-0.02
		c0.1599,6.87,0.01,13.74,0.0699,20.62c-7.23-0.05-14.46,0.05-21.6799-0.06C1595.25,905.04,1595.16,898.2,1595.24,891.35z"/>
	<path fill="#A9A09B" stroke="#A9A09B" stroke-width="0.0938" d="M1632.11,891.28c7.14,0.1899,14.29,0.05,21.4501,0.11
		c0.0299,6.81-0.0901,13.63,0.0699,20.45c-7.24,0.21-14.49,0.06-21.72,0.09C1632,905.05,1631.65,898.15,1632.11,891.28z"/>
	<path fill="#A9A09B" stroke="#A9A09B" stroke-width="0.0938" d="M1669.66,891.46c7.22-0.14,14.45-0.14,21.6799-0.02
		c-0.0699,6.84,0.0701,13.68-0.08,20.53c-7.1901-0.06-14.37-0.03-21.55-0.0099C1669.63,905.12,1669.73,898.29,1669.66,891.46z"/>
	<path stroke="#000000" stroke-width="0.0938" d="M138.38,925.32c3.34,0.01,6.67-0.03,10.01,0.04c-0.21,3.94-0.17,7.89,0.03,11.83
		c-3.32,0.14-6.65,0.02-9.97,0.23C138.45,933.38,138.49,929.35,138.38,925.32z"/>
	<path stroke="#000000" stroke-width="0.0938" d="M380.35,925.29c3.1,0.04,6.2,0.05,9.3,0.01c-0.03,4.04,0,8.08-0.05,12.13
		c-3.03-0.23-6.07-0.25-9.1,0.01C379.72,933.38,380.32,929.36,380.35,925.29z"/>
	<path stroke="#000000" stroke-width="0.0938" d="M1516.28,925.31c3.01,0,6.03,0,9.0599,0.04c-0.1,3.75-0.11,7.5-0.0699,11.26
		l0.01,0.74c-2.98-0.1-5.9601-0.14-8.91,0.08C1516.23,933.38,1516.3,929.34,1516.28,925.31z"/>
	<path stroke="#000000" stroke-width="0.0938" d="M1757.53,925.54c3.1799-0.0099,6.38,0,9.58,0.03c0.0601,3.72,0.04,7.44-0.01,11.18
		c-3.23,0.1-6.45,0.06-9.65,0.01C1757.4399,933.01,1757.39,929.27,1757.53,925.54z"/>
	<path stroke="#000000" stroke-width="0.0938" d="M138.91,963.89c2.02-0.29,4.22-0.55,6.12,0.4c0.81,0.07,2.44,0.21,3.25,0.27
		c-0.01,3.7,0.15,7.42-0.22,11.12c-3.18-0.11-6.35-0.11-9.52-0.01C138.67,971.77,137.87,967.62,138.91,963.89z"/>
	<path stroke="#000000" stroke-width="0.0938" d="M380.41,963.62c3.09,0.46,6.39-0.55,9.32,0.73c-0.2,4.05-0.01,8.1-0.2,12.15
		c-3.03-0.91-6.06-0.59-9.11-0.05C380.31,972.17,380.3,967.89,380.41,963.62z"/>
	<path stroke="#000000" stroke-width="0.0938" d="M1516.4301,976.39c-0.2301-4.28-0.26-8.56,0.0499-12.83
		c2.84,0.4,5.77-0.15,8.61,0.39c0.8201,4,0.29,8.16,0.2101,12.23C1522.34,976.32,1519.37,976.19,1516.4301,976.39z"/>
	<path stroke="#000000" stroke-width="0.0938" d="M1757.45,964.41c3.2001-0.06,6.42-0.06,9.64-0.03
		c0.0901,3.72,0.0901,7.44,0.0601,11.17c-3.24,0.13-6.47,0.09-9.6901,0.04C1757.4399,971.86,1757.4399,968.13,1757.45,964.41z"/>
	<path fill="#ABABAB" stroke="#ABABAB" stroke-width="0.0938" d="M203.4,975.67c2.7-0.01,5.41-0.01,8.13-0.01
		c0.07,37.59,0.05,75.18,0,112.7701c-2.67-0.01-5.34-0.01-8.01,0.0099c-0.01,3.76-0.02,7.52-0.04,11.29c2.64,0.05,5.28,0.05,7.92,0
		c0.33,23.9,0.17,47.8301,0.08,71.74c9.49,0.5701,19.01,0.0901,28.52,0.25c24.85,0.17,49.72-0.35,74.55,0.26
		c3.62,0.51,7.3,0.5701,10.93,0.01c0.34-0.04,1.01-0.12,1.35-0.16c17.53-0.25,35.07-0.0599,52.6-0.09h0.51
		c0.77-11.88,0.13-23.8199,0.33-35.72c-0.24-13.35,0.52-26.73-0.58-40.04c0.08-2.47-0.45-5.12,0.66-7.41
		c0.25,3.7101,0.15,7.4401,0.14,11.17c2.99,0.05,5.98,0.04,8.98,0c-0.03-3.74-0.04-7.47,0.04-11.2
		c-3.06-0.1001-6.12-0.16-9.17-0.2201c-0.22-37.0299,0-74.0499-0.05-111.08l0.48,0.01c-0.05,36.66-0.14,73.3101,0,109.96
		c3.29,0.05,6.59,0.0701,9.88,0.0701c0.04,4.5-0.04,8.99,0.05,13.5c-3.33,0.1699-6.67,0.09-10,0.1699
		c-0.04,23.53,0.14,47.0601-0.07,70.5801c19.3,0.26,38.61,0.22,57.91,0.02c0.17,65.08-0.06,130.1599,0.12,195.24
		c-53.9-0.3401-107.8-0.01-161.69-0.15c-55.32,0.03-110.64,0.03-165.96,0.01c-9.58,0.0399-19.16-0.16-28.74,0.16
		c0.07-64.8701,0.13-129.75-0.03-194.6201c17.58,0.1901,35.17,0.04,52.76,0.1001c4.5-0.11,9.03,0.24,13.51-0.3401
		c0.34-0.0299,1.03-0.09,1.37-0.12c17.5-0.24,35.01-0.09,52.51-0.0699l0.46,0.01c0.27-15.5801-0.18-31.17,0.14-46.75
		c0.48-12.73-0.81-25.47,0.08-38.1801c2.68,0.38,5.39,0.49,8.1,0.41c0.18-36.8199,0.15-73.64,0.01-110.46
		c-2.7-0.05-5.39,0.11-8.07,0.46c-0.01-0.39-0.02-1.19-0.03-1.58H203.4 M203.56,1100.91c-0.07,23.58-0.25,47.1599,0.04,70.74
		c2.5,0.0699,5.01,0.0599,7.51-0.1c0.32-23.54,0.21-47.0901,0.07-70.63C208.63,1100.86,206.09,1100.85,203.56,1100.91
		 M83.49,1191.01c-0.05,58.27,0.09,116.53-0.08,174.8c6.86,0.75,13.79,0.1699,20.67,0.36c111.1-0.05,222.19,0.0299,333.29-0.04
		c0.02-64.37-0.02-128.74,0.02-193.11c-117.92-0.13-235.83,0.1-353.75-0.2001C83.28,1178.87,83.58,1184.95,83.49,1191.01z"/>
	<path fill="#A9A09B" stroke="#A9A09B" stroke-width="0.0938" d="M214.48,987.44c7.15-0.1,14.3,0.07,21.44-0.11
		c0.48,6.86,0.11,13.75,0.2,20.62c-7.23-0.15-14.47,0.21-21.7-0.12C214.56,1001.03,214.46,994.23,214.48,987.44z"/>
	<path fill="#A9A09B" stroke="#A9A09B" stroke-width="0.0938" d="M252.31,987.41c7.19,0,14.37,0.03,21.55-0.02
		c0.14,6.85,0.03,13.71,0.06,20.57c-7.24-0.08-14.47,0.04-21.7-0.07C252.34,1001.06,252.19,994.23,252.31,987.41z"/>
	<path fill="#A9A09B" stroke="#A9A09B" stroke-width="0.0938" d="M289.17,987.32c7.14,0.19,14.28,0.06,21.42,0.08
		c0.1,6.83-0.03,13.66,0.07,20.49c-7.21,0.13-14.43-0.02-21.65,0.08C289.03,1001.08,288.75,994.19,289.17,987.32z"/>
	<path fill="#A9A09B" stroke="#A9A09B" stroke-width="0.0938" d="M1595.26,987.38c7.16,0.05,14.34,0.07,21.52-0.01
		c0.1699,6.85,0.01,13.72,0.0699,20.58c-7.23-0.04-14.45,0.02-21.6699-0.03C1595.26,1001.07,1595.13,994.22,1595.26,987.38z"/>
	<path fill="#A9A09B" stroke="#A9A09B" stroke-width="0.0938" d="M1632.16,987.3c7.13,0.25,14.27,0.06,21.4099,0.11
		c0.01,6.8-0.1,13.61,0.0701,20.42c-7.25,0.31-14.5,0-21.74,0.1C1632.04,1001.05,1631.58,994.15,1632.16,987.3z"/>
	<path fill="#A9A09B" stroke="#A9A09B" stroke-width="0.0938" d="M1669.64,987.47c7.23-0.09,14.47-0.11,21.71,0.01
		c-0.0699,6.83,0.04,13.66-0.0699,20.49c-7.2001-0.0699-14.39-0.05-21.5701-0.0099C1669.62,1001.12,1669.76,994.29,1669.64,987.47z"
		/>
	<path fill="#A9A09B" stroke="#A9A09B" stroke-width="0.0938" d="M214.39,1022.18c7.21-0.52,14.48-0.3,21.72-0.13
		c-0.1,6.84,0.37,13.72-0.26,20.55c-7.12-0.1899-14.25-0.03-21.37-0.09C214.44,1035.73,214.6,1028.95,214.39,1022.18z"/>
	<path fill="#A9A09B" stroke="#A9A09B" stroke-width="0.0938" d="M252.25,1022.04c7.2-0.29,14.42-0.08,21.63-0.11
		c0.03,6.8801,0.18,13.77-0.09,20.65c-7.16-0.12-14.32-0.0499-21.47-0.0499C252.2,1035.7,252.32,1028.87,252.25,1022.04z"/>
	<path fill="#A9A09B" stroke="#A9A09B" stroke-width="0.0938" d="M289.09,1021.9c7.19,0.13,14.4-0.28,21.59,0.27
		c-0.2,6.8,0.16,13.61-0.21,20.41c-7.16-0.14-14.33-0.0299-21.49-0.08C289.02,1035.63,288.83,1028.76,289.09,1021.9z"/>
	<path fill="#A9A09B" stroke="#A9A09B" stroke-width="0.0938" d="M1595.21,1022.02c7.2001-0.22,14.41-0.13,21.62-0.04
		c0.01,6.86,0.0901,13.72-0.0499,20.5801c-7.17-0.0601-14.3401-0.0901-21.5,0.0099C1595.11,1035.72,1595.24,1028.87,1595.21,1022.02
		z"/>
	<path fill="#A9A09B" stroke="#A9A09B" stroke-width="0.0938" d="M1631.9301,1021.91c7.23,0.14,14.49-0.33,21.71,0.27
		c-0.1901,6.78-0.04,13.56-0.1,20.34c-7.12,0.04-14.25-0.12-21.36,0.11C1631.58,1035.74,1632.01,1028.8101,1631.9301,1021.91z"/>
	<path fill="#A9A09B" stroke="#A9A09B" stroke-width="0.0938" d="M1669.7,1021.98c7.1901-0.15,14.39-0.04,21.6001-0.07
		c0.0599,6.83-0.02,13.66,0.0599,20.4901c-7.24,0.1699-14.5,0.25-21.73-0.04C1669.76,1035.5699,1669.63,1028.77,1669.7,1021.98z"/>
	<path fill="#A9A09B" stroke="#A9A09B" stroke-width="0.0938" d="M214.47,1054.35c7.14-0.1,14.28,0.0701,21.41-0.11
		c0.52,6.86,0.24,13.76,0.16,20.64c-7.2-0.0699-14.39,0.05-21.58-0.09C214.52,1067.98,214.49,1061.16,214.47,1054.35z"/>
	<path fill="#A9A09B" stroke="#A9A09B" stroke-width="0.0938" d="M252.3,1054.33c7.19-0.0299,14.38,0.01,21.57-0.0199
		c0.1,6.84,0.05,13.6799,0.04,20.5299c-7.23,0-14.45,0.0801-21.68-0.0299C252.32,1067.98,252.21,1061.15,252.3,1054.33z"/>
	<path fill="#A9A09B" stroke="#A9A09B" stroke-width="0.0938" d="M289.1,1054.28c7.17,0.1,14.34-0.03,21.52,0.08
		c0.02,6.8101-0.01,13.62,0.01,20.4301c-7.2,0.13-14.39,0.0499-21.58,0.0699C288.94,1068,288.84,1061.13,289.1,1054.28z"/>
	<path fill="#A9A09B" stroke="#A9A09B" stroke-width="0.0938" d="M1595.22,1054.36c7.2001-0.09,14.4-0.01,21.61-0.04
		c0.04,6.8401,0,13.6901,0.04,20.54c-7.23-0.01-14.45,0.03-21.66-0.04C1595.21,1068,1595.17,1061.17,1595.22,1054.36z"/>
	<path fill="#A9A09B" stroke="#A9A09B" stroke-width="0.0938" d="M1632.08,1054.25c7.16,0.1801,14.3301-0.02,21.49,0.11
		c-0.0199,6.8-0.0499,13.6,0.03,20.41c-7.22,0.22-14.4299,0.02-21.64,0.1C1631.9301,1067.99,1631.71,1061.11,1632.08,1054.25z"/>
	<path fill="#A9A09B" stroke="#A9A09B" stroke-width="0.0938" d="M1669.66,1054.35c7.27-0.02,14.5399-0.12,21.8199,0.0601
		c-0.28,6.76-0.2,13.5399-0.0599,20.3099c-7.24,0.3-14.4801,0.0601-21.7101,0.15C1669.65,1068.03,1669.72,1061.1899,1669.66,1054.35
		z"/>
	<path stroke="#000000" stroke-width="0.0938" d="M380.34,1088.3199c3.05,0.0601,6.11,0.12,9.17,0.2201
		c-0.08,3.73-0.07,7.46-0.04,11.2c-3,0.04-5.99,0.05-8.98,0c0.01-3.73,0.11-7.46-0.14-11.17L380.34,1088.3199z"/>
	<path stroke="#000000" stroke-width="0.0938" d="M1516.45,1088.46c2.9301-0.02,5.87-0.02,8.8301,0
		c-0.02,3.7201-0.04,7.4401,0.0399,11.1801c-2.97,0.1899-5.9299,0.1799-8.88,0.0599
		C1516.46,1095.9399,1516.47,1092.2,1516.45,1088.46z"/>
	<path stroke="#000000" stroke-width="0.0938" d="M138.88,1088.53c3.11-0.03,6.22-0.02,9.34,0.02c0.02,3.75,0.37,7.5299-0.25,11.26
		c-2.98-0.1101-5.96-0.1001-8.94-0.04C138.71,1096.02,138.8,1092.27,138.88,1088.53z"/>
	<path stroke="#000000" stroke-width="0.0938" d="M1757.49,1088.5c3.2-0.04,6.42-0.03,9.65,0.01c0.04,3.71,0.01,7.42-0.0601,11.14
		c-3.21,0.14-6.4199,0.12-9.62,0.08C1757.4301,1095.98,1757.42,1092.24,1757.49,1088.5z"/>
	<path stroke="#000000" stroke-width="0.0938" d="M83.49,1191.01c0.09-6.0601-0.21-12.14,0.15-18.1901
		c117.92,0.3,235.83,0.0701,353.75,0.2001c-0.04,64.37,0,128.74-0.02,193.11c-111.1,0.0699-222.19-0.01-333.29,0.04
		c-6.88-0.1901-13.81,0.39-20.67-0.36C83.58,1307.54,83.44,1249.28,83.49,1191.01z"/>
	<path stroke="#000000" stroke-width="0.0938" d="M1468.37,1173.13c24.5-0.7,49.04-0.08,73.5601-0.13
		c57.34,0.01,114.6899,0,172.0399,0c36.1,0.08,72.2101-0.3101,108.3201-0.12c-0.05,64.41,0.0499,128.8199-0.05,193.23
		c-112.75,0.04-225.5-0.01-338.26,0.02c-5.1899-0.14-10.4,0.28-15.5599-0.3C1468.47,1301.59,1468.5699,1237.36,1468.37,1173.13z"/>
</g>
</svg>
