<?xml version="1.0" encoding="UTF-8" standalone="no"?>
<svg id="svg8283" xmlns:rdf="http://www.w3.org/1999/02/22-rdf-syntax-ns#" xmlns="http://www.w3.org/2000/svg" height="558.35mm" width="236.83mm" version="1.1" xmlns:cc="http://creativecommons.org/ns#" xmlns:dc="http://purl.org/dc/elements/1.1/" viewBox="0 0 839.14484 1978.4035">
<g id="layer1" transform="translate(1263.8 -897.3)">
<path id="path2022" d="m-845.37 897.3c-1.6116 22.054-1.5075 44.108-3.1574 66.684-0.47642 0.12932-1.9035 0.50063-3.3216 0.90309-12.08 3.4274-21.413 10.395-26.592 22.104-4.2046 9.5063-5.1666 19.615-3.6165 29.896 0.81948 5.4371-0.49608 9.8581-2.8894 15.096-3.2339 7.0778-4.682 13.197-4.4832 20.947 0.12404 4.8354 2.1927 9.5483 2.224 14.334 0.20058 30.69-1.257 62.198-1.1285 92.889 0.0132 3.2325-1.4334 4.6803-4.4289 5.9031-12.441 5.0786-21.936 11.327-30.144 22.264-5.5251 7.362-8.4069 15.61-4.9553 25.113 1.3306 3.664 2.0215 7.6499 2.3883 11.548 0.18516 1.968-0.98385 4.0742-1.5746 6.1072-0.74558 2.5618-2.1961 5.1256-2.1464 7.6653 0.0906 4.6445 1.059 9.2721 1.6516 13.833 9.7913 1.2505 13.543 5.7388 13.236 15.552-0.033 1.0627-0.0772 2.1249-0.12165 3.1877-1.3961 33.544-2.8416 67.086-4.1079 100.64-0.1157 3.0667-1.0077 4.4307-3.8866 5.5113-13.646 5.125-25.71 12.842-34.517 24.694-7.2573 9.7667-9.428 20.74-4.8399 32.585 1.2506 3.2295 2.0344 6.6565 2.8385 10.04 0.20146 0.8485-0.112 2.5451-0.58969 2.7175-3.2194 1.1586-2.5122 3.7313-2.4158 6.0797 0.19924 4.857 0.65567 9.7132 0.6165 14.567-0.022 2.7637 1.1187 3.7671 3.479 4.8619 9.8758 4.5794 17.993 10.753 17.175 23.351-0.24238 3.7384 1.306 5.6927 4.7519 6.3401 4.2284 0.7944 5.5717 3.7001 5.3491 7.5629-0.41569 7.2098-0.98861 14.411-1.5512 22.399 1.4115 0.3968 3.6159 1.0166 6.022 1.6935 0 2.743 0.11787 5.6144-0.0172 8.4735-2.5802 54.62-4.9038 109.25-7.8948 163.85-2.019 36.848-4.7574 73.662-7.5897 110.46-3.5435 46.029-7.5316 92.023-11.294 138.03-3.9355 48.131-7.2019 96.326-11.911 144.38-5.2999 54.082-11.327 108.11-18.053 162.03-8.0512 64.536-21.741 127.97-39.417 190.52-3.8263 13.538-7.896 27.006-11.909 40.694-7.9197-0.7962-15.39-1.4892-22.847-2.3086-17.531-1.9271-35.032-3.4548-52.634-0.4694-20.997 3.5605-40.167 10.472-54.819 26.319 21.603 7.4114 67.189 27.515 92.159 68.247 7.0536 11.506 22.641 40.574 21.346 79.368-0.6796 20.355-6.0327 41.204-20.258 68.37-32.359 61.791-80.907 116.02-114.31 143.37h22.946c5.219-4.2741 10.502-8.4717 15.645-12.836 17.747-15.062 30.855-33.746 42.316-53.934 9.2423-16.28 18.707-32.579 29.699-47.663 12.477-17.122 28.823-30.472 47.382-40.752 10.314-5.7133 21.27-9.5591 33.24-7.6109 17.655 2.8727 30.283 16.889 32.244 35.449 2.2099 20.91-3.474 40.4-12.184 58.863-6.0463 12.816-13.818 24.823-21.118 37.01-8.0376 13.419-19.794 23.054-32.635 31.474h22.404c28.143-40.297 47.291-84.294 54.708-108.58 9.2488-30.287 32.175-109.38 1.9285-197.34-8.8256-25.666-22.067-48.504-30.43-61.652-0.71463-0.053-1.4128-0.1702-2.0357-0.3553-8.7608-2.6035-17.424-5.5415-26.36-8.4371 3.7964-15.027 7.7675-30.389 11.556-45.796 4.7256-19.218 9.2192-38.484 13.437-57.805 21.189-6.7872 46.947-13.585 74.389-18.198-1.0875 12.309-2.188 24.616-3.2784 36.924-2.0225 22.832-4.8884 45.586-7.1691 68.396-0.40731 4.0718-1.8427 5.7228-5.9801 6.6082-15.938 3.4112-31.188 8.9024-45.928 15.851 8.604 13.716 21.358 36.127 30.119 61.603 31.219 90.788 7.4755 172.29-1.8344 202.78-7.4622 24.437-25.567 66.264-52.445 106.01h39.18c13.756-33.523 25.377-67.763 33.843-103.05 1.6614-6.9253 2.8768-13.974 4.8584-20.8 1.1467-3.9491 2.7851-8.0633 5.2694-11.258 34.027-43.772 99.806-41.881 131.41 3.7072 1.4937 2.1536 2.6928 4.8094 3.112 7.3835 6.842 41.994 19.073 82.314 36.535 121.04 0.42051 0.9325 0.57542 1.9873 0.8543 2.9849h34.821c-26.487-39.984-39.521-82.158-46.819-106.05-9.3815-30.723-30.75-113.7 0.45293-204.44 8.0594-23.438 19.811-44.58 28.381-58.533-23.044-1.8368-40.343-16.344-47.698-18.891-3.1767-1.1006-4.6415-2.322-4.9876-5.6839-2.1008-20.387-4.9709-40.712-6.455-61.142-1.0902-15.01-2.1616-30.021-3.2103-45.034 26.484 3.7352 50.622 9.6745 72.076 16.49 7.1099 34.776 15.33 69.365 24.807 103.74 0.31713 1.1507 0.52346 2.3314 0.58282 2.5993-9.87 5.311-18.43 7.2047-24.689 7.8296-8.431 13.298-21.808 36.246-30.487 61.486-30.263 88.008-9.5344 168.96-0.35807 199.01 7.5901 24.856 21.19 68.55 49.034 108.62h26.812c-14.676-9.4949-27.841-20.696-38.128-35.026-21.43-29.85-30.165-63.375-27.834-99.949 0.79394-12.458 15.097-25.402 28.474-26.446 11.67-0.911 22.347 2.4657 32.463 7.8083 22.788 12.035 40.271 29.439 51.763 52.819 18.116 36.859 40.804 70.419 70.37 98.996 0.50936 0.4923 0.81931 1.1936 1.2227 1.798h33.123c-32.907-27.788-78.015-79.137-109.33-138.94-14.226-27.166-19.58-48.014-20.26-68.369-1.295-38.794 14.293-67.861 21.347-79.368 15.003-24.473 38.284-41.655 59.167-53.183 15.359-8.4787 29.355-13.869 38.147-16.769-11.992-14.496-27.112-24.384-45.766-28.64-13.941-3.1811-28.147-2.6155-42.273-1.7058-14.387 0.9259-28.744 2.3373-43.385 3.5587-0.26831-0.7103-0.69146-1.6582-0.98969-2.6439-28.304-93.58-48.209-188.97-58.317-286.26-5.0347-48.462-7.4246-97.201-11.255-145.79-2.3031-29.215-5.0466-58.396-7.644-87.587-2.5037-28.133-5.3073-56.239-7.5532-84.392-2.4883-31.186-4.6241-62.403-6.6756-93.622-2.4703-37.587-4.8014-75.184-6.9849-112.79-1.771-30.507-3.3083-61.027-4.8625-91.546l0.46186-0.7684c-0.17093-0.1028-0.34526-0.204-0.51684-0.3065-0.05-0.9808-0.0998-1.9616-0.14983-2.9423-0.81199-15.916-1.4406-31.841-2.1457-47.626 5.0091-3.1916 6.861-2.8283 5.2674-11.331-3.4732-18.534 3.6068-34.786 18.762-44.34 4.0349-2.5437 9.6673-4.1919 11.678-7.8625 2.1571-3.9373 0.91138-9.7743 1.1484-14.782 0.021-0.4552 0.0115-0.9116 0.0467-1.3656 0.20192-2.6114 0.53683-5.2177-3.0137-6.0178-0.55025-0.1241-1.3098-1.4273-1.2007-2.0475 0.56743-3.229 0.73911-6.7657 2.2302-9.5505 5.5278-10.32 5.4482-20.352-0.66185-30.218-9.1654-14.803-21.992-25.208-38.189-31.257-2.5508-0.9528-3.3877-2.134-3.4515-4.8316-0.28985-12.301-0.83324-24.596-1.2625-36.894-0.73105-20.952-1.8321-41.903-1.8928-62.858-0.0154-5.219 2.9488-10.655 5.4213-15.538 0.68488-1.3531 4.5283-1.0676 6.9154-1.5664 0.25822-0.054 0.47178-0.3268 0.9354-0.6659 0.27271-4.9691 0.70021-10.113 0.75876-15.26 0.0211-1.8686-0.82023-3.7528-1.3058-5.62-0.60349-2.3238-1.9701-4.7255-1.7065-6.9353 0.41171-3.4433 1.9451-6.7455 2.9471-10.124 0.42666-1.4415 0.94013-2.9126 1.0268-4.3931 0.92104-15.829-5.2429-28.029-18.649-36.356-4.2227-2.6229-8.7183-4.8055-12.893-7.4983-1.2637-0.8146-5.1413-2.5218-5.1897-3.9285-1.3165-38.261-0.006-76.644-1.0715-114.91-0.17021-6.1167-2.1572-11.331-4.7656-16.788-2.2886-4.7865-4.163-10.79-3.446-15.856 3.877-27.4-9.3002-47.069-35.959-53.295 0-10.662-0.82337-22.915-0.82337-33.832 0-10.884-0.70997-21.865-0.70997-32.749-0.3497-0.0292-0.82214-0.01-1.1718-0.0385zm3.7464 139.52h0.39175c3.904 0.1082 7.4714 2.7477 7.5484 6.3416 0.0322 1.4995 0.0575 2.9989 0.0777 4.4989 0.14115 10.5 0.0165 21.014 0.0165 31.606-5.5739 0.556-11.424 1.1401-17.913 1.7876 0.52386-10.288 1.0459-20.812 1.6089-31.336 0.1095-2.055 0.31411-4.1103 0.58419-6.1539 0.22666-1.7142 0.78085-3.1648 1.7127-4.277 1.1984-1.4301 3.022-2.3006 5.5801-2.4543 0.13117-0.01 0.26224-0.013 0.39313-0.015zm-24.797 3.0838c0.89116 1.2584 2.537 2.51 2.5567 3.776 0.19354 12.419 0.11684 24.841 0.11684 37.728-2.6616 0.8507-6.3028 2.0151-9.2969 2.9719 0-13.307-0.022-26.52 0.055-39.733 0.005-0.7715 0.53801-1.7882 1.299-2.2584 1.5883-0.9814 3.4937-1.6732 5.2694-2.4839zm48.066 0c2.0168 0.8107 4.1819 1.5025 5.9862 2.4839 0.86477 0.4702 1.469 1.4869 1.4742 2.2584 0.0875 13.213 0.0632 26.426 0.0632 39.733-3.4006-0.9563-7.537-2.1205-10.56-2.9712 0-12.888-0.088-25.309 0.13196-37.728 0.0112-0.633 0.48436-1.2623 1.0811-1.8908 0.59656-0.6284 1.3171-1.2562 1.8234-1.8852zm-18.639 51.625c1.8693-0.02 3.7931 0.083 5.7883 0.3306v66.295h-25.45c-0.0365-0.6254-0.17938-1.9431-0.17938-3.2604-0.0145-18.228 0.0946-36.457-0.10378-54.683-0.037-3.3931 1.1502-4.8517 4.132-5.8172 5.0873-1.6475 10.205-2.8064 15.813-2.8653zm-27.55 3.3725c0.6189 21.683 1.2345 43.242 1.8433 64.572-5.0918 0.9633-9.6295 1.822-14.46 2.736v-50.961c0.00035-7.7103 4.4903-13.67 12.617-16.348zm42.504 0c5.8415 1.9247 9.8037 5.5445 11.57 10.291 0.15363 0.4128 0.29078 0.8345 0.411 1.2639 0.42077 1.5031 0.63574 3.1058 0.63574 4.7925v50.961c-4.831-0.914-9.3686-1.7727-14.46-2.736 0.60877-21.33 1.2244-42.89 1.8433-64.572zm-20.425 122.45c4.3112 0.023 8.6365 0.6328 13.021 1.9258v54.497h-29.421c-0.0334-0.3744-0.22336-1.508-0.22336-2.642-0.0198-15.763 0.0604-31.527-0.079-47.289-0.0264-2.9673 0.8661-4.1823 3.767-4.8914 1.6227-0.3967 3.2412-0.7243 4.8577-0.9773 1.0777-0.1687 2.1542-0.3044 3.2309-0.4055 0.53835-0.051 1.0768-0.093 1.6151-0.1258 1.0767-0.066 2.1538-0.097 3.2316-0.091zm-28.9 3.7615c0.47491 0 0.95309 0 1.4357 0.01-0.71212 18.443-1.4014 36.302-2.077 53.774-7.3752 2.3247-14.608 4.6039-22.126 6.9739-0.0444-0.5634-0.18625-1.5315-0.18625-2.4996-0.0141-16.101 0.0643-32.202-0.0804-48.302-0.0255-2.878 0.90241-4.3852 3.4756-5.4743 6.1558-2.6061 12.435-4.4148 19.559-4.4817zm55.038 0.032c4.0612 0.037 8.0559 0.7187 11.959 1.9244 0.8673 0.2679 1.7296 0.5613 2.5876 0.8797 2.145 0.796 4.2601 1.746 6.3409 2.8289 0.47835 0.249 0.87079 0.9579 1.099 1.7065 0.0913 0.2994 0.15594 0.6054 0.18969 0.8907 0.0169 0.1427 0.0262 0.2799 0.0268 0.4089 0.0782 18.027 0.0563 36.054 0.0563 53.851-7.9039-2.7289-15.359-5.3026-23.706-8.1842v-54.291c0.48318-0.014 0.96542-0.019 1.4467-0.014zm33.625 17.289c1.0869 2.5319 3.1195 5.0688 3.1079 7.5959-0.01 2.1229-0.0266 4.2455-0.0488 6.3684-0.15561 14.86-0.58929 29.719-0.92989 44.578-0.005 0.2283-0.25402 0.4506-1.033 1.7512-0.52168-1.3875-1.1164-2.5876-1.5959-3.7031-0.11985-0.2789-0.23293-0.5528-0.33539-0.8227-0.3074-0.8095-0.52301-1.5856-0.5677-2.3718-0.27466-4.8304-0.53437-9.6621-0.76701-14.496-0.0775-1.611-0.15224-3.2217-0.22337-4.833-0.28449-6.4453-0.51377-12.893-0.66048-19.342-0.10732-4.7299 0.7871-9.4829 1.2247-14.226 0.60965-0.1671 1.2192-0.3336 1.8289-0.5003zm-120.68 1.8385c-0.59913 17.043-0.99257 33.801-1.9959 50.521-0.14431 2.4096-3.2231 4.6392-5.8997 6.5258-0.0726-1.4291-0.20893-2.8582-0.20893-4.2873-0.0144-14.565-0.0328-29.129 0.004-43.694 0.0141-5.5747 1.7573-7.7226 8.1003-9.0659zm47.264 41.835c7.7702 0.036 15.541 0 23.311 0.051 2.1821 0.015 3.5767 0.7329 3.5588 3.4812-0.10381 15.932-0.0502 31.865-0.0502 47.959-4.5631-0.4104-9.5428-0.6692-14.885-0.6742-5.4499 0-10.524 0.2568-15.166 0.6742 0-3.0368 0.0452-6.3283-0.008-9.6185-0.1997-12.453-0.35012-24.908-0.70859-37.357-0.0884-3.0716 0.86146-4.5306 3.9471-4.5162zm38.498 2.4742c8.1163 3.6011 15.354 6.725 22.485 10.081 0.93648 0.4408 1.8751 2.0639 1.8832 3.1464 0.12098 15.762 0.0832 31.524 0.0832 47.583-3.5484-1.7427-7.4298-3.4851-11.637-5.1491-3.8066-1.5057-7.4594-2.7808-10.914-3.8646-0.61007-16.632-1.2258-33.424-1.8997-51.797zm-54.723 1.2323v50.094c-3.4657 0.6787-7.1489 1.5246-11.01 2.5829-4.2825 1.174-8.2494 2.4622-11.883 3.7862v-13.645c0-10.455-0.0976-20.912 0.099-31.364 0.0312-1.6706 0.929-3.9512 2.1945-4.8653 6.1136-4.4136 13.046-6.5995 20.599-6.5897zm-35.501 16.801c0.49616 0.161 0.9918 0.3222 1.488 0.4832 0.0598 1.2593 0.21111 2.5219 0.16495 3.7773-0.52917 14.548-1.0222 29.099-1.7203 43.639-0.0221 0.4596-0.1137 0.9158-0.24948 1.3698-0.0679 0.227-0.14691 0.4529-0.23368 0.679-0.43385 1.1305-1.0638 2.2512-1.4928 3.3821-0.82518-0.135-1.6502-0.2698-2.4749-0.4048 0-14.354-0.27705-28.717 0.2055-43.054 0.028-0.8343 0.21725-1.6627 0.50927-2.4879 0.073-0.2063 0.15225-0.4121 0.23712-0.6179 0.4244-1.0294 0.98618-2.0537 1.5698-3.0776 0.23339-0.4095 0.47001-0.8187 0.70309-1.2282 0.46615-0.819 0.91695-1.6384 1.2935-2.4605zm125.97 3.1072c0.74953 2.289 2.1567 4.5817 2.1423 6.866-0.0893 14.346-0.49397 28.69-0.80275 43.034-0.0128 0.5969-0.11695 1.1923-0.75739 1.8055-2.9735-17.034-2.3564-34.199-1.9966-51.355 0.47153-0.117 0.94332-0.2338 1.4144-0.3512zm-62.327 35.621c5.1858 0 10.371 0.6425 15.584 1.9161v19.479h-31.172v-19.463c5.2159-1.2921 10.402-1.9319 15.588-1.9319zm-27.504 3.1718c-0.36638 6.9406-0.69195 13.096-1.0179 19.265-7.5516 1.5316-14.865 3.014-22.387 4.5395-0.11873-1.4885-0.24303-2.9874-0.35739-4.4873-0.44144-5.7972-0.66253-8.5521 0.76151-10.455 0.0838-0.1119 0.17262-0.2206 0.26804-0.3271 0.57251-0.6389 1.3604-1.1874 2.4261-1.7423 0.35525-0.185 0.74148-0.3709 1.1608-0.5608 1.258-0.5698 2.8151-1.1778 4.7333-1.9203 1.111-0.43 2.2382-0.8177 3.3862-1.1814 3.4441-1.0912 7.0763-1.9677 11.026-3.1306zm56.031 0.032c3.5937 1.2268 7.5315 2.7823 11.689 4.767 3.474 1.6591 6.6104 3.3839 9.4076 5.0769 0.47066 0.8569 0.91278 1.8545 1.2502 2.9925 1.4639 4.9409 0.002 9.3672-0.82474 11.374-7.3506-1.5061-14.505-2.9717-22.431-4.5952 0.30308-6.5386 0.60619-13.077 0.90927-19.615zm-93.985 18.426c0.58896 0.2533 1.1787 0.5065 1.7677 0.7594 0 1.4169 0.11271 2.8556 0.0962 4.2694-0.003 0.2828-0.012 0.5643-0.0275 0.8447-0.0155 0.2806-0.0384 0.5596-0.0701 0.8371-0.0317 0.2773-0.0721 0.5527-0.12371 0.8261-0.1966 1.0438-1.7256 1.8312-2.6516 2.7347-0.71142-0.7546-2.0218-1.7098-2.3869-2.3491-0.0281-0.049-0.0504-0.096-0.0667-0.1416-0.0163-0.046-0.0267-0.088-0.0296-0.1292-0.003-0.041 0.001-0.079 0.0131-0.1148 0.85685-2.6136 2.2677-5.0418 3.479-7.5367zm62.126 45.866c12.864-0.031 25.652 0.9633 38.753 2.8172-0.80273 4.3005-1.0878 8.6953-2.4632 12.71-6.9661 20.334-10.15 41.166-9.3134 62.678 0.11039 2.8318-1.1895 5.725-1.8722 8.5814-0.44644 1.8668-1.3988 3.7239-1.3746 5.5753 0.27081 20.993 0.54792 41.986 0.82543 62.979-6.7943-1.036-13.819-1.6136-21.065-1.622-7.7019-0.01-15.155 0.626-22.348 1.7726 0.079-4.891 0.16364-9.7819 0.24055-14.673 0.26304-16.706 0.3313-33.439-0.27835-50.131-0.69586-19.026-1.854-38.057-3.6323-57.008-0.68354-7.2815-3.6694-14.337-5.5278-21.516-0.8155-3.1516-1.4358-6.3543-2.2838-10.157 10.281-1.34 20.333-1.9832 30.339-2.0069zm-38.467 3.8007c2.3242 8.9508 4.6635 17.337 6.6653 25.804 3.8717 16.379 5.125 32.964 3.3581 49.751-0.15529 1.4717-0.0363 3.0072 0.18144 4.479 0.62858 4.2482 2.0789 8.4984 1.9663 12.714-0.14215 5.3484-0.88705 31.32-1.7326 60.702-12.306 2.7775-23.76 7.0132-34.267 12.035 0.85423-20.576 1.6895-41.154 2.5945-61.727 0.20808-4.7285 1.0462-9.4538-4.6302-11.891-0.64135-0.2753-0.95643-2.334-0.75808-3.4446 4.4972-25.171-2.2428-46.216-22.229-62.516-3.2009-2.6106-2.8618-7.3477 0.63643-9.3244 15.104-8.5351 31.193-14.164 48.214-16.583zm85.847 0.7161c18.017 3.2788 34.442 9.7595 48.926 20.872 2.4434 1.8747 2.073 5.8999-0.48522 7.7147-21.364 15.157-28.225 36.385-25.647 61.701 0.14825 1.4542-0.73857 3.5509-1.8536 4.4887-2.2864 1.9231-3.211 3.9019-3.101 6.9704 0.74218 20.748 1.4196 41.499 2.101 62.249-10.16-4.7315-21.187-8.7049-32.991-11.339-1.0761-32.867-1.6345-57.615-0.5732-61.776 0.11391-0.4456 0.8502-4.2542 1.846-9.514 0.24675-1.3025 0.55285-2.6676 0.4165-3.9595-1.8351-17.448-0.24588-34.577 4.7787-51.349 1.766-5.8954 4.2136-11.585 5.9409-17.491 0.74073-2.5336 0.4389-5.3781 0.64124-8.5684zm-43.906 164.32c7.3308 0.01 14.429 0.6691 21.283 1.8508 0.87137 65.612 1.7658 131.22 2.6516 196.84-7.7059-1.0713-15.676-1.6705-23.898-1.679-8.9878-0.01-17.677 0.681-26.047 1.9313 0.16753-10.34 0.33828-20.681 0.52028-31.021 0.97344-55.296 1.9927-110.59 2.9079-165.89 7.2551-1.3099 14.788-2.0393 22.583-2.0302zm31.383 4.0048c11.867 3.0128 22.909 7.5195 33.029 12.812 0.88156 26.526 1.8029 53.051 2.912 79.568 1.6208 38.747 3.5903 77.483 5.7835 116.2-11.329-4.8532-23.637-8.9628-36.822-11.742-0.25355-10.156-0.50595-20.312-0.7512-30.468-0.24063-9.9668 0.0639-8.3082 0.0502-14.584-0.087-40.452-2.4959-102.37-4.2014-151.79zm-63.337 0.071c-1.4805 51.373-3.1361 108.59-3.1361 108.59-0.70554 13.546 0.0702 3.4563-1.49 59.691-0.28355 10.218-0.56367 19.715-0.84192 28.671-14.349 3.0949-27.651 7.7602-39.771 13.23 2.7722-45.4 5.6029-90.798 7.9244-136.22 1.0261-20.083 1.92-40.174 2.7725-60.266 10.524-5.6589 22.077-10.497 34.542-13.691zm31.97 211.84c8.336 0.01 16.4 0.6964 24.177 1.921 0.0454 3.37 0.0915 6.74 0.13677 10.11 0.82115 61.115 1.4072 122.23 2.4213 183.34-8.623-0.9588-17.524-1.4867-26.683-1.4948-10.478-0.01-20.617 0.6626-30.391 1.8824 0.44219-15.479 0.86608-30.959 1.2557-46.44 1.234-49.026 1.9728-98.065 2.7484-147.1 8.4403-1.4295 17.226-2.228 26.335-2.2186zm36.757 4.4103c13.556 3.2419 26.115 8.0408 37.565 13.606 0.0779 1.3271 0.15323 2.6544 0.23162 3.9815 3.5096 59.426 7.3599 118.83 11.423 178.23 0.21234 3.103 0.43113 6.2058 0.64674 9.3086-14.029-5.0926-29.31-9.3727-45.711-12.162-0.19651-6.7026-0.39021-13.405-0.58075-20.108-0.7812-27.481-0.77958-54.983-1.3897-82.469-0.66944-30.129-1.4278-60.255-2.1849-90.382zm-74.829 0.2461c-1.6505 49.017-3.2404 81.562-4.9326 126.67-1.0919 29.1-1.716 49.899-2.1244 66.739-16.22 3.0218-31.308 7.4788-45.132 12.694 2.252-32.204 3.6936-64.466 5.6708-96.691 1.9249-31.375 4.0803-62.736 6.0502-94.108 12.2-6.2464 25.742-11.686 40.468-15.303zm38.104 211.91c9.324 0.01 18.36 0.6128 27.091 1.6983 1.0045 57.756 1.9148 115.52 4.0502 173.24-10.05-0.9457-20.418-1.4669-31.084-1.4749-12.762-0.01-25.095 0.7193-36.97 2.0295 0.34747-8.1793 0.66648-16.359 0.95257-24.54 1.7337-49.591 3.4289-99.186 4.9162-148.79 9.9492-1.399 20.307-2.1778 31.045-2.1684zm41.574 3.9801c16.945 3.2299 32.595 8.1854 46.783 13.97 2.785 38.71 5.7618 77.407 8.6976 116.11 1.3968 18.413 3.001 36.792 4.8302 55.132-16.631-5.1554-34.751-9.4786-54.2-12.279-0.81-19.542-1.5476-39.088-2.2728-58.632-1.4137-38.094-2.6792-76.195-3.8385-114.3zm-87.221 0.7347c-0.5675 31.845-0.62202 53.494-3.1388 115.95-0.67609 16.782-1.4798 35.688-2.5024 56.722-20.179 3.1022-38.896 7.825-55.964 13.382 2.2967-20.633 4.377-41.292 6.3017-61.957 3.3942-36.448 6.2092-72.955 8.8564-109.47 14.044-5.948 29.582-11.13 46.447-14.63zm45.68 199c11.153 0.01 21.955 0.6313 32.381 1.7533 1.8648 39.976 4.4584 79.927 7.2041 119.86-12.742-1.1135-25.922-1.7364-39.52-1.745-15.533-0.01-30.963 0.9924-46.01 2.7086 1.8357-25.208 3.5673-50.424 5.0887-75.652 0.89442-14.833 1.7233-29.672 2.4756-44.514 12.269-1.5459 25.073-2.4175 38.381-2.4076zm49.005 4.0055c20.501 3.3367 39.371 8.5012 56.397 14.506 4.5573 39.535 10.235 78.881 17.227 118-20.354-5.552-42.652-10.22-66.682-13.186-1.709-25.723-3.321-51.453-4.7828-77.19-0.79743-14.04-1.5037-28.086-2.1581-42.135zm-101.92 0.5815c-1.0249 18.779-2.2353 39.095-3.7024 61.16-1.3043 19.614-2.8332 39.213-4.4653 58.805-24.826 3.6557-48.279 9.0791-68.989 14.933 6.3155-32.362 11.763-64.891 16.115-97.623 0.94825-7.1324 1.8624-14.27 2.7471-21.412 17.455-6.477 36.967-12.146 58.295-15.862zm52.95 153.31c14.634 0.01 28.75 0.788 42.311 2.1705 2.748 35.119 6.1525 70.191 9.167 105.29 0.0626 0.7293 0.008 1.4684 0.008 2.5285-18.374-4.3946-36.663-6.6256-55.24-6.2997-18.426 0.3238-36.484 3.1652-54.716 8.1361 1.0099-10.93 2.0218-21.474 2.9512-32.025 2.2426-25.464 4.6653-50.914 6.6385-76.398 16.102-2.1373 32.579-3.4124 48.881-3.4021zm-358.42 148.38c-11.146 0-22.282 0.9137-33.419 2.7402-3.3558 0.5507-5.2874 2.045-6.3897 5.3787-4.8346 14.626 0.289 30.581 13.109 39.364 2.1237 1.4546 4.836 2.4721 7.3863 2.7897 46.619 5.8105 80.565 29.614 99.876 73.004 11.049 24.827 14.16 50.663 4.2824 77.024-6.5706 17.536-14.662 34.261-25.078 49.792-24.46 36.467-56.226 65.112-93.109 88.229-9.3031 5.8308-18.715 11.486-28.077 17.221h64.354l-0.1663-0.2269c31.386-22.991 85.97-81.208 120.54-147.23 13.795-26.343 18.624-45.541 19.26-64.581 1.2114-36.288-13.438-63.683-20.054-74.476-27.718-45.214-86.191-64.623-96.601-67.322l0.014-0.052c-8.6518-1.1033-17.294-1.656-25.93-1.657zm718.18 0.7663c-11.067-0.051-22.085 1.426-33.041 4.5636-0.75794 0.217-1.4257 0.3402-2.0323 0.369-6.7152 1.9302-23.419 7.579-41.731 17.688-20.055 11.071-42.085 27.513-55.918 50.078-6.6164 10.793-21.266 38.187-20.054 74.476 0.63565 19.04 5.4648 38.239 19.26 64.582 33.443 63.861 83.852 118.66 115.54 143.02h77.523c-5.6711-2.7694-11.411-5.4045-17.003-8.3278-54.066-28.262-97.211-68.161-126-122.68-13.669-25.882-18.794-54.124-13.408-83.018 8.7163-46.765 51.751-84.984 98.726-89.593 3.8655-0.3792 8.3721 0.1521 11.448-1.6791 13.429-7.9949 22.953-24.28 17.798-41.952-0.84936-2.9119-2.3852-4.1017-5.1972-4.6955-8.6633-1.8282-17.302-2.7931-25.91-2.833zm-606.64 203.71c0.9198 0.04 1.768 0.2628 2.1876 0.7121 1.017 1.0896 1.5922 3.8217 0.9368 5.1017-17.764 34.687-40.84 65.301-69.532 91.551-0.079 0.074-0.2445 0.048-0.369 0.069-0.4188-0.3418-0.8372-0.6824-1.2564-1.0241 18.715-28.19 37.427-56.382 56.148-84.569 1.7533-2.6405 3.4607-5.3227 5.3794-7.8378 1.0755-1.4093 2.3501-2.9993 3.8866-3.6151 0.7073-0.2835 1.6988-0.4272 2.6185-0.3877zm495.01 7.0921c0.91975-0.04 1.9119 0.1042 2.6192 0.3877 1.5369 0.6158 2.8116 2.2058 3.8866 3.6151 1.9191 2.5151 3.6261 5.1975 5.3794 7.8385 18.721 28.186 37.433 56.378 56.148 84.568-0.41833 0.3417-0.83669 0.6833-1.255 1.0247-0.12493-0.021-0.2899 0-0.36908-0.069-28.692-26.25-51.768-56.864-69.533-91.551-0.65494-1.28-0.0806-4.0122 0.93677-5.1017 0.41963-0.4493 1.2672-0.6725 2.1869-0.7121z"/>
</g>
</svg>
