<?xml version="1.0" encoding="utf-8"?>

<!DOCTYPE svg PUBLIC "-//W3C//DTD SVG 1.1//EN" "http://www.w3.org/Graphics/SVG/1.1/DTD/svg11.dtd">
<svg version="1.1" id="Layer_1" xmlns="http://www.w3.org/2000/svg" xmlns:xlink="http://www.w3.org/1999/xlink" x="0px" y="0px"
	 viewBox="0 0 1564.583 1639.557" enable-background="new 0 0 1564.583 1639.557" xml:space="preserve">
<path d="M1539.584,1543.135c2.654-6.32,2.444-13.24-2.207-15.32c-5.335-2.386-13.395,3.765-13.878-6.474
	c-0.181-3.832,0.974-7.532,0.841-11.292c-0.407-11.562,2.951-8.596,2.796-14.319c-0.141-5.215,1.971-9.941,2.982-14.899
	c3.358-16.475,5.222-17.568,2.16-18.337c-3.408-0.855-2.271,0.182-7.509,21.188c-1.319,5.29-3.42,1.833-7.161,2.745
	c-2.599,0.634-3.042-0.781-3.001-2.831c0.017-0.876-0.265-1.87,0.055-2.609c1.665-3.837,0.659-7.785,0.7-11.69
	c0.058-5.455-4.975-2.472-3.995-6.89c0.631-2.842,0.099-5.852,1.406-8.591c1.632-3.421,0.592-12.925-4.201-14.127
	c-2.523-0.633-3.155-2.425-3.536-4.464c-3.411-18.25-11.403-52.045-7.554-68.986c0.39-1.718,0.999-3.74,0.708-5.811
	c-2.703-19.209-1.128-21.294-4.657-20.922c-6.638,0.702-6.33,0.109-7.063-3.545c-10.221-50.936-21.268-101.679-18.61-106.158
	c1.904-3.209,1.342-6.141-1.231-8.768c-4.252-4.342,4.048-1.544,1.94-5.697c-1.861-3.667-3.608-5.91-3.21-8.477
	c0.139-0.894-0.236-2.315,1.355-2.262c1.449,0.047,0.714,1.237,0.86,1.988c1.162,5.979,4.68,4.363,7.621,6.764
	c3.966,3.236,2.611,2.164,17.463-30.17c-13.891,25.777-13.592,27.874-18.699,26.739c-2.621-0.583-1.387-2.429-1.381-3.794
	c0.043-9.629-3.98-5.961-5.151-8.678c0.633-1,1.557-0.572,2.375-0.527c2.484,0.139,3.852-2.537,6.298-2.474
	c2.391-3.424,2.424-3.387,4.706-3.845c0.769-0.154,1.873-0.752,1.605-1.112c-1.865-2.512,0.945-1.75,1.615-2.365
	c0.635-0.582,1.638-0.955,1.375-1.969c-0.293-1.133-1.714,0.47-2.206-0.809c1.003-1.523,3.974-1.181,4.064-3.817
	c-0.948-0.586-2.094,0.805-2.849-0.603c1.509-1.711,4.555-2.423,4.432-5.961c-8.11,6.089-17.753,3.844-16.719,10.896
	c0.253,1.72-3.535,3.426-5.125,1.813c-1.631-1.655-0.281-7.356,1.95-7.642c1.797-0.23,2.766-1.283,4.116-2.443
	c-1.795-1.269-2.606-3.119-3.366-5.019c-0.638-1.595-2.434-1.785-3.184,0.096c-0.16,0.401-0.162,0.863-0.302,1.275
	c-1.387,4.093-6.382,5.178-9.404,2.211c-1-0.982-0.298-5.307-3.103-4.921c-2.719,0.374-0.069,2.549-3.23,5.156
	c-1.643,1.355-0.158,2.34,0.641,3.159c0.404,0.414,1.379,0.247,2.086,0.392c5.21,1.063,5.239,7.635,2.073,8.017
	c-6.288,0.76-1.21-4.51-6.817-6.548c-4.851-1.763-9.856-3.092-14.739-5.728c-0.128,3.742,3.308,3.825,4.597,5.684
	c-1.258,1.494-2.047-0.223-2.43,1.134c-0.536,1.899,3.078,1.904,3.812,3.251c-0.687,0.612-1.729,0.06-2.028,0.888
	c-0.327,0.904,0.567,1.173,1.109,1.613c0.936,0.76,2.334,0.049,3.243,1.07c-0.352,0.583-0.704,1.167-1.333,2.211
	c4.112-0.105,9.353,6.646,15.696,6.852c-3.808,1.259-4.786,3.853-4.318,7.287c0.179,1.315,0.072,2.716-1.253,2.765
	c-1.406,0.052-1.006-1.338-1.486-2.338c-1.104-2.304-2.506-2.987-4.949-2.582c-2.432,0.404-2.535,1.905-2.085,3.889
	c0.227,1-3.096,7.275,4.119,7.071c2.366-0.067,3.989-1.709,6.008-2.494c2.441-0.949,4.32-2.323,4.163-5.348
	c-0.042-0.816-0.006-1.963,1.362-1.594c2.292,0.617-1.604,7.676-3.547,13.062c1.817,0.751,3.335,1.379,4.738,1.959
	c-0.187,1.725-6.322,6.161-2.089,10.869c3.428,3.812,1.254,6.099,0.27,10.983c-0.202,1-9.191,99.463-11.308,101.572
	c-3.004,2.992-10.339-2.521-10.446,4.05c-0.267,16.463-0.074,18.065,1.285,20.786c6.288,12.582-0.396,72.927-3.388,74.105
	c-4.474-12.372-25.155-111.397-25.374-112.41c-0.404-1.871-0.029-2.998,1.315-4.183c11.376-10.027,14.703-27.295,17.91-34.142
	c11.44-24.429,12.936-54.594-1.841-85.946c-6.59-13.983-28.413-40.728-33.772-45.529c-15.018-13.455-15.922-15.438-16.403-18.802
	c-1.244-8.71-1.615-9.53-0.046-11.366c5.736-6.713-2.745-9.137-2.964-12.172c-0.178-2.474-1.469-28.706-1.778-39.375
	c-0.686-23.695-2.045-22.281,3.05-21.496c1.316,0.203,6.075,2.151,6.385-0.035c0.523-3.677-14.707-1.614-9.025-6.824
	c0.313-0.287,0.898-0.404,1.039-0.735c0.925-2.174-1.629-1.967-2.191-3.116c-0.785-1.605-1.348-0.259-1.818,0.139
	c-3.697,3.121,7.646,7.393-6.366,5.297c-2.23-0.333-2.09,1.902-0.738,2.658c9.809,5.488,8.122-15.248,8.793,58.924
	c0.03,3.32-0.371,6.212-2.848,8.817c-2.378,2.501-2.289,5.617,0.268,7.735c2.008,1.664,1.805,3.503,1.709,5.494
	c-0.631,13.097-80.893-80.8-99.041-133.486c-1.291-3.748-3.12,0.242-4.265-4.766c-1.86-8.141-23.181-94.653-16.104-100.527
	c11.116-9.228,9.598-24.038-3.139-30.74c-8.417-4.429-3.115-9.503-9.175-112.793c-0.285-4.852,2.719-1.7,9.226-1.816
	c2.662-0.047,2.805-0.379,2.586-3.107c-0.581-7.254-16.641-0.474-11.048-10.603c2.146-3.887-1.66-5.42-1.569-9.808
	c0.045-2.188-4.367-2.054-4.379-0.678c-0.03,3.635-3.974,7.121-0.305,10.969c0.784,0.822,0.631,2.626-0.173,3.737
	c-1.632,2.253-10.94-4.065-11.293,1.484c-0.523,8.206,12.169,2.068,12.584,8.884c2.309,37.914,0.992,47.617,0.992,47.617
	c0.921,5.477,3.696,54.733,1.933,62.011c-1.683,6.949-13.191,4.587-13.739,19.591c-0.556,15.238,11.964,14.102,11.823,20.592
	c-0.288,13.282-2.233,26.461-2.323,39.766c-0.021,3.134,0.955,7.097-2.644,9.608c-1,0.698-2.995,47.233-9.163,49.861
	c0,0-11.507,27.154-16.346,37.247c-41.192,85.926-102.581,116.48-124.288,169.276c-0.645,1.568-0.811,3.425-2.442,4.693
	c-3.019-1.175-26.141-20.932-48.292-57.186c-3.062-5.011-6.441-0.051-8.891-7.052c-9.828-28.085-12.04-24.404-19.824-77.776
	c-1.125-7.709,2.095-4.786,6.068-11.637c5.896-8.023,3.241-19.274-5.41-23.923c-2.571-1.754-6.518-2.636-6.863-8.602
	c0,0-1.243-60.5-1.243-60.502c-0.271-19.261-1.949-20.597,2.236-20.22c3.375,0.304,10.696,2.149,10.86-0.661
	c0.096-1.642,0.626-4.243-4.9-4.315c-11.37-0.148-9.702-4.374-8.199-5.424c4.154-2.902-0.674-4.743-0.999-9.095
	c-0.153-2.054-4.223-2.485-4.423-0.152c-0.286,3.329-5.06,4.876-1.325,7.926c1.382,1.128,1.879,2.273,1.13,3.753
	c-1.761,3.481-13.561-4.416-13.626,1.793c-0.035,3.398,0.973,2.746,6.98,3.785c8.875,1.535,7.352-5.703,8.578,50.098
	c0.794,36.151,2.154,37.53-2.802,41.247c-6.815,3.215-10.815,10.859-8.811,18.712c-0.023,0.646,0.101,1.357,0.396,2.169
	c4.6,12.673,10.134,6.692,11.084,12.947c0.813,5.355-2.482,28.356-2.68,40.181c-0.098,5.827-3.58,0.524-4.702,8.12
	c-1.765,11.944-5.803,23.212-9.854,34.495c-0.819,2.28-1.986,3.837-4.432,4.254c-3.328,0.567-2.662,1.561-14.292,20.935
	c-21.673,36.104-53.219,58.044-55.625,59.466c-0.349-0.895-0.824-1.56-0.838-2.235c-0.126-6.066-1.715-11.821-3.532-17.543
	c-1.236-3.893-1.205-3.039-0.289-20.034c0.349-6.485-1.044-12.795-1.974-19.139c-0.999-6.819-6.318-2.614-9.442-4.719
	c0.922-2.626,0.355-21.218-1.853-29.178c-0.605-2.18,1.49-26.089-4.162-26.942c-1.925-0.29-2.264-0.693-1.292-17.444
	c0.468-8.072,2.793-3.056-0.748-25.898c-1.099-7.092-3.197-13.684-9.696-17.919c-1.505-0.981-2.305-2.484-2.369-4.448
	c-0.033-1.002-2.166-32.57-1.894-42.016c0.177-6.134-4.802,0.513-6.228-4.977c-1.337-5.15-6.676,0.253-6.694-6.175
	c-0.057-20.406-0.176-4.127-1.144-40.749c-0.15-5.672,9.146-7.367,7.083-19.846c-0.159-0.961-0.216-2.104,0.625-2.892
	c1.896-1.774,3.616-3.905,5.833-5.109c4.52-2.454,0.17-5.788,5.349-5.839c2.948-0.029,5.709-1.147,8.554-1.771
	c2.682-0.588,2.424-2.989,2.676-4.943c0.507-3.935-10.615-1.003-14.367-9.822c-0.834-1.961-30.673-0.005-31.572-1.672
	c-1.108-2.053-2.805-3.274-4.891-4.125c-0.363-0.148-0.478-0.627-0.365-1.116c0.483-2.077,1.24-17.332-1.826-25.813
	c-3.047-8.428-8.416-1.959-9.353-8.148c-0.362-2.391-0.067-11.651-5.088-16.881c-5.818-6.06-2.058-12.92-5.57-21.395
	c-2.798-6.753-4.088-14.417-6.43-24.553c-1.538-6.66-5.063-0.738-6.261-5.856c-1.016-4.342-5.767-0.835-9.297-2.505
	c5.057-10.546,5.143-9.827,2.606-13.301c-1.914,2.397-1.972,5.963-5.62,8.623c1.983-5.892-1.075-9.649-3.635-14.2
	c3.726,0.734,5.903,2.825,8.638,3.574c0.236-2.351-0.68-3.754-2.309-4.72c-8.575-5.084-9.138-3.583-6.835-8.248
	c1.635-3.313,3.586-8.544,0.623-10.882c-1.59,2.472-1.536,5.5-4.195,7.801c-1.416-4.404-2.678-8.327-4.134-12.853
	c3.141,0.683,5.135,2.452,7.781,3.391c0.194-7.723-11.957-7.045-9.554-11.442c2.702-4.944,5.538-9.006,1.716-13.039
	c0.001,0.001,0.002,0.001,0.003,0.002c0.318-3.729-2.106-5.549-4.968-6.974c-11.512-5.734,2.973-6.544-1.828-17.72
	c-4.142-9.641-14.026-5.051-9.759-12.067c1.607-2.643,3.338-5.3,2.613-8.569c-0.983-4.43-2.877-8.268-7.595-9.904
	c-11.145-3.864,4.322-9.852-1.954-17.162c-1.952,3.119-2.278,6.651-5.101,9.302c-1.667-5.031-3.186-9.617-4.808-14.512
	c3.774,0.285,6.15,2.422,9.308,3.55c-0.889-6.252-6.971-6.06-10.008-9.101c1.436-3.74,5.105-6.823,2.371-11.6
	c-1.859,2.356-2.195,5.395-5.16,7.12c-1.138-4.616-3.322-8.581-3.846-13.403c3.277,0.726,5.337,3.17,8.215,4.344
	c1.38-7.609-13.153-7.551-10.088-14.062c2.789-5.924,4.482-9.395,1.611-12.731c-1.776,3.096-2.133,6.544-4.63,9.506
	c-1.635-4.99-3.754-9.236-4.867-14.376c3.38,0.441,5.677,2.446,8.501,3.251c-0.591-3.298-0.544-3.368-2.299-4.518
	c-7.632-5.002-10.154-2.783-6.146-8.939c1.815-2.788,3.236-5.613,0.67-8.722c0.013,0.009,0.027,0.017,0.04,0.026
	c-0.452-5.326-4.506-6.754-7.46-8.317c-6.491-3.434-2.194-3.482,0.488-11.378c0.694-2.043,1.038-4.218-0.903-6.317
	c-1.536,3.328-2.786,6.558-5.113,10.212c-1.85-5.912-3.666-10.951-5.046-16.925c3.654,1.993,6.532,3.563,9.921,5.411
	c-0.551-6.233-6.6-6.559-9.401-9.791c6.897-7.637,6.897-7.637,5.53-11.149c-2.298,1.957-3.789,4.745-7.032,6.418
	c0.208-5.468-0.199-10.406-1.356-15.358c2.652,2.489,5.562,4.349,8.274,6.859c1.693-3.834-1.297-5.525-6.02-9.845
	c-4.281-3.916,2.477-2.405-1.246-5.173c-5.849-4.349-2.01-7.093-4.796-15.555c-1.19-3.615-0.891-7.178,2.254-9.554
	c2.725-2.058,2.987-5.403,5-7.748c0.261-0.304,0.524-1.043,0.382-1.189c-2.548-2.626-0.772-4.854,0.519-7.186
	c0.555-1,0.999-26.196-10.327-25.716c-5.18,0.22-1.852-4.584-3.901-36.734c-0.569-8.939,0.281-10.108,1.457-11.904
	c5.233-7.996,1.473-3.177,1.635-16.067c0.081-6.421,6.753-7.448,2.463-11.547c-0.965-0.922-0.512-3.113,0.201-4.197
	c3.451-5.251,4.224-12.35,10.887-15.381c-2.918-3.289-7.062-4.579-9.722-7.899c18.939-15.742,24.878-32.743,22.252-49.15
	c-8.57-53.55-56.39-28.063-71.881-135.782c-0.323-2.244,0.01-3.972,2.32-5.519c8.553-5.726,4.811-17.993-2.787-21.162
	c-0.99-0.413-2.535-0.42-2.46-2.04c0.362-7.731-3.16-5.262-2.634-11.435c0.55-6.451-0.748-12.822-0.764-19.227
	c-0.166-66.335-8.702-59.588,9.459-56.624c3.464,0.565,3.098-3.239,1.618-4.208c-1.181-0.773-2.507-0.954-8.927-1.968
	c-10.102-1.594-0.969-8.041-3.397-11.998c-2.201-3.588-0.522-5.42-2.604-5.527c-2.218-0.113-0.493,1.779-2.82,4.777
	c-0.869,1.12-0.852,2.895,0.296,4.052c1.093,1.102,1.021,2.352,1.026,3.653c0.019,4.774-0.38,3.41-10.358,1.821
	c-1.16-0.185-2.489-0.337-2.72,1.326c-0.933,6.72,13.119,1.206,13.257,8.053c0.126,6.298,2.699,53.671,1.699,59.891
	c1.87,5.804-0.523,11.975,1.547,17.796c0.414,1.165,0.308,2.645-0.306,3.869c-2.004,3.993,3.235,5.006-3.299,9.099
	c-7.575,4.744-7.557,16.359,0.084,20.517c2.526,1.374,2.78,2.873,2.751,5.146c-1.145,88.784-47.527,90.94-59.25,126.783
	c-3.917,11.974-3.569,30.64,2.313,41.973c4.662,8.984,9.099,11.874,20.641,21.736c-3.207,3.787-8.391,3.624-12.408,6.629
	c4.613,1.294,6.132,1.443,6.39,2.646c0.739,3.445,3.576,5.575,5.02,8.562c3.749,7.759-0.017,14.776,2.96,15.409
	c5.329,1.133,0.533,9.383,5.048,20.5c2.424,5.968,2.128,7.626,3.312,39.863c0.069,1.875-0.298,3.307-1.633,4.156
	c-1.445,0.92-2.467,2.404-4.291,2.864c-9.763,2.466-5.002,31.16-5.666,32.304c-1.659,2.859,1.349,1.963,7.364,8.979
	c5.848,6.821,10.154-0.353,10.962,9.404c0.329,3.985-1.69,6.409,3.28,7.024c-0.254,1.165-0.73,1.561-1.444,1.936
	c-1.521,0.799-12.359,3.996-16.32,22.712c-3.628,17.14,14.902,13.801,3.954,20.407c-7.25,4.377-4.992,4.942-4.658,7.639
	c0.995-1,5.164-3.639,7.878-4.091c-1.059,4.689-2.021,8.991-3.181,14.169c-1.626-1.655-5.184-6.102-5.424-8.068
	c-2.63,4.442,0.784,7.559,1.877,10.861c1.974,5.958-1.039,4.297-6.365,8.861c-1.323,1.134-2.247,2.566-1.316,4.723
	c2.356-1.355,4.524-2.602,7.126-4.099c-0.824,4.784-1.261,8.994-3.288,12.916c-2.299-1.628-2.288-5.731-4.603-5.971
	c-1.854,2.779-0.644,5.242,2.323,10.471c3.466,6.11-10.736,6.669-7.767,13.312c2.362-1.604,4.481-3.042,7.254-4.925
	c-0.797,5.371-1.744,9.752-3.069,14.314c-2.275-1.55-2.246-4.07-4.111-5.232c-5.347,5.539,7.871,9.607-1.257,15.19
	c-3.335,2.039-8.48,6.113-6.359,7.666c1.381,1.011,3.72-3.021,8.547-4.372c-0.764,5.262-1.534,10.043-3.228,14.888
	c-2.323-1.853-2.629-4.813-4.823-6.33c-4.468,6.565,7.424,9.666,0.609,13.751c-1,0.6-9.795,5.306-7.213,7.465
	c1.299,1.086,4.042-2.463,9.413-4.193c-1.865,4.975-1.346,9.723-3.5,13.947c-2.133-1.05-3.509-5.156-5.377-6.109
	c-4.205,4.373,4.537,8.179,3.677,12.269c-0.762,3.621-7.185,2.501-10.736,7.474c-0.838,1.174-0.362,2.79,1.629,1.833
	c2.577-1.238,5.151-2.481,8.202-3.952c-0.953,5.108-1.53,9.725-3.267,14.606c-2.173-2.541-3.859-4.513-5.587-6.533
	c-2.626,3.115-0.08,4.939,1.392,6.968c3.761,5.182,4.921,4.151-1.524,8.029c-2.978,1.792-7.822,4.124-5.94,6.312
	c0.86,1,1.557,0.123,9.691-4.249c-1.769,5.008-1.312,9.479-3.706,13.76c-2.057-2.097-3.111-4.618-5.189-6.232
	c-1.556,1.329-1.504,2.825-0.554,4.336c4.584,7.285,6.072,6.51,2.093,8.791c-3.851,2.207-6.962,3.966-5.949,7.257
	c2.616-0.966,4.53-2.936,7.483-3.711c-1.021,4.761-1.454,9.32-3.038,14.193c-2.202-2.274-2.403-5.185-4.334-6.983
	c-5.235,5.129,6.753,12.637,0.027,15.423c-1.608,0.666-3.069,1.694-4.577,2.59c-2.391,1.421-4.294,2.995-3.095,6.313
	c1.107,3.064-2.324,3.756,0.598,7.89c1.249,1.767,2.961,3.258,3.517,5.657c-7.93,5.018-9.998,5.703-10.507,9.134
	c-0.292,1.967,0.317,4.471-1.327,5.775c-5.367,4.258-9.509-8.442-10.528,14.234c-0.479,10.654-2.512,21.143-3.27,31.775
	c-0.233,3.269,0.663,6.358,0.354,9.572c-0.688,7.152-2.305,0.968-4.82,8.341c-3.802,11.142,1.216,16.623-3.823,18.789
	c-1.458,0.626-2.487,1.991-2.876,3.687c-0.847,3.698-2.019,7.348-2.53,11.09c-0.222,1.625-1.253,12.753-0.626,14.051
	c1.198,0.277,1.92-1.397,3.142-0.786c1.095,2.206-5.885,5.838-7.624,8.353c-0.865,1.251-3.318,1.124-4.989,0.65
	c-2.612-0.741-2.318-36.966-2.341-37.967c0,0-0.893-2.361-2.522-29.997c-2.627-44.584-4.158-40.321,2.626-39.8
	c6.798,0.522,11.107,2.35,11.015-2.364c-0.068-3.455,0.017-2.81-12.983-4.681c-1.512-0.218-3.485,0.372-3.669-2.042
	c-0.113-1.482-0.818-2.938,0.779-4.399c1.487-1.36,1.557-4.686,0.174-5.487c-1.807-1.047-1.94-2.385-1.856-4.009
	c0.219-4.234-6.094-3.533-5.029,0.024c1,3.343-5.369,3.736-0.213,9.471c1.2,1.335,1.135,3.465,0.252,4.917
	c-1.496,2.463-15.371-4.43-16.034,0.88c-0.589,4.724,2.96,4.225,13.518,5.896c4.959,0.785,2.766-8.431,9.606,108.013
	c0.224,3.804-0.819,2.923-16.801,4.952c-4.018,0.51-0.751,4.28-9.85,7.432c-1.841,0.638-4.065,0.74-5.239,2.93
	c4.623,1.4,0.569,3.969,12.307,5.561c2.461,0.334,4.35,0.659,4.17,3.722c-0.045,0.764,0.393,1.539,1.161,1.672
	c1.603,0.276,1.431,1.666,1.851,2.661c1.867,4.426,3.476,9.063,9.348,9.613c4.667,0.437,0.089,14.718-1.463,38.496
	c-0.303,4.651-2.868-0.433-3.886,8.618c-2.607,23.169-9.991,42.237-7.304,45.239c0.305,0.341-0.054,1.406-0.284,2.075
	c-3.134,9.103-3.212,9.257-5.07,9.372c-1.725,0.107-4.414,0.745-2.56,3.868c0.525,0.885-0.26,1.356-5.43,9.84
	c-0.757,1.243-3.453,1.768-2.18,3.61c1.121,1.621,4.22-1.748,5.629-0.481c0.545,0.49,0.35,1.129,0.048,1.586
	c-1.772,2.688-3.333,5.487-4.688,8.408c-1.161,2.505-7.248-2.221-8.492,6.318c-0.683,4.69-5.654,8.727-6.664,9.297
	c-0.781,0.441-1.443,1.222-1.061,2.171c0.661,1.64,3.556-1.285,4.831,0.586c-0.234,2.536-2.791,3.86-2.977,6.323
	c-0.03,0.394-0.275,0.593-0.517,0.421c-2.927-2.084-4.784,0.853-7.089,1.56c-1.667,0.511-2.862,1.612-1.827,3.636
	c0.781,1.528-0.444,2.141-1.344,2.77c-2.867,2.005-5.569,4.265-8.831,5.681c-1.99,0.864-2.311,3.296,0.9,3.005
	c2.537-0.23,3.752,0.807,2.807,2.743c-0.936,1.917-0.192,3.665-0.179,5.908c-6.213-4.52-2.107-4.709-10.581-2.078
	c-4.273,1.327,0.762,2.885-2.249,5.502c-3.036,2.639-5.564,6.006-9.802,6.952c-3.117,0.696-2.833,4.454-0.898,3.946
	c2.953-0.775,6.008,0.451,8.928-0.749c1.583-0.651,3.336-0.898,5.321-0.143c-2.734,6.929-8.497,1.581-9.136,9.613
	c-6.627-3.5-6.601-3.456-12.752,0.211c-1.765,1.052-3.283,1.981-2.385,4.409c0.845,2.286-6.574,7.276-9.021,8.105
	c-4.411,1.494-5.186,2.47-4.631,3.64c0.447,0.942,1.385,1.982,2.397,1.201c2.938-2.267,9.082,0.317,14.131-3.219
	c2.501-1.751,6.606,0.094,3.703,2.109c-11.086,7.693-11.422,7.987-11.106,10.392c-1.429-0.083-1.653-1.115-2.306-1.653
	c-5.438-4.481-6.208,1.232-15.065,4.01c-6.272,1.967,2.861,4.305-2.052,8.036c-8.633,6.556-9.41,7.52-10.664,9.625
	c-1.154,1.937,1.271,2.985,2.084,2.052c2.393-2.749,6.14-2.518,9.034-4.179c1.316-0.755,2.834-1.634,4.434-0.217
	c1.748,1.548,2.922-3.07,4.912-2.353c1.691,0.61,0.723,2.316,1.268,3.451c0.629,1.312-0.273,2.417-1.283,3.421
	c-9.738,9.673-7.616,10.234-11.259,7.668c-2.157-1.52-2.979-3.512-6.475-1.55c-9.248,5.19-9.784,5.65-10.372,4.681
	c-2.771-4.574-12.735-2.178-12.247-11.42c0.615-11.642,2.487-14.595-4.95-15.407c-12.155-1.327-12.499-0.845-12.955-5.371
	c-1.203-11.946,0.001-12.462-3.143-13.445c-11.853-3.704-16.146,1.078-15.283-6.434c0.351-3.053,2.742-14.466-2.075-12.29
	c-4.123,1.863-7.557-1.858-11.718-0.42c0.905-4.046,1.69-7.556,2.481-11.091c-3.703-0.759-6.991-1.602-10.519-0.534
	c-6.58,1.994,4.227-13.547-2.069-11.794c-3.116,0.868-5.701-1.422-8.771-0.566c-0.157-3.289,2.059-5.706,2.094-8.667
	c-1.81-0.687-3.45-1.501-5.46-0.821c-1.003,0.339-2.371,0.816-3.121-0.594c-1.301-2.445,3.037-4.548,2.923-8.142
	c-2.367,0.257-4.428-0.466-6.553-0.843c-4.094-0.726,1.081-4.555,0.566-8.561c-4.691-0.625-8.128,0.51-6.259-3.955
	c0.542-1.296,2.174-2.435,1.501-3.868c-0.746-1.589-2.63-0.716-4.009-0.937c-4.406-0.705,0.286-4.441-0.042-6.665
	c-2.512-1.826-5.029,0.775-3.82-5.417c0.175-0.899-0.026-1.477-0.752-1.75c-3.027-1.142-0.194-6.406-5.117-6.88
	c-1.144-0.11-8.629-18.773-14.963-56.872c-0.429-2.582,0.107-3.885,2.186-5.422c11.521-8.516,6.914-25.303-3.202-30.414
	c-6.456-3.262-4.198-7.502-4.626-14.634c-0.481-7.994-3.524-90.945-3.461-90.129c-0.647-8.464,19.316,3.316,19.791-3.135
	c0.586-7.948-19.163-3.135-19.929-8.497c-0.21-1.469-0.799-2.926,1.229-4.115c1.844-1.081,1.848-4.499,0.085-5.591
	c-1.641-1.017-2.234-2.12-2.113-3.878c0.166-2.423-4.765-3.503-4.942-0.207c-0.309,5.726-5.072,3.532-0.607,9.388
	c1.086,1.424,0.991,3.108,0.403,4.542c-0.664,1.621-2.332-0.194-17.068-1.457c-3.252-0.279-3.908,4.915,0.162,5.931
	c15.421,3.853,16.853-0.359,17.732,6.72c0.698,5.622,2.382,61.473,2.375,62.587c-0.228,35.914,4.08,39.897-1.616,41.458
	c-12.891,3.532-15.846,24.071-6.116,30.138c7.149,4.458,3.463,7.708,0.029,34.766c-0.66,5.204,0.2,10.498-1.352,15.638
	c-3.173,10.511-0.947,15.294-6.086,16.139c0.251,1.918,1.978,2.501,2.357,3.928c-1.119,1.875-3.685,1.03-4.862,2.723
	c-0.037,1.937,2.11,2.693,2.45,4.384c-1.11,1.792-4.559,0.834-5.693,2.847c0.512,1.433,1.533,2.474,2.512,3.552
	c2.597,2.862-4.482,2.284-5.84,4.169c0.663,2.311,2.755,3.695,3.701,5.595c-0.643,1.035-1.421,0.914-2.115,1.063
	c-6.097,1.301-6.096,1.308-3.034,6.467c3.806,6.413-9.71,1.916-7.25,5.993c2.052,3.401,5.98,7.026,1.107,7.408
	c-2.737,0.214-8.461-1.087-6.413,3.016c3.737,7.489,5.146,6.857-7.9,7.867c1.129,7.726,6.552,11.187,0.925,11.235
	c-2.6,0.022-5.112,0.781-7.806,0.32c-8.41-1.439,4.863,14.071-4.25,14.13c-16.071,0.103-10.348,0.332-7.935,12.264
	c0.854,4.225,0.75,4.338-3.62,5.126c-14.772,2.664-13.788,5.399-14.544,1.109c-7.539-42.81-27.648-163.465-34.551-185.25
	c-1.143-3.606,7.205-6.039,0.74-14.493c-1.563-2.044-1.585-1.254-2.331-19.271c-0.063-1.518-0.378-3.161,0.715-4.911
	c8.528,5.446,16.839,10.753,25.125,16.045c0.932-1.229,1.389,0.523-9.209-28.295c-1.918-5.216-4.114-1.89,23.476-23.595
	c0.541-0.426,1.315-0.742,1.082-1.648c-0.739-1.298-27.602,0.742-29.143,0.851c-5.887,0.417-3.697,2.22-13.876-25.259
	c-0.633-1.71-1.146-3.518-2.653-5.166c-1.482,2.187-1.307,2.407-8.224,27.865c-1.244,4.578,2.134,3.588-30.573,4.717
	c-1.692,0.059-3.295,0.267-5.179,1.289c34.303,24.181,30.4,10.744,21.383,43.017c-0.732,2.619-1.663,5.218-1.824,8.745
	c7.679-5.969,14.859-11.55,22.066-17.152c2.494,3.862,0.252,1.374,1.14,9.171c1.179,10.344,0.4,11.473-1.286,12.942
	c-5.232,4.559-5.008,9.051,0.604,13.306c2.928,2.22,0.544,15.461-0.092,18.933c-7.726,42.179-53.616,452.75-53.054,442.946
	c-0.125,2.175-1.03,3.225-3.202,3.193c-6.59-0.097-2.56,4.181-7.671,4.232c-8.696,0.086-11.414-0.776-11.442,2.863
	c-0.016,2.122-0.583,4.316,1.409,6.131c2.34,2.132,0.054,3.88,0.51,5.735c1.397,5.681,1.895,11.482,1.404,17.258
	c-1.981,23.327-0.601,110.179-0.507,127.209c501.694,0,1003.389,0,1505.083,0c0.6-6.6-0.727-19.067-1.276-20.466
	c-1.227-3.121,2.144-4.797,2.604-7.427c2.403-13.761,9.894-13.048,7.168-19.752c-0.989-2.433-3.287-13.538-0.162-19.348
	C1543.245,1545.901,1537.247,1548.698,1539.584,1543.135z M414.343,1483.715c-11.106-2.805-2.009-8.277-8.665-10.953
	c-10.79-4.337-14.861-0.204-14.13-5.666c0.705-5.267,0.234-6.109-5.066-6.254c-3.324-0.091-6.163-1.738-9.357-2.061
	c-1.795-0.181-1.392-1.792-1.078-3.584c0.772-4.409,1.78-4.128-11.14-8.095c-1.98-0.608-2.406-1.536-1.589-3.547
	c1.412-3.471,1.271-3.539-2.055-5.077c-6.005-2.779-8.855-3.037-7.116-6.205c1.349-2.457-0.159-3.025-4.504-5.616
	c-2.682-1.598-0.017-3.989-1.816-15.086c-0.884-5.452,5.855-4.382,2.692-8.553c-1.283-1.692-0.536-3.012-0.053-4.787
	c0.904-3.329,0.937-6.889,1.4-10.344c1.655-12.361,6.138-9.723,4.514-15.467c5.889,5.333,5.703-2.639,10.541,1.204
	c0.643,0.51,1.406,1.609,2.214,0.86c1.225-1.135,2.159-1.561,8.472,2.67c5.655,3.79,12.278,4.247,18.67,5.507
	c3.383,0.667,2.239-3.398,5.272-1.026c-3.597,3.109-8.093,4.631-11.986,7.597c6.971,4.897-0.546,12.781,5.245,16.594
	c1.452,0.956,0.154,2.9,1.586,3.994c3.368-1.157,0.624-6.866,4.627-5.022c4.044,1.864,2.652,4.38,6.164,6.492
	c3.634,2.186,3.7,5.547,0.168,8.208c-1.214,0.915-1.017,1.793,0.03,2.399c7.335,4.245,4.915,9.699,7.395,38.885
	c1.018,11.988-3.686,9.173-0.504,13.128c1.77,2.2,3.285,4.637,3.476,7.594C417.932,1484.297,417.46,1484.501,414.343,1483.715z
	 M547.721,797.889c-2.2-0.01-2.043-1.406-2.059-2.981c-0.039-3.778,2.561-5.198,5.85-6.295
	C548.233,792.035,552.934,797.913,547.721,797.889z M556.16,777.126c-3.313-3.226-7.764-8.367-4.066-10.666
	c2.036-1.266,3.851-2.985,6.936-3.569C558.074,767.601,557.206,771.923,556.16,777.126z M611.542,535.348
	c-0.7,2.485-0.558,13.044-4.505,8.671c-3.012-3.338-4.547-6.977-2.781-11.566c1.293-3.359,2.043-6.934,4.513-10.569
	C611.295,526.539,612.857,530.68,611.542,535.348z M709.842,588.129c-1.985-3.919-2.618-7.993-4.154-12.348
	c3.748,1.025,6.415,2.875,9.142,4.613C713.05,582.744,712.696,586.027,709.842,588.129z M744.137,689.132
	c-1.558-4.551-2.987-8.723-4.706-13.745c4.587,1.15,10.933,3.302,8.896,7.162C747.206,684.671,746.501,687.065,744.137,689.132z
	 M747.842,699.598c2.911,0.406,4.761,1.305,6.576,2.198c2.58,1.271,2.865,1.952,1.829,4.462c-0.938,2.273-1.844,4.598-3.871,6.924
	C750.853,708.62,749.451,704.418,747.842,699.598z M760.413,736.322c-1.531-4.187-3.062-8.375-4.812-13.159
	c3.905,0.878,6.454,2.658,8.966,4.491c0.284,3.461-2.182,5.75-3.183,8.664C761.061,736.319,760.737,736.321,760.413,736.322z
	 M1152,1436.636c-2.043,3.703-3.269,7.756-5.91,11.287c-1.67,2.234-3.985,4.451-4.724,7.422c-0.233,0.937-0.883,1.489-1.583,2.014
	c-5.282,3.956-0.445,2.661-5.552,6.332c-4.803,3.453,1.019,1.481-6.346,7.299c-1.776,1.403-4.095,2.289-4.298,5.129
	c-0.059,0.822-1.4,0.928-2.064,1.467c-6.452,5.237-0.622,3.344-6.278,6.191c-8.263,4.159-1.858,5.47-8.416,6.713
	c0.43-7.481,0.114-14.604-0.5-21.682c-0.873-10.065,4.913-11.617,5.407-15.819c1.526-12.993,2.194-15.827,5.562-17.713
	c0.48-0.269,1.186-0.774,1.184-1.167c-0.028-4.564,4.631-7.731,3.646-12.59c-0.557-2.749,0.493-4.606,3.817-4.704
	c-2.343-5.86-10.125-7.197-6.09-11.905c15.552-18.142,14.079-24.138,18.732-19.717c3.298,3.134,2.5,2.152,2.783,29.38
	c0.071,6.857,1.223,3.278,3.081,7.084C1150.301,1433.637,1154.762,1431.631,1152,1436.636z"/>
</svg>
