<?xml version="1.0" encoding="utf-8"?>

<!DOCTYPE svg PUBLIC "-//W3C//DTD SVG 1.1//EN" "http://www.w3.org/Graphics/SVG/1.1/DTD/svg11.dtd">
<svg version="1.1" id="Layer_1" xmlns="http://www.w3.org/2000/svg" xmlns:xlink="http://www.w3.org/1999/xlink" x="0px" y="0px"
	 viewBox="0 0 1456 2576" enable-background="new 0 0 1456 2576" xml:space="preserve">
<g>
	<path d="M764,88.887c-12.706,30.802-62.18,6.949-48.81-14.607C729.615,39.483,775.452,61.125,764,88.887z"/>
	<path d="M714.58,101.17c4.71-0.88,8.13,2.94,12.37,4.02c8.04,0.16,16.08-0.01,24.12,0.08c5.26,0.36,8.91-5.24,14.35-4.1
		c1.9,3.62,2.9,7.47,2.29,11.59c-11.755,8.391-16.186,6.911-41.61,5.94c-4.76-1.52-9.79-2.8-13.81-5.95
		C711.67,108.63,712.68,104.79,714.58,101.17z"/>
	<path d="M716.57,119.5c4.14-1.22,7.1,4.2,11.33,3.77c9.3-0.09,18.6,0.11,27.89-0.09c8.457-3.203,6.599-6.375,11.75-1.7
		c11.054,12.282-6.639,19.397-6.986,32.042c-0.044,1.598,1.011,26.592,4.812,48.702c20.631,120.015,41.73,116.131-53.146,114.946
		c-10.585-4.39-9.837-8.1-12.49-12.85c-0.93-2.36-4.26-3.5-3.99-6.3c2-25.895-1.211,0.293,4.283-25.108
		c30.603-141.51,25.293-112.909,11.594-140.711C709.398,127.699,710.542,121.276,716.57,119.5z"/>
	<path d="M704.38,320.71c23.08,0.06,46.16,0.07,69.24-0.01c0.14,2.86,0.15,5.73-0.01,8.6c-23.08-0.08-46.16-0.07-69.23-0.01
		C704.23,326.43,704.22,323.56,704.38,320.71z"/>
	<path d="M778.52,332.84c2.61,1.87,4.69,4.41,6.96,6.68c1.71,6.08-2.01,12.27-6.95,15.64c-27.93,0.21-55.87,0.05-83.81,0.07
		C673.759,324.094,724.075,332.362,778.52,332.84z"/>
	<path d="M706.75,358.77c22.16-0.04,44.32-0.04,66.49,0.01c3.36,2.74,2.6,7.15,2.44,11c-0.52,1.32-1.65,2.29-2.44,3.45
		c-22.16,0.04-44.33,0.03-66.49,0C702.8,369.43,702.56,362.51,706.75,358.77z"/>
	<path d="M696.51,381.51c7.322-6.393-8.823-4.734,78.51-4.77c2.93-0.13,4.5,3.03,6.43,4.79c2.29,3.78-0.03,7.99-3.25,10.28
		c0.104,1.013-0.131,18.509,3.32,21.7c3.27,3.02,3.7,7.92,6.95,10.97c1.82,1.43,1.49,3.99,1.04,5.98
		c-15.534,16.168-11.829,10.404-14.12,16.37c-1.62-0.08-3.27,0.03-4.85-0.31c-3.29-3.36-6.86-6.48-9.83-10.12
		c-0.538-1.635-19.224-25.14-20.18-25.91c-0.9-1.28-2.49-1.2-3.84-1.47c-0.41,2.194-0.506,3.087-28.95,39.68
		c-1.73,0.04-3.45,0.06-5.16,0.07c-1.3-3.81-3.14-7.46-5.94-10.37c-1.06-4.37-2.48-8.99-6.13-11.91c-1.66-2.03-5.46-3.79-4.03-6.92
		c2.19-2.5,4.81-4.58,6.96-7.11c0.45-1.63,0.68-3.31,1.14-4.93c1.58-1.91,3.47-3.54,5.22-5.29c-0.1-3.48-0.09-6.96,0.01-10.44
		c-1.12-1.1-2.27-2.15-3.3-3.31C696.02,386.23,696.02,383.77,696.51,381.51z"/>
	<path d="M676.68,420.69c7.38,5.472,18.943,37.55,19.46,38.55c0.22,4.75,0.18,9.53,0.02,14.29c-1.55,2.14-3.47,4.1-5.64,5.62
		c-4.75,0.19-9.54,0.19-14.29,0c-4.9-2.6-11.13-2.94-14.74-7.63c-1.82-2.45-5.71-4.01-5.3-7.52c-0.5-3.59,3.7-4.89,5.13-7.68
		c2.97-5.55,7.3-10.26,10.08-15.92c1.84-3.14-0.28-7.16,1.94-10.14C675.11,427.32,676.26,424.11,676.68,420.69z"/>
	<path d="M734.54,427.5c2.23-0.61,5.09-0.69,6.51,1.5c12.111,10.582,15.709,26.405,17.95,30.25c1.09-2.47,2.21-6.73,5.76-6.03
		c4.683,2.604,13.676,14.117,0.74,25.29c-27.73,2.08-17.796-19.698-31.04-13.03c-0.02,0.014-5.905,9.3-11.94,13.67
		c-3.67,0.2-7.37,0.2-11.04,0c-4.44-3.66-9.92-8.51-9.16-14.84c2.55-4.57,4.03-10.44,8.92-13.09c3.71-0.69,4.48,3.87,6.17,6.18
		C719.405,443.867,731.162,430.175,734.54,427.5z"/>
	<path d="M801.47,426.72c1.46,4.14,0.69,8.48-1.32,12.27c2.65,5.85,3.46,12.49,6.9,17.96c3,2.82,5.66,6.04,6.87,10.06
		c-5.153,12.969-6.624,11.242-11.18,13.64c-6.49,0.2-13.01,0.14-19.49,0.03c-2.24-1.01-3.92-3.24-5.42-5.17
		c0.18-5.32-1.29-11.16,1.66-15.95C781.019,453.519,787.329,440.744,801.47,426.72z"/>
	<path d="M736.56,473.49c3.06-1.4,5.04,2.17,6.77,4.08c2.59,5.12,5.02,10.32,7.64,15.42c2.7,2.93,7.29,3.1,10.04,6.02
		c11.37,11.327,12.963,7.899-3.52,23.42c-14.165,5.082,0.279,0.479-18.04,18.08c-1.58,0.44-3.33,0.43-4.9,0
		c-5.652-5.547-8.686-7.365-13.08-19.06c-8.42-0.42-13.48-7.63-18.97-12.99c-0.44-1.58-0.48-3.35,0-4.92
		c7.755-7.64,8.56-10.312,18.97-10.89C723.883,486.528,723.283,485.917,736.56,473.49z"/>
	<path d="M640.49,481.33c1.73-0.09,3.48-0.09,5.23-0.06c1.541,2.161,7.828,13.1,8.71,19.33c1.69,0.22,3.42,0.38,5.06,0.96
		c2.42,2.28,4.61,4.91,7.79,6.18c1.7,2.58,3.34,5.57,2.25,8.74c-1.94,2.16-4.04,4.36-6.95,5.12c-0.6,1.86-1.4,3.71-3.04,4.89
		c-1.67,0.49-3.4,0.69-5.1,0.91c-0.938,10.535-6.838,10.357-9.03,17.37c-1.62-0.01-3.23-0.01-4.83-0.01
		c-12.979-30.424-19.824-23.773-18.29-37.54c2.72-1.93,6.16-2.9,8.2-5.71c3.26-5.71,8.67-10.88,7.92-18.07
		C639.11,482.74,639.8,482.04,640.49,481.33z"/>
	<path d="M660.77,482.78c18.28-0.1,36.56,0.05,54.84-0.08c0.1,2.01,0.14,4.03,0.12,6.05c-3.11,1.82-6.15,3.73-8.96,5.95
		c-58.989,0.412-34.074-1.258-46.25-2.17c-0.61-2.16-2.41-4-2.32-6.31C658.9,484.96,659.91,483.92,660.77,482.78z"/>
	<path d="M758.23,483.26c15.82,0,31.64-0.05,47.46,0.03c5.26,7.081-0.845,4.055-2.29,11.48c-36.872-0.156-34.349,1.993-45.1-6.02
		C758.24,486.92,758.22,485.09,758.23,483.26z"/>
	<path d="M818.03,486.95c0.72-1.32,1.38-3.28,2.97-3.66c3.099,1.105,1.092,2.071,7.64,15.07c1.104,1.604,14.62,14.599,13.08,19.36
		c-0.515,1.003-13.929,12.868-14.09,29.02c-1.58,1.68-4.48,3.25-6.16,0.77c-7.05-5.22-8.31-15.89-16.89-19.22
		c-3.345-2.954-13.08-12.626-12.46-16.9c2.89-2.08,6.08-3.77,9.47-4.9c0.27-1.05,0.54-2.09,0.82-3.12
		c7.789-0.769,5.623-1.177,10.25-9.79C814.33,491.27,816.98,489.69,818.03,486.95z"/>
	<path d="M672.48,497.33c7.01-0.14,14.02-0.13,21.04,0c0.7,0.72,1.41,1.44,2.15,2.14c0.418,12.475-5.546,7.784-3.18,14.99
		c2.9,3.13,6.12,5.95,9.03,9.08c0.36,1.7,0.22,3.45,0.3,5.19c-22.925,0.451-27.939,1.792-29.58-2.95c0.15-3.94,3.27-7.04,5.6-9.99
		c0.12-2.3-1.59-4.12-2.59-6.04c-1.66-0.99-3.36-1.91-4.97-2.98c-0.05-2.44-0.04-4.87,0.05-7.29
		C671.05,498.77,671.76,498.05,672.48,497.33z"/>
	<path d="M772.38,498.7c6.29,0.12,12.57,0,18.86,0.07c0.97,1.57,3.05,2.88,2.53,4.99c-1.89,4.09-8.41,5.86-7.56,11.08
		c1.37,5.44,6.5,9.86,5.62,15.88c-8.53,0.06-17.06,0.01-25.59,0.03c0.08-2.41-0.28-4.88,0.27-7.24c1.57-1.76,3.42-3.25,4.94-5.07
		c0.44-1.62,0.66-3.28,1.15-4.88c4.503-6.599,4.525-3.208-0.07-9.11C771.9,502.6,772.37,500.6,772.38,498.7z"/>
	<path d="M662,537.95c2.46-1.95,4.24-5.88,7.92-5.22c36.684,0.082,52.671-3.842,49.54,14.57c-19.69-0.09-39.38-0.08-59.07,0
		C660.58,544.18,658.99,540.11,662,537.95z"/>
	<path d="M750.24,539.3c2.83-2.51,6.83-2.5,10-4.45c29.348-0.599,47.922-3.851,45.49,13.92c-45.364-2.689-7.002-0.982-52.26-1.6
		C750.21,545.84,749.86,542.39,750.24,539.3z"/>
	<path d="M626.62,551.04c10.126,0.716,9.515,18.606,13.85,21.41c1.64,0.43,3.34,0.65,5,1.12c1.68,1.48,3.46,2.98,4.68,4.9
		c0.28,3.91,0.04,7.85,0.07,11.78c-3.35,4.02-8.79,2.07-13.3,2.49c-2.93-0.51-5.09,2.14-7.91,2.01c-7.57,0.01-15.13,0.02-22.69-0.04
		c-1.14-1.45-2.95-3.16-1.84-5.15C634.914,552.739,616.521,570.581,626.62,551.04z"/>
	<path d="M642.28,552.73c6.98,0.06,13.97-0.02,20.96,0.04c1.14,1.68,3.51,3.39,2.27,5.67c-3.3,3.42-6.67,6.78-10.08,10.08
		C652.43,569.994,641.669,559.868,642.28,552.73z"/>
	<path d="M682.39,552.71c9.61,0.11,19.24-0.02,28.86,0.07c1.24,1.71,3.33,3.38,2.37,5.75c-0.847,1-13.125,7.649-14.23,14.31
		c-1.62-0.09-3.27,0-4.85-0.33c-0.959-1-9.043-8.139-12.27-14.77C682.14,556.06,682.29,554.38,682.39,552.71z"/>
	<path d="M735.46,553.49c3.53,3.52,7.55,6.77,9.68,11.39c3.47,2.63,2.14,7.72,5.79,10.21c4.854-4.311,3.813-5.835,9.11-1.11
		c1.58,1.81,4.08,3.29,4.19,5.96c0.539,7.601-6.189,12.228-7.47,12.74c-1.942,0.083-42.377,0.352-48.24-0.19
		c-2.07-1.94-4.08-3.94-6-6c-0.49-2.93-0.5-6.06,0-8.98c1.94-2.08,3.94-4.1,6.05-6.01c2.94-1.47,4.75,2.08,6.59,3.73
		c1.34-3.18,2.87-6.28,3.44-9.71C731.033,551.868,731.091,552.647,735.46,553.49z"/>
	<path d="M766.97,554.65c0.51-0.34,1.55-1.02,2.07-1.36c0.95,0.65,1.92,1.29,2.91,1.93c0.97-0.53,1.84-1.33,2.94-1.62
		c2.31,0.99,4.75,1.56,7.23,2.01c-1.73,7.9-8.44,13.64-15.28,17.27c-16.006-16.527-10.877-9.709-16.59-14.18
		c0-1.34,0.06-2.66,0.16-3.98C755.92,554.7,761.45,554.9,766.97,554.65z"/>
	<path d="M830.56,557.64c3.9-1.45,7.33-4.8,11.72-4.36c0.064,1-1.593,19.633,6.82,31.61c8.018,8.831,3.599,9.882,2.14,12.33
		c-30.747,0.065-5.114-2.803-36.92-4.5c-4.932-5.504-1.76-6.798,0.29-15.19c2.43-2.9,5.19-5.58,8.57-7.34
		c1.22-2.07,2.65-3.98,4.2-5.81C828.23,562.02,827.85,558.84,830.56,557.64z"/>
	<path d="M794.32,557.9c3.033-4.433,1.304-2.865,22.92-3.17c0.59,1.94,1.33,3.86,2.63,5.47c-2.6,2.39-5.33,4.81-6.59,8.22
		c-1.66,1.95-3.68,5.49-6.72,4.09C802.19,567.9,796.65,564.04,794.32,557.9z"/>
	<path d="M672.57,559.18c1.63,0.06,3.29-0.04,4.92,0.29c1.96,1.75,3.87,3.67,4.82,6.18c5.796,10.048,10.509,3.459,11.36,22.87
		c-0.74,0.7-1.45,1.42-2.15,2.15c-10.33,0-20.73,0.39-31.01-0.17c-5.211-6.293-6.344-1.757,0.17-14.92
		C665.357,569.447,669.072,569.672,672.57,559.18z"/>
	<path d="M786.59,559.23c0.92,0,1.84,0,2.77-0.02c0.521,2.843,12.523,20.421,14.34,23.01c0.17,2.76,0.04,5.54-0.04,8.31
		c-0.73,0.69-1.44,1.41-2.14,2.14c-7.86,0.35-15.77-0.4-23.6,0.57c-2.27,0.4-3.96-1.34-5.63-2.53c-0.03-3.5-0.16-6.99,0.01-10.48
		c2.22-2.74,3.78-6.17,6.83-8.13C782.04,568.07,785.12,564.06,786.59,559.23z"/>
	<path d="M590.47,589.2c1.75,0.02,3.5,0.05,5.26,0.11c3.98,5.38,5.82,11.86,8.4,17.93c0.33,3.03,0.04,6.1,0.12,9.15
		c2.6,0.48,4.45,2.33,6.44,3.9c4.48,1.9,7.41,5.98,10.82,9.27c1.348,2.529-9.91,17.722-17.22,19.99c-0.45,2.71-0.48,5.46-0.66,8.2
		c-0.851,2.495-4.717,9.307-14.17,18.76c-2.59,0.86-5.35,0.19-7.18-1.82c-0.15-3.21,0.26-6.45-0.26-9.62
		c-1.34-3.79-5.07-7.2-3.53-11.52c8.321-8.077,7.494-7.981,7.22-28.56c-1.09-3.47-2.34-6.9-3.83-10.22
		c-0.29-2.51-0.23-5.06-0.05-7.57C584.11,600.87,590.47,596.41,590.47,589.2z"/>
	<path d="M874.54,595.48c1.69-0.36,3.45-0.23,5.19-0.3c0.19,3.04-0.62,6.34,0.93,9.15c1.9,3,0.84,6.71,1.1,10.06
		c-8.973,2.443-13.325,10.684-15.93,16.83c-0.16,4.51-0.2,9.04,0.02,13.55c1.21,2.47,2.19,5,2.76,7.71
		c2.23,2.44,4.78,4.65,6.19,7.73c2.51,1.35,4.87,3.02,6.67,5.27c0.5,2.48,0.16,5.26,1.6,7.49c2.25,3.44,0.76,7.78,1.22,11.64
		c-2.3-0.04-5.1,0.93-6.81-1.13c-0.96-1-10.628-7.879-11.15-9.72c-1.02-3.09-3.65-5.12-5.97-7.22c-0.08-3.05-0.23-6.09-0.67-9.11
		c-4.5,0.29-7.35-3.18-10.89-5.24c-1.68-3.53-4.45-6.45-8.09-7.94c-4.218-6.889-2.588-5.965,0.28-9.27c3.26-3.02,6.11-6.5,9.59-9.27
		c2.73-1.09,5.11-2.9,6.85-5.28c0.85-3.7,2.28-7.21,3.18-10.9C865.1,604.71,869.89,600.16,874.54,595.48z"/>
	<path d="M695.07,598.26c0.47-0.26,1.41-0.76,1.88-1.01c0.52,0.35,1.58,1.07,2.1,1.43c4.72,0.22,9.46-0.02,14.19,0.1
		c1.13,1.67,3.5,3.39,2.26,5.65c-2.26,2.3-4.36,4.84-6.98,6.73c-1.132,0.036-85.906-0.876-95.95-0.5
		c-1.538-7.748-7.422-3.369-1.81-11.89C634.972,598.575,686.599,593.997,695.07,598.26z"/>
	<path d="M748.48,601.34c2.48-2.85,6.72-2.41,9.76-4.5c13.27-0.23,26.57-0.01,39.86-0.11c4.09-0.25,6.78,4.19,10.84,4.03
		c8.02,0.02,16.05-0.06,24.07,0c2.23,0.06,3.74,2.22,5.93,2.44c3.92,0.26,7.86-0.23,11.78,0.18c1.68,0.74,3.34,1.55,5.09,2.18
		c-0.07,1.62,0.08,3.29-0.3,4.9c-1.56,1.65-3.05,3.46-4.98,4.7c-16.196,0.79-19.43-1.92-19.43-1.92
		c-39.395,0.041-28.451,0.61-35.15-2.31c-2.345-0.277-33.498-0.026-38.69-0.28C756.259,610.13,748.002,607.221,748.48,601.34z"/>
	<path d="M730.54,599.49c1.95-0.41,4.63-0.85,6.01,1.01c11.9,12.141,10.43,9.273,13.98,18.19c2.96,0.56,5.99,0.57,9,0.66
		c3.79,4.25,8.07,8.05,11.98,12.19c0.43,1.57,0.44,3.34-0.01,4.92c-1.86,2.17-4.47,3.83-5.53,6.59c-2.801,7.237-8.216,5.165-11,7.56
		c-1.29-0.99-2.83-1.49-4.42-1.63c-0.732,11.293-12.913,21.209-15.37,23.89c-2.241-1.393-13.994-9.454-14.72-10.32
		c-3.42-2.92-3.44-8.17-6.92-11c-5.8-0.49-10.13-4.4-14.83-7.33c-5.023-8.345-0.197-3.822-8.78-12.22
		c4.63-5.3,11.47-7.72,16.64-12.38c2.85-0.77,5.96-0.19,8.88-0.88C717.88,612.297,717.396,611.949,730.54,599.49 M723.44,622.51
		c-4.83,4.19-9.43,10.6-7.25,17.28c8.475,11.763,16.862,9.387,19.59,9.37c5.05-1.77,9.2-5.44,12.37-9.66
		c0.035-3.288,2.127-10.565-6.64-17.99c-2.78-1.05-6.18-0.06-8.51-2.17C730.41,622.04,725.83,619.44,723.44,622.51z"/>
	<path d="M624.75,614.78c74.802,3.26,62.193-2.087,69.09,5.1c-2.92,6.56-8.87,10.83-13.7,15.91c0.9,1.46,1.7,2.99,2.63,4.45
		c4.37,2.07,7.37,6,10.74,9.33c1.35,2.72-1.72,5.84-4.5,5.24c0,0,4.447-2.113-53.03-1.49c-4.43,1.43-9.12,1.48-13.73,1.45
		c0.06-2.42-0.27-4.89,0.26-7.26c8.927-9.479,15.531-12.733,9.5-17.59C630.003,627.442,615.721,622.544,624.75,614.78z"/>
	<path d="M772.29,618.72c22.44,0.03,44.89,0.07,67.33-0.02c1.69,8.5-6.36,13.73-11.45,19.07c2.24,5.74,7.27,9.4,11.35,13.77
		c0.42,1.6,0.18,3.3,0.18,4.95c-0.75,0.71-1.48,1.43-2.18,2.18c-4.56,0.02-9.35,0.79-13.53-1.38c-11.92-0.18-23.86,0.14-35.77-0.13
		c-5.33-3.41-11.89-1.42-17.84-1.87c-0.03-1.92-0.43-3.9,0.12-5.77c4.44-4.54,8.98-8.98,13.48-13.47c-3.24-2.36-4.04-6.49-6.96-9.06
		C774.7,624.62,771.28,622.55,772.29,618.72z"/>
	<path d="M572.53,619.49c1.6-0.38,3.27-0.25,4.91-0.31c4.223,11.222,8.758,23.278-4.44,35.89c-3.74-2.96-5.76-7.18-7.62-11.44
		c-3.69-3.83-7.98-8.23-7.21-14.04C567.591,626.412,567.663,623.77,572.53,619.49z"/>
	<path d="M726.5,623.48c3.62-0.41,7.38-0.45,11.01,0.02c5.983,5.825,6.958,13.062,5.98,14.94c-2.24,2.31-4.36,4.81-6.96,6.72
		c-3.02,0.19-6.06,0.2-9.07,0C719.157,639.204,717.382,631.048,726.5,623.48z"/>
	<path d="M878.29,623.31c1.69-0.06,3.4-0.09,5.12-0.09c0.69,3.742,7.258,10.809,12.31,12.33c1.293,7.759,1.455,4.807-12.54,19.31
		c-3.154-2.475-6.27-1.096-9.34-10.08c-0.19-4.51-0.18-9.06,0-13.57C874.9,628.37,876.56,625.78,878.29,623.31z"/>
	<path d="M608.21,663.58c3.15-0.38,4.91-3.01,7.27-4.74c111.816-0.815,94.197-1.632,102.34,9.29c-0.94,0.97-1.84,1.98-2.66,3.06
		c-41.81,0.416-37.413,0.405-40.17-2.06c-3.263,3.263,2.837,1.794-66.61,2.16C608.27,668.72,608.24,666.15,608.21,663.58z"/>
	<path d="M754.23,663.58c3.17-0.36,4.89-3.05,7.29-4.75c4.51,0.11,9.56-1.18,13.52,1.61c6.82,0.83,13.85-0.08,20.74,0.4
		c8.293,2.684-7.391,1.703,33.23,1.92c2.57,0.05,4.22,2.93,6.92,2.52c11.715-0.506,23.952-1.469,21.7,12.01
		c-7.55-0.13-15.09,0.04-22.63-0.06c-2.15-0.06-3.68-2.24-5.89-1.99c-35.094-0.561-12.695-5.515-29.11-0.34
		c-5.73-3.62-12.65-1.66-19.01-2.15c-2.52,0.21-4.4-2.09-6.9-1.98c-6.62-0.07-13.24,0.01-19.85-0.02
		C754.25,668.36,754.25,665.97,754.23,663.58z"/>
	<path d="M704.76,674.77c3.49-0.03,6.99-0.03,10.49,0.01c2.07,2.02,3.35,4.8,2.25,7.68c-3.49,4.01-7.64,7.89-13.14,8.65
		C703.484,673.337,699.526,682.841,704.76,674.77z"/>
	<path d="M634.24,677.55c3.63-1.41,7.19-3.89,11.24-2.25c0.64,1.96,1.7,3.76,2.41,5.7c-0.93,2.79-2.51,5.35-4.18,7.75
		c-1.73-0.04-3.5,0.17-5.18-0.24c-1.43-1.26-2.77-2.6-4.02-4.02C633.97,682.22,634.31,679.85,634.24,677.55z"/>
	<path d="M662.31,675.28c2.4-0.05,4.81-0.04,7.22,0.04c0.69,0.73,1.41,1.45,2.14,2.17c0.11,3.72,0.09,7.45,0.05,11.19
		c-1.49,1.24-3.15,2.76-5.24,1.95c-2.84-2.83-3.82-6.9-5.86-10.25C659.27,678.45,661.23,676.71,662.31,675.28z"/>
	<path d="M682.45,675.49c4.97-2.33,10.97-0.12,13.33,4.75c0.29,1.73-1.35,3.05-1.49,4.73c-0.24,4.18,0.19,8.37-0.14,12.55
		c-1.94,2.77-4.75,4.82-6.98,7.35c-2.26-1.46-4.71-2.56-6.89-4.11c-0.04-3.51,0.44-7.26-1.57-10.37
		C677.2,685.24,678.44,679.22,682.45,675.49z"/>
	<path d="M612.38,676.71c3.37,0.11,6.74-0.1,10.11,0.11c2.59,1.88,4.78,4.32,6.84,6.77c2.19,4.71,5.9,9.4,4.16,14.91
		c-1.26,1.41-2.6,2.75-4.02,4.01c-1.69,0.4-3.45,0.2-5.17,0.25c-2.582-2.623-4.119-13.934-10.29-18.73
		C611.42,682.44,612.36,679.22,612.38,676.71z"/>
	<path d="M730.48,677.17c1.62,0.15,3.38-0.25,4.92,0.45c0.279,0.248,19.664,13.977,20.02,14.09c5.22,3.53,6.62,10.15,9.45,15.42
		c1.33-1.32,2.64-2.67,3.97-4c7.821,4.061,7.643,5.127,16.54,16.4c0.63,2.31,1.21,4.64,2.2,6.84c0.41,4.28,0.13,8.62,0.03,12.92
		c-4.55-0.03-9.1-0.13-13.64,0c-1.87,0.15-3.51,2.32-5.42,1.22c-8.927-8.465,0.099-7.929-15.22-20.84
		c-1.836-0.595-15.216-11.581-16.22-12.33c-2.72-0.2-5.45-0.2-8.16,0c-24.709,17.969-20.667,16.796-26.57,25.06
		c-1.18,3.87-5.25,5.28-8.59,6.76c-4.41-0.34-10.33,1.85-13.28-2.55c-2.921-4.176,1.567-14.499,1.67-15.5
		c0.53-3.25,4.29-4.52,5.5-7.45c0.377-1,10.785-18.251,14.92-4.9c0.99,0.01,1.98,0.04,2.99,0.07c0.22-2.46,0.38-4.93,0.96-7.32
		c3.86-4.12,8.05-7.92,11.92-12.03c2.939-2.904-0.417-5.126,11.11-9C729.88,679.37,730.17,678.27,730.48,677.17z"/>
	<path d="M752.32,677.01c1.7,0.17,3.41,0.49,4.7,1.71c3.3-3.5,7.71-0.19,11.24,1.04c-0.05,4.13,0.05,8.25-0.07,12.38
		c-1.13,0.9-2.2,1.86-3.24,2.85c-2.62-3.04-6.45-5.31-7.54-9.4c-1.87-0.67-3.58-1.65-5.13-2.87
		C752.23,680.81,752.25,678.91,752.32,677.01z"/>
	<path d="M803.75,679.35c0.85,5.51-2.85,10.2-6.7,13.67c-0.9-0.83-1.8-1.65-2.7-2.44c-0.04-3.02-0.44-6.11,0.16-9.08
		C799.738,675.519,800.138,676.555,803.75,679.35z"/>
	<path d="M776.73,678.72c3.51,0.05,7.02,0.05,10.53,0.01c0.62,2.24,1.64,4.34,2.93,6.28c-3.54,4.05-1.25,9.68-2.03,14.52
		c-2.18,4.74-9.28,4.25-12.38,0.72c-0.13-4.74,0.13-9.49-0.11-14.22c-0.35-0.51-1.03-1.52-1.37-2.02
		C775.54,682.47,776.18,680.59,776.73,678.72z"/>
	<path d="M822.5,681.5c2.37-0.51,4.83-0.2,7.25-0.26c-0.12,3.07,0.33,6.21-0.26,9.25c-1.44,1.57-3.02,3.01-4.49,4.55
		c-2.12-2.25-4.43-4.31-6.51-6.59C817.06,685.36,820.77,683.44,822.5,681.5z"/>
	<path d="M838.46,681.21c3.68,0.17,7.4-0.25,11.07,0.25c3.02,1.69,2.29,5.38,2.12,8.28c-3,5.21-4.71,10.97-6.24,16.75
		c-5.282,6.41-15.529-7.493-13.15-14.93C836.98,690.85,837.85,685.16,838.46,681.21z"/>
	<path d="M593.78,685.75c1.446-0.978,6.026-7.913,13.38,7.12c3.91,3.94,4.59,9.58,6.98,14.35c0.27,2.49,0.07,5,0.12,7.51
		c2.33,0.02,4.67,0.02,7.02,0.04c6.761,8.534,11.579,32.212,0.8,30.5c-7.11-0.03-14.23,0-21.34-0.04c-2.57-2.28-2.68-5.66-3.19-8.8
		c-1.228-2.352-2.131-13.425-8.94-20c-2.15-6.09,2.76-11.22,4.99-16.5C593.98,695.22,593.62,690.47,593.78,685.75z"/>
	<path d="M650.59,683.22c1.71,0,3.42,0.02,5.14,0.07c0,0,13.369,21.638,13.37,21.64c2.768,4.447,8.84,3.343,0.58,15.78
		c-1.03,0.02-2.05,0.05-3.06,0.1c-0.6-1.5-0.84-3.24-2.13-4.32c-15.982-16.074-9.321-14.951-29.06,4.03
		c-3.09,1.39-4.99-2.29-6.92-4.02c-0.49-2.94-0.47-6.06,0-8.99c2.89-3.12,6.12-5.9,8.97-9.07c0.53-1.63,0.71-3.35,0.92-5.03
		c1.69-0.22,3.4-0.42,5.03-0.93C646.18,689.71,649.83,687.31,650.59,683.22z"/>
	<path d="M801.42,694.37c0.75-5.32,7.02-5.4,9.62-9.38c3.24,3.75,7.78,6.57,9.63,11.35c6.099,8.163,16.542,11.536,6.79,22.18
		c-6.361,1.162-4.119,0.03-16-10.99c-6.549-4.304-11.511,11.526-16.9,8.97c-2.91-3.07-8.09-5.96-6.06-10.96
		c2.54-2.82,5.26-5.57,8.66-7.36C798.11,696.41,799.41,694.93,801.42,694.37z"/>
	<path d="M864.5,689.51c1.85-2.17,4.67-2.93,6.96-4.49c6.775,35.201,14.05,29.927-0.81,48.65c-1.21,4.33-3.2,8.51-3.04,13.12
		c-2.36,1.66-4.89,3.21-7.64,4.09c-2.79-1.7-5.98-1.94-9.17-1.61c0.36,0.81,1.07,2.44,1.431,3.25
		c2.173,0.828,55.108,4.886,65.659,12.75c-1.42,2.72-2.61,5.59-4.616,7.95c0,0-39.785-7.346-97.378-11.463
		c-36.079-2.579-54.369,3.15-59.786-14.91c0,0,94.957,3.924,94.96,3.924c-0.25-0.83-0.76-2.49-1.01-3.33
		c-4.18-0.5-8.4,0.09-12.57-0.32c-1.56-0.74-2.87-2.06-3.61-3.61c-1.416-16.524,0.743-13.815,6.64-30.26c2.36,0,4.73,0,7.11-0.04
		c0.09,2.54,0.42,5.06,0.75,7.59c1.09-0.02,2.19-0.03,3.31-0.03c0.88-3.45-0.21-7.29,1.64-10.44c1.68-3.11,0.57-6.75,0.96-10.11
		c1.43-2.18,3.25-4.11,4.53-6.41C860.89,692.63,862.89,691.3,864.5,689.51z"/>
	<path d="M570.57,706.69c2.89,3.04,6.82,5.49,8.03,9.74c8.072,2.469,11.863,22.545,11.65,23.55c-0.71,2.54-2.28,4.74-3.03,7.28
		c-4.88-0.01-9.75-0.05-14.62,0.03c-0.75-6.58-4.36-12.5-8.37-17.57C564.14,721.51,570.91,715.01,570.57,706.69z"/>
	<path d="M726.51,713.51c2.93-0.48,6.03-0.47,8.97-0.01c2.43,2.35,4.62,5.09,7.94,6.21c3.61,2.99,6.75,6.53,10.09,9.83
		c1.08,2.87-0.19,5.65-2.26,7.68c-3.91-0.04-7.84,0.2-11.74-0.07c-3.18-1.53-4.51-6.37-8.5-5.96c-4.21-0.62-5.24,5.19-9.11,5.64
		c-2.1,0.34-3.98,1.32-5.95,2.04c-1.95-0.72-3.76-1.76-5.71-2.43c-0.01-2.07-0.1-4.14,0.07-6.2c1.37-2.22,3.26-4.11,4.5-6.44
		C719.57,721.45,722.63,716.96,726.51,713.51z"/>
	<path d="M892.25,713.28c2.01-0.05,4.03,0,6.05,0.11c-0.304,23.561,9.522,16.572-4.54,37.32c-2.14,0.02-4.28,0.19-6.39-0.11
		c-2.41-1.2-5.01-1.86-7.66-2.22c0.17-4.38-0.19-8.78,0.16-13.15c2.29-5.14,3.67-10.69,6.88-15.41
		C889.59,718.6,890.6,715.65,892.25,713.28z"/>
	<path d="M648.48,715.22c1.63,0,3.28,0.01,4.93,0.02c0.33,1.07,0.72,2.13,1.16,3.19c7.829,9.601,13.125,8.523,13.19,22.04
		c-1.73,0.61-3.37,1.41-5.05,2.14c-6.22,0.51-12.51-0.33-18.71,0.47c-3.39,0.46-7.19,0.19-9.71-2.37c0.39-3.77-1.57-8.73,2.2-11.24
		c2.75-2.92,6.24-5.36,7.88-9.14c0.47-1.29,2.13-1.32,3.18-1.92C647.85,717.34,648.16,716.28,648.48,715.22z"/>
	<path d="M808.27,717.25c2.08,0.21,4.82-0.75,6.27,1.25c11.298,12.467,11.499,8.965,11.12,22.03c-0.73,0.69-1.45,1.4-2.14,2.14
		c-29.584,0.691-20.833-0.484-27.21-2.17C795.405,733.626,793.376,738.66,808.27,717.25z"/>
	<path d="M557,730.94c2.966,2.33,12.487,13.659,6.25,20.28c-5.47,0.57-11.43-1.26-16.49,1.33c-2.07,0.41-4.2,0.16-6.29,0.13
		c-0.7-0.75-1.4-1.47-2.11-2.18c-0.1-1.68-0.15-3.35-0.18-5.01C549.679,744.275,550.189,738.416,557,730.94z"/>
	<path d="M911.39,735.05c1.22,3.09,2.56,6.14,3.21,9.43c1.71,2.2,4.31,3.75,5.4,6.41c1.21,2.48,2.26,5.08,3.93,7.31
		c-0.89,0.82-1.7,1.76-2.77,2.36c-4.73-1.93-9.56-3.65-14.67-4.12c-1.44-1.23-2.77-2.57-4-3.98c-0.7-2.08-0.22-4.33,0.75-6.23
		C907.39,733.667,908.153,735.683,911.39,735.05z"/>
	<path d="M728.52,739.51c2.25-0.48,4.7-0.48,6.96,0c8.767,8.325,10.53,12.53,10.53,12.53c1.88,1.04,4.15,1.56,5.49,3.41
		c0.49,1.69,0.69,3.46,0.9,5.22c2.37,0.14,4.77,0.31,7.09,0.88c3.3,3.3,6.85,6.42,9.78,10.05c1.2,3.64,5.76,5.82,4.48,10.13
		c-1.71,2.35-3.57,4.6-4.88,7.23c-5.1,5.38-10.25,12.05-18.3,12.49c-2.06,6.62-9.53,9.5-12.61,15.54c-0.86,2.12-3.45,2.48-5.07,3.86
		c-4.203-4.232-12.761-8.481-20.34-16.37c-0.58-1.63-0.74-3.37-0.95-5.06c-4.56-0.69-10.46-2.12-11.93-7.14
		c-2.17-4.02-7.14-6.03-8.28-10.69c-7.77-2.689-5.947-5.811-0.81-9.87c7.746-2.903,9.432-12.5,21.02-13.14
		c0.21-1.71,0.37-3.44,0.95-5.06c2.59-2.68,5.11-5.5,8.05-7.81C723.89,744.57,726.09,741.84,728.52,739.51 M720.95,763.15
		c-3.12,3.01-6.41,5.94-9.13,9.32c-0.16,4.1-0.17,8.21,0.01,12.31c5.866,14.485,25.264,20.696,35.57,5.69
		c0.83-4.68,4.38-8.91,2.53-13.84c-1.29-2.22-1.96-4.66-2.54-7.13c-2.38-3.22-5.96-5.24-9.62-6.67
		C732.21,762.89,726.35,762.22,720.95,763.15z"/>
	<path d="M525.34,741.04c1.29,6.37,8.67,8.71,10.99,14.55c11.766,23.652-10.491,4.177,20.68,35.41c1.02,0.88,0.57,2.44,0.86,3.64
		c-1.98,1.54-4.4,2.34-6.37,3.86c-3.56,2.59-4.02,7.67-8.07,9.8c-9.912,3.807-7.212,9.6-7.79,13.45
		c-0.516,1-9.807,19.25-12.64,21.13c-5.334-4.558-10.489-16.868-10.9-17.87c1.34-5.36,5.79-8.7,9.31-12.57
		c1.123-8.137,2.939,2.033,2.3-27.45c-2.41-6.44-3.85-13.29-7.33-19.3c-1.23-3.33-5.46-5.33-4.13-9.41
		C525.094,739.232,519.172,742.329,525.34,741.04z"/>
	<path d="M694.321,744.436c11.336-0.809,10.155,6.973,5.974,9.579c-8.098,5.048-83.516,2.315-83.186,10.569
		c9.617-0.076,62.96-1.774,66.5-1.874c0.03,2.58,0.48,5.24-0.121,7.781c-2.215,2.867-7.106,5.15-7.299,9.046
		c-0.324,6.615,15.284,12.123,13.58,16.183c-1.945,4.633,2.193,2.514-61.135,4.98c-9.41,0.366-70.367,9.15-70.065,10.15
		c-0.54-1.79-1.17-3.55-2.41-4.96c3.13-2.62,4.47-6.59,7.14-9.6c0.9-2.11,3.33-4.32,2.2-6.73c-2.57-2.84-5.24-5.71-8.78-7.32
		c-5.914-12.057,2.748-7.565,7.22-10.23c6.805-4.055,49.972-2.689,52.329-6.447c6.704-10.687-54.502,4.521-64.714,0.996
		c-6.232-2.151-8.109-11.36,5.853-12.356C579.197,752.649,677.911,745.607,694.321,744.436z"/>
	<path d="M924.6,773.57c5.46-5.4,6.17-13.99,12.45-18.76c4.48,4.64,5.38,11.58,9.81,16.27c6.528,12.117,1.439,0.144-8.57,27.92
		c-0.329,12.675-1.717,19.013,9.07,30.58c1.97,5.21-1.43,10.22-4.61,14.15c-1.28,2.94-3.57,5.19-5.8,7.42
		c-0.8-0.89-1.63-1.73-2.31-2.69c-1.41-5.82-3.96-11.56-8.02-16.02c-1.329-3.515,2.147-10.166-6.69-13.46
		c-4.91-1.58-4.46-7.93-7.94-10.99c-7.214-8.713-3.576-3.828,5.35-15.66c1.1-3.29,3.86-5.41,6.12-7.87
		C925.24,781.1,923.45,777.04,924.6,773.57z"/>
	<path d="M778.38,764.71c29.652,0.512,155.779,7.583,128.81,23.48c-10.839,6.389-7.444,8.119-1.82,19.4
		c9.407,18.457-50.559-7.903-127.05-8.87c-2.03-1.84-2.69-4.59-1.84-7.17c2.91-3.15,6.15-5.98,9.06-9.13
		c1.807-3.633-6.183-10.95-7.04-11.95C777.96,768.59,778.34,766.61,778.38,764.71z"/>
	<path d="M724.39,767.4c3.71,0.44,6.98-1.47,10.41-2.21c3.23,2.32,5.8,5.56,8.7,8.33c2.867,24.042-18.13,23.808-25.65,12.01
		c-0.22-2.76-0.22-5.55,0-8.31C719.19,773.46,721.54,770.17,724.39,767.4z"/>
	<path d="M513.63,782.26c0.21,7.14,0.21,14.33,0.01,21.48c-2.42,4.67-4.12,10.01-8.64,13.15c0,0-6.332-10.653-21.05-24.88
		c2.98-2.74,5.44-6.25,9.38-7.68C507.988,771.98,503.782,762.435,513.63,782.26z"/>
	<path d="M454.22,778.98c1.66,0.92,3.37,1.76,5,2.75c5.085,9.365,3.355,0.745,7.29,16.72c1.22,1.44,2.57,2.79,4.01,4.03
		c2.25,0.66,4.63,0.62,6.93,1.08c1.08,0.91,2.04,1.95,3.15,2.84c6.191,1.457,8.987,1.93,18.78,13.11c0.61,2.54,1.49,5,2.33,7.48
		c0.756,12.847-1.928,9.651,3.76,18.37c0.59-2.69,0.84-5.42,0.88-8.16c1.8,0.02,3.6,0.04,5.4,0.1c1.76,2.05,2.24,4.91,4.26,6.75
		c6.067,3.357,15.607,6.011,25.28,17.54c0.9,2.2,2.19,4.22,4.07,5.74c0.41-3.14,0.89-6.46,3.6-8.49c3.83,4.21,8.13,7.98,11.96,12.18
		c3.317,4.906,15.294,27.848,15.33,33.75c2.13,4.29,1.52,9.13,1.4,13.79c-0.93,0.79-1.82,1.63-2.69,2.49
		c-1.035-1.032-10.183-11.433-18.26-14.76c-2.56-1.72-6.48-0.73-8.12-3.78c-5.99-30.82-28.143-37.129-31.91-39.13
		c-6.77-0.41-12.62-4.42-19.37-4.82c-2.23-0.84-3.67-3.2-6.05-3.93c-3.22-1.15-4.71-6.64-8.62-5.15
		c-0.539,1.387-8.373,15.251-8.33,31.5c1.89,5.2,2.28,10.98,4.79,15.95c2.55,2.55,3.83,5.97,5.51,9.11
		c-0.93,1.57-1.63,4.08-3.54,4.57c-2.84-1.2-5.43-2.86-7.65-4.99c-1.61-0.53-3.29-0.75-4.89-1.22
		c-6.503-6.03-14.52-20.632-16.69-25.61c-0.25-6.47,0.05-12.96-0.12-19.43c3.64-0.92,6.71,1.21,10.21,1.55
		c-0.55-4.26-2.38-8.24-4.06-12.15c-0.528-21.236,3.852-4.183,3.94-30.99c-3.47-3-6.46-6.6-7.97-10.98
		c-1.015-18.267,1.45-14.383,2.56-18.77C454.92,785.18,453.69,782.27,454.22,778.98z"/>
	<path d="M952.53,783.48c1.59-0.36,3.25-0.24,4.89-0.3c4.188,10.535,2.495,6.063,16.09,20.38c1.62,3.35-2.42,5.04-4.86,6.1
		c-4.72,3.91-8.68,8.68-13.18,12.85c-1.7,0.4-3.46,0.19-5.17,0.24c-2.858-3.442-6.868-12.091-5.9-22.4
		C950.921,783.285,945.922,790.372,952.53,783.48z"/>
	<path d="M1002.61,793.52c2.89-3.09,5.74-6.32,9.24-8.72c0.16,2.22-0.94,4.13-1.56,6.18c-0.103,18.687,5.716,18.899,3.04,27.47
		c-4.161,7.665-8.95,15.62-8.95,15.62c-0.25,3.27-0.28,6.58,0.02,9.86c1.77,3.83,4.08,7.41,5.77,11.28
		c0.17,4.51,0.14,9.05,0.01,13.57c-1.2,2.63-3.41,5.08-2,8.18c2.49-1.32,5.05-2.52,7.49-3.94
		c5.061,21.231-21.478,40.367-22.24,41.37c-3.45,0.7-7.27-0.05-10.45,2c-1.61-0.64-3.19-1.37-4.81-1.96
		c0.06-1.65-0.04-3.31,0.3-4.92c8.047-8.967,4.482,0.296,11.14-11.59c0.43-4.89-0.12-9.82,0.21-14.71c0.57-2.29,3.58-4.36,1.92-6.76
		c-2.54-3.56-0.55-8.9-4.66-11.49c-8.716,11.193-36.085,9.225-40.31,11.53c-18.027,5.573-22.866,12.1-36.73,31.53
		c-7.16,3.36-14.04,7.49-19.5,13.28c-1.11-4.54-1.46-9.52,1.03-13.67c0.344-10.163,16.602-32.109,16.69-38.63
		c-1.17,0.57-2.31,1.2-3.44,1.85c-1.49-1.4-2.68-3.63-4.96-3.64c-4.71-0.22-8.83-2.99-13.62-2.59c-3.42-3.19-3.11-8.48-0.92-12.28
		c1.55-2.73,0.49-5.94,1.2-8.84c4.769-5.67,5.355-4.302,10.11-4.1c3.32,1.92,7.36,1.41,10.76,3.16c4.5,0.39,8.82,1.86,12.37,4.75
		c1.47,10.315-9.15,11.542-9.68,21.54c1.53-0.21,3.48,0.2,4.45-1.36c3.884-4.55,11.705-9.328,12.98-3.61
		c-0.92,1.69-1.66,3.51-0.94,5.46c30.009-27.32,12.565-5.926,30.89-24.88c0.55-1.72,0.76-3.53,1.03-5.3
		c0.98,0.02,1.96,0.06,2.95,0.11c4.622,12.712,2.329,8.367,6.04,12.05c1.1-3.62,0.07-7.6,1.75-11.03c1.17-3.58,2.5-7.1,3.38-10.77
		c4.5-4.76,9.18-9.39,13.91-13.93c4.84-0.57,8.71-3.68,13.24-5.19c0.05-3.06-0.22-6.13,0.1-9.17
		C1001.05,798.75,1002.06,796.22,1002.61,793.52z"/>
	<path d="M763.07,803.17c3.949,4.321,12.02,0.647,30.231,2.32c24.055,2.211,77.746,10.998,101.065,14.87
		c9.828,1.632,18.263,3.703,25.144,11.179c0.39,1.69,0.22,3.46,0.3,5.2c0,0-34.6-6.371-56.007-9.97
		c-95.105-15.986-29.859-4.158-103.862-11.926C744.051,813.176,763.984,804.17,763.07,803.17z"/>
	<path d="M700.54,804.84c37.887,22.646-59.418,4.544-140.65,24.218c-1.234,0.299-17.459,4.037-17.5,2.232
		c-0.272-11.806-3.266-15.22,74.768-22.67C644.817,805.982,672.539,804.289,700.54,804.84z"/>
	<path d="M778.575,840.981c-2.243,7.497-6.966,4.54-16.355,4.205c-10.639-0.38-20.181,3.819-21.534-9.534
		c-0.135-1.332,0.353-12.266,1.765-12.311C775.058,822.294,785.4,818.172,778.575,840.981z"/>
	<path d="M645.791,824.718c5.177-0.673,19.741-4.583,26.496,1.738c3.828,3.583,5.632,17.437-5.249,18.189
		c-12.864,0.889-37.634,12.786-32.495-16.338C635.607,822.27,641.705,825.249,645.791,824.718z"/>
	<path d="M802.14,824.489c18.082,5.71,30.598-4.77,27.37,17.381c-2.369,4.626-0.538,9.821-10.129,9.165
		c-8.344-0.57-18.519-1.635-26.232-5.018C785.12,842.494,791.094,821.001,802.14,824.489z"/>
	<path d="M688.79,823.19c12.14,0.11,24.28,0.11,36.42,0c0.86,0.86,1.73,1.72,2.6,2.6c-0.15,6.31-0.03,12.63-0.07,18.94
		c-13.83,0.02-27.65,0.02-41.47,0c-0.06-6.31,0.06-12.63-0.08-18.94C687.05,824.91,687.91,824.05,688.79,823.19z"/>
	<path d="M619.051,825.868c8.664-1.395,8.142,4.016,9.645,10.918c1.818,8.352-0.799,13.182-21.793,18.002
		c-9.433,2.166-7.983-1.611-14.678-14.157C584.67,826.474,604.358,828.234,619.051,825.868z"/>
	<path d="M848.963,830.318c18.247,2.834,20.872,2.91,24.174,5.214c6.229,4.35,3.398,14.377-0.248,19.462
		c-3.358,4.684-5.655,3.169-10.827,1.887c-24.065-5.965-23.902-4.123-23.876-11.05C838.216,837.672,840.521,829.007,848.963,830.318
		z"/>
	<path d="M574.987,834.226c4.649,2.519,13.765,19.508,10.722,22.514c-1.615,1.595-18.719,7.674-19.721,8.11
		c-4.703-1.645-21.007-19.383-21.489-20.41c-3.076-6.551,8.531-4.787,17.875-7.517C565.853,835.907,570.898,832.011,574.987,834.226
		z"/>
	<path d="M893.812,875.585C914.148,896.197,759.99,920.7,754.69,910.31c-26.284-51.498-19.875-54.298-40.107-18.995
		c-12.578,21.947-6.94,22.434-28.914,20.183c-49.846-5.107-80.777-15.091-110.265-29.627
		C518.163,853.655,856.681,837.948,893.812,875.585z"/>
	<path d="M483.78,867.76c6.412-4.069,3.591-3.159,8.81,0.63c4.48,1.03,8.57,3.52,13.33,2.95c3.04,1.16,6.26,1.73,9.49,2.28
		c6.423,5.651,20.072,11.434,20.26,28.9c-0.73,0.7-1.45,1.41-2.15,2.15c-4.33,0.26-9.04-0.78-12.78,1.99
		c-2.27-1.95-4.6-4.08-5.3-7.11c-1.59-0.55-3.13-1.23-4.46-2.24c-2.78,3.03-7.16,1.8-10.78,1.86c-3.46-1.61-6.81-3.48-10.22-5.18
		c-3.54-3.53-3.75-8.98-6.1-13.22C483.54,876.44,483.83,872.09,483.78,867.76z"/>
	<path d="M975,881.04c3.59-0.08,4.88-4.65,8.72-4c-0.685,14.996-3.893,31.75-17.67,35.83c-4.46-1.84-9.3-2.8-13.27-5.7
		c-2.45,2.44-4.78,4.99-7.32,7.33c-3.47,1.31-6.53-1.06-9.45-2.55c-2.92-1.9-6.52-1.05-9.78-1.2
		c-1.168-11.882,9.697-20.058,20.36-26.09c4.44-3.02,10.37,0.19,14.75-3.28c3.19,0.73,7.02-1.21,9.64,1.27
		C972.16,881.75,973.54,881.27,975,881.04z"/>
	<path d="M727.76,895c-0.875,12.556-5.308,629.472-9.896,631.167c-2.15,0.794-30.047-13.645-32.942-24.872
		c-0.926-3.594-0.478-1.746,2.838-51.294c7.085-105.886-13.271-237.918-17.875-376.076c-1.779-53.404,9.417-67.261,50.794-179.955
		c0.647-1.763,1.363-6.165,2.646-7.426C728.827,881.14,728.267,887.719,727.76,895z"/>
	<path d="M733.685,884.64c4.535,4.204,34.715,93.613,42.295,108.32c39.931,76.258-26.816,193.707-13.69,494.02
		c2.29,4.8,1.51,10.36,1.22,15.53c-2.462,2.631-16.396,13.085-20.83,15.18c-5.819,4.319-10.323,11.89-13.44,11.1
		c-5.917-3.308-4.061-2.047-3.086-37.913C732.5,1257.372,726.74,894.684,733.685,884.64z"/>
	<path d="M450.27,907.05c-0.22-2.69,2.75-4.05,5.06-4.03c0.75,4.18,4.42,6.67,7.26,9.47c7.05,2.59,15.98,1.29,21.43,7.44
		c2.6,1.94,1.55,5.72,3.6,8.08c-2.27,2.98-1.26,7.15-3.16,10.38c-0.39,3.33-1.35,6.48-2.62,9.58c-0.26,7.56,0.03,15.14-0.12,22.71
		C476.608,974.451,450.27,968.5,450.27,907.05z"/>
	<path d="M562.501,918.172c31.477,32.425,11.588,35.38,8.129,28.258c-2.14-5.26-5.52-9.84-8.62-14.48
		c-3.85-1.48-7.66-4.24-8.55-8.51c-2.81-0.08-5.22-1.47-7.69-2.6c-5.84-0.17-11.7-0.19-17.53,0.01
		c-68.422,36.362,3.982,109.834,7.55,145.18c0.22,2.18,0.78,4.3,1.79,6.27c0.28,3.36,0.43,6.85-0.09,10.2
		c-5.166,5.781-5.469,5.084-9.21,2.18c-0.09-4.43,0.61-9.09-1.79-13.07c-4.343-39.351-53.246-72.049-34.088-131.372
		C503.984,904.37,545.268,900.42,562.501,918.172z"/>
	<path d="M956.506,1004.847c-6.995,25.963-29.134,74.072-32.4,83.006c-1.668,4.562-1.412,7.503-9.876,0.837
		c-6.602-5.2,89.668-166.488-3.28-161.36c-2.07,1.92-4.39,3.46-6.88,4.76c-3.093,2.868-12.452,12.34-11.99,16.33
		c4.166,0.903,3.852,1.013,10.06,10.07c0.23,3.42,0.19,6.87,0.03,10.3c-1.35,3.48-3.35,6.75-6.15,9.26
		c10.689,9.756,8.599,20.26,5.27,24.2c-1.96,0.99-3.82,2.16-5.44,3.65c4.63,4.06,9.44,9.51,8.44,16.16
		c1.982,7.729-13.125,11.789-14.35,13.85c3.13,2.97,6.58,7.12,5.67,11.73c-6.514,15.079-2.398,11.505-11.59,13.91
		c1.33,2.14,2.61,4.36,3.63,6.7c0.13,3.39,0.38,6.87-0.16,10.23c-20.963,23.477-41.411-12.555-13.38-20.19
		c-2.42-2.95-3.6-6.64-5.5-9.9c-1.25-1.91,0.93-3.7,1.13-5.6c0.66-6.23,7.34-8.6,12.4-10.51c-11.14-10.188-3.718-16.991-1.6-22.72
		c1.03-0.35,2.06-0.72,3.1-1.11c0.48-1.49,0.12-2.97-1.14-3.92c-3.79-3.6-4.33-9.04-6.38-13.6c2.23-4.57,3.92-9.7,7.95-13.05
		c-1.56-1.57-3.34-2.84-5.46-3.48c-0.66-2.7-2.98-4.37-4.31-6.63c-0.493-7.729,0.61-16.03,13.618-19.614
		c-1.711-0.946-2.621-2.968-2.685-4.923C884.047,907.177,988.568,885.838,956.506,1004.847z"/>
	<path d="M997.27,922.29c1.21-2.93,3.46-5.14,5.68-7.32c0.88,0.82,1.78,1.65,2.71,2.46c0.64,3.71-0.26,7.2-1.76,10.56
		c0.48,4.83-2.01,8.99-2.35,13.73c-5.205,10.41-19.08,33.992-30.33,35.09c-7.853-4.153-4.073-7.742-3.64-9.19
		c2.487-9.615-0.838-8.888,2.08-13.65c-2.18-2.16-1.23-5.34-1.39-8.05c0.67-4.23-3.24-7.12-4.13-10.92c1.15-3.66,3.23-7.1,6.37-9.4
		c2.96-0.59,5.71-1.78,8.53-2.83C981.257,922.153,990.264,927.825,997.27,922.29z"/>
	<path d="M563.7,948.53c-0.94,0.8-1.84,1.64-2.74,2.48c-19.009-19.858-48.719-8.112-31.002,46.128
		c7.073,21.655,44.108,85.508,33.732,85.582c-15.448,0.121-10.676,3.387-16.693-12.809c-19.115-51.449-49.904-101.291-32.713-128.03
		C530.814,916.172,566.833,931.965,563.7,948.53z"/>
	<path d="M937.572,1007.969c-6.654,21.082-30.529,77.335-31.792,78.661c-3.49-0.22-6.77,0.78-9.87,2.21
		c-19.665-1.531,68.925-119.773,23.619-143.399c-4.23-2.206-9.055-2.994-13.201,0.031c-8.623,6.291-9.499-0.368-6.215-4.443
		C913.305,924.658,962.519,928.928,937.572,1007.969z"/>
	<path d="M568.66,953.67c2.75-0.7,6.38-1.22,8.39,1.31c1.78,1.99,4.87,2.2,6.38,4.5c1.158,7.113,7.221,10.971-5.42,22.48
		c13.839,12.418,1.274,20.309,0.11,26.66c2.38,1.73,5.11,2.88,7.52,4.58c-0.08,3,0.4,5.98,1.64,8.74c-0.7,2.14-1.24,4.33-1.92,6.49
		c-1.34,1.83-4.1,3.35-2.99,6.01c0.99,0.39,2,0.77,3.03,1.13c2.088,6.618,12.837,9.99,0.53,24.51c1.79,2.54,4.75,2.9,7.56,3.51
		c8.951,8.523,6.728,15.401,3.52,21.43c-6.62,6.6-18.46,4.32-23.16-3.49c-0.21-3.43-0.2-6.89-0.01-10.32
		c1.03-2.71,2.64-5.16,4.16-7.61c-16.65-2.145-13.68-12.485-13.59-20.17c1.81-1.85,4.21-3.37,5.36-5.71
		c0.531-7.534-11.745-3.011-9.34-19.42c0.98-2.16,1.55-4.46,2.17-6.73c1.01-1.31,2.23-2.44,3.4-3.6c-2.48-2.52-5.09-4.91-7.49-7.49
		c-1.3-5.15,0.58-10.07,2.12-14.91c0.97-1.34,2.4-2.34,3.17-3.82c0.395-2.102-6.492-10.262-7.51-11.98c0.01-2.05-0.5-4.3,0.33-6.2
		c1.62-1.81,3.15-3.7,4.05-5.98C562.12,954.46,566.09,955.25,568.66,953.67z"/>
	<path d="M459.72,975.29c4.81-1.32,6.39,4.37,10.28,5.77c27.573,13.264,8.059,4.138,24.64,37.3c10.892,15.182,8.856,8.601,9.04,16.2
		c-0.87,0.72-1.7,1.48-2.51,2.27c-0.552-0.492-12.525-5.525-16.56-6.5c-6.392-5.332-5.978-2.554-13.94-11.91
		c-3.6-7.82-8.96-15.51-8.49-24.45c-0.08-2.24-2.42-3.7-2.42-5.96C459.67,983.77,459.81,979.53,459.72,975.29z"/>
	<path d="M994.43,974.94c8.449,3.841-4.695,30.514-9.1,39.48c-2.13,2.59-4.93,4.69-6.05,7.99c-3.67,4.22-7.72,8.17-11.86,11.93
		c-3.58,1.57-6.87,3.97-10.75,4.68c-0.64-1.75-1.43-3.4-2.18-5.07c0.452-1,10.555-20.193,9.95-29.65c1.52-2.7,1.56-5.83,2.12-8.79
		c1.87-2.07,3.84-4.08,5.97-5.89C992.622,985.155,990.269,980.442,994.43,974.94z"/>
	<path d="M448.01,1023.95c-0.06-2.45,1.81-3.94,3.58-5.26c0.86,4.38-1.53,10.06,2.41,13.35c16.435,16.713,8.32,10.438,14.14,21.2
		c-0.3,5.1,1.77,11.3-2.22,15.41c3.27,0.67,6.6,0.65,9.93,0.64c0.38,15.773-7.833-4.872,5.72,29.01
		c1.927,12.001-4.466,18.845-6.39,21.89c-2.22,1.26-4.34,2.72-6.06,4.64c-4.29-2.12-8.22-5.07-10.94-9.03
		c0.354-4.088,8.227-12.154-7.75-13.2c-2.035-2.476-16.258-13.695-14.01-26.28c1.206-2.053,2.873-14.367,8.58-19.32
		c2.37-2.12,3.91-5.06,4.85-8.05c-0.62-3.26-4.53-4.57-6-7.43c-0.21-3.68-0.21-7.37,0-11.03
		C445.21,1028.23,448.12,1026.93,448.01,1023.95z"/>
	<path d="M1017.08,1030.68c0.75,1.9,1.68,3.73,2.57,5.59c0.2,3.81,0.2,7.65,0,11.47c-2.26,5.44-6.09,10.38-7.5,16.06
		c5.078,5.409,10.107,15.682,9.98,28.97c-4.384,8.387-0.466,8.171-10.66,17.62c-9.939,2.352-7.75,4.96-15.3,0.66
		c-0.7,2.94-0.72,6.08,1.17,8.62c3.08,5.38-2.82,10.07-3.94,15.15c-1.63-0.08-3.28,0.04-4.86-0.31
		c-13.615-13.135-7.561-10.267-12.69-19.75c1.109-31.308,11.838-22.866,12.48-41.55c2.36,0.1,4.79-0.24,7.13,0.3
		c1.37,1.21,2.61,2.54,3.98,3.81c1.72-3.6-1.94-5.31-3.59-7.8c-0.22-3.43-0.2-6.89-0.02-10.31c1.77-4.81,5.07-9.11,9.41-11.84
		C1013.412,1044.371,1012.22,1036.833,1017.08,1030.68z"/>
	<path d="M476.14,1039.79c0.97-0.93,1.91-1.87,2.84-2.82c3.63,4.34,9.25,6.91,14.93,6.36c3.05,1.17,6.27,1.69,9.5,2.3
		c1.8,1.54,3.73,2.94,5.76,4.19c1.19,2.34,3.32,4.15,4.4,6.49c0.749,12.839,11.721,13.753,3.67,24.91
		c-16.634,0.049-10.04,0.868-22.59-7.91c-4.23-0.94-4.83-5.65-7.44-8.41c-1.84-3.43-7.38-13.88-8.2-15.82
		C477.62,1046.09,478.6,1042.28,476.14,1039.79z"/>
	<path d="M971.46,1046.41c2.65-2.01,4.37-5.76,8.2-5.4c0.16,3.19,0.48,6.54-1.22,9.42c-2.355,15.954-10.88,28.884-28.65,36.74
		c-3.43,0.17-6.88,0.18-10.3-0.01c-1.54-0.81-3.32-2.28-3.32-4.16c2.38-6.38,4.52-12.86,6.5-19.38c3.02-3.04,4.04-7.68,7.92-9.9
		c1.99-0.94,3.82-2.13,5.43-3.64c2.78-2.51,6.89-0.38,10-2.03C967.75,1047.25,969.65,1046.98,971.46,1046.41z"/>
	<path d="M492.99,1085.14c9.736,7.914,13.648,2.462,24.72,10.11c-0.12,3.78-0.12,7.66,1.78,11.07c1.02,7.8,4.33,15.03,8.21,21.81
		c-0.55,0.94-1.39,1.68-2.19,2.43c-2.377,1.094-18.501-4.712-22.18-14.89c-6.297-8.508-7.912-4.535-9.1-13.69
		C494.546,1095.348,486.492,1089.472,492.99,1085.14z"/>
	<path d="M548.08,1084.83c1.34,0.79,2.66,1.63,3.99,2.47c1.01-0.72,2-1.45,3-2.16c3.48,3.62,8.15,5.73,12.19,8.66
		c1.71,3.08,3.49,6.17,4.9,9.41c0.2,3.18,0.19,6.39,0,9.58c-2.54,5.03-4.58,10.57-9.11,14.22c-1.57,2.48-4.66,1.55-7.1,1.77
		c-2.61-0.09-4.68,1.71-6.92,2.75c-5.403-3.456-15.146-2.654-20.17-14.42c-1.681-2.493-1.708-15.734-0.01-18.23
		C534.43,1087.292,542.433,1088.183,548.08,1084.83z"/>
	<path d="M881.87,1093.87c1.403-0.961,22.893-6.655,30.3,13.34c0.16,3.85,0.17,7.72,0,11.58c-2.47,7.48-8.99,12.45-16.08,15.22
		c-3.75,2.64-7.23-1.7-11.07-1.25c-12.876,1.337-15.044-14.522-17.11-17.78C871.542,1109.002,868.539,1100.331,881.87,1093.87z"/>
	<path d="M947.28,1098.69c4.95,0.38,7.57-5.74,12.44-5.66c-0.718,13.123-17.237,34.136-27.59,39.11c-1.99,2.3-4.71,3.17-7.69,2.54
		c-0.75-0.87-1.51-1.7-2.28-2.52c4.29-4.36,0.27-11.02,3.18-15.88c1.65-3.1,0.52-6.7,1.01-10.02
		C931.215,1095.315,941.802,1094.804,947.28,1098.69z"/>
	<path d="M436.35,1107.5c5.42,0.57,8.1,6.46,13.06,8.21c22.539,19.061,3.771,25.192,2.4,42.26c-0.079,1-3.628,12.43-0.34,18.28
		c2.534,21.249,11.412,29.087,22.25,33.28c1.06,4.09,0.89,8.69-2.46,11.7c-4.34-0.06-8.69,0.2-13.02-0.08
		c-2.47-1.23-5.01-2.23-7.73-2.77c-4.53-4.08-8.53-8.72-13.05-12.81c-2.71-0.6-5.65-0.94-7.4-3.37c2.19-3.66,5.95-8.17,3.33-12.54
		c-3.67-5.82-4.42-12.83-7.54-18.89c-0.29-8.45,0.04-16.92-0.15-25.37c1.96-0.11,3.91-0.18,5.88-0.22c0.2,2.11,0.17,4.49,1.7,6.18
		c0.08-4.47,4.92-9.43,0.96-13.37c1.38-1.87,2.41-3.97,3.33-6.08c0.48-5.35-0.02-10.75,0.23-16.11
		C435.464,1112.875,431.833,1112.499,436.35,1107.5z"/>
	<path d="M488.27,1109.05c9.928-0.615,10.687,19.406,14.55,25.92c0.56-0.49,1.7-1.46,2.27-1.94c1.64,1.84,3.7,3.35,5.06,5.44
		c0.2,5.43,0.16,10.88,0.03,16.32c-1.65,4.66-4.91,8.51-8.71,11.59c-3.319,0.916-15.056,6.245-18.04-5.29
		c-6.739,0.921-5.646,5.671-9.27,13.91c1.33,5.01,5.66,10.35,2.25,15.43c-0.36,3.7-1.48,7.17-3.04,10.54
		c-0.96-0.14-1.91-0.31-2.84-0.51c-2.73-2.58-5.42-5.2-7.92-7.99c-1.25-4.68-2.67-9.34-4.75-13.71
		c-1.128-9.445,3.535-28.605,7.21-33.75c2.36-2.61,4.97-4.99,7.41-7.52c2.95-3.41,8.08-3.57,11.04-6.98
		c1.97-2.04,4.08-3.95,5.96-6.07C492.082,1118.833,488.562,1117.353,488.27,1109.05z"/>
	<path d="M962.58,1111.24c1.06-0.01,2.13-0.02,3.21-0.01c0.37,3.16-0.52,6.11-2.27,8.74c1.52,2.63,2.43,5.49,3.05,8.46
		c14.304,17.639,14.973,9.782,28.76,25.15c2.06,4.24,4.23,8.43,6.3,12.67c1.52,12.299,3.445,12.516,1.37,16.76
		c-2.63,4.09,0.08,9.31-2.52,13.46c-0.39,3.56-2.64,6.62-5.72,8.32c-3.72,0.66-4.76-3.64-5.2-6.42c-1.9-4.19-3.65-8.61-6.93-11.94
		c-1.567-4.509,2.794-16.433-8.24-11.5c-10.63,2.677-21.542-3.655-22.02-24.05c3.31,0.42,6.11,3.36,9.59,2
		c-2.28-3.89-4.1-7.96-4.38-12.5C952.106,1131,961.534,1113.807,962.58,1111.24z"/>
	<path d="M1017.97,1121.04c5.192,0.11,5.134-4.887,12.16,0.94c-3.56,3.18-6.64,6.86-10.3,9.93c0.233,6.118-1.886,5.682,3.75,18.39
		c0.35,3.46-0.01,6.99,0.73,10.44c3.13,0.6,6.33,0.52,9.51,0.55c-0.09,1.71,0.09,3.48-0.32,5.19c-1.05,1.15-2.2,2.21-3.3,3.32
		c0.238,15.014,1.17,10.745-6.01,33.28c-0.08,1.97,2.3,2.95,3.3,4.49c0.4,1.56,0.24,3.21,0.34,4.83
		c-8.455,1.798-10.531,15.024-26.85,16.36c-4.984-0.728-7.402,6.387-16.58-2.05c1.32-2.92,1.7-6.09,2.15-9.22
		c3.57-4.9,9.81-6.09,14.68-9.22c6.261-10.435,6.111-12.212,6.37-12.7c0.43-3.1,0.92-6.11,2.58-8.81
		c0.806-20.254-0.3-17.689-1.72-21.07c-0.39-6.45-3.8-12.38-7.79-17.3c-0.71-2.53-1.51-5.02-2.54-7.42
		c1.26-3.24,3.06-6.25,4.54-9.39C1006.79,1126.96,1011.27,1121.41,1017.97,1121.04z"/>
	<path d="M577.66,1122.98c4.58,0.309-4.115,57.363-5.863,63.447c-2.946,10.253-11.905,8.788-15.408,8.863
		c-0.12-3.01-0.31-6.03-0.06-9.02c7.742-16.8,5.186-36.75,6.18-52.75C565.194,1130.778,573.791,1122.721,577.66,1122.98z"/>
	<path d="M543.7,1135.39c3.72-0.25,7.88-0.9,10.52,2.36c0.307,53.438,0.187,19.715-2.58,46c-1.89,3.68-3.5,7.56-5.91,10.96
		c-1.8,0.03-3.6,0.03-5.4,0.01c-5.331-4.518,0.529-7.858,4.12-26.5c1.67-2.978,2.658-14.961-0.62-21.43
		C543.58,1142.99,543.85,1139.18,543.7,1135.39z"/>
	<path d="M871.78,1137.77c1.55-0.93,2.85-3.2,4.92-2.44c4.47,2.38,9.64,3.94,12.81,8.16c0.96,4.44-0.96,9.39,1.48,13.51
		c1.55,2.65,0.06,5.94,1.34,8.7c2.25,4.8,5.25,9.32,6.34,14.59c2.83,5.14,4.56,11.04,8.75,15.3c0.59,1.5,0.26,3.2,0.4,4.81
		c-4.56,1.07-8.33,5.66-13.3,4.13c-1.97-1.75-3.89-3.69-4.83-6.19c-1.38-3.17-5.6-4.53-5.68-8.3c-0.03-2.45-1.97-3.9-3.36-5.62
		c-0.423-1.182-2.303-6.365-6.6-27.37C871.333,1150.177,871.734,1159.405,871.78,1137.77z"/>
	<path d="M520.36,1141.21c15.337-10.716,17.686-0.081,19,2.34c1.67,4.44-1.08,8.65-1.97,12.92c-2.5,2.77-5.15,5.42-7.92,7.92
		c-3.84,0.74-7.34,3.07-11.38,2.38c-1.9,0.27-2.93-1.51-3.96-2.75c1.31-1.7,3.33-2.93,3.98-5.05c0.59-3.55-0.75-7.45,1.2-10.69
		C520.38,1146.07,520.24,1143.58,520.36,1141.21z"/>
	<path d="M904.56,1137.5c10.061-5.046,5.968,34.39,18.72,48.15c1.32,2.62,3.46,5.22,2.98,8.36c-0.21,2.43-2.28,5.31-5.01,4.77
		c-9.199-5.941-8.845-14.101-14.6-22.36c-2.06-6.61-3.94-13.34-6.8-19.66c-0.21-4.76-0.19-9.54-0.01-14.29
		C901.08,1140.54,902.87,1139.03,904.56,1137.5z"/>
	<path d="M928,1139.12c6.92,1.85,12.76,8.49,11.79,15.92c0.56,3.46,1.95,7.98,5.96,8.58c0,1.02,0.02,2.05,0.05,3.1
		C914.525,1165.277,915.417,1144.142,928,1139.12z"/>
	<path d="M373.051,1167.819c26.137,9.159,25.402,31.665,36.886,54.87c25.94,52.413,91.808,65.884,135.924,32.478
		c-2.225,31.343-108.199,62.794-138.218-17.57c-27.167-72.729-73.26-35.446-67.552-7.697c5.403,26.266,50.663,61.839,33.796,90.971
		c-6.722,11.61-23.04,15.383-34.993,10.485c-24.077-9.866-25.236-51.466-42.183-46.641c-11.937,3.398-4.389,25.854-17.026,27.885
		c8.825-10.48-0.501-29.591,10.807-38.29c5.704-4.387,19.121-5.441,28.862,14.025c5.279,10.549,9.981,27.989,24.387,28.599
		c16.117,0.682,17.251-12.605,16.419-23.703c-25.197-53.461-68.735-103.065-15.787-124.428
		C353.257,1165.217,363.972,1164.637,373.051,1167.819z"/>
	<path d="M539.77,1167.36c0.54,4.34-2.18,8.05-2.17,12.39c-1.59,3.78-5.84,5.43-9.33,7.13c-1.99-3.43-5.18-7.11-3.78-11.34
		C536.429,1163.277,535.094,1163.766,539.77,1167.36z"/>
	<path d="M1131.81,1193.864c14.83,33.556-21.767,66.943-35.371,83.548c-27.028,32.991-5.463,50.717,7.202,47.698
		c19.362-4.615,12.176-36.162,33.491-44.299c33.071-12.624,15.113,46.81,39.358,40.918c-2.773,4.882-10.497,4.314-14.653,0.539
		c-5.508-5.003-20.42-55.528-39.924-3.385c-18.772,50.184-76.037,18.071-43.604-30.284c11.796-17.587,31.981-32.72,35.632-54.873
		c5.791-35.14-34.135-44.403-47.194-22.601c-3.367,5.62-8.958,33.075-17.571,50.494c-36.272,73.362-142.698,16.032-136.111-11.901
		c13.966,16.032,33.811,26.826,54.859,29.838c71.578,10.243,82.458-47.056,88.607-66.202
		C1075.268,1155.012,1120.59,1168.477,1131.81,1193.864z"/>
	<path d="M926.21,1177.11c-0.21-1.75,1.29-3.06,2.69-3.77c11.846,5.984,9.722,2.718,12.66,6.11c0.42,3.05,0.13,6.16,0.15,9.24
		c-1.35,0.94-2.62,2.5-4.46,2.12c-2.13-1.57-4.13-3.32-6.42-4.64C929.47,1183,925.42,1180.92,926.21,1177.11z"/>
	<path d="M490.64,1181.16c13.28,0.341,5.872,25.093,21.378,39.121c15.94,14.42,44.481,6.663,45.482,7.179
		c0.7,0.76,1.96,1.31,2.12,2.46c-7.882,19.504-45.371,21.615-64.518,4.529C478.535,1219.667,475.987,1180.784,490.64,1181.16z"/>
	<path d="M507.74,1185.77c4.09-1.15,7.47-4.05,11.66-4.9c2.476,23.746,20.461,30.421,43.86,20.48c2.16-0.23,4.33-0.11,6.5-0.11
		c-0.08,2.4,0.25,4.86-0.27,7.24c-19.378,19.582-10.899,9.925-23.71,16.64c-3.49,0.16-7.4,0.87-10.39-1.36
		c-11.912-3.597-21.061-3.227-25.9-19.4C506.15,1198.75,508.39,1191.93,507.74,1185.77z"/>
	<path d="M948.24,1187.28c2.42-0.05,4.85-0.05,7.29,0.04c0.69,0.72,1.4,1.44,2.14,2.16c-0.71,27.883-9.833,21.589-12.27,30.91
		c-2.38,0.71-4.18,2.39-6.01,3.96c-12.851,2.587-10.67,9.429-38.81-2.02c-2.91-2.4-5.47-5.2-8.09-7.9c-0.89-1.65,0.01-3.52,1.44-4.5
		c1.4-1.59,2.71,1.27,4.3,1.26c4.11,0.16,8.42-0.61,11.98,1.97c4.12-0.1,8.76,1.12,12.4-1.37c2.12-0.95,4.62-0.54,6.8-1.38
		c3.27-3.19,7.8-4.62,10.6-8.37c2.59-1.78,1.36-5.52,3.53-7.56C945.54,1192.37,946.58,1189.63,948.24,1187.28z"/>
	<path d="M980.15,1197.23c0.07,3.46,0.92,7.42-1.43,10.36c-2.09,2.78,0.07,6.63-1.72,9.52c-11.197,21.095-12.254,33.845-50.76,32.03
		c-5.583-2.412-18.238-5.868-27.72-16.66c-0.23-1.13-0.35-2.26-0.37-3.39c5.363-0.04,20.287,12.135,36.46,4.67
		c2.63-1.48,6.44-0.03,8.4-2.76c1.5-2.09,4.23-1.84,6.45-2.58c11.049-8.264,12.319-25.446,14.04-28.56
		c0.59-3.43,0.15-6.95,0.19-10.41C978.317,1188.731,973.693,1181.625,980.15,1197.23z"/>
	<path d="M426.36,1220.72c13.34,10.535,5.159,10.385,23.83,12.696c5.836,0.722,5.792-2.796,6.783-4.398
		c2.085-3.372,8.4-1.22,11.688-3.337c21.571-5.521,7.415,20.108,48.89,27.76c1.66,1.14,2.39,2.91,2.41,4.9
		C457.365,1278.564,423.469,1232.632,426.36,1220.72z"/>
	<path d="M1025.43,1238.55c1.06-4.34,5.08-6.84,8.06-9.83c2.51,5.73-1.96,10.7-4.24,15.62c-7.458,8.336,4.483-0.305-19.86,19.98
		c-11.037,2.788-16.346,7.614-35.16,6.86c-18.412-5.851-23.664-5.566-29.92-10.49c-0.06-1.07-0.11-2.12-0.16-3.16
		c16.287-3.131,25.587-11.266,28.6-17.81c2.76-1.58,5.62-3.01,8.51-4.35c3.3-0.12,7.05-0.91,9.85,1.34c3.33,1.25,7.1,0.21,10.6,0.54
		c0.595,6.083-2.446,9.187,9.36,10.05c2.597,0.341,9.987-1.937,11.47-7.84C1023.49,1239.14,1024.45,1238.84,1025.43,1238.55z"/>
	<path d="M550.7,1259.03c0.93,0.11,1.85,0.28,2.77,0.51c3.21,2.77,5.79,6.24,9.19,8.79c8.909,3.157,15.305,12.649,22.822,18.119
		c34.802,25.327,11,7.766,40.057,79.821c0.421,4.664,35.368,105.166,37.47,110.7c8.236,14.493,4.939,17.291,2.32,19.91
		c-2.34-1.85-5.41-1.95-8.04-3.15c-24.108-7.335-10.464,5.698-60.653-75.01c-14.983-24.094-26.698-40.778-29.327-47.01
		c0,0-12.306-19.787-16.57-25.36c-15.949-25.917-7.635-11.025-3.02-78.44C547.21,1264.56,549.74,1262.01,550.7,1259.03
		 M558.13,1274.66c63.575,151.149,89.69,199.578,94.44,210.1c1.75,0,3.49-0.02,5.25-0.03c0.11-2.48-0.17-4.91-1.31-7.11
		c-0.705-7.107-20.341-61.787-20.69-62.787C589.681,1282.569,609.573,1314.314,558.13,1274.66z"/>
	<path d="M897.94,1265.02c2.03-0.81,3.53-2.46,5.04-3.97c1.03,0.95,2.09,1.9,3.21,2.8c3.236,64.615,9.836,64.415,5.13,76.54
		c-6.313,7.851-51.604,82.98-52.05,83.98c-3.6,3.872-37.596,60.618-39.693,62.3c-10.164-1.296-22.712,4.321-31.818,8.47
		c-2.45,0.23-4.92,0.08-7.37,0.149c-0.592-14.906,58.905-163.641,66.21-189.779c1.47-1.81,3.15-3.589,5.349-4.49
		C863.686,1296.217,884.44,1270.815,897.94,1265.02 M898.38,1277.38c-1.158,1.069-91.136,199.996-89.363,202.919
		c7.39,12.181,26.499-28.832,80.08-113.82c20.628-32.719,20.093-29.857,13.972-71.762
		C902.707,1292.235,903.917,1275.931,898.38,1277.38z"/>
	<path d="M640.35,1300.26c1.228-2.651,2.307-4.423,4.254-6.643c41.699,39.54,33.373,31.896,35.993,206.325
		c-6.041-8.314-9.139-18.346-12.138-28.176c-47.435-155.484-43.501-124.485-32.053-156.42
		C638.013,1310.864,641.404,1305.121,640.35,1300.26 M674.144,1422.295c0.617-16.888-0.739-13.221-1.768-72.365
		c-0.158-9.105,1.004-18.229-22.266-39.036C649.893,1311.9,672.76,1460.176,674.144,1422.295z"/>
	<path d="M795.34,1304.34c1.737-4.581,6.269-7.866,9.644-11.19c0.297-0.292,14.65,31.813,15.465,35.572
		c4.57,21.068-0.205,27.033-42.803,149.62c-0.944,2.717-3.843,6.024-5.954,4.072c3.346-189.025-1.513-146.369,13.638-166.064
		C787.2,1311.26,792.31,1308.6,795.34,1304.34 M802.182,1323.988c-29.366,132.606-23.916,96.248-24.462,134.612
		c0.43,0.02,1.3,0.07,1.73,0.09c6.823-16.518,40.4-117.69,40.4-117.69c-0.402-1.02-10.241-28.177-12.24-29.6
		C803.25,1310.158,802.433,1322.856,802.182,1323.988z"/>
	<path d="M296.53,1307.16c0.95,0.02,1.91,0.05,2.87,0.1c1.898,6.238,7.999,11.09,4.15,24.604
		c-5.519,19.379-13.39,18.874-0.241,47.998c24.164,53.524,29.644,113.817-10.799,157.648c-23.983,25.992-63.967,32.861-64.25,95.23
		c83.97,0.423,49.311,110.568,55.622,177.796c18.659,198.739,259.258,326.121,311.862,339.579
		c90.692,23.202,98.114-38.75,176.956-3.795c146.554,64.976,371.926-170.121,397.89-301.675c9.953-50.429-4.17-89.062-0.17-174.295
		c16.809-38.475,29.359-32.64,71.31-37.61c1-0.119,2.592-40.214-31.753-72.03c-36.743-34.037-104.249-54.643-56.426-163.09
		c16.643-37.741,2.504-38.535-0.06-53.27c-3.3-5.57-1.2-12.36-1.67-18.49c1.2-0.95,2.3-2.01,3.38-3.09
		c7.964,29.751,51.37,7.274,66.055,69.171c1.914,8.066,2.937,16.849,5.32,25.003c6.049,20.7,9.276,1.258,10.999-1.742
		c4.831-8.414,20.907-19.823,23.868-31.538c3.305-13.074-10.638-29.737,0.487-49.265c0.001-0.001,7.199-12.762,7.199-12.763
		c6.849-6.391,4.443,13.545,5.796,17.661c6.754,20.547,28.805,11.169,31.616,47.583c2.293,29.701-5.059,47.096,27.099,80.217
		c52.621,54.197,45.682,45.608,56.875,62.073c65.347,96.124,45.623,215.051-1.813,239.409c-6.72,0.54-12.63,4.23-19.32,4.88
		c-1.469,0.966-17.423,3.257-20.51,5.03c-4.68,1.04-10.1-1.25-14.14,2.13c-3.93,0.01-8.15-0.13-10.96,3.12
		c4.145,57.57-8.077,98.172-9.32,100.69c-14.703,117.448-280.259,471.544-524.576,411.354
		c-87.815-21.634-50.904-16.167-125.547-0.374c-232.456,49.184-549.342-225.808-531.288-504.67c1.99-30.731-5.567-5.564-58.43-22.47
		c-52.332-25.751-72.661-131.113-3.09-236.894c44.721-67.996,80.87-83.231,77.037-138.834c-0.324-4.694-8.693-33.937,7.423-46.552
		c25.476-19.941,10.566-21.508,14.568-31.154c-0.125,0.302,8.13,9.84,8.856,11.132c8.648,15.39-6.773,25.555,4.371,40.914
		c9.235,12.728,30.838,19.763,44.326,57.36c1.698,4.733,2.137,12.856,4.9,16.698c16.14-8.918-12.187-66.322,15.121-91.996
		c16.442-15.456,24.149-7.018,45.328-28.454C293.72,1315.83,295.79,1311.7,296.53,1307.16 M268.61,1369.22
		c-3.453,11.545-6.456,8.792-7.077,34.701c-1.854,77.373-51.383,103.416-48.612,75.427c4.872-49.226-37.232-90.992-39.099-91.656
		c-14.37,118.324-39.618,76.291-96.542,184.649c-5.61,6.568-33.478,71.011-25.141,117.981c6.906,38.905,30.974,66.85,37.562,41.007
		c6.304-24.731-23.043-64.793,37.429-91.838c3.45-0.498,6.849,0.021,10.289-0.151c7.61-0.382,18.166-7.919,25.081,26.402
		c7.642,13.145-7.748,91.895-9.286,138.127c-2.153,64.741,19.053,131.901,28.086,147.803
		c2.196,11.178,61.328,168.816,242.911,272.746c137.364,78.621,175.57,62.615,269.898,41.512
		c73.937-16.541,110.033,25.598,182.969,13.906c106.751-17.113,260.764-116.69,359.242-273.464
		c123.166-196.078,26.762-277.182,71.64-367.61c-73.889-0.159-74.188-0.413-81.26,1.8c-84.076-1.063,6.735,160.757-54.04,267.12
		c-70.212,122.88-242.867,302.811-376.757,266.004c-25.612-7.041-53.249-30.637-106.424-12.581
		c-91.942,31.22-142.997-3.098-240.83-67.735c-2.988-1.974-11.613-7.002-28.239-20.524
		c-216.483-176.06-142.563-341.366-158.144-393.924c-13.965-47.104-34.891-37.031-105.825-35.62c-0.11-1.31-0.21-2.61-0.3-3.89
		c0,0,16.005-1.991,37.497-2.029c15.959-0.028,2.849-9.683,12.948-41.978c10.688-34.18,32.341-39.648,60.725-70.396
		c63.575-68.869,12.655-131.87,4.12-155.788C270.49,1369.21,269.55,1369.21,268.61,1369.22 M1181.68,1384.86
		c0.08,6.885-51.33,67.107,3.159,125.584c17.083,18.333,73.697,35.487,84.165,110.056c0.906,6.468-0.02,8.775,6.21,12.04
		c114.002-12.146,88.719,20.284,91.058,85.888c2.636,73.947,71.956-19.792,27.631-128.327
		c-37.814-92.591-122.436-119.328-108.554-182.594c0.614-2.798,2.343-8.699-2.622-8.294c-0.974,5.128-34.834,34.199-27.183,67.011
		c5.828,24.995-36.656,4.183-53.495-38.114c-8.489-21.323-10.71-47.496-15.644-52.001
		C1182.18,1372.262,1181.721,1383.101,1181.68,1384.86 M1335.95,1641.83c-21.963,10.484-20.307,63.102-20.129,80.942
		c4.298,5.889,2.443,18.063,3.365,25.024c1.274,9.628,3.815,19.089,7.555,28.053c6.253-10.658,3.607-24.04,1.504-36.217
		c-12.986-75.206,5.63-101.364,21.145-82.132c6,7.437-0.487,13.226-0.061,59.091c0.442,47.546,4.563,41.566,7.271,50.229
		c1.62-0.07,3.26,0.01,4.89-0.25c1.43-1.16,2.63-2.68,2.89-4.54c-1.092-3.545-11.037-17.538-5.179-56.771
		C1367.804,1647.637,1346.515,1634.879,1335.95,1641.83 M92.63,1757.962c-5.853,9.184,13.687,17.44,13.819-19.301
		c0.161-44.772-3.472-62.228,8.026-76.913c6.037-7.71,21.172-0.575,21.815,15.153c2.009,49.012-10.079,81.337-10.5,90.319
		c3.24,0.02,6.48-0.01,9.73,0.09c1.258-11.513,4.819-22.751,6.47-34.273c9.99-69.721-9.524-89.119-22.621-83.946
		C75.432,1666.443,105.647,1737.536,92.63,1757.962z"/>
	<path d="M1044.38,1347.71c14.805-7.167,16.928,27.61,0.604,52.905c-10.558,16.36-85.948,99.994-142.707,68.738
		c126.591-149.223,93.427-108.773,131.174-120.208C1036.955,1348.083,1041.225,1349.928,1044.38,1347.71 M997.54,1408.47
		c-1.24,1.02-1.57,2.63-2.11,4.07c-0.97,0.29-1.92,0.59-2.86,0.91c-1.902,4.624-20.331,23.245-23.98,24.13
		c-0.572,2.356,0.576,1.813-26.71,28.47c3.13,4.35,9.26,2.07,13.12,5.48c3.385,2.99,86.12-68.094,87.356-70.936
		c1.913-4.397,2.482-9.241,3.03-14.005C1049.411,1351.58,1058.656,1347.154,997.54,1408.47z"/>
	<path d="M400.25,1349.23c7.637-0.834,18.557,5.638,58.677,19.894c22.207,7.891,11.852,12.183,86.563,94.386
		c0.59,3.02,0.14,6.16,0.25,9.25c-5.7,0.4-11.92-1.32-17.08,1.84c-3.18,0.2-6.49-0.06-9.34,1.64
		c-18.068,3.567-21.152,10.563-25.87,5.24c-77.22-70.178-70.207-42.398-93.15-124.59C400.14,1354.33,400.26,1351.77,400.25,1349.23
		 M415.93,1361.15c1.175,3.804,95.584,106.961,101.676,107.452c1.001,0.081,16.005-1.118,17.853-4.212
		c2.013-3.37-7.821-12.237-10.052-14.957C445.677,1352.257,483.435,1389.616,415.93,1361.15z"/>
	<path d="M510.5,1357.12c6.609-0.802,11.59,5.728,22.9,8.62c5.53,3.41,12.68,3.61,17.24,8.65c0.616,0.681,4.355,1.306,5.471,1.965
		c4.746,2.804,64.375,101.223,64.791,102.224c5.535,13.311-18.101-2.422-42.376-1.558c-15.358,0.546-8.206,0.061-18.034-11.376
		c-51.508-59.94-58.519-57.103-52.782-70.665c0.19-9.91-0.15-19.84,0.13-29.74C509.12,1362.66,510.39,1360.06,510.5,1357.12
		 M533.99,1388.99c20.057,27.48,45.234,71.269,61.51,84.18c4.86,0.63,10.22-1.2,14.57,1.73c-0.344-4.529-2.175-6.58-14.832-27.816
		c-35.529-59.609-34.233-67.201-69.733-78.554C515.503,1365.331,527.654,1380.309,533.99,1388.99z"/>
	<path d="M935.44,1359.48c4.921-1.153,14.568-8.202,14.912,6.889c0.957,42.026-8.65,42.484-31.833,69.781
		c-24,28.258-24.083,41.966-77.15,42.749c-4.247,0.063-5.976-1.759-3.562-5.58c68.71-108.723,62.792-105.327,82.322-109.998
		C925.58,1363.84,930.36,1360.96,935.44,1359.48 M913.585,1407.829c-40.945,58.674-43.88,54.604-43.412,60.997
		c20.219-0.449,14.674-0.446,61.98-56.618c12.815-15.217,12.143-7.498,12.162-29.889
		C944.33,1363.426,943.183,1365.415,913.585,1407.829z"/>
	<path d="M412,1450c2.58-1.88,5.48-0.14,8.03,0.71c27.654,0.576,14.254-5.037,41.981,14.912
		c30.732,22.111,30.538,21.51,31.531,23.947c1.525,3.739-10.75,34.658-13.962,36.606c-4.156,2.52-5.088,0.8-58.589-26.607
		c-6.954-3.562-8.248-5.255-10.517-11.744c-4.182-11.96-8.38-23.979-10.653-36.444C403.613,1450.831,408.749,1452.349,412,1450
		 M418.3,1456.72c-1.273,5.479,6.496,8.824,10.152,11.544c62.061,46.169,53.793,35.62,57.908,25.676
		c-0.759-6.708-44.197-36.741-47.843-37.166C436.804,1456.575,418.417,1456.215,418.3,1456.72z"/>
	<path d="M996.47,1461.44c2.36-2.72,5.33-4.56,8.52-6.14c2.024,2.156-0.223,1.27,50.25,1.48c0.8,1.38,2.6,2.45,2.57,4.19
		c-1.56,4.31-2.85,8.72-5.12,12.74c-1.543,7.312-11.699,24.219-11.11,30.9c-5.2,4.641-57.912,25.546-58.93,25.93
		c-14.04,3.835-8.799,3.231-22.25-32.91c-0.26-3.36-0.4-6.81,0.09-10.14C961.015,1486.804,987.888,1466.687,996.47,1461.44
		 M1034.65,1477.72c-0.311,0.283-60.314,35.831-60.46,35.86c-1.37,3.35,1.55,6.07,2.34,9.16c9.817,1.085,55.9-19.842,56.9-20.32
		c3.168-1.81,11.708-22.993,12.49-29.31C1041.73,1473.2,1038.32,1476.04,1034.65,1477.72z"/>
	<path d="M882.08,1485.25c1.001,0.105,35.561-9.157,65.25,6.44c0,0,27.36,76.599,27.36,76.6c4.108,6.888,29.992,80.44,30.54,81.44
		c0.263,1.079,12.814,33.32,12.9,33.5c0.29,2.99,0.07,6.02,0.09,9.05c-2.915,2.865-16.802,4.821-20.93,16.09
		c-16.537,32.196-8.663,38.597,4.15,53.15c1.797,2.042,1.138,12.041-6.288,12.008c-7.224-0.032-3.282-3.847-26.353-0.973
		c-106.149,13.223-138.236,62.341-150.129,67.115c-45.381,39.305-29.675,42.579-81.62,63.54c-16.182-0.877-28.329,1.59-43.78-7.55
		c-9.816-4.032-47.668-39.565-52.68-41.37c-3.15-2.45-5.69-5.57-8.57-8.31c-2.27-2.56-5.62-3.61-8.17-5.79
		c-13.218-7.582-12.47-9.666-16.48-12.56c-0.003-0.001-29.29-15.77-29.29-15.77c-6.14-5.43-14.45-6.73-21.51-10.42
		c-1.008-0.194-45.788-19.831-56.44-18.77c-4.25-1.64-8.92-1.9-13.12-3.79c-5,0.36-9.48-1.87-14.33-2.63
		c-7.831-5.41-35.344-1.104-42.35-7.72c-0.09-2.45-0.1-4.89-0.05-7.3c5.2-2.52,9.42-6.43,13.13-10.81c0.6-2.53,1.49-4.97,2.3-7.41
		c0.1-5.69,0.05-11.39-0.02-17.07c-2.52-3.83-2.64-8.86-4.78-12.87c-7.012-7.343,2.068-4.807-18.76-14.67
		c0.133-9.687,51.373-126.364,52.58-132.79c1.187-1.98,18.173-44.573,18.56-45.26c0.81-3.82,2.69-7.21,4.25-10.73
		c0.68-4.5,3.94-8.04,4.64-12.51c0.31-2.49,2.68-3.91,4.3-5.56c50.784-11.987,129.759,3.532,172.905,25.133
		c62.09,31.085,31.045,34.276,68.964,11.143C783.349,1506.475,840.305,1486.996,882.08,1485.25 M878.23,1490.82
		c-16.61,4.68-13.654,0.503-46.323,12.061c-8.976,3.176-17.931,6.482-27.162,8.857c-9.373,2.412-18.954,2.243-28.127,5.682
		c-78.092,29.274-45.68,164.474-51.881,292.932c69.759-70.309,165.086-114.681,263.797-122.79
		c17.556-1.442,19.356-8.436,15.354-19.447C938.122,1487.178,953.497,1483.834,878.23,1490.82 M532.95,1498.1
		c-0.48-0.21-1.43-0.63-1.9-0.84c0.147,0.066-5.521,1.5-6.334,1.502c-11.501,0.026-15.418,6.096-18.2,12.119
		c-27.046,58.57-51.177,118.485-72.275,179.45c103.884,6.573,205.039,50.24,281.072,121.333
		c7.307-256.92,19.804-264.101-36.66-288.089C610.243,1494.51,538.193,1494.021,532.95,1498.1 M972.99,1698.49
		c-3.044-1.826-72.188,3.034-141.386,43.838c-30.803,18.164-59.148,40.176-86.95,62.667c-16.722,13.528-15.243,21.595-5.191,33.792
		c19.987,24.251,25.372,37.083,42.891,17.643c51.618-57.279,125.607-93.847,202.462-100.064c-11.146-38,20.252-54.686,0.815-61.677
		C980.651,1692.898,977.188,1696.59,972.99,1698.49 M439.534,1699.228c9.542,14.205,13.868,31.349,11.933,47.719
		c-0.463,3.919-3.763,9.225,1.866,10.248c43.739,7.946,119.97,24.58,153.948,53.455c14.265,6.044,27.123,15.109,38.936,25.032
		c23.716,19.923,25.524,28.953,31.566,22.782c40.344-41.198,33.14-36.984,27.727-42.965c-29.781-32.907-104.711-77.764-122.83-81.2
		c-30.737-17.262-95.155-34.898-142.39-35.58 M716.01,1829.98c-10.325,13.809-23.06,26.62-33.91,40.2
		c-0.799,1,12.135,14.63,32.547,18.024c15.826,2.631,28.673-2.187,43.103-7.734c6.13-2.356-16.082-32.479-38.31-50.99
		C718.33,1829.01,716.81,1828.91,716.01,1829.98z"/>
	<path d="M376.96,1494.46c10.858-7.955,87.455,37.843,99.045,44.723c-18.163,45.953-16.689,49.573-27.69,45.709
		c-107.14-37.633-83.42-21.425-127.851-79.25c-9.448-12.296,28.828-6.073,34.546-10.311c0.5,0.14,1.49,0.43,1.98,0.58
		C363.37,1493.41,370.4,1495.63,376.96,1494.46 M342.526,1502.956c-17.178,0.112,114.95,52.367,118.913,51.834
		c0.477-0.064,5.161-10.385,4.714-13.201c-0.715-4.506-76.715-42.539-77.823-42.721
		C388.329,1498.869,370.918,1502.771,342.526,1502.956z"/>
	<path d="M1073.39,1498.37c8.888-8.312,11.252-4.071,16.251-3.071c49.875,9.978,45.245,7.581,31.619,33.061
		c-5.9,6.57-7.03,16.22-13.65,22.23c-7.059-0.55-105.758,34.176-115.35,34.13c-3.95-4.76-4.34-11.16-7.53-16.32
		c-1.69-6.03-4.44-11.76-5.14-18.02c-2.273-4.793-4.556-11.875,9.4-15.38C994.494,1533.793,1066.933,1499.452,1073.39,1498.37
		 M1042.67,1543.68c-6.36,3.5-13.06,6.16-20.07,7.97c-3.24,3.26-7.53,5-11.93,6.04c-5.05,2.8-10.61,4.41-16.17,5.89
		c-1.9,1.22-3.72,3.79-2.22,6.01c1.81,2.96,1.43,6.91,4.31,9.25c0,0,98.31-30.255,107.48-35.79
		c3.924-1.003,15.606-23.885,15.93-27.76C1112.181,1515.187,1047.469,1542.806,1042.67,1543.68z"/>
	<path d="M609.12,1547.41c1.37,0.4,2.68,1.98,2.72,3.5c-0.376,1.009-16.692,46.002-18.44,53.55
		c-9.034,8.679-17.93,16.04-17.93,16.04c-1.98,0.48-4.1,0.34-6.11,0.1c-1.001-0.419-21.834-7.991-30.87-10.15
		c-1.41-1.22-2.73-2.53-3.88-3.96c-0.55-2.73-1.53-5.26-2.76-7.72c-0.23-2.77-0.22-5.55,0-8.29c1.56-2.46,4.15-4.04,5.86-6.37
		c0.13-2.79,0.02-5.58,0.07-8.35c-1.1-1.08-2.23-2.09-3.25-3.21c-0.46-1.62-0.26-3.32-0.35-4.96
		c11.856-4.13,10.086-7.583,19.24-6.32c6.979,14.338-4.128,24.571-3.21,33.39c5.53,4.44,12.85,5.12,19.17,7.97
		c6.397,2.737,12.626-32.562,21.32-46.96C590.7,1555.67,609.118,1547.411,609.12,1547.41z"/>
	<path d="M864.64,1548.65c2.22-1.72,5-1.5,7.64-1.27c-0.437,13.8,1.276,9.396-3,16.91c-2.64,1.78-5.69,2.65-8.77,3.3
		c-6.706,6.221-4.94,5.545-0.91,9.89c0.084,5.138,9.103,32.511,14.4,36.46c2.56,1.61,5.39,2.82,8.26,3.82
		c-0.02,2.32,0.1,4.66-0.11,7c-0.89,2.2-2.21,4.2-2.96,6.48c-2.99-0.04-5.99,0.15-8.96-0.09c-2.47-1.25-5.02-2.24-7.74-2.72
		c-8.536-5.666-12.301-40.529-23.96-47.6c-3.91-0.26-7.84-0.05-11.75-0.03c-1.47-1.92-4.3-3.18-4.61-5.72
		c0.97-2.48,1.84-4.99,2.44-7.57C830.254,1559.032,855.181,1554.463,864.64,1548.65z"/>
	<path d="M908.57,1561.64c5.28-2.34,10.99-5.4,16.93-4.14c3.109,2.366,28.657,46.693,7.18,47.48c-0.52-2.69-2.29-4.66-4.06-6.58
		c-1.8-7.68-6.39-14.32-9.66-21.41c-1.93-3.69-5.87-0.6-8.38,0.64c-6.421,2.689,1.115,11.197,3.27,17.36
		c-1.71,5.2-4.64,10.21-4.18,15.88c-0.63,2.53-1.76,4.97-2.27,7.59c-1.33,1.62-2.9,3.01-4.35,4.52
		c-19.169-17.664-25.866-16.081-28.28-31.5c9.012-18.684,11.058-25.713,26.52-20.4C902.06,1566.91,905.6,1564.3,908.57,1561.64
		 M896.68,1581.59c-3.39,2.04-7.5,3.02-10.31,5.9c-1.36,4.66,7.057,14.792,15.61,13.57c-1.18-2.74-2.9-5.24-3.84-8.05
		c1.52-3.01,1.75-6.54,3.75-9.28C900.51,1582.4,898.77,1580.22,896.68,1581.59z"/>
	<path d="M756.98,1568.99c3.27-2.7,7.51-4.14,11.24-6.16c4.5-0.16,9.04-0.2,13.54,0.02c5.552,2.881,21.172,6.65,25.27,12.11
		c3.18,2.16,3.87,6.02,2.67,9.54c-3.85,1.61-7.84,2.83-11.72,4.34c-3.26-0.95-6.09-2.95-8.58-5.19
		c-29.054-8.616-13.567-4.048-29.58,0.05c2.54,3.5,6.33,5.42,9.94,7.58c0.81,5.41-2.67,10.14-6.52,13.55
		C732.673,1585.914,745.184,1596.588,756.98,1568.99z"/>
	<path d="M1067.35,1574.17c9.074-5.398,18.42,2.594,35.258,10.432c4.621,2.151,10.543,3.738,13.922,7.838
		c1.42,0.98,1.87,3.34,0.49,4.55c-12.255,10.745-23.4,22.665-35.53,33.51c-1.004,0.163-55.974,6.693-68.77,6.73
		c-3.11-3.66-4.84-8.15-5.1-12.91c-13.966-29.938-7.47-19.6-10.98-28.35c0.57-1.58,1.28-3.11,1.86-4.66
		c4.054-0.088,30.843-7.171,33.63-7.98c6.97,0.6,12.81-4.2,19.68-4.6C1056.89,1576.88,1062.38,1576.45,1067.35,1574.17
		 M1015.46,1614.83c-2.25,1.11-4.43,3.7-2.54,6.16c2.555,3.327,1.554,8.518,6.556,9.271c5.095,0.768,12.66-1.464,17.912-1.974
		c36.843-3.58,43.518,0.024,64.833-27.136C1094.403,1601.448,1065.546,1607.401,1015.46,1614.83z"/>
	<path d="M371.34,1580.29c5.07-2.94,10.92-3.84,15.91-6.93c6.842-0.52,61.15,14.949,63.65,18.609
		c2.619,3.834,0.506,6.623-12.002,36.799c-3.213,7.751-5.959,7.97-11.957,6.574c-24.48-5.696-56.477,4.925-91.178-42.077
		C347.23,1587.846,359.245,1583.975,371.34,1580.29 M360.62,1589.64c-2.09,1.95-4.43,3.55-7.18,4.46
		c88.191,18.547,81.541,19.872,88.03,12.38c0.003-0.011,2.256-10.725,2.15-10.99c-4.579-5.229-6.734-2.7-37.816-13.632
		C386.015,1574.898,382.074,1582.999,360.62,1589.64z"/>
	<path d="M618.96,1586.99c4.37-0.49,7.45-4.91,12.04-4.3c4.365-0.58,16.689,7.09,25.01,8.35c4.49,0.37,8.69,2.86,11.38,6.47
		c1.08,4.63,4.04,9.51,1.38,14.21c-2.628,10.603-7.991,12.703-6.28,18.74c10.279,11.201,14.383,2.427,18.12-12.94
		c1.15-1.46,2.46-2.78,3.88-3.98c15.903-3.257,6.188-2.18,13.79-2.18c-0.16,3.45,0.64,7.22-1.45,10.28
		c-0.91,3.87-3.79,7.24-3.13,11.41c-0.272,4.846,7.063,9.564,2.84,12.49c-3.57,4.51-10.2,4.67-13.57,9.46
		c-2.86-2.67-5.3-5.85-8.45-8.16c-18.881-1.579-11.281,5.549-24,3.65c-12.114-11.765-10.811-12.492-10.74-20.77
		c2.08-2.11,4.87-2.78,7.69-3.29c19.244-14.974-5.799-21.975-11.17-21.21c-2.5,2.83-2.53,6.83-4.45,10.01
		c0.24,4.28-1.61,9.62,2.03,12.91c-3.54,3.4-6.88,7.01-10.45,10.37c-3.744,1.923-9.732-6.949-11.58-11.74
		c-0.21-3.18-0.23-6.38,0-9.54c8.717-21.632,7.94-13.106,2.43-25.59C613.56,1588.89,616.62,1587.12,618.96,1586.99z"/>
	<path d="M830.08,1593.17c4.448-0.488,6.917,10.277,7.42,11.28c1.3,6.1,5.69,10.98,6.98,17.1c5.519,12.241-3.963,9.165-5.07,17.22
		c-1.71-0.02-3.41-0.04-5.1-0.06c-0.625-0.769-12.833-26.995-12.94-27.23c-3.11-1.76-7.76-0.77-9.19,2.71
		c-3.015,8.163,7.175,8.355,3.45,15.43c-1.07,2.14-1.59,4.47-2.28,6.76c-4.52,4.31-5.06,11.58-10.85,14.76
		c-3.73,0.09-7.84,0.88-11.14-1.31c-18.763-5.936-12.193-10.56-11.01-13.49c1.04-1.521,3.52-12.181,3.22-12.81
		c-4.529-6.528-7.165,1.628-12.79,5.29c-2.95-0.08-5.22-2.45-7.9-3.45c-2.06,0.66-3.89,3.83-1.87,5.58
		c7.242,6.094,0.749,10.276-1.62,17.88c-7.18,0.62-13.46-5.14-15.27-11.82c1.64-2.9,1.97-6.18,2.51-9.39
		c2.15-4.61,5.54-8.45,8.05-12.85c5.578,0.269,5.77-1.715,14.65,4.17c0.07-0.068,3.063-5.976,11.18-13.43
		c5.74-1.62,11.47,1.63,15.01,6.02c1.14,3.78-1.43,7.27-2.37,10.82c-2,2.92-1.36,6.5-1.4,9.84c2.26,0.75,4.27,2.08,6.48,2.97
		c2.5,0.2,5.02,0.06,7.53,0.1c-0.621-9.656-6.057-13.001-5.46-18.88C812.608,1591.116,811.083,1601.27,830.08,1593.17z"/>
	<path d="M1091.51,1638.73c5.556-6.417,72.878,18.777,53.75,42.455c-27.456,33.987-105.065,17.373-115.154,7.177
		c-5.211-5.267-7.263-12.797-9.118-19.97c-9.085-35.132-8.787-21.467,49.982-27.742c0.52-0.34,1.55-1.03,2.07-1.37
		C1073.99,1639.93,1086.39,1640.25,1091.51,1638.73 M1036.54,1688.67c0,0,24.225,4.453,69.944,8.251
		c8.549,0.71,31.156-15.968,31.206-22.201c-0.007,0.864-70.544-0.593-75.346-0.792
		C1020.061,1672.174,1033.185,1677.122,1036.54,1688.67z"/>
	<path d="M338.56,1646.57c21.789-8.837-2.516-10.51,83.391-2.711c7.554,0.686,8.852,3.643,6.919,9.553
		c-12.773,39.054-11.551,44.555-33.764,47.388c-34.735,4.43-45.998,3.2-83.156-18.759c-14.5-8.569-18.56-10.163-18.46-14.107
		c0.147-5.804,9.547-5.452,12.771-7.077c1.85-0.932,3.142-2.568,5.053-3.451C311.315,1657.406,338.559,1646.57,338.56,1646.57
		 M315.73,1666.52c0.579-0.896,100.125,5.497,102.035,3.655c2.006-1.934,2.838-7.976,3.755-10.625
		c1.304-3.769,5.216-10.3-1.161-10.769c-58.264-4.281-59.879-5.498-67.649-1.238C326.581,1661.868,321.234,1657.998,315.73,1666.52z
		"/>
	<path d="M671.25,1667.21c2.55-0.67,3.88,1.84,4.77,3.79c1.06,2.88,4.71,4.53,4.29,8c0.109,5.995-12.169,12.04-13.75,12.09
		C665.924,1678.6,653.054,1678.516,671.25,1667.21z"/>
	<path d="M1012.93,1703.16c12.505-2.284,26.579,1.97,38.957,4.237c43.811,8.025,27.993,2.107,50.183,22.513
		c1,0.427,27.528,18.06,13.35,23.43c-11.7,5.8-23.44,11.54-35.01,17.6c-3.31,0.66-6.81,0.31-10.17,0.19
		c-5.4-2.28-10.89-4.88-16.89-4.55c-2.48-1.35-5.27-1.6-7.98-2.09c-3.42-1.66-7.36-1.38-10.76-3.02
		c-7.986-0.753-27.1-6.864-28.1-7.07c-12.312-10.037-6.101-26.23-1.83-40.79C1007.71,1710.32,1009.1,1705.75,1012.93,1703.16
		 M1006.27,1731.27c0.298,9.401-1.278,2.752,2.34,15.22c1.16,1.44,2.49,2.76,3.9,3.99c1,0.286,29.191,6.067,37.48,9.67
		c3.75,2.49,8.61-0.23,12.46,2.03c14.182,6.078,15.566,2.834,29.529-4.218c11.358-5.736,11.787-4.482,11.728-8.332
		C1064.927,1739.545,1006.225,1729.975,1006.27,1731.27z"/>
	<path d="M405.05,1709.2c1.003-0.096,15.028-8.731,21.49,2.447c5.097,8.816,6.314,26.809,3.619,36.49
		c-3.336,11.987-10.913,12.036-18.963,13.229c-11.402,1.691-22.545,6.323-34.031,5.352c-15.911-1.344-29.181-13.13-44.867-16.117
		c-2.707-0.516-6.152-1.422-6.447-4.161c-0.53-4.922,36.204-27.231,41.159-29.662C379.236,1710.78,391.677,1709.864,405.05,1709.2
		 M344.31,1739.27c0.03,0.5,0.07,1.51,0.09,2.01c77.558-9.273,75.294-7.211,78.793-12.509c1.668-2.526-1.178-13.225-5.655-15.139
		c-2.183-0.934-5.562-0.014-7.97,0.015C369.71,1714.135,370.489,1723.266,344.31,1739.27z"/>
	<path d="M206.53,1725.49c1.59-0.39,3.24-0.26,4.86-0.32c1.22,5.79,7.52,8.21,10.3,13.09c6.125,12.556,4.184,12.779,6.83,14.19
		c13.708,2.717,11.19,8.421,18.18,10.87c8.492,4.582-2.918,10.653-5.4,17.06c-2.31,2.95-5.15,5.47-7.84,8.08
		c-1.63,0.54-3.35,0.71-5.05,0.94c-0.186,9.384-14.177,25.015-17.84,23.12c-1.001-0.836-12.764-11.192-15.86-12.25
		c-1.44-2.33-2.32-4.95-3.72-7.28c-1.7-2.61-5.33-1.66-7.7-3.28c-7.04-2.69-9.87-11.47-17.28-13.39c-0.19-3.97,4.18-5.42,5.66-8.62
		c3.846-8.866,8.507-13.579,18.17-12.36c0.38,2.9-0.62,5.43-2.02,7.89c-0.14,4.75-0.17,9.53,0.02,14.3
		c7.969,10.71,14.097,11.382,25.93,11.64c11.631-4.691,14.829-16.789,14.54-19.17c0.34-3.81-2.61-6.77-2.92-10.5
		c-3.35-4.33-8.82-7.3-14.38-6.77c-2.26,0.25-3.95-1.56-6.01-2.11c-3.405,0.995-16.894,11.699-15.16-5.39
		c1.8-4.51,4.54-9.46,9.57-10.82C200.46,1730.56,203.89,1728.21,206.53,1725.49z"/>
	<path d="M1236.01,1750.99c2.29-4.61,6.73-7.6,11.19-9.85c4.64,4.89,9.64,9.44,14.21,14.4c0.93,3.9,1.96,8.19,5.05,11
		c7.485,2.273,3.808-3.005,17.55,9.45c3.22,2.95,6.32,7.08,5.74,11.7c-2.738,5.848-11.387,13.902-12.2,14.9
		c-2.38,0.16-4.74,0.45-7.09,0.73c-0.4,3.87-2.3,7.33-3.06,11.13c-2.13,2.485-15.893,15.482-18.83,14.08
		c-11.474-9.912-11.544-6.402-16.08-11.99c-2.71-2.14-2.66-6.67-6.43-7.57c-4.52-1.51-7.8-5.03-12.05-6.98
		c-1.93-1.32-1.93-3.98-3.56-5.5c-2.54-2.79-5.4-5.25-7.95-8.01c-0.51-2.27-0.21-4.62-0.27-6.9c6.03-1.29,8.36-8.13,13.75-10.59
		c1.79-0.77,3.11-2.23,4.62-3.39c2.25-0.68,4.63-0.79,6.98-0.93C1228.1,1756.601,1234.195,1755.587,1236.01,1750.99
		 M1230.69,1773.69c-8.822,17.7-4.423,9.946-2.07,22.79c2.48,2.76,5.12,5.41,7.89,7.9c2.71,0.54,5.25,1.54,7.72,2.78
		c15.949,1.349,11.292-3.839,17.17-4.78c11.06-9.155,0.593-25.006-0.15-26.61c-3.9-2.19-7.19-5.47-11.47-6.94
		C1239.664,1768.916,1243.171,1767,1230.69,1773.69z"/>
	<path d="M196.68,1759.67c3.48-2.22,7.59-2.88,11.32-4.51c2.43,1,4.91,1.84,7.47,2.46c2.37,2.12,4.81,4.29,6.69,6.88
		c0.19,3.64,0.19,7.32,0,10.99c-10.727,15.488-14.954,8.481-23.58,7.03c-1.21-3.95-4.87-6.45-6.04-10.45
		C194.6,1768.12,193.75,1763.27,196.68,1759.67z"/>
	<path d="M1008.59,1771.53c2.34-2.14,4.2-5.54,7.33-6.36c19.967,7.829,1.81,1.419,73.48,22.411
		c23.21,6.798,17.074,18.082,27.47,29.499c2.01,2.72,2.97,6,3.75,9.27c2.397,2.457,7.91,11.676,6.99,14.15
		c-2.059,3.088-50.568,12.978-55.41,12.66c-21.27-10.867-113.97-60.72-113.97-60.72c0-2.34,0.01-4.67,0.1-6.98
		c3.59-3.538-0.065-0.939,10.081-3.487C1000.874,1773.822,1005.604,1786.839,1008.59,1771.53 M969.81,1789.524
		c4.673,7.942,16.35,8.763,22.84,14.766c1.98,1.831,5.767,2.939,8.19,4.145c36.394,18.108,57.49,37.581,84.95,36.735
		c3.56-2.59,7.86-1.81,11.99-2c2.275-0.105,5.474-2.28,7.966-2.766c2.706-5.88-117.538-52.629-119.067-52.835
		C980.875,1786.787,971.164,1788.876,969.81,1789.524z"/>
	<path d="M405.96,1773.01c3.41-2.41,7.849-1.53,11.379-3.619c2.798-1.656,3.573,2.356,4.261,3.81
		c5.428,11.474,18.579,1.969,52.169,9.263c32.813,7.125,29.255,7.293-4.33,25.802c-98.126,54.079-70.565,50.423-108.573,45.384
		c-41.47-5.498-43.924-5.345-48.575-8.94c-0.05-1.84-0.05-3.66,0-5.46c2.48-1.9,5.71-2.71,7.74-5.21c1.82-1.7,2.11-4.4,3.98-6.05
		C391.306,1760.391,344.17,1799.512,405.96,1773.01 M332.712,1826.944c-11.908,13.291,1.332,7.33,25.696-1.256
		c1,0,95.484-32.006,99.607-37.716c-4.598-5.462-32.254-0.765-35.255-0.713c-0.58-4.16-4.8-6.23-5.47-10.33
		c-3.63,1.63-8.04,2.52-11.862,3.598C356.96,1794.196,364.777,1791.153,332.712,1826.944z"/>
	<path d="M1241.08,1773.39c3.26-0.29,6.57-0.27,9.85,0.01c3.25,1.36,6.39,3.19,8.48,6.14c0.73,4.163,6.789,12.85-3.95,20.87
		c-4.88,1.42-9.78,3.4-14.94,2.08c-2.69-2.63-5.42-5.23-7.91-8.02c-0.63-2.57-1.45-5.05-2.45-7.47c1.02-2.44,1.84-4.93,2.44-7.49
		C1234.69,1776.58,1237.82,1774.75,1241.08,1773.39z"/>
	<path d="M905.93,1798.05c27.243-10.272,24.624-10.453,51.171,5.26c62.805,37.174,87.01,44.406,88.645,91.351
		c-72.873,0.535-30.177,10.453-131.331-64.79c-25.485-18.957-25.491-16.387-23.924-22.331c1.93-2.07,3.9-4.1,6.04-5.94
		C899.87,1800.98,902.96,1799.67,905.93,1798.05 M899.89,1809.81c0,0,76.643,64.258,100.15,79.29c9.29,0.02,18.72,0.78,27.96-0.51
		c0.408-7.315-116.886-82.021-117.888-82.187C906.822,1805.859,902.667,1808.335,899.89,1809.81z"/>
	<path d="M510.52,1795.5c3.35-0.54,6.83-0.31,10.23-0.14c1.696,0.984,24.94,10.187,25.01,10.21c0.187,0.06,0.222,8.298-0.093,8.897
		c0,0-81.888,67.838-81.894,67.842c-14.622,12.131-22.486,3.198-50.969,8.54c-14.583,2.735-2.481-14.117,2.486-24.499
		c10.702-22.37-4.393-11.341,53.476-45.046C482.71,1813.182,498.293,1805.868,510.52,1795.5 M498.767,1810.285
		c-15.243,15.243-75.075,25.511-82.712,68.776c0.516-2.92,119.272-68.409,106.972-74.868
		C513.754,1799.324,506.843,1805.637,498.767,1810.285z"/>
	<path d="M875.23,1814.34c2.19-1.59,4.99-1.16,7.53-1.06c10.825,6.297,1.134,0.739,36.074,30.255
		c112.065,94.668,96.166,77.254,103.573,103.39c15.163,53.501,12.494,52.087,4.107,49.944
		c-79.346-20.271-47.05,0.567-137.669-116.877c-38.641-50.079-36.113-45.391-36.595-52.713
		C854.521,1825.513,874.23,1814.91,875.23,1814.34 M887.246,1870.017c0,0.992,78.88,104.346,81.659,105.336
		c1,0.356,43.396,12.401,49.314,11.198C996.942,1966.563,785.173,1735.888,887.246,1870.017z"/>
	<path d="M558.51,1815.56c2.29-1.25,5.47-1.33,7.47,0.52c6.25,5.88,16.01,6.63,21.54,13.44
		c1.274,4.344-95.178,131.458-99.43,136.799c-4.96,6.231,6.716,2.302-65.113,23.339c-30.761,9.009-27.943,12.696-9.79-33.627
		c15.354-39.183,5.753-24.762,24.46-39.689C526.845,1845.169,526.978,1841.68,558.51,1815.56 M511.741,1862.087
		c-92.472,76.918-74.022,44.545-99.481,114.751c0,0,2.628,0.363,8.758-5.169c11.771-10.624,148.334-135.371,148.802-146.079
		C556.688,1821.945,570.646,1813.09,511.741,1862.087z"/>
	<path d="M836.58,1836.67c3.46-1.64,6.76-4.1,10.81-3.51c-1.762-0.257,7.749,10.615,40.172,54.758
		c60.399,82.231,42.551,44.175,42.708,84.138c0.101,25.733-8.025,16.269-29.823,7.623c-10.28-4.077-13.649-13.959-18.336-23.112
		c-55.743-108.853-61.088-107.245-54.111-112.608C830.79,1841.46,833,1838.1,836.58,1836.67 M846.881,1879.083
		c0,1,26.961,51.005,33.172,62.404c14.468,26.554,14.363,33.912,35.826,37.443c0.051-2.865-78.118-131.413-78.85-132.16
		C831.389,1853.392,831.605,1849.878,846.881,1879.083z"/>
	<path d="M596.56,1835.51c2.909-1.37,27.199,12.513,25.064,20.864c-0.602,2.355-56.48,102.256-64.868,113.253
		c-4.875,6.392-37.24,15.705-41.308,18.616c-12.427,8.894-4.438-33.045-3.378-36.619
		C515.633,1939.614,590.675,1841.21,596.56,1835.51 M518.442,1950.996c-0.455,2.399-5.093,25.801-1.286,25.485
		c14.606-21.729,92.669-125.04,87.873-129.492c-5.203-5.229-6.31-7.01-12.535,1.205
		C587.566,1854.7,519.965,1942.957,518.442,1950.996z"/>
	<path d="M1217.78,1837.76c10.941-6.293,36.459,15.487,42.77,7.7c3.66-4.16,8.91-7.59,14.69-6.75
		c0.896,4.929,9.794,12.124,10.53,23.97c-3.84,3.53-10.77,3.53-12.34,9.26c0.647,1.002,7.553,13.178,3.41,19.7
		c-9.293,24.456-13.105,43.802-40.53,45.08c-2.568-2.263-1.204-3.519-4.92-15.19c-2.16-2.35-4.28-4.84-6.87-6.69
		c-2.77-0.22-5.56-0.21-8.31-0.02c-3.28,1.19-5.97,3.85-9.56,4.19c-1.6-3.39-2.68-6.91-3.09-10.62c-1.71-3.17-1.2-6.97-2.91-10.11
		c-1.7-2.96,2.15-4.88,3.87-6.67c3.84-0.44,7.63-3.9,11.46-1.63c2.46,1.534,16.409,0.369,20.59,19.31c2.64-0.09,5.29,0.07,7.95-0.12
		c1.91-1.24,3.43-3.02,4.89-4.74c2.22-7.92,5.01-15.67,7.68-23.44c1.84-2.54-0.75-5.05-1.78-7.31
		c-2.725-1.524-27.769-9.041-28.77-9.27c-5.44-3.53-6.02-10.32-8.68-15.64C1217.56,1845.1,1217.8,1841.42,1217.78,1837.76z"/>
	<path d="M812.63,1858.65c4.882-1.932,4.786-10.921,18.061,15.59c86.514,172.777,80.163,132.846,58.108,213.97
		c-40.536-30.939-45.858-34.806-51.129-42.915c-8.274-12.727-47.375-152.879-51.149-161.436c0.97-2.36,2.24-4.62,4.66-5.7
		c1.97-3.48,4.63-6.71,8.07-8.78C804.72,1867.17,807.21,1860.95,812.63,1858.65 M798.106,1907.303
		c0,1.136,40.318,133.751,46.103,140.587c3.385,4,7.624,7.172,11.823,10.307c27.474,20.511,32.429,34.761,3.57-39.646
		c-2.972-7.664-53.419-141.737-54.282-141.571C787.471,1880.509,794.15,1893.77,798.106,1907.303z"/>
	<path d="M224.28,1855.26c4.63-0.79,8.8,1.1,13.11,2.4c15.02,14.337,11.631-9.095,27.31,44.66c1.535,2.85,11.337,29.036,11.03,30.94
		c-3.78-0.06-7.84,0.65-11.03-1.86c-13.717-1.188-13.527-8.218-17.61-12.57c-2.25,2.25-4.7,4.44-5.78,7.55
		c-18.557,22.312-18.714,9.176-28.37,8.74c-3.588-0.318-20.623-6.019-22.46-6.64c-0.792-10.738-2.797,8.218-2.15-37
		c0.73-0.73,1.44-1.44,2.15-2.15c2.49,0.1,5.34-0.8,7.53,0.75c2.81,2.09,6.5,0.86,9.73,1.18c-0.02,5.77,0.06,11.56-0.04,17.35
		c1.91,0.02,3.9,0.42,5.77-0.11C233.176,1889.852,224.171,1871.257,224.28,1855.26z"/>
	<path d="M628.28,1859.25c3.02-0.48,5.85,0.2,7.85,2.61c4.497,2.04,18.449,16.68,19.38,17.68c0.325,1.01-36,146.462-38.494,149.283
		c0,0-43.784,32.413-66.287,52.029c-4.992,4.352-2.638-80.225-0.759-82.902C561.794,1984.893,627.619,1860.299,628.28,1859.25
		 M630.69,1867.01c0,0-48.022,85.95-50.449,90.032c-32.674,54.965-25.947,31.175-26.531,99.988c-0.56,1.87-1.52,3.63-1.72,5.63
		c1.14,0.03,2.28,0.07,3.43,0.13c0,0,46.937-100.187,76.123-165.148c0-1.882,11.115-20.271,7.927-24.082
		C636.77,1871.12,634.72,1867.06,630.69,1867.01z"/>
	<path d="M663.04,1888.96c2.859-3.391,0.485-0.825,10.72,2.61c-0.1,4.05,0.17,8.11-0.11,12.17
		c-6.573,13.63-11.885,8.206-16.67,15.31c-0.92-1.01-1.87-1.95-2.84-2.85c1.88-1.88,1.67-4.63,2.19-7.02
		C658.53,1902.45,659.19,1895.08,663.04,1888.96 M664.16,1899.09c-0.39,3.51-3.65,6.52-1.74,10.14
		c4.511-4.203,7.427-4.27,5.06-14.54C666.15,1895.96,664.25,1897.02,664.16,1899.09z"/>
	<path d="M772.5,1901.55c2.07-2.25,4.24-4.42,6.52-6.46c5.97,4.915,8.551,23.411,10.55,27.24c0.26,1.44,0.16,2.93,0.22,4.43
		c-1.07-0.02-2.14-0.02-3.2,0.01C785.481,1921.749,769.59,1909.634,772.5,1901.55z"/>
	<path d="M764.053,1907.725c3.232,2.129,2.748,8.99,6.377,10.805c2.64,3.21,3.19,7.8,6.57,10.47c2.23,1.85,3.42,4.51,4.66,7.07
		c-0.75,1.08-1.63,2.08-2.43,3.15c-16.16,0.06-32.33,0.03-48.49,0.01c-1.93-2.63-3.77-5.39-4.89-8.44
		c-0.795-14.256-4.145-18.911,23.658-22.035C752.841,1908.38,761.231,1905.866,764.053,1907.725z"/>
	<path d="M658.01,1935.94c25.605-24.637,23.343-28.44,34.747-26.935c31.963,4.217,19.232,6.823,22.577,14.966
		c1.812,4.411,2.404,16.519-5.255,15.299c-16.41-0.08-32.82,0.07-49.23-0.08C659.94,1938.05,658.98,1936.97,658.01,1935.94z"/>
	<path d="M1193.35,1927.29c3.94-0.61,4.99,5.28,8.78,5.54c2.59,0.39,4.96,1.54,7.22,2.87c7.05,6.35,17.75,7.33,23.57,15.27
		c2.44,4.99,2.75,10.84,4.78,16.03c0.14,3.05-0.02,6.12,0.1,9.2c-0.88,0.85-1.73,1.73-2.57,2.63
		c-1.419-0.92-27.007-14.56-29.82-17.18c-2.27-0.77-4.76-0.94-6.68-2.47c-5.498,4.02-8.169,13.569-19.83,25.94
		c-2.067-2.026-9.704-15.884-9.19-19.05c0.978-8.477-4.655,3.606,12.98-26.44C1190.046,1929.711,1181.778,1932.979,1193.35,1927.29z
		"/>
	<path d="M262.28,1945.16c2.47-0.11,4.92,0.16,7.11,1.4c24.927,4.068,15.036,8.147,38.43,43.67c-2.16,2.01-4.12,4.24-6.35,6.19
		c-16.43,5.974-33.544,22.493-39.46,24.44c-9.86-3.86-20.18-6.47-29.98-10.49c-0.357-5.8,7.83-7.943,19.32-14.09
		c4.05-3.69,9.33-5.4,14.08-7.94c2.83-2.26,4.93-5.64,8.84-6.08C273.291,1962.984,262.865,1962.507,262.28,1945.16z"/>
	<path d="M652.79,1945.19c47.47,0.1,94.94,0.11,142.42,0c0.86,0.84,1.73,1.71,2.6,2.61c-0.12,5.47-0.09,10.96-0.02,16.45
		c-1.54,1.48-3.05,2.99-4.54,4.54c-5.84-0.63-12.26,1.45-17.46-1.95c-35.85-0.16-71.73-0.16-107.58-0.01
		c-3.298,2.287-14.501,3.762-17.92-0.73c-0.16-6.11,0.09-12.21-0.1-18.31C651.05,1946.9,651.91,1946.03,652.79,1945.19z"/>
	<path d="M668.76,1974.78c37.49-0.05,74.99-0.05,112.48,0c4.155,6.506,3.018,3.804-0.72,8.8c-0.92,2.8-0.47,5.93-2.02,8.57
		c-2.242,17.114,5.804,22.526-1.21,32.13c-6.68,3.516,7.769,3.682-99.83,2.88c-11.27-7.912-5.185-10.6-5.75-34.17
		C665.759,1974.626,664.222,1981.526,668.76,1974.78z"/>
	<path d="M640.5,1975.14c1.65,0.07,3.33-0.03,4.97,0.35c24.15,23.769,19.35,17.48,16.466,29.45c-1.5,6.224-2.704,14.07-0.226,20.13
		c-0.2,2.96,1.19,6.93-1.7,8.97c-2.58,2.49-5.47,4.87-6.73,8.36c-2.44,3.22-5.69,5.72-8.36,8.75c-5.12-5.26-5.61-13-8.42-19.47
		c-1.197-11.081-6.531-13.604-6.14-29.43C632.278,1999.16,639.716,1979.296,640.5,1975.14 M644.945,2034.926
		c2.383-2.667,15.88-58.203,0.359-48.906C632.989,1993.398,639.737,2029.38,644.945,2034.926z"/>
	<path d="M792.91,1986.93c10.326-19.139,11.992,0.426,19.84,21.31c1.52,2.88,1.1,6.3,0.82,9.45
		c-1.457,2.581-8.843,32.649-10.22,37.28c-0.96-0.15-1.89-0.32-2.81-0.51c-17.559-16.074-22.225-17.892-20.06-24.92
		c9.235-10.658,15.024-9.85,5.66-32.56C787.21,1992.93,790.02,1989.81,792.91,1986.93 M798.21,2043.03c-0.11-2.8,0.45-5.71-0.28-8.4
		c-1.4-2.36-2.25-4.96-2.49-7.67C786.211,2026.792,790.541,2039.99,798.21,2043.03z"/>
	<path d="M1152.51,1987.52c2.01-0.57,4.16-0.33,6.25-0.23c1.26,0.617,27.584,20.922,34.63,28.25c0.6,2.53,1.48,4.98,2.31,7.46
		c0.18,6.38-0.1,12.78,0.12,19.18c-0.94,0.92-1.87,1.85-2.78,2.81c-1.099-1.056-32.253-25.773-32.31-25.81
		c-4.103-2.437-19.729,16.03-20.53,17.03c1.082,9.228,9.29,11.433,18.88,16.39c3.34,0.34,6.73,0.08,10.1,0.14
		c0.75,2.26,2.08,4.27,2.98,6.49c1.162,21.42-1.658,15.574-12.16,21.61c-3.6-2.36-8.65-0.83-11.57-4.25
		c-33.511-24.916-22.016-7.589-35.82-9.76c-0.68-2.04-1.84-3.85-2.47-5.85c0.48-2.07,2.59-3.58,2.14-5.88
		c0.42-5.4-1.31-11.26,1.62-16.15c0.89-3.07-0.15-6.36,0.6-9.44c2.18-2.47,4.86-4.47,6.82-7.12c1.42-3.63,4.21-6.95,8.09-7.97
		c1.183-4.823,10.851-11.691,15.9-18.03C1146.68,1992.7,1149.75,1990.15,1152.51,1987.52z"/>
	<path d="M298.58,2025.5c1.98-3.16,6.29-2.3,9.06-4.42c2.001-0.292,22.652-1.174,24.35,0.87c5.02,5.29,10.53,10.14,15.31,15.64
		c1.12,3.8,4.73,5.81,6.86,8.92c0.17,4.73,0.18,9.5-0.01,14.26c-1.25,2.45-2.24,4.98-2.72,7.74c-2.94,3.58-7.87,4.27-12.17,4.97
		c-4.86,3.07-11.19-0.7-15.87,2.76c-3.24,1.23-7.4,0.34-9.57,3.73c16.947,15.811,19.082,22.198,25.65,18.5
		c29.798-25.505,21.278-18.786,22.87-31.05c0.85-0.77,1.68-1.52,2.51-2.27c6.268,5.561,18.115-1.999,23.95-8.02
		c2.7,1.6,5.54,2.99,7.81,5.24c3.04,0.71,6.05,1.59,8.7,3.31c0.94,1.96,2.61,3.8,2.52,6.11c-3.39,4.9-8.48,8.54-14.39,9.72
		c-3.94,2.64-10.11-0.7-12.85,3.99c-0.88,3.7-2.3,7.24-3.19,10.95c-3.72,4.87-9.83,8.03-11.99,13.96
		c-3.776,0.785-11.431,10.449-14.7,7.95c-4.02-2.71-8.95-1.14-13.43-1.72c-4.38-1.974,1.114-2.098-18.51-1.85
		c-3.29-3.54-7.05-6.65-10.09-10.4c-1.44-3.63-4.21-6.96-8.09-7.98c-2.21-5.9-8.21-9.18-12.08-13.93c-1.34-4.47,0.98-8.64,2.2-12.8
		c6.649-12.726,0.246-10.656,30.38-10.4c3.91,0.49,6.78-3.1,10.75-2.73c0.669-5.617,2.891-5.612-13.43-19.86
		c-0.44,4.26,0.97,10.27-3.88,12.47c-5,0.16-10.03,0.17-15.03,0c-3.443-2.256-4.616-2.673-3.65-15.93
		C297.08,2030.76,298.07,2028.21,298.58,2025.5z"/>
	<path d="M680.76,2032.77c30.9-0.08,61.81,0.05,92.71-0.07c1.604,15.094,4.939,12.199-87.39,12.03c-2.88-0.56-5.41-2.43-7.83-4.02
		C677.79,2037.69,678.44,2034.83,680.76,2032.77z"/>
	<path d="M1074.65,2053.6c3.31-2.57,3.54-8.94,8.66-8.55c3.638,9.952,41.848,54.491,42.85,55.45
		c0.201,5.681-4.132,24.669-8.49,30.26c-2.1-0.15-4.69,0.61-6.19-1.29c-2.03-2.1-4.95-2.89-6.97-4.96c-2.51-2.72-6.94-0.62-9.51-3.2
		c-2.7,2.33-6.68,1.21-9.71,2.93c-4.72,1.19-9.03,3.5-13.31,5.76c-1.94,2.26-4.09,5.37-3.61,8.5c3.86,3.47,10.45,7.15,14.94,2.57
		c1.3,1.46,2.47,3.04,3.28,4.89c-2.6,5.02-5.005,15.83-5.08,16.83c-15.042-0.561-5.86,3.904-15.13,0.22c-3.81-1-8.21,0.9-11.64-1.56
		c-3.12-1.72-7.45-4.29-7.01-8.36c0.337-19.465-0.89-11.128,2.35-18.14c0.583-4.175-1.651-8.662,6.95-15.96
		c0.86-1.2,3.08-2.14,2.32-3.89c-7.369,3.448-16.699,12.431-22.58,15.74c-0.87-0.91-1.73-1.79-2.58-2.64c0.14-4.5,0.7-9.18-1.9-13.1
		c0.52-3.75-1.86-9.25,2.27-11.42c6.19-2.35,9.22-8.98,14.72-12.33c2.56-0.89,4.28-3.02,6.22-4.78
		c1.789-1.755,6.207-2.126,14.66-13.07c0.3-3.13-0.16-6.29,0.23-9.39C1072.2,2060.75,1073.94,2057.37,1074.65,2053.6
		 M1069.38,2106.3c-3.87,1.66-7.27,4.85-9.3,8.44c5.453,0.303-0.234-0.138,15.32-7.29c1.84-0.302,16.95-6.518,18.76-7.13
		c-2.11-2.03-4.18-4.21-4.79-7.16C1080.26,2092.31,1075.71,2101.55,1069.38,2106.3z"/>
	<path d="M684.8,2047.19c26.98,0.16,53.96,0,80.93,0.08c0.01,3.14,0.01,6.29,0,9.46c-98.37,0.154-73.261,0.488-83.45-2.32
		c-0.04-1.57-0.07-3.12-0.09-4.65C683.05,2048.88,683.92,2048.03,684.8,2047.19z"/>
	<path d="M678.73,2060.77c31.27,0.02,62.55-0.15,93.81,0.08c4.44,3.06,7.91,8.29,7.28,13.88c-34.52,0.03-69.04,0.06-103.55-0.02
		c-1.08-1.49-2.05-3.04-2.86-4.64C675.03,2066.87,676.46,2063.55,678.73,2060.77z"/>
	<path d="M664.52,2081.51c1.87-1.77,3.43-4.79,6.44-4.27c121.267,0.087,105.882-1.672,114.75,4.02c0.05,3.07,0.06,6.17-0.04,9.27
		c-0.74,0.68-1.45,1.39-2.15,2.13c-7.275,0.183-103.58,0.144-112.26,0.01c-2.45-1.09-4.82-2.36-6.97-3.92
		C664.33,2086.32,663.94,2083.85,664.52,2081.51z"/>
	<path d="M674.2,2097.5c3.48-0.08,6.37-2.26,9.72-2.75c17.268,1.026,64.177,0.212,86.85,0.58c2.06,0.91,3.83,2.97,5.02,4.92
		c0.56,3.96-4.38,4.89-7.06,6.4c-88.508,0.802-88.059,0.528-94.42-3.93C674.25,2100.96,674.21,2099.22,674.2,2097.5z"/>
	<path d="M394.94,2102.93c1.619-1.755,1.999-2.966,15.58-2.08c2.17,1.5,4.09,3.46,5.63,5.62c0.22,2.75,0.2,5.53,0.01,8.31
		c-4.989,12.369-18.807,18.97-24.41,22.91c0.04,3.27-0.14,6.55,0.07,9.84c5.796,7.336,27.77,23.509,28.77,23.86
		c3.92,1.536,5.605,4.831,10.1-3.8c2.53-3.38,6.11-5.82,8.62-9.2c1.38-3.7,4.46-6.27,7.24-8.9c2.04-0.68,4.31-0.33,6.12,0.83
		c3.08,1.84,6.99-0.06,10,1.99c2.21,1.16,4.77,0.9,7.19,1.04c0.906,9.718-7.855,12.606-9.86,17.65
		c-0.122,0.315-14.5,19.44-14.5,19.44c-1.67,0.49-3.42,0.71-5.03,1.41c-4.73,2.42-10.64-0.91-15.1,2.37
		c-2.89,1.05-6.1,1.26-9.16,1.45c-8.387-1.741-49.656-40.882-53.71-45.23c-0.95-1.38,0.29-2.85,0.8-4.08
		c1.43-2.46,0.7-5.36,1.11-8.01c1.44-3.89,2.74-7.81,4.34-11.62c5.843-0.019,16.276,1.768,20.66-10.33c2.9-4.4-2.24-8.27-1.26-12.82
		c1.78-0.54,3.56-1.16,4.95-2.43C393.72,2101.7,394.33,2102.3,394.94,2102.93z"/>
	<path d="M444.3,2111.35c3.15,0.11,6.27-0.43,9.06-1.95c2.77-0.36,5.58-0.13,8.38-0.11c3.27,3.79,2.39,10.1,6.84,13.1
		c3.917,1.664,35.041,17.41,33.12,24.89c-4.3,0.27-9-1.05-12.91,1.26c-2.74,1.49-6.2-0.24-8.8,1.53c-2.44,1.83-5.67,1.17-8.5,1.07
		c-3-2.15-5.28-5.15-7.96-7.65c-2.51-2.86-6.5-3.46-9.5-5.57c-16.864-15.004-6.428-12.19-10.7-18.26
		C441.52,2117.04,441.8,2113.4,444.3,2111.35z"/>
	<path d="M684.32,2109.28c89.525-0.333,82.438-0.648,84.27,1.19c10.889,7.39-15.526,7.535-84.27,6.25
		C681.404,2112.47,681.253,2113.369,684.32,2109.28z"/>
	<path d="M672.62,2129.55c4.613-12.875,8.332-10.697,96.15-10.23c3.48,1.64,5.4,5.5,6.89,8.94c0.23,2.78,0.07,5.61,0.05,8.43
		c-7.487,6.389-3.682-3.445-18.41-4.16c-3.877-2.886-60.047-1.696-61.06-1.68c-3.51,1.86-7.48,2.48-10.96,4.4
		c-4.01,2.02-5.79,7.61-10.7,7.82C674.74,2138.35,669.78,2134.14,672.62,2129.55z"/>
	<path d="M1008.52,2126.44c0.481,0.625,21.642,36.029,25.65,44.78c0.279,7.389,1.624,1.904-10.48,26.53
		c-3.172,5.444-19.452,15.548-22.37,15.67c-1.002,0.618-27.07,17.875-31.54,19.75c-4.51,0.14-9.04,0.18-13.54-0.02
		c-6.415-3.641-22.782-3.296-10.28-21.45c-5.75-2.54-11.91-4-17.27-7.41c-0.94-1.73-2.07-3.4-2.58-5.28c1.45-2.82,2.56-5.79,2.17-9
		c2.06-9.45,4.47-19.31,10.44-27.25c4.34,0.06,8.71-0.21,13.05,0.09c3.06,1.11,5.81,2.97,8.45,4.87c-0.28,3.73,0.97,7.89-1.09,11.28
		c-0.652,1-2.345,12.456-9.14,7.06c-1.64-1.33-3.85-0.71-5.77-0.83c0,1.04,0,2.1,0.03,3.2c3.953,1.193,9.348,7.821,20.7-5.45
		c1.02,1,2.09,2,3.25,2.91c0.368,24.745-4.055,10.606-1.87,22.96c3.65,0.4,6.87-1.41,10.31-2.26
		c32.183-21.519,28.953-19.705,31.62-20.36c-1.215-16.381-0.157-4.646-15.96-32.17
		C996.097,2147.443,1002.95,2116.678,1008.52,2126.44z"/>
	<path d="M764.55,2174.41c4.47,0.95,8.57,3.47,13.3,2.94c-0.1,1.68,0.02,3.41-0.34,5.11c-1.94,2.05-3.91,4.09-6.06,5.94
		c-3.45,0.43-6.5,2.92-10.06,2.3c-20.579-10.192-16.004-10.515-28.75-14.54c-3.04-2.11-6.8-1.31-10.25-1.43
		c-0.02,0.49-0.06,1.49-0.08,1.98c3.44,2.18,7.16,3.96,9.73,7.29c-19.257,18.544-32.515,4.596-43.8,0.42
		c0.01-2.39,0.01-4.77,0.03-7.13c2.77-2.14,6.06-3.37,9.14-4.93c2.62-1.99,4.57-4.7,7.11-6.77
		C709.186,2164.681,733.754,2150.625,764.55,2174.41z"/>
	<path d="M481.76,2167.72c2.89-2.83,7.1-2.88,10.47-4.87c4.09-0.23,8.21-0.2,12.3-0.01c3.02,3.16,6.91,4.99,10.82,6.86
		c4.33,4.059,30.72,16.619,35.35,20.51c2.84,1.11,4.33,3.98,5.13,6.77c-8.242,21.684-7.068,15.099-15.28,24.53
		c-3.992,7.395,3,11.999,4,12.92c11.053,1.799,10.656,9.408,24.72,1.85c2.3-3.98,4.38-8.12,5.43-12.6
		c2.79-5.06,4.37-10.62,5.91-16.15c1.82-2.15,3.86-4.11,5.91-6.02c3.78-0.89,8.02,0.74,11.5-1.51c1.66-1.1,3.71-0.71,5.59-0.77
		c1.821,2.887,5.882-2.538-11.45,41.77c3.918,10.392,7.767,15.814-3.48,20.68c-4.04,1.7-7.66,4.5-12.01,5.35
		c-1.36-3.37-2.47-7.1-5.16-9.65c-2.44-1.05-4.06,1.11-5.56,2.64c-1.91,2.16-5.19,1.05-7.71,1.12
		c-13.979-6.85-24.804-5.627-33.96-12.42c-0.516-11.195-3.467-18.343-4.22-19.36c-0.77-3.79-0.1-7.77-0.33-11.61
		c5-0.89,7.68-5.59,11.23-8.72c3.09-3.49,0.3-8.05-1.64-11.34c-4.43-2.6-9.56-4.06-13.4-7.56c-2.29-1.25-4.66-3.53-7.44-2.75
		c-1.751,1.554-10.996,18.58-11.61,19.58c-2.17,3.3-0.66,7.43-1.16,11.13c-3.046,4.542-14.894,10.5-21.1,10.74
		c-4.537-12.622-7.277-9.585-6.77-19.6c0.85-2.03,2-3.94,2.36-6.12c0.36-2.52,3-3.75,3.81-6.06
		C485.562,2171.78,480.618,2181.897,481.76,2167.72z"/>
	<path d="M894.01,2186.07c1.53-1.24,3.57-0.75,5.39-0.9c0.596,1.57,21.07,43.734,13.46,55.75c-6.268,6.736-4.648,14.276-12.23,16.03
		c-2.143-4.598-15.962-44.757-17.13-47.71c-3.779-1.6-16.519,3.26-17.52,3.46c-3.91,0.23-7.84-0.2-11.75,0.14
		c-2.46,1.22-4.99,2.2-7.69,2.76c-8.283,6.735-6.273,10.338-13.05,3.9c-1.99-1.82-3.57-4.49-6.44-4.87
		c-2.28,0.62-4.29,1.93-6.32,3.09c-9.289,15.571,1.434,21.396,10.33,31.4c9.433-7.15-6.663-14.326,6.93-20.11
		c2.06-0.78,3.44-2.55,5.01-3.99c1.7-1.81,4.18-2.47,6.16-3.89c2.24,2.52,5.04,4.57,7,7.35c0.959,17.932,2.297,13.285-17.14,32.49
		c-15.418,13.774-36.194-10.238-41.81-29.28c-2.695-10.499,17.143-25.538,19.48-32.07c1.91-2.36,3.99-4.77,6.53-6.44
		c3.83,0.32,6.72,3.75,10.68,4.01c3.99,0.36,5.12,6.86,9.61,5.45c2.4-1.87,2.48-5.34,4.93-7.13c3.595-0.268,21.377-5.397,21.89-5.67
		c3.56-1.66,7.9,0.65,11.29-1.54C885.31,2185.69,890.38,2188.85,894.01,2186.07z"/>
	<path d="M672,2187.93c12.676,6.709,10.507,4.146,17.49,11.6c3.665,12.801-17.106,25.642-2.24,35.18c2.72,1.2,6.08,4.1,8.8,1.33
		c8.803-11.67,0.403-13.005,6.49-32.61c3.644-0.517,2.633,0.437,23.06-10.37c6.623-1.463,2.877,0.481,16.5,1.68
		c2.21-0.37,3.79,1.5,5.81,1.97c5.03,0.17,10.07-0.09,15.1,0.05c2.24,0.02,3.72,2.25,5.93,2.44c3.78,0.16,7.57-0.07,11.35,0.18
		c-0.18,7.79,0.14,15.61-0.13,23.41c-3.56,5.14-1.05,11.58-2.14,17.34c0,0-14.792,10.848-16.96,12.61
		c-4.067-2.116-3.525-1.865-3.29-28.74c-0.06-1.85,1.3-3.23,2.17-4.7c-4.17-2.78-8.79-5.45-14-4.54c-3.01,0.79-4.91-2.43-7.84-2.03
		c-3.12-0.04-6.24,0.01-9.35,0.03c-5.15,7.125-2.02,5.087-3.16,12.88c-1,2.17-1.57,4.49-2.18,6.82c-2.51,3.83-6.96,5.23-10.85,7.2
		c-2.61,1.96-4.52,4.71-7.14,6.69c-3.74,1.75-7.63,3.3-10.43,6.47c-2.7,0.96-5.91,0.31-8.78,0.35c-1-0.375-17.174-8.285-21.65-8.76
		c-2.17-1.85-4.13-3.9-6.07-5.96c-0.46-1.6-0.45-3.37,0-4.92c0.111-0.131,6.057-5.383,11.67-14.03c0.22-2.72,0.05-5.44,0.13-8.13
		c-5.14-0.87-12.03,1.61-12.85,7.4c-2.33-0.05-4.67-0.05-6.99,0.01c-0.3-1.1-0.59-2.17-0.87-3.21
		c-6.576-1.462-3.31-5.723-11.59-4.18c0.03,3.88,3.61,6.63,3.83,10.39c-2.35,3.24-5.59,5.84-8.37,8.75
		c-2.01,0.38-4.54,0.76-5.97-1.06c-1.84-2.35-5.34-2.46-6.87-5.05c-1.39-2.84-2.56-5.8-4.32-8.42
		c5.899-8.161-2.947-2.029,18.22-22.49c3.59-0.4,7.69-1.01,10.89,1.11c2.93,0.98,4.47,4.23,7.6,4.77c2.62-0.41,4.07-2.9,6.32-4.01
		C666.26,2192.529,666.928,2185.018,672,2187.93z"/>
	<path d="M728.695,2293.48c73.627,5.011,43.619,57.664,37.845,57.69c-28.35,0.13-56.72,0.14-85.07,0
		c-12.204-11.158-12.707-9.549-11.63-40.71C674.192,2303.477,699.887,2291.519,728.695,2293.48z"/>
	<path d="M676.75,2356.77c28.16-0.04,56.33-0.04,84.5,0.01c3.38,2.73,3.38,7.69,0,10.44c-103.494,0.274-75.713,0.495-87.07-2.86
		C673.84,2361.46,674.56,2358.75,676.75,2356.77z"/>
	<path d="M680.75,2370.77c26.17-0.04,52.33-0.04,78.5,0c3.38,2.74,3.38,7.7,0,10.46c-96.791,0.198-69.561,0.496-81.07-2.86
		C677.82,2375.46,678.56,2372.76,680.75,2370.77z"/>
	<path d="M672.76,2384.77c31.25,0,62.5-0.12,93.75,0.06c3.11,2.2,6.74,5.37,5,9.63c-6.995,6.474,8.835,4.983-96.79,4.77
		C667.496,2388.655,670.167,2388.363,672.76,2384.77z"/>
	<path d="M676.75,2402.78c27.5-0.06,55-0.04,82.5-0.01c3.38,2.73,3.38,7.7,0,10.46c-27.5,0.03-55,0.05-82.5-0.01
		C673.36,2410.47,673.36,2405.5,676.75,2402.78z"/>
	<path d="M664.73,2416.76c33.93,0.03,67.87-0.12,101.79,0.07c2.8,2.22,5.41,4.83,7.64,7.65c0.17,3.65,0.23,7.35-0.05,11.03
		c-2.451,4.676,4.783,4.286-107.17,3.66c-2.06-2.57-4.66-4.62-6.76-7.11C658.11,2426.49,661.41,2421.06,664.73,2416.76z"/>
	<path d="M676.29,2445.27c29.15-0.02,58.29-0.03,87.44,0c0.01,3.13,0.01,6.29,0.01,9.46c-28.32,0.07-56.63-0.08-84.94,0.08
		c-0.88-0.9-1.75-1.76-2.61-2.59C676.24,2449.88,676.24,2447.55,676.29,2445.27z"/>
	<path d="M682.28,2458.73c25.11,0.02,50.22,0.06,75.33-0.03c0.186,15.578-7.071,13.181-65.39,12.46c-2.54-1.11-5.25-2.19-7.24-4.14
		C683.55,2464.45,681.85,2461.78,682.28,2458.73z"/>
	<path d="M692.38,2474.71c19.08,0.07,38.17,0.06,57.25,0c0.9,3.83-1,7.12-2.39,10.55
		C694.599,2485.195,692.987,2488.376,692.38,2474.71z"/>
	<path d="M696.3,2495.26c9.456-5.697,1.201-4.559,42.71-4.52c2.5-0.3,3.83,2.28,5.5,3.7c2.12,1.77,1.07,4.9,1.21,7.34
		c-11.298,14.755-18.197,34.48-18.49,35.48c-3.51-0.04-7.01-0.03-10.51-0.02c-0.011-0.01-10.804-26.016-20.21-34.76
		C695.95,2500.1,696.32,2497.64,696.3,2495.26z"/>
	<path d="M288.09,2565.37c1.74-0.54,2.35-0.04,1.84,1.5C288.18,2567.36,287.57,2566.86,288.09,2565.37z"/>
</g>
</svg>
